<?xml version="1.0" standalone="no"?>
<!DOCTYPE svg PUBLIC "-//W3C//DTD SVG 1.1//EN" "http://www.w3.org/Graphics/SVG/1.1/DTD/svg11.dtd" >
<svg xmlns="http://www.w3.org/2000/svg" xmlns:xlink="http://www.w3.org/1999/xlink" version="1.1">
<metadata>
Created by FontForge 20170731 at Thu Oct 28 06:47:17 2010
 By Aleksey,,,
Copyright (c) 2009 by Radim Pesko. All rights reserved.
</metadata>
<defs>
<font id="LarishNeueSemibold-Italic" horiz-adv-x="500" >
  <font-face 
    font-family="LarishNeueSemibold"
    font-weight="400"
    font-style="italic"
    font-stretch="normal"
    units-per-em="1000"
    panose-1="2 0 0 0 0 0 0 0 0 0"
    ascent="794"
    descent="-206"
    x-height="479"
    cap-height="728"
    bbox="-95.2051 -260 1101 1138"
    underline-thickness="50"
    underline-position="-200"
    unicode-range="U+0020-FB04"
  />
<missing-glyph horiz-adv-x="200" 
 />
    <glyph glyph-name="ff" unicode="ff" horiz-adv-x="576" 
d="M343 37l88 360q2 8 -5 27.5t-13 19.5h-89l-147 -455q-26 -90 -83.5 -146.5t-128.5 -56.5q-27 0 -44.5 19.5t-15.5 45.5q2 29 19.5 49t47.5 25h23q21 -5 35 -23.5t11 -42.5h9q17 6 32 22t18 33q5 28 -15.5 60t-11.5 64l121 361q3 8 -8 26.5t-17 18.5h-88v35h134l21 59
q37 102 99 165t142 63q28 0 46 -18t18 -43v-27q69 88 147 88q28 0 46 -17t18 -43q0 -30 -19.5 -51t-49.5 -27h-24q-21 5 -34 23t-8 40h-10q-11 -5 -24 -20.5t-16 -32.5q-5 -23 6 -61t4 -63l-9 -35h101v-35h-110l-112 -455q-19 -90 -79 -146.5t-133 -56.5q-27 0 -44.5 19.5
t-15.5 45.5q2 29 19.5 49t47.5 25h23q21 -5 35 -23.5t11 -42.5h9q17 6 32 22t18 33q5 29 -15 60t-12 63zM345 514l-11 -35h115l19 61q17 59 52 109q-19 -16 -46 -21h-24q-21 5 -34 23t-8 40h-10q-17 -2 -38.5 -21.5t-25.5 -37.5q-5 -23 7 -57.5t4 -60.5z" />
    <glyph glyph-name="fi" unicode="fi" horiz-adv-x="525" 
d="M379 692h-10q-17 -2 -38 -22t-25 -38q-5 -23 8 -58t5 -60l-10 -35h55q46 0 83 3.5t51 6.5l15 3l-65 -384q-2 -12 8 -24.5t20 -12.5q11 0 46 35l20 -26q-23 -27 -63 -58.5t-69 -32.5q-35 -1 -57.5 25t-20.5 62q1 23 14.5 97t28.5 147t15 75q2 12 -11 30.5t-24 18.5h-55
l-123 -455q-26 -90 -83.5 -146.5t-128.5 -56.5q-27 0 -44.5 19.5t-15.5 45.5q2 29 19.5 49t47.5 25h23q21 -5 35 -23.5t11 -42.5h9q17 6 32 22t18 33q5 28 -15.5 60t-11.5 64l102 370q2 8 -5 22t-13 14h-77v35h113l18 59q30 99 100 163.5t149 64.5q35 0 58 -22t23 -54
q0 -35 -22 -58.5t-57 -28.5h-27q-27 4 -45.5 31.5t-10.5 57.5z" />
    <glyph glyph-name="fl" unicode="fl" horiz-adv-x="536" 
d="M343 698q-54 0 -69 -60q-6 -24 13.5 -62t14.5 -62l-8 -35h107q31 176 32 178h-19q-8 0 -36 20.5t-35 20.5zM563 770l-115 -662q-2 -12 8 -24.5t20 -12.5q11 0 46 35l19 -26q-23 -27 -62.5 -58.5t-68.5 -32.5q-35 -1 -57.5 25t-22.5 62l66 368h-110l-108 -454
q-21 -90 -80.5 -147t-132.5 -57q-27 0 -44.5 19.5t-15.5 45.5q2 29 19.5 49t47.5 25h23q21 -5 35 -23.5t11 -42.5h9q17 6 32 22t18 33q5 29 -15 60t-12 63l86 360q2 8 -7 27.5t-16 19.5h-67v35h106l16 61q27 104 81.5 167t130.5 63q25 0 57 -2t55 -2t48 4z" />
    <glyph glyph-name="ffi" unicode="ffi" horiz-adv-x="779" 
d="M321 38l106 359q2 8 -7 27.5t-16 19.5h-78l-149 -455q-26 -90 -83.5 -146.5t-128.5 -56.5q-27 0 -44.5 19.5t-15.5 45.5q2 29 19.5 49t47.5 25h23q21 -5 35 -23.5t11 -42.5h9q17 6 32 22t18 33q5 28 -15.5 60t-11.5 64l122 359q2 8 -7 27.5t-16 19.5h-61v35h104l21 59
q37 102 99 165t142 63q28 0 46 -18t18 -43v-27q74 88 173 88q35 0 58 -22t23 -54q0 -35 -22 -58.5t-57 -28.5h-27q-27 4 -45.5 31.5t-10.5 57.5h-10q-17 -2 -38 -22t-25 -38q-5 -23 8 -58t5 -60l-10 -35h55q46 0 83 3.5t51 6.5l15 3l-65 -384q-2 -12 8 -24.5t20 -12.5
q11 0 46 35l20 -26q-23 -27 -63 -58.5t-69 -32.5q-35 -1 -57.5 25t-20.5 62q1 18 9.5 68.5t17.5 100.5t17.5 96t9.5 49q2 12 -11 33t-23 21h-53l-128 -455q-26 -90 -83.5 -146.5t-128.5 -56.5q-27 0 -44.5 19.5t-15.5 45.5q2 29 19.5 49t47.5 25h23q21 -5 35 -23.5t11 -42.5
h9q17 6 32 22t18 33q5 28 -15.5 60t-11.5 64zM520 649q-13 -13 -46 -21h-24q-21 5 -34 23t-8 40h-10q-17 -2 -38.5 -21.5t-25.5 -37.5q-5 -23 7 -57.5t4 -60.5l-11 -35h113l18 59q18 61 55 111z" />
    <glyph glyph-name="ffl" unicode="ffl" horiz-adv-x="800" 
d="M827 770l-114 -662q-2 -12 8 -24.5t20 -12.5q11 0 46 35l19 -26q-23 -27 -62.5 -58.5t-68.5 -32.5q-35 -1 -57.5 25t-22.5 62l66 368h-110l-108 -454q-21 -90 -80.5 -147t-132.5 -57q-27 0 -44.5 19.5t-15.5 45.5q2 29 19.5 49t47.5 25h23q21 -5 35 -23.5t11 -42.5h9
q17 6 32 22t18 33q5 29 -15 60t-12 63l86 360q2 8 -6.5 27.5t-14.5 19.5h-78l-148 -455q-26 -90 -83.5 -146.5t-128.5 -56.5q-27 0 -44.5 19.5t-15.5 45.5q2 29 19.5 49t47.5 25h23q21 -5 35 -23.5t11 -42.5h9q17 6 32 22t18 33q5 28 -15.5 60t-11.5 64l124 370q2 8 -5 22
t-13 14h-68v35h104l21 59q37 102 99 165t142 63q29 0 46.5 -16.5t18.5 -41.5q54 62 126 62q25 0 56.5 -2t54.5 -2t48 4zM698 657h-19q-8 0 -36 20.5t-35 20.5q-53 0 -69 -60q-6 -24 13.5 -62t14.5 -62l-8 -35h107zM448 479l15 61q15 67 48 115q-17 -18 -49 -27h-24
q-21 5 -32.5 23t-6.5 41h-10q-17 -2 -34 -20.5t-21 -39.5q-5 -23 7 -57.5t4 -60.5l-11 -35h114z" />
    <glyph glyph-name="f_b" unicode="fb" horiz-adv-x="804" 
d="M615 429q-44 0 -83 -35.5t-49 -92.5q-18 -83 -22 -136t19 -83t62 -30t74.5 35.5t51.5 91.5q22 75 23 137q2 53 -18 83t-58 30zM403 770q25 0 57 -2t55 -2t48 4l-59 -346q61 66 142 66q75 0 117.5 -46.5t42.5 -136.5q0 -74 -33.5 -146.5t-96 -121.5t-136.5 -49
q-42 0 -74.5 27.5t-47.5 57.5h-6l-81 -75h-9l74 444h-110l-108 -454q-21 -90 -80.5 -147t-132.5 -57q-27 0 -44.5 19.5t-15.5 45.5q2 29 19.5 49t47.5 25h23q21 -5 35 -23.5t11 -42.5h9q17 6 32 22t18 33q5 29 -15 60t-12 63l86 360q2 8 -6.5 27.5t-14.5 19.5h-72v35h109
l17 61q29 104 82.5 167t128.5 63zM275 638q-6 -24 13 -62t14 -62l-8 -35h107l32 178h-19q-8 0 -36 20.5t-35 20.5q-53 0 -68 -60z" />
    <glyph glyph-name="f_h" unicode="fh" horiz-adv-x="795" 
d="M563 770l-69 -403q118 123 183 123q56 0 86 -44.5t13 -97.5q-53 -163 -75 -242q-3 -12 7 -23.5t21 -11.5q7 0 23.5 13.5t25.5 23.5l19 -26q-24 -33 -60 -62t-66 -29q-42 0 -68 32t-15 78q18 75 75 245q5 15 -13 36.5t-33 21.5q-24 0 -76.5 -45.5t-54.5 -58.5l-53 -300
h-115l78 444h-110l-108 -454q-21 -90 -80.5 -147t-132.5 -57q-27 0 -44.5 19.5t-15.5 45.5q2 29 19.5 49t47.5 25h23q21 -5 35 -23.5t11 -42.5h9q17 6 32 22t18 33q5 29 -15 60t-12 63l86 360q2 8 -6.5 27.5t-14.5 19.5h-69v35h106l17 61q29 104 82.5 167t128.5 63
q25 0 57 -2t55 -2t48 4zM294 479h107l32 178h-19q-8 0 -36 20.5t-35 20.5q-53 0 -68 -60q-6 -24 13 -62t14 -62z" />
    <glyph glyph-name="g_f" unicode="gf" horiz-adv-x="836" 
d="M633 37l65 360q2 10 -10 28.5t-21 18.5h-64v35h111l17 61q28 95 85.5 160.5t127.5 65.5q28 0 46 -17t18 -43q0 -30 -19.5 -51t-49.5 -27h-24q-21 5 -34 23t-8 40h-10q-11 -5 -24 -20.5t-16 -32.5q-5 -24 7 -61.5t7 -62.5l-6 -35h93v-35h-100l-82 -455q-20 -89 -80.5 -146
t-133.5 -57q-27 0 -44.5 19.5t-15.5 45.5q2 29 19.5 49t47.5 25h23q21 -5 35 -23.5t11 -42.5h9q17 6 30.5 21.5t16.5 33.5q5 29 -15 60t-12 63zM133 -40q-3 -15 13 -24t45 -12t68 -3.5t83 0.5q37 0 37 -26q0 -64 -154 -68q-36 0 -99 29t-59 53q3 18 24.5 32t41.5 19z
M476 305q2 15 27.5 47.5t37.5 32.5h32l-36 148q-32 5 -55 -30.5t-32.5 -77t-12.5 -84.5h-6q5 64 -31 106.5t-98 42.5q-93 0 -155 -57t-62 -148q0 -53 31.5 -88.5t63.5 -44.5q-62 -13 -104.5 -40t-42.5 -65q0 -26 24 -45t52 -21q-121 -32 -121 -95q0 -47 65 -73.5t165 -26.5
q104 0 175.5 41t71.5 114q0 38 -29.5 61t-76.5 22q-114 -2 -172 5q-22 2 -35.5 13t-13.5 28q0 41 54 51h63q86 0 147.5 54.5t73.5 129.5zM256 178q-36 0 -55 28t-16 69q3 35 13 77q10 44 37.5 68t65.5 24q34 0 54 -28t17 -72q-3 -35 -14 -78q-11 -40 -37.5 -64t-64.5 -24z
" />
    <glyph glyph-name="f_k" unicode="fk" horiz-adv-x="761" 
d="M433 657h-19q-8 0 -36 20.5t-35 20.5q-53 0 -68 -60q-6 -24 13 -62t14 -62l-8 -35h107zM563 770l-106 -556h7l165 164q8 8 -6 37t-27 29h-50l6 35h276v-35h-20q-12 0 -61.5 -31.5t-63.5 -44.5l-75 -69l109 -215q19 -38 41 -48v-36l-115 -12l-39 47l-84 180l-60 -55
l-26 -160h-117l78 444h-109l-108 -454q-21 -90 -80.5 -147t-132.5 -57q-27 0 -44.5 19.5t-15.5 45.5q2 29 19.5 49t47.5 25h23q21 -5 35 -23.5t11 -42.5h9q17 6 32 22t18 33q5 29 -15 60t-12 63l86 360q2 8 -9 27.5t-17 19.5h-63v35h105l17 61q29 104 82.5 167t128.5 63
q25 0 57 -2t55 -2t48 4z" />
    <glyph glyph-name="f_f_k" unicode="ffk" horiz-adv-x="1034" 
d="M836 770l-106 -556h7l165 164q8 8 -6 37t-27 29h-50l6 35h276v-35h-20q-12 0 -61.5 -31.5t-63.5 -44.5l-75 -69l109 -215q19 -38 41 -48v-36l-115 -12l-39 47l-84 180l-60 -55l-26 -160h-117l78 444h-109l-108 -454q-21 -90 -80.5 -147t-132.5 -57q-27 0 -44.5 19.5
t-15.5 45.5q2 29 19.5 49t47.5 25h23q21 -5 35 -23.5t11 -42.5h9q17 6 32 22t18 33q5 29 -15 60t-12 63l86 360q2 8 -9 27.5t-17 19.5h-82l-147 -455q-26 -90 -83.5 -146.5t-128.5 -56.5q-27 0 -44.5 19.5t-15.5 45.5q2 29 19.5 49t47.5 25h23q21 -5 35 -23.5t11 -42.5h9
q17 6 32 22t18 33q5 28 -15.5 60t-11.5 64l121 361q3 8 -8 26.5t-17 18.5h-88v35h134l21 59q37 102 99 165t142 63q28 0 46 -18t18 -43v-6q56 71 135 71q25 0 57 -2t55 -2t48 4zM706 657h-19q-8 0 -36 20.5t-35 20.5q-53 0 -68 -60q-6 -24 13 -62t14 -62l-8 -35h107z
M345 514l-11 -35h114l17 61q16 57 37 97q-18 -8 -28 -9h-24q-21 5 -34 23t-8 40h-10q-17 -2 -38.5 -21.5t-25.5 -37.5q-5 -23 7 -57.5t4 -60.5z" />
    <glyph glyph-name=".notdef" horiz-adv-x="200" 
 />
    <glyph glyph-name=".null" horiz-adv-x="0" 
 />
    <glyph glyph-name="nonmarkingreturn" horiz-adv-x="333" 
 />
    <glyph glyph-name="space" unicode=" " horiz-adv-x="280" 
 />
    <glyph glyph-name="exclam" unicode="!" horiz-adv-x="259" 
d="M147 206v454q0 36 26 58.5t63 22.5q34 0 55 -22.5t17 -57.5l-137 -455h-24zM66 79q0 -32 23.5 -55.5t57.5 -23.5t57.5 23.5t23.5 55.5t-23.5 55.5t-57.5 23.5t-57.5 -23.5t-23.5 -55.5z" />
    <glyph glyph-name="quotedbl" unicode="&#x22;" horiz-adv-x="350" 
d="M256 701l-15 -96l-87 -239h-27v298q4 29 27 49t51 20q39 0 51 -32zM290 701l-14 -96l1 -239h27l104 298q4 29 -12 49t-44 20q-38 0 -62 -32z" />
    <glyph glyph-name="numbersign" unicode="#" horiz-adv-x="674" 
d="M60 224h130l56 255h-119v64h133l40 185h72l-40 -185h168l40 185h72l-40 -185h123v-64h-137l-56 -255h126v-64h-140l-34 -160h-72l34 160h-168l-34 -160h-72l34 160h-116v64zM318 479l-56 -255h168l56 255h-168z" />
    <glyph glyph-name="dollar" unicode="$" horiz-adv-x="548" 
d="M386 801l-12 -73h40l12 73h42l-13 -74q45 -18 54 -18q30 0 46 19h32l-30 -238h-34q3 20 -19.5 89t-56.5 94l-42 -255q134 -66 134 -193q0 -91 -56 -153t-149 -72l-17 -103h-42l16 103h-39l-17 -103h-42l18 105q-37 21 -58 21q-31 0 -52 -23h-32l29 260h36
q-3 -50 17 -118.5t69 -90.5l41 263q-121 79 -121 196q0 82 52.5 142.5t140.5 76.5l11 72h42zM375 251l-33 -203q42 3 72 31t30 71q0 62 -69 101zM335 271l-35 21l-40 -247h38zM292 484l32 199q-36 -7 -64 -35t-28 -66q0 -28 17 -55t43 -43zM330 460l36 -21l39 244h-38z" />
    <glyph glyph-name="percent" unicode="%" horiz-adv-x="721" 
d="M651 728h64l-567 -728h-66zM245 434q29 0 52 23.5t34 63.5q10 38 15 87q4 41 -9.5 66.5t-40.5 25.5q-65 0 -87 -87q-11 -45 -14 -86q-5 -93 50 -93zM241 388q-54 0 -90 38.5t-36 103.5q0 86 52 149t133 63q58 0 91.5 -37t33.5 -101q0 -84 -53 -150t-131 -66zM511 34
q29 0 52 23.5t34 63.5q10 38 15 87q4 41 -9.5 66.5t-40.5 25.5q-65 0 -87 -87q-11 -45 -14 -86q-5 -93 50 -93zM507 -12q-54 0 -90 38.5t-36 103.5q0 86 52 149t133 63q58 0 91.5 -37t33.5 -101q0 -84 -53 -150t-131 -66z" />
    <glyph glyph-name="ampersand" unicode="&#x26;" horiz-adv-x="714" 
d="M625 339q26 41 3.5 75t-68.5 26v39h194q2 -29 -11.5 -61.5t-30 -54t-49.5 -61.5q-57 -69 -138 -134l31 -66q17 -39 51 -65h39v-37h-47q-56 0 -104 21.5t-74 57.5q-40 -37 -92 -62.5t-101 -25.5q-66 0 -107.5 42.5t-41.5 108.5q0 138 205 246l-16 34q-25 52 -25 114
q0 93 57.5 154.5t141.5 61.5q67 0 107.5 -35t40.5 -98q0 -59 -48 -112.5t-121 -95.5l86 -203q77 67 118 131zM398 120l-95 229q-122 -72 -121 -175q1 -46 29 -72.5t69 -26.5q54 0 118 45zM377 508l26 -59q98 75 98 171q0 35 -22 58.5t-57 23.5q-48 0 -83.5 -34.5
t-35.5 -79.5q0 -19 9 -29.5t20.5 -14t24.5 -12.5t20 -24z" />
    <glyph glyph-name="quotesingle" unicode="'" horiz-adv-x="213" 
d="M130 364v299q5 30 26.5 50t52.5 20q30 0 48 -21t13 -50l-114 -298h-26z" />
    <glyph glyph-name="parenleft" unicode="(" horiz-adv-x="335" 
d="M204 281q-10 -62 -13.5 -115.5t-4 -91.5t8 -77t13.5 -59.5t21 -51t22.5 -40t25.5 -37.5q5 -8 8 -12l-38 -34q-20 19 -43 50.5t-50 81.5t-43.5 108t-24.5 130.5t7 149.5q15 91 57 180.5t94 155t96.5 109.5t79.5 69l27 -36q-47 -45 -75 -77t-64.5 -88.5t-61.5 -134
t-42 -180.5z" />
    <glyph glyph-name="parenright" unicode=")" horiz-adv-x="335" 
d="M204 279q10 62 13.5 115.5t4 91.5t-8 77t-13.5 59.5t-21 51t-22.5 40t-25.5 37.5q-5 8 -8 12l38 34q20 -19 43 -50.5t50 -81.5t43.5 -108t24.5 -130.5t-7 -149.5q-15 -91 -57 -180.5t-94 -155t-96.5 -109.5t-79.5 -69l-27 36q47 45 75 77t64.5 88.5t61.5 134t42 180.5z
" />
    <glyph glyph-name="asterisk" unicode="*" horiz-adv-x="476" 
d="M326 355l-41 40q3 19 15.5 72.5t15.5 76.5q-13 -18 -39.5 -62.5t-41.5 -63.5h-56v50q16 13 65.5 44.5t66.5 44.5q-23 -3 -77 -15t-77 -15l-36 36l36 36q24 -2 79 -14.5t75 -15.5q-20 16 -67.5 46t-64.5 43v50h56q15 -17 43.5 -64t37.5 -60q-3 18 -15 73t-14 74l39 39
l39 -39q-2 -20 -14.5 -73.5t-15.5 -73.5q14 19 40 61.5t42 62.5h56v-50q-18 -14 -65.5 -44t-67.5 -45q23 3 77.5 15t77.5 15l36 -36l-36 -36q-25 2 -80 14.5t-75 15.5q17 -13 65.5 -43t67.5 -46v-50h-56q-15 17 -43 63.5t-40 62.5q3 -23 15.5 -76.5t15.5 -72.5z" />
    <glyph glyph-name="plus" unicode="+" horiz-adv-x="636" 
d="M405 558v-232h231v-75h-231v-238h-81v238h-232v75h232v232h81z" />
    <glyph glyph-name="comma" unicode="," horiz-adv-x="262" 
d="M226 75l-4 -27q-7 -50 -31.5 -85.5t-57.5 -51.5t-66.5 -21.5t-66.5 -2.5v43q56 -7 100 11.5t53 58.5h-28q-24 7 -41 30.5t-14 51.5q4 35 27.5 55.5t57.5 20.5t55 -25t16 -58z" />
    <glyph glyph-name="hyphen" unicode="-" horiz-adv-x="309" 
d="M80 330h264l-20 -115h-265z" />
    <glyph glyph-name="period" unicode="." horiz-adv-x="255" 
d="M59 79q0 32 23.5 55.5t57.5 23.5t57.5 -23.5t23.5 -55.5t-23.5 -55.5t-57.5 -23.5t-57.5 23.5t-23.5 55.5z" />
    <glyph glyph-name="slash" unicode="/" horiz-adv-x="378" 
d="M378 806l55 -20l-377 -1001l-56 21z" />
    <glyph glyph-name="zero" unicode="0" horiz-adv-x="567" 
d="M406 742q93 0 145.5 -80.5t52.5 -198.5q0 -79 -22 -161.5t-62 -153t-103 -115.5t-137 -45q-97 0 -147 82t-50 208q0 108 37.5 212.5t113.5 178t172 73.5zM444 254q29 120 42 255q8 85 -12.5 131t-69.5 46q-114 0 -162 -201q-32 -132 -44 -255q-8 -88 13.5 -135.5
t70.5 -47.5q112 0 162 207z" />
    <glyph glyph-name="one" unicode="1" horiz-adv-x="435" 
d="M415 743l-121 -646q-2 -13 13.5 -36.5t25.5 -23.5h40v-37h-310v37h43q9 0 33.5 23.5t27.5 36.5l83 425q2 12 -11 30t-22 18h-54v37q63 12 104 36.5t74 69.5z" />
    <glyph glyph-name="two" unicode="2" horiz-adv-x="485" 
d="M130 111l314 2v-113h-423v34q19 63 102 155.5t187 176.5q104 83 104 170q0 49 -30.5 79.5t-77.5 30.5q-37 0 -73 -22.5t-58 -46.5t-51 -64l-41 32q30 44 49 68t54.5 59.5t77 52.5t89.5 17q78 0 130.5 -51t52.5 -130q0 -136 -185 -256q-77 -50 -142.5 -104.5t-78.5 -89.5z
" />
    <glyph glyph-name="three" unicode="3" horiz-adv-x="507" 
d="M181 373v39l113 42q86 55 86 125q0 34 -22 55t-57 21q-36 0 -82 -22.5t-83 -53.5l-27 38q55 48 124 86t130 38q58 0 95.5 -32t37.5 -87q0 -58 -41 -105.5t-106 -77.5q60 2 108 -31.5t48 -101.5q0 -75 -46.5 -141t-118.5 -108.5t-152.5 -67.5t-154.5 -28v54q73 3 149 34.5
t133.5 95t57.5 142.5q0 68 -54 90.5t-138 -4.5z" />
    <glyph glyph-name="four" unicode="4" horiz-adv-x="540" 
d="M312 251l54 306h-5q-98 -136 -242 -306h193zM284 97l15 83h-265v49q204 238 357 455l129 59l-82 -492h94v-71h-106l-14 -83q-2 -13 13.5 -36.5t25.5 -23.5h16v-37h-298v37h53q10 0 34.5 23.5t27.5 36.5z" />
    <glyph glyph-name="five" unicode="5" horiz-adv-x="503" 
d="M456 742l35 -112q-3 -1 -14.5 -3t-80 -5t-176.5 -3l-57 -188q102 94 180 94q77 0 125 -44t48 -121q0 -78 -48.5 -153.5t-122 -128t-161 -85t-165.5 -32.5v54q84 0 170 40t145.5 112t59.5 153q0 52 -29.5 82t-82.5 30q-30 0 -61 -17.5t-82 -55.5l-39 23l95 346h47
q210 0 214 14z" />
    <glyph glyph-name="six" unicode="6" horiz-adv-x="551" 
d="M551 756v-55q-118 4 -217 -89.5t-109 -212.5q66 91 173 91q71 0 115 -52.5t44 -142.5q0 -76 -33 -146t-94.5 -115.5t-136.5 -45.5q-93 0 -144.5 75t-51.5 194q0 94 34 184.5t93 160.5t145 112.5t182 41.5zM218 232q0 -75 27 -126.5t71 -51.5q60 0 92 59.5t32 135.5
q0 71 -27 115.5t-72 44.5q-59 0 -91 -52.5t-32 -124.5z" />
    <glyph glyph-name="seven" unicode="7" horiz-adv-x="459" 
d="M188 0h-153q101 176 202 326.5t143.5 205t71.5 87.5q-21 -5 -272 -5q-10 0 -33 -19.5t-28 -28.5h-41l74 162h396v-37l-50 -76q-52 -74 -171 -312t-139 -303z" />
    <glyph glyph-name="eight" unicode="8" horiz-adv-x="542" 
d="M439 177q0 15 -7 29t-14 23.5t-24 21.5t-24 16.5t-28 16t-23 12.5q-38 21 -40 34q-138 -68 -138 -173q0 -50 37 -80t92 -30q69 0 119 36t50 94zM379 428q43 27 74 70t31 86q-1 46 -31.5 76t-75.5 30q-49 0 -88 -33.5t-39 -75.5q3 -63 96 -123q2 -2 9.5 -6t11.5 -7t8 -7.5
t4 -9.5zM233 364q-96 77 -96 165q0 92 80.5 152.5t180.5 60.5q71 0 124 -37.5t53 -102.5q0 -64 -46 -117.5t-106 -81.5q60 -37 92 -73t32 -93q0 -68 -43 -126.5t-108.5 -90.5t-133.5 -32q-93 0 -155.5 45.5t-62.5 122.5q0 70 56 122t133 86z" />
    <glyph glyph-name="nine" unicode="9" horiz-adv-x="542" 
d="M92 -26v55q78 -2 154.5 41.5t127 115t59.5 148.5q-65 -90 -173 -90q-71 0 -115 53.5t-44 140.5q0 118 75.5 211t188.5 93q93 0 144.5 -75t51.5 -194q0 -126 -61 -241t-170.5 -187t-237.5 -71zM439 501q0 75 -26.5 125t-70.5 50q-60 0 -92 -58t-32 -134q0 -71 27 -115
t72 -44q58 0 90 52t32 124z" />
    <glyph glyph-name="colon" unicode=":" horiz-adv-x="245" 
d="M79 78q0 26 18.5 44t44.5 18t44.5 -18t18.5 -44t-18.5 -44t-44.5 -18t-44.5 18t-18.5 44zM114 395q0 32 23.5 55.5t57.5 23.5t57.5 -23.5t23.5 -55.5t-23.5 -55.5t-57.5 -23.5t-57.5 23.5t-23.5 55.5z" />
    <glyph glyph-name="semicolon" unicode=";" horiz-adv-x="260" 
d="M130 390q0 26 18.5 44t44.5 18t44.5 -18t18.5 -44t-18.5 -44t-44.5 -18t-44.5 18t-18.5 44zM220 75l-4 -27q-9 -50 -33.5 -85t-57 -51.5t-65.5 -22t-66 -2.5v43q56 -7 99 11.5t52 58.5h-27q-24 7 -40.5 30.5t-13.5 51.5q4 35 27.5 55.5t57.5 20.5t55 -25t16 -58z" />
    <glyph glyph-name="less" unicode="&#x3c;" 
d="M121 299l297 -207v-92l-388 274v51l483 273v-82z" />
    <glyph glyph-name="equal" unicode="=" horiz-adv-x="640" 
d="M88 414h544v-77h-544v77zM88 242h544v-77h-544v77z" />
    <glyph glyph-name="greater" unicode="&#x3e;" 
d="M441 299l-297 207v92l388 -274v-51l-483 -273v82z" />
    <glyph glyph-name="question" unicode="?" horiz-adv-x="363" 
d="M126 285q0 34 19 69t45.5 63.5t53.5 57t46 60.5t19 62q0 29 -17.5 46.5t-46.5 17.5q-30 0 -49.5 -20t-19.5 -50v-112h-48v113q0 71 47.5 110.5t117.5 39.5q56 0 93 -34.5t37 -89.5q0 -41 -22.5 -79.5t-54.5 -68.5t-63.5 -58t-54 -60t-22.5 -64q0 -12 8.5 -20t21.5 -8
t24.5 9.5t13.5 24.5l19 88h40l-19 -92q-9 -42 -38 -65t-68 -23q-36 0 -59 23t-23 60zM119 62q0 -26 18.5 -44t44.5 -18t44.5 18t18.5 44t-18.5 44t-44.5 18t-44.5 -18t-18.5 -44z" />
    <glyph glyph-name="at" unicode="@" horiz-adv-x="789" 
d="M502 92h-6q-20 -42 -57 -67.5t-77 -25.5q-61 0 -102.5 43.5t-41.5 113.5q0 116 65 210t170 94q33 0 59.5 -19.5t40.5 -49.5l87 62h9l-77 -352q-4 -18 3.5 -29.5t21.5 -11.5q52 0 92 81.5t40 183.5q0 115 -64 184t-173 69q-154 0 -258.5 -124.5t-104.5 -303.5
q0 -119 71.5 -190t194.5 -71h107v-56h-108q-144 0 -235 87t-91 230q0 122 51.5 231.5t150.5 179.5t223 70q135 0 214 -86t79 -220q0 -132 -62.5 -228.5t-154.5 -96.5q-35 0 -53.5 25.5t-13.5 66.5zM378 55q35 0 62.5 32t43.5 85q19 65 25 121q6 53 -8 87.5t-48 34.5
q-69 0 -109 -114q-20 -56 -26 -117q-6 -56 8.5 -92.5t51.5 -36.5z" />
    <glyph glyph-name="A" unicode="A" horiz-adv-x="682" 
d="M458 102l-17 109h-212l-55 -108q0 -14 12.5 -40t21.5 -26h40v-37h-228v37h13q9 1 41 26.5t43 39.5l302 597l65 43l124 -641q11 -18 30.5 -41.5t27.5 -23.5h16v-37h-322v37h38q12 1 36 27t24 38zM388 521h-5l-131 -260h181z" />
    <glyph glyph-name="B" unicode="B" horiz-adv-x="650" 
d="M319 404h82q40 0 75 28t46 82q5 22 8 50q6 51 -23 84.5t-71 33.5h-40q-9 0 -22 -12.5t-15 -21.5zM568 411l-68 -19q18 -1 38 -6t41.5 -16.5t38.5 -28.5t28 -43.5t11 -58.5q0 -79 -51 -135t-123.5 -80t-155.5 -24h-282v37h18q10 0 34 24t26 36l89 535q2 11 -14.5 35
t-25.5 24h-44v37h315q100 0 161 -37t61 -115q0 -52 -25 -95t-72 -70zM311 357l-46 -274q-1 -8 8.5 -20.5t16.5 -12.5h49q56 0 101 35.5t60 93.5q6 24 9 56q6 57 -29.5 89.5t-84.5 32.5h-84z" />
    <glyph glyph-name="C" unicode="C" horiz-adv-x="689" 
d="M487 692q-72 0 -128.5 -55t-81.5 -175q-19 -82 -30 -185q-10 -94 36 -154t129 -60q138 0 233 127h57q-51 -87 -134 -143.5t-188 -58.5q-135 -3 -207.5 80.5t-72.5 233.5q0 103 50 203.5t142.5 168.5t201.5 68q38 0 86.5 -17t72.5 -17q29 0 44 20h37l-61 -252h-39
q0 26 -7 59t-22 70t-46 62t-72 25z" />
    <glyph glyph-name="D" unicode="D" horiz-adv-x="683" 
d="M548 280q17 72 27 169q24 232 -148 232h-21q-10 0 -29 -19.5t-20 -30.5l-90 -533q-2 -11 12.5 -29.5t22.5 -18.5h22q171 0 224 230zM128 728h303q123 0 202.5 -81t79.5 -215q0 -177 -117 -304.5t-285 -127.5h-266v37h18q10 0 33.5 22.5t25.5 35.5l90 537q2 11 -14.5 35
t-25.5 24h-44v37z" />
    <glyph glyph-name="E" unicode="E" horiz-adv-x="658" 
d="M693 728l-34 -199h-34q2 15 -36.5 83t-49.5 68h-159q-3 0 -10.5 -8t-8.5 -12l-43 -263h73q12 0 48.5 32t36.5 43v18h38v-239h-38v21q0 12 -36.5 44t-48.5 32h-82l-47 -276q0 -5 4.5 -13.5t8.5 -8.5h186q23 0 75.5 83.5t52.5 104.5h36v-238h-580v37h20q10 0 32.5 22.5
t24.5 34.5l90 537q2 13 -14 36.5t-26 23.5h-44v37h565z" />
    <glyph glyph-name="F" unicode="F" horiz-adv-x="616" 
d="M686 728l-44 -208h-34q3 21 -33 90.5t-51 69.5h-144q-4 0 -11 -7.5t-8 -12.5l-45 -274h96q10 0 49 31.5t39 42.5v30h39v-269h-39v40q0 11 -38 43.5t-49 32.5h-106l-40 -240q-2 -12 12.5 -36t24.5 -24h78v-37h-337v37h18q9 0 33.5 24t26.5 36l89 534q2 13 -14.5 36.5
t-25.5 23.5h-44v37h558z" />
    <glyph glyph-name="G" unicode="G" horiz-adv-x="711" 
d="M510 742q46 0 95 -17t70 -17q29 0 44 20h37l-60 -252h-40q3 41 -9.5 88.5t-49.5 87.5t-89 40q-79 0 -138 -55t-89 -173q-20 -79 -33 -192q-11 -99 25.5 -158.5t109.5 -59.5h11q34 0 71 22.5t52 50.5l-1 105q0 11 -19.5 35t-27.5 24h-87v39h373v-39h-61q-9 0 -29.5 -23.5
t-20.5 -34.5l1 -233h-12l-72 84q-76 -96 -185 -96q-129 0 -202.5 84.5t-73.5 222.5q0 64 18.5 128.5t54.5 121.5t85 101t114.5 70t137.5 26z" />
    <glyph glyph-name="H" unicode="H" horiz-adv-x="722" 
d="M316 396h248l40 235q1 10 -17.5 35t-26.5 25h-37v37h299v-37h-19q-8 0 -33 -25t-26 -35l-89 -534q-2 -12 13 -36t25 -24h38v-37h-321v37h44q9 0 33.5 24t26.5 36l41 244h-248l-41 -244q-2 -12 14 -36t25 -24h40v-37h-300v37h19q9 0 33 24t26 36l89 534q1 10 -16.5 35
t-23.5 25h-44v37h324v-37h-37q-8 0 -33 -25t-26 -35z" />
    <glyph glyph-name="I" unicode="I" horiz-adv-x="352" 
d="M361 0h-316v37h28q9 0 33.5 24t26.5 36l89 534q2 11 -14.5 35.5t-26.5 24.5h-50v37h321v-37h-28q-10 0 -34.5 -24.5t-26.5 -35.5l-90 -534q-2 -12 13 -36t25 -24h50v-37z" />
    <glyph glyph-name="J" unicode="J" horiz-adv-x="399" 
d="M103 -150q-39 0 -61 24.5t-22 66.5v59h52v-59q0 -16 9 -25.5t25 -9.5q24 0 40 17t19 45l77 662q1 11 -16.5 36t-25.5 25h-54v37h313v-37h-19q-10 0 -31.5 -24.5t-23.5 -36.5l-62 -522q-18 -99 -81.5 -178.5t-138.5 -79.5z" />
    <glyph glyph-name="K" unicode="K" horiz-adv-x="711" 
d="M377 329l-87 -91l-24 -141q-2 -12 13 -36t24 -24h34v-37h-292v37h19q10 0 33.5 23.5t25.5 36.5l89 534q2 12 -14.5 36t-25.5 24h-44v37h328v-37h-38q-10 0 -33.5 -24.5t-25.5 -35.5l-65 -310h7l289 301q8 9 -7 39t-25 30h-41v37h269v-37h-17q-9 0 -57 -32t-56 -41
l-179 -186l154 -330q6 -14 29 -39.5t32 -25.5h18v-37h-314v37h37q11 0 29 25.5t14 35.5z" />
    <glyph glyph-name="L" unicode="L" horiz-adv-x="603" 
d="M128 728h353v-37h-63q-9 0 -34 -24t-27 -36l-91 -543q-1 -9 8 -21.5t16 -12.5h131q25 0 72.5 90t50.5 120h39v-264h-538v37h20q9 0 32.5 23.5t24.5 35.5l90 535q2 12 -15 36t-26 24h-43v37z" />
    <glyph glyph-name="M" unicode="M" horiz-adv-x="877" 
d="M394 -27l-134 608h-5l-79 -484q-1 -10 15 -35t24 -25h23v-37h-193v37h19q10 0 33 24t25 36l90 534q1 11 -16 35.5t-25 24.5h-44v37h250l99 -503h6l287 503h208v-37h-18q-8 0 -32.5 -25t-26.5 -35l-89 -534q-2 -10 13.5 -35t23.5 -25h21v-37h-305v37h43q8 0 33 25t26 35
l85 484h-6z" />
    <glyph glyph-name="N" unicode="N" horiz-adv-x="708" 
d="M723 623l-107 -642l-339 617h-5l-78 -485q-2 -12 20.5 -44t31.5 -32h46v-37h-247v37h19q9 0 41.5 32t33.5 44l87 512q1 11 -16 38.5t-24 27.5h-41v37h223l241 -449h5l56 344q2 11 -16.5 39.5t-26.5 28.5h-44v37h225v-37h-19q-9 0 -36.5 -28t-29.5 -40z" />
    <glyph glyph-name="O" unicode="O" horiz-adv-x="762" 
d="M512 742q133 -1 213 -91t75 -225q-4 -83 -37.5 -162.5t-86.5 -140.5t-129 -98t-160 -37q-132 0 -210 87.5t-76 225.5q0 110 55.5 212t151 165.5t204.5 63.5zM504 689q-78 0 -140.5 -62.5t-85.5 -159.5q-26 -111 -37 -218q-10 -98 30.5 -150t124.5 -52q76 0 138.5 59.5
t87.5 156.5q27 104 36 218q8 99 -32 153.5t-122 54.5z" />
    <glyph glyph-name="P" unicode="P" horiz-adv-x="607" 
d="M433 683h-39q-8 0 -21 -12.5t-15 -21.5l-53 -311h46q56 0 107 34t64 87q12 52 15 91q4 58 -25.5 95.5t-78.5 37.5zM297 286l-31 -190q-2 -11 14 -35t25 -24h44v-37h-304v37h18q9 0 33.5 23.5t25.5 35.5l89 536q2 11 -14.5 35t-26.5 24h-42v37h316q100 0 164 -47t64 -132
q0 -116 -99 -193t-228 -72z" />
    <glyph glyph-name="Q" unicode="Q" horiz-adv-x="757" 
d="M790 432q0 -139 -80.5 -245.5t-209.5 -164.5v-4l103 -18l257 -196v-10h-163l-231 169q-34 26 -85 25q-129 -4 -205 86t-76 229q0 111 54 212t149 164t205 63q131 0 206.5 -85.5t75.5 -224.5zM651 481q8 99 -31.5 153.5t-121.5 54.5q-73 0 -137 -63t-86 -158
q-27 -116 -36 -218q-8 -99 30 -150t121 -51q72 0 134.5 60.5t87.5 154.5q30 111 39 217z" />
    <glyph glyph-name="R" unicode="R" horiz-adv-x="676" 
d="M421 265q-9 29 -23 44.5t-29 15.5h-64l-38 -228q-2 -11 14 -35.5t26 -24.5h45v-37h-307v37h20q8 0 32 24.5t26 35.5l89 535q2 11 -14.5 35t-25.5 24h-44v37h317q103 0 166.5 -41.5t63.5 -124.5q0 -84 -65.5 -142.5t-161.5 -69.5l100 -18q66 -176 127 -285q6 -10 21 -10
v-37l-147 -12l-34 37q-55 114 -94 240zM360 649l-47 -273h68q43 6 84 35t55 79q8 30 12 76q4 53 -24.5 85t-71.5 32h-40q-9 0 -21.5 -12.5t-14.5 -21.5z" />
    <glyph glyph-name="S" unicode="S" horiz-adv-x="578" 
d="M323 44q62 0 100 29t38 83q0 15 -4.5 28.5t-9 24t-16.5 22t-19 18t-24 17t-23 14t-25.5 14t-23.5 12.5q-172 93 -172 216q0 97 68 158t173 61q31 0 79 -15t64 -15q33 0 48 17h32l-50 -206h-35q4 40 -39 106t-99 66t-90.5 -29t-34.5 -77q0 -27 11 -50t34 -42t39 -29
t46 -26q46 -25 71 -41t56.5 -43.5t46 -60.5t14.5 -74q0 -105 -72 -169t-184 -64q-30 0 -77.5 16t-70.5 16q-28 0 -51 -21h-33v238h37q-4 -43 64 -118.5t132 -75.5z" />
    <glyph glyph-name="T" unicode="T" horiz-adv-x="664" 
d="M588 680h-76l-97 -583q-2 -11 13 -35.5t25 -24.5h51v-37h-345v37h51q9 0 33.5 24.5t26.5 35.5l97 583h-76q-20 0 -88.5 -84.5t-70.5 -105.5h-37q36 128 57 252h34q15 -14 111 -14h298q94 0 115 14h34q-9 -55 -15 -118t-8 -98l-2 -36h-34q0 24 -40.5 107t-56.5 83z" />
    <glyph glyph-name="U" unicode="U" horiz-adv-x="709" 
d="M722 614l-48 -365q-16 -121 -99 -191t-201 -70q-110 0 -177 82.5t-45 202.5l65 354q1 8 -16.5 36t-22.5 28h-43v37h309v-37h-23q-7 0 -33 -28t-28 -36l-67 -367q-16 -86 22.5 -138.5t112.5 -51.5q77 1 130 51.5t63 125.5l48 367q1 10 -20 43.5t-28 33.5h-46v37h234v-37
h-17q-7 0 -38 -33.5t-32 -43.5z" />
    <glyph glyph-name="V" unicode="V" horiz-adv-x="670" 
d="M350 613l70 -405h4l197 404q4 14 -12.5 46.5t-26.5 32.5h-45v37h248v-37h-16q-8 0 -43 -31.5t-48 -48.5l-294 -583l-62 -38l-127 622q-9 19 -27.5 49t-26.5 30h-16v37h329v-37h-44q-11 0 -34.5 -31t-25.5 -47z" />
    <glyph glyph-name="W" unicode="W" horiz-adv-x="937" 
d="M557 522l-210 -493l-62 -39l-90 616q-2 14 -25.5 49.5t-31.5 35.5h-13v37h324v-37h-47q-9 0 -33.5 -34t-27.5 -49l40 -371h3l157 373l128 132l66 -504h4l150 370q2 14 -13.5 48.5t-23.5 34.5h-48v37h248v-37h-12q-9 0 -48.5 -35.5t-46.5 -48.5l-253 -578l-62 -39l-68 532
h-5z" />
    <glyph glyph-name="X" unicode="X" horiz-adv-x="694" 
d="M146 119l206 228l-125 264q-5 12 -32.5 46t-36.5 34h-14v37h335v-37h-39q-7 0 -27 -31.5t-22 -44.5l65 -149h5l132 149q2 14 -9 45t-19 31h-41v37h260v-37h-13q-8 0 -49 -29t-58 -48l-180 -199l140 -296q8 -17 30.5 -49.5t31.5 -32.5h14v-37h-343v37h48q10 0 32 31.5
t22 46.5l-79 180h-5l-157 -179q-3 -14 9 -46.5t22 -32.5h44v-37h-263v37h18q8 0 45.5 32t52.5 50z" />
    <glyph glyph-name="Y" unicode="Y" horiz-adv-x="641" 
d="M448 304l-34 -207q-2 -10 13.5 -35t23.5 -25h51v-37h-339v37h51q8 0 31.5 25t25.5 35l36 208l-102 306q-5 13 -30.5 46.5t-34.5 33.5h-19v37h330v-37h-43q-9 0 -30 -30.5t-25 -45.5l70 -259h6l152 256q2 15 -8 47t-18 32h-42v37h237v-37h-17q-11 -2 -48.5 -34.5
t-46.5 -45.5z" />
    <glyph glyph-name="Z" unicode="Z" horiz-adv-x="604" 
d="M510 679h-185q-13 0 -70.5 -69.5t-59.5 -83.5h-35l31 202h508l-488 -677h186q28 0 90 88t62 112h38v-251h-537v41z" />
    <glyph glyph-name="bracketleft" unicode="[" horiz-adv-x="342" 
d="M253 812h226l-9 -42h-91q-8 0 -26.5 -17.5t-19.5 -26.5l-151 -896q-1 -9 11 -26.5t20 -17.5h92l-8 -42h-224z" />
    <glyph glyph-name="backslash" unicode="\" horiz-adv-x="378" 
d="M126 816l57 10l199 -1050l-59 -11z" />
    <glyph glyph-name="bracketright" unicode="]" horiz-adv-x="343" 
d="M179 -256h-226l9 42h91q8 0 26.5 17.5t19.5 26.5l151 896q1 9 -11 26.5t-20 17.5h-93l8 42h225z" />
    <glyph glyph-name="asciicircum" unicode="^" horiz-adv-x="614" 
d="M84 288l321 440h47l173 -440h-76l-133 344l-249 -344h-83z" />
    <glyph glyph-name="underscore" unicode="_" horiz-adv-x="504" 
d="M0 0h504l-12 -71h-503z" />
    <glyph glyph-name="grave" unicode="`" horiz-adv-x="415" 
d="M175 713h129l30 -176h-36z" />
    <glyph glyph-name="a" unicode="a" horiz-adv-x="572" 
d="M387 90h-5q-32 -51 -74.5 -76t-85.5 -25q-70 0 -109.5 47.5t-39.5 126.5q0 77 34 152t96 125t134 50q87 0 116 -78l92 67h9l-81 -371q-2 -11 8.5 -23.5t20.5 -12.5q6 0 23 13.5t24 22.5l19 -26q-21 -27 -61 -58.5t-70 -32.5q-33 -1 -44.5 27.5t-5.5 71.5zM248 54
q39 0 72 34.5t50 86.5q18 53 30 137q9 57 -6 93t-56 36q-39 0 -72.5 -34.5t-53.5 -87.5q-22 -60 -31 -133q-7 -56 10 -94t57 -38z" />
    <glyph glyph-name="b" unicode="b" horiz-adv-x="548" 
d="M390 490q75 0 117.5 -46.5t42.5 -136.5q0 -74 -33.5 -146.5t-96 -121.5t-136.5 -49q-42 0 -74.5 27.5t-47.5 57.5h-6l-81 -75h-9l108 634q2 11 -13.5 29.5t-23.5 18.5h-22v32q48 10 96 24.5t72 23.5l24 9l-59 -347q61 66 142 66zM359 429q-44 0 -83 -35.5t-49 -92.5
q-18 -83 -22 -136t19 -83t62 -30t74.5 35.5t51.5 91.5q22 75 23 137q2 53 -18 83t-58 30z" />
    <glyph glyph-name="c" unicode="c" horiz-adv-x="462" 
d="M326 447q-69 -10 -107 -76t-38 -156q0 -59 32 -95t86 -36q28 0 54 10t42.5 24.5t29.5 29t19 24.5l5 10h37q-36 -84 -102.5 -138.5t-140.5 -54.5q-77 0 -123.5 53.5t-46.5 135.5q0 73 32 143.5t96 119.5t143 49q90 0 143 -72l-94 -118q-21 0 -29 16t0 40q14 31 6 61
t-44 30z" />
    <glyph glyph-name="d" unicode="d" horiz-adv-x="569" 
d="M427 444l30 180q1 13 -13.5 36t-23.5 23h-48v31q48 9 103 23.5t85 24.5l31 9l-112 -661q-1 -12 8.5 -24.5t19.5 -12.5q11 0 46 35l19 -26q-14 -16 -32 -34t-47.5 -37.5t-49.5 -19.5q-59 0 -51 98h-5q-75 -100 -157 -100q-73 0 -115 45t-42 128q0 77 32.5 152t93.5 125.5
t133 50.5q57 0 95 -46zM250 53q45 0 76 34t46 88q18 67 27 137q7 57 -10 93t-58 36q-40 0 -72 -34t-49 -88q-23 -70 -29 -133q-6 -58 11 -95.5t58 -37.5z" />
    <glyph glyph-name="e" unicode="e" horiz-adv-x="463" 
d="M293 249q-40 -7 -108 -15q-10 -66 16 -108.5t84 -42.5q45 0 86 27.5t67 71.5h37q-36 -85 -99.5 -139t-132.5 -54q-83 0 -126.5 54t-43.5 137q0 110 79 210t177 100q58 0 93 -26t35 -78q0 -53 -46.5 -88.5t-117.5 -48.5zM188 268q56 8 106 22q37 10 63 35t26 57
q0 29 -16.5 47t-42.5 18q-46 -5 -86.5 -61.5t-49.5 -117.5z" />
    <glyph glyph-name="f" unicode="f" horiz-adv-x="306" 
d="M73 37l87 360q2 10 -10 28.5t-21 18.5h-59v35h109l19 61q28 93 89 159.5t131 66.5q28 0 46 -17t18 -43q0 -30 -19.5 -51t-49.5 -27h-24q-21 5 -34 23t-8 40h-10q-11 -5 -24 -20.5t-16 -32.5q-5 -24 5.5 -61.5t4.5 -62.5l-9 -35h94v-35h-103l-112 -455q-19 -90 -79 -146.5
t-133 -56.5q-27 0 -44.5 19.5t-15.5 45.5q2 29 19.5 49t47.5 25h23q21 -5 35 -23.5t11 -42.5h9q17 6 32 22t18 33q5 29 -15 60t-12 63z" />
    <glyph glyph-name="g" unicode="g" horiz-adv-x="502" 
d="M136 -40q-20 -5 -41.5 -19t-24.5 -32q-4 -24 59 -53t99 -29q156 4 156 68q0 26 -37 26q-44 -1 -83.5 -0.5t-69 3.5t-45.5 12t-13 24zM479 305q-12 -75 -73.5 -129.5t-147.5 -54.5h-63q-54 -10 -54 -51q0 -17 13.5 -28t35.5 -13q59 -7 174 -5q47 1 76.5 -22t29.5 -61
q0 -73 -72.5 -114t-176.5 -41q-100 0 -165 26.5t-65 73.5q0 63 121 95q-28 2 -52 21t-24 45q0 38 42.5 65t104.5 40q-32 9 -63.5 44.5t-31.5 88.5q0 91 62 148t155 57q62 0 98 -42.5t31 -106.5h6q15 203 91 192l31 -148h-27q-12 0 -32.5 -32t-23.5 -48zM259 178
q38 0 64.5 24t37.5 64q11 43 14 78q3 44 -17 72t-54 28q-38 0 -65.5 -24t-37.5 -68q-10 -42 -13 -77q-3 -41 16 -69t55 -28z" />
    <glyph glyph-name="h" unicode="h" horiz-adv-x="543" 
d="M336 101q18 75 75 245q5 15 -13 36.5t-33 21.5q-24 0 -76.5 -45.5t-54.5 -58.5l-52 -300h-116l110 634q2 12 -12 30t-24 18h-23v31q44 10 92.5 24.5t74.5 23.5l27 9l-68 -403q118 123 182 123q56 0 86 -44.5t13 -97.5q-53 -163 -75 -242q-3 -12 7 -23.5t21 -11.5
q7 0 23.5 13.5t25.5 23.5l19 -26q-24 -33 -60 -62t-66 -29q-42 0 -68 32t-15 78z" />
    <glyph glyph-name="i" unicode="i" horiz-adv-x="295" 
d="M91 76q1 23 13 85.5t25 122.5t13 63q2 11 -13 30t-24 19h-39v32q45 10 98.5 26t84.5 27l31 11q-56 -277 -73 -384q-1 -12 8.5 -24.5t19.5 -12.5q11 0 46 35l19 -26q-23 -27 -62.5 -58.5t-68.5 -32.5q-35 -1 -57.5 25t-20.5 62zM175 628q0 30 21.5 51t51.5 21t51.5 -21.5
t21.5 -50.5t-21.5 -50.5t-51.5 -21.5t-51.5 21t-21.5 51z" />
    <glyph glyph-name="j" unicode="j" horiz-adv-x="292" 
d="M75 -129l81 454q2 12 -12.5 35.5t-23.5 23.5h-46v30q54 15 110.5 34.5t85.5 31.5l30 12l-89 -513q-13 -72 -64.5 -132.5t-109.5 -60.5q-34 0 -53 21.5t-12 60.5l13 78h41l-13 -77q-2 -13 5 -23t19 -10q13 0 24.5 10t13.5 25zM190 628q0 26 18.5 44t44.5 18t44.5 -18
t18.5 -44t-18.5 -44t-44.5 -18t-44.5 18t-18.5 44z" />
    <glyph glyph-name="k" unicode="k" horiz-adv-x="510" 
d="M353 35l-84 180l-59 -55l-26 -160h-118l109 633q2 11 -13.5 30t-24.5 19h-27v30q46 9 96.5 23.5t77.5 24.5l28 10l-106 -556h7l165 164q8 8 -6 37t-27 29h-50l6 35h276v-35h-20q-12 0 -61.5 -31.5t-63.5 -44.5l-75 -69l109 -215q19 -38 41 -48v-36l-115 -12z" />
    <glyph glyph-name="l" unicode="l" horiz-adv-x="281" 
d="M75 76q0 16 25.5 155.5t50.5 270.5l25 131q1 11 -14.5 30t-23.5 19h-24v31q47 11 95.5 25.5t73.5 23.5l25 9l-115 -663q-2 -12 8 -24.5t20 -12.5q11 0 46 35l19 -26q-23 -27 -62.5 -58.5t-68.5 -32.5q-35 -1 -57.5 25t-22.5 62z" />
    <glyph glyph-name="m" unicode="m" horiz-adv-x="809" 
d="M603 101l64 244q5 19 -8 41t-30 22q-25 0 -70.5 -46t-48.5 -62l-53 -300h-114l63 344q4 21 -8.5 42.5t-29.5 21.5q-25 0 -70 -46.5t-48 -62.5l-52 -299h-115l63 350q1 12 -13 30t-23 18h-41v30q36 10 78 25.5t66 26.5l24 11v-144h5q40 55 88.5 99t89.5 44q48 0 73.5 -45
t11.5 -97q109 142 181 142q55 0 81.5 -43.5t12.5 -98.5l-65 -242q-3 -11 7.5 -24t20.5 -13q6 0 23.5 15t25.5 24l19 -26q-14 -16 -31.5 -33.5t-46.5 -37.5t-49 -20q-38 -1 -65 33t-16 77z" />
    <glyph glyph-name="n" unicode="n" horiz-adv-x="563" 
d="M385 404q-24 0 -77.5 -45.5t-55.5 -58.5l-53 -300h-116l62 350q1 10 -13 29t-23 19h-40v30q37 12 81 27.5t70 25.5l25 10v-138h5q46 51 101 94t94 43q56 0 86 -44.5t13 -97.5q-53 -163 -75 -242q-3 -12 7 -23.5t21 -11.5q7 0 23.5 13.5t25.5 23.5l19 -26q-24 -33 -60 -62
t-66 -29q-42 0 -68 32t-15 78q18 75 75 245q5 15 -13 36.5t-33 21.5z" />
    <glyph glyph-name="o" unicode="o" horiz-adv-x="519" 
d="M262 45q40 0 77.5 37.5t50.5 91.5q19 77 25 153q4 54 -18 83.5t-65 29.5q-39 0 -75 -36t-50 -91q-19 -73 -25 -149q-4 -57 16.5 -88t63.5 -31zM256 -11q-86 0 -136 53.5t-50 146.5q0 116 79 208.5t188 92.5q86 0 136.5 -55.5t50.5 -147.5q0 -117 -79 -207.5t-189 -90.5z
" />
    <glyph glyph-name="p" unicode="p" horiz-adv-x="568" 
d="M245 491v-95q25 36 69 65t95 29q75 0 118 -46.5t43 -136.5q0 -74 -33.5 -146.5t-96 -121.5t-136.5 -49q-38 0 -64.5 23t-36.5 60h-5l-23 -188q-1 -14 12.5 -34.5t22.5 -20.5h45v-36h-270v36h19q10 0 31 20.5t23 34.5l79 463q1 10 -14.5 29t-23.5 19h-34v30q43 12 88 28.5
t69 26.5zM379 429q-44 0 -82.5 -35.5t-49.5 -92.5q-18 -94 -22 -132q-5 -53 18.5 -85t62.5 -32q38 0 72.5 35t52.5 92q22 71 24 137q2 52 -18.5 82.5t-57.5 30.5z" />
    <glyph glyph-name="q" unicode="q" horiz-adv-x="531" 
d="M448 414l89 65h10l-124 -685h-112l45 206l22 75h-5q-67 -86 -143 -86q-73 0 -115 45t-42 128q0 77 32.5 152t93.5 125.5t133 50.5q80 0 116 -76zM249 53q45 0 76.5 34t46.5 88q18 67 27 137q7 57 -10 93t-58 36q-40 0 -72 -34t-49 -88q-23 -70 -29 -133
q-6 -58 10.5 -95.5t57.5 -37.5z" />
    <glyph glyph-name="r" unicode="r" horiz-adv-x="393" 
d="M224 299h4q52 109 60 123q40 68 92 68q22 0 50 -11v-81l-27 -29h-45q-31 0 -57 -25t-57 -80l-44 -264h-115l59 342q2 12 -13.5 30t-25.5 18h-36v30q34 12 73 30t60 30l22 11v-192z" />
    <glyph glyph-name="s" unicode="s" horiz-adv-x="427" 
d="M212 -11q-45 0 -94.5 28.5t-65.5 65.5q-11 24 6.5 42t43 15t34.5 -28t38.5 -47.5t55.5 -22.5q94 0 94 65q0 14 -6.5 25t-19 19.5t-22.5 14t-27 12t-23 9.5q-59 27 -93 58.5t-34 78.5q0 69 55.5 117t133.5 48q44 0 86.5 -22.5t60.5 -60.5q11 -23 -5.5 -40t-40 -15.5
t-31.5 23.5q-9 25 -34 47t-48 22q-39 0 -63.5 -16t-24.5 -46q0 -19 17.5 -36.5t33.5 -25.5t45 -21q75 -33 100 -55q36 -34 36 -80q0 -72 -61 -123t-147 -51z" />
    <glyph glyph-name="t" unicode="t" horiz-adv-x="342" 
d="M274 422l-54 -305q-2 -14 10 -30t24 -16q27 0 75 48l20 -31q-21 -26 -70 -62t-87 -37t-69 32.5t-23 78.5l50 288q1 8 -8 22t-15 14h-58v55h96l64 129h78l-25 -129h110v-57h-118z" />
    <glyph glyph-name="u" unicode="u" horiz-adv-x="559" 
d="M280 380l-69 -237q-8 -27 4 -48t36 -21q22 0 60 27.5t67 61.5l55 316h113l-64 -366q-2 -10 8 -23t19 -13q10 0 47 34l19 -27q-87 -92 -127 -93q-36 -1 -54 26t-16 68l1 21h-5q-104 -118 -185 -118q-50 0 -78.5 45t-15.5 96l72 242q3 10 -7.5 23.5t-20.5 13.5
q-11 0 -46 -35l-23 23q13 16 32.5 34.5t49.5 39t50 20.5q42 1 66 -33t12 -77z" />
    <glyph glyph-name="v" unicode="v" horiz-adv-x="464" 
d="M276 167l119 221q6 10 -1.5 33t-15.5 23h-41v35h182v-35h-14q-8 0 -28.5 -20.5t-29.5 -35.5l-207 -363l-59 -36q-37 242 -69 399q-5 14 -22 35t-25 21h-22v35h192v-91l35 -221h6z" />
    <glyph glyph-name="w" unicode="w" horiz-adv-x="680" 
d="M496 184l97 202q5 10 -4 34t-17 24h-45l-8 35h201v-35h-18q-7 0 -28.5 -22t-31.5 -36l-182 -359l-54 -39q-20 208 -44 331h-5l-145 -292l-56 -39q-26 243 -50 397q-2 13 -18.5 36t-24.5 23h-20v35h178v-92l22 -204h4l100 225l96 106q12 -64 24.5 -146.5t18.5 -133.5
l6 -50h4z" />
    <glyph glyph-name="x" unicode="x" horiz-adv-x="561" 
d="M331 296l92 86q6 10 -1.5 36t-15.5 26h-34v35h214v-35h-12q-8 -1 -46.5 -27t-48.5 -36l-127 -118l118 -167q10 -15 30.5 -37.5t28.5 -22.5h33v-36h-273v36h34q9 0 20.5 26.5t6.5 34.5l-74 109l-102 -109q-8 -9 2 -35t19 -26h35v-36h-220v36h14q8 1 44 26.5t46 35.5
l141 144l-103 142q-10 15 -30 37.5t-28 22.5h-36v35h271v-35h-32q-8 0 -18.5 -26.5t-5.5 -35.5z" />
    <glyph glyph-name="y" unicode="y" horiz-adv-x="453" 
d="M108 384q-4 13 -21.5 36.5t-25.5 23.5h-18v35h189v-96l36 -224h7l120 227q3 14 -7 36t-19 22h-32v35h185v-35h-15q-6 0 -28 -22t-33 -36l-205 -361l-110 -231h-67l115 232q-34 205 -71 358z" />
    <glyph glyph-name="z" unicode="z" horiz-adv-x="469" 
d="M30 36l352 352l-178 -2q-12 0 -36.5 -23t-29.5 -37h-28v153h414v-11l-369 -374l187 2q21 0 55.5 31t34.5 45h27l-26 -172h-403v36z" />
    <glyph glyph-name="braceleft" unicode="{" horiz-adv-x="342" 
d="M98 296v37q34 8 57 14q90 27 74 126q-3 17 -4.5 32t-2 44.5t3 54t13 54t25.5 51t43.5 38t64.5 22.5v-39q-38 -10 -56 -28t-18 -43.5t5.5 -50t13.5 -59t8 -59.5q0 -73 -52.5 -124t-124.5 -53q50 0 88.5 -32t38.5 -91q0 -31 -17.5 -70.5t-36.5 -71t-32 -62t-3.5 -53
t48.5 -34.5l-14 -39q-96 21 -96 118q0 67 52 178q19 36 12.5 72.5t-41.5 50.5q-29 12 -49 17z" />
    <glyph glyph-name="bar" unicode="|" horiz-adv-x="276" 
d="M157 -206v976h60v-976h-60z" />
    <glyph glyph-name="braceright" unicode="}" horiz-adv-x="342" 
d="M341 333v-37q-34 -8 -57 -14q-90 -25 -74 -126q3 -17 4.5 -32t2 -44.5t-3 -54t-13 -54t-25.5 -51t-43.5 -38t-64.5 -22.5v39q38 10 56 28t18 43.5t-5.5 50t-13.5 59t-8 59.5q0 73 52.5 124t124.5 53q-50 0 -88.5 32t-38.5 91q0 31 17.5 70.5t36.5 71t32 62t3.5 53
t-48.5 34.5l14 39q96 -21 96 -118q0 -67 -52 -178q-18 -36 -12 -72t41 -51q22 -9 49 -17z" />
    <glyph glyph-name="asciitilde" unicode="~" horiz-adv-x="620" 
d="M520 306q36 0 56.5 17.5t20.5 47.5h41q18 -69 -21.5 -121t-112.5 -52q-45 0 -161.5 39t-154.5 39q-36 0 -56.5 -17.5t-20.5 -47.5h-41q-18 69 21.5 121t112.5 52q57 0 172.5 -39t143.5 -39z" />
    <glyph glyph-name="uni00A0" unicode="&#xa0;" horiz-adv-x="280" 
 />
    <glyph glyph-name="exclamdown" unicode="&#xa1;" horiz-adv-x="259" 
d="M212 321v-454q0 -36 -26 -58.5t-63 -22.5q-34 0 -55 22.5t-17 57.5l137 455h24zM293 448q0 -32 -23.5 -55.5t-57.5 -23.5t-57.5 23.5t-23.5 55.5t23.5 55.5t57.5 23.5t57.5 -23.5t23.5 -55.5z" />
    <glyph glyph-name="cent" unicode="&#xa2;" horiz-adv-x="505" 
d="M348 -7l-18 122q-30 -9 -65 -9q-75 0 -123.5 56.5t-48.5 138.5q0 89 44.5 170t122.5 115l-22 141l42 7l21 -135q26 6 53 6q90 0 143 -72l-110 -120h-39l37 56q20 31 4.5 62t-53.5 31q-17 0 -29 -4l54 -358q40 16 67.5 55.5t36.5 89.5h37q-10 -71 -45 -126.5t-86 -85.5
l21 -132zM310 190h9l-52 349q-39 -26 -60 -82.5t-21 -122.5q0 -63 33 -103.5t91 -40.5z" />
    <glyph glyph-name="sterling" unicode="&#xa3;" horiz-adv-x="565" 
d="M252 343h-106v47h117q19 68 25 199q4 75 49 114t122 39q53 0 86 -35.5t33 -94.5v-65h-45v65q0 27 -15.5 45t-40.5 18q-33 0 -51.5 -21t-19.5 -57q-1 -111 -32 -207h99v-47h-110l-19 -45h161v-47h-179q-32 -49 -76.5 -90.5t-72.5 -54.5q133 6 253 3q6 0 22 12.5t30 24.5
l13 12h37l-77 -158h-402l-15 32q77 47 122 99t67 120h-119v47h132z" />
    <glyph glyph-name="currency" unicode="&#xa4;" horiz-adv-x="607" 
d="M86 297q0 79 48 145l-51 52l51 52l51 -52q66 50 148 50q81 0 147 -50l50 50l50 -50l-50 -50q50 -66 50 -147q0 -82 -50 -148l53 -52l-52 -51l-53 52q-66 -48 -145 -48q-83 0 -148 49l-50 -50l-50 50l50 50q-49 65 -49 148zM217 232l51 -51l-36 -36q46 -30 101 -30t99 29
l-36 36l52 52l36 -37q31 45 31 102q0 56 -31 101l-36 -36l-50 50l36 36q-45 31 -101 31q-57 0 -102 -31l37 -36l-52 -52l-36 36q-29 -44 -29 -99t30 -101z" />
    <glyph glyph-name="yen" unicode="&#xa5;" horiz-adv-x="614" 
d="M406 253h148v-47h-161l-19 -109q-2 -10 14 -35t24 -25h47v-37h-327v37h47q8 0 31.5 25t25.5 35l21 109h-150v47h154l-9 45h-124v47h115l-65 266q-4 12 -30 46t-36 34h-33v37h334v-37h-37q-8 0 -27 -30t-23 -46l58 -291h7l153 288q2 14 -14 46.5t-24 32.5h-39v37h243v-37
h-12q-11 -2 -49.5 -34.5t-47.5 -45.5l-144 -266h117v-47h-143z" />
    <glyph glyph-name="brokenbar" unicode="&#xa6;" horiz-adv-x="299" 
d="M159 400v370h69v-370h-69zM159 -206v370h69v-370h-69z" />
    <glyph glyph-name="section" unicode="&#xa7;" horiz-adv-x="542" 
d="M242 462q-23 -17 -40 -43t-17 -53q0 -32 17 -54.5t47 -30.5q133 -37 140 -70q58 42 58 97q0 32 -17 54.5t-47 30.5q-133 37 -141 69zM422 194q34 -15 58 -52.5t24 -75.5q0 -88 -58 -142.5t-140 -54.5q-20 0 -59.5 12.5t-61.5 12.5q-21 0 -38 -17h-32l41 236h33
q1 -42 11 -84.5t36.5 -77t64.5 -34.5q48 0 77 28t29 74q0 61 -69 96q-40 20 -116 49q-66 25 -97 57t-31 97q0 90 116 161q-34 16 -58 54t-24 75q0 88 58 142.5t140 54.5q20 0 59.5 -12.5t61.5 -12.5q21 0 38 17h32l-41 -236h-33q-1 42 -11 84.5t-36.5 77t-64.5 34.5
q-48 0 -77 -28t-29 -74q0 -61 69 -96q55 -28 125 -52q54 -18 86.5 -56.5t32.5 -94.5q0 -91 -116 -162z" />
    <glyph glyph-name="dieresis" unicode="&#xa8;" horiz-adv-x="415" 
d="M470 621q0 -26 -18.5 -44t-44.5 -18t-44.5 18t-18.5 44t18.5 44t44.5 18t44.5 -18t18.5 -44zM266 621q0 -26 -18.5 -44t-44.5 -18t-44.5 18t-18.5 44t18.5 44t44.5 18t44.5 -18t18.5 -44z" />
    <glyph glyph-name="copyright" unicode="&#xa9;" horiz-adv-x="743" 
d="M476 551q-43 0 -77.5 -32.5t-51.5 -101.5q-9 -39 -16 -101q-4 -56 24 -89.5t77 -33.5q38 0 74 23.5t61 65.5h43q-30 -62 -82 -102.5t-115 -40.5q-80 0 -126 49.5t-46 129.5q0 108 66.5 190.5t169.5 82.5q21 0 50 -10t43 -10q22 0 31 14l20 -18l-20 -143h-33q4 25 -22 76
t-70 51zM492 741q130 0 205 -88t75 -227q0 -112 -50.5 -212t-142 -162.5t-201.5 -62.5q-129 0 -204 87t-75 223q0 109 49.5 210t141.5 166.5t202 65.5zM381 39q94 0 173.5 56t123 145t43.5 187q0 117 -63.5 192t-168.5 75q-95 0 -173.5 -58t-121.5 -148.5t-43 -189.5
q0 -115 61 -187t169 -72z" />
    <glyph glyph-name="ordfeminine" unicode="&#xaa;" horiz-adv-x="434" 
d="M343 431h-4q-58 -77 -119 -77q-55 0 -89 36t-34 96q0 95 59 173t142 78q58 0 89 -58l75 49h8l-61 -283q-2 -9 5.5 -18.5t15.5 -9.5q4 0 17 10t19 17l14 -20q-19 -22 -47.5 -45t-50.5 -23q-25 -1 -33.5 20.5t-5.5 54.5zM235 411q60 0 93 96q14 42 21 84q7 43 -7 72t-45 29
t-55.5 -26.5t-38.5 -68.5q-14 -40 -21 -82q-7 -43 7 -73.5t46 -30.5z" />
    <glyph glyph-name="guillemotleft" unicode="&#xab;" horiz-adv-x="565" 
d="M147 298l139 -167v-93l-199 232v58l274 232v-81zM351 298l138 -167v-93l-198 232v58l274 232v-81z" />
    <glyph glyph-name="logicalnot" unicode="&#xac;" horiz-adv-x="565" 
d="M450 58v193h-366v88h456v-234z" />
    <glyph glyph-name="uni00AD" unicode="&#xad;" horiz-adv-x="309" 
d="M80 330h264l-20 -115h-265z" />
    <glyph glyph-name="registered" unicode="&#xae;" horiz-adv-x="743" 
d="M404 382h42q24 0 46 16t30 46q5 20 7 42q2 32 -13.5 49t-40.5 17h-20q-5 0 -16 -9.5t-12 -15.5zM399 347l-23 -121v-59h-164v29h39q5 0 19 14.5t15 20.5l51 289q1 5 -9.5 19.5t-14.5 14.5h-17v28h187q58 0 99 -26t41 -74q0 -45 -34 -76t-91 -46l44 -18q29 -87 68 -155
l-15 -20l-81 -12q-15 25 -32 74.5t-29 83.5t-19 34h-34zM492 741q130 0 205 -88t75 -227q0 -112 -50.5 -212t-142 -162.5t-201.5 -62.5q-129 0 -204 87t-75 223q0 109 49.5 210t141.5 166.5t202 65.5zM381 39q94 0 173.5 56t123 145t43.5 187q0 117 -63.5 192t-168.5 75
q-95 0 -173.5 -58t-121.5 -148.5t-43 -189.5q0 -115 61 -187t169 -72z" />
    <glyph glyph-name="macron" unicode="&#xaf;" horiz-adv-x="415" 
d="M187 648h242l-16 -78h-243z" />
    <glyph glyph-name="degree" unicode="&#xb0;" horiz-adv-x="368" 
d="M113 597q0 61 43.5 103t105.5 42t106 -42t44 -102q0 -61 -44 -103t-106 -42t-105.5 41.5t-43.5 102.5zM173 597q0 -38 26 -64.5t63 -26.5q38 0 64 26t26 65t-26 65.5t-64 26.5t-63.5 -26.5t-25.5 -65.5z" />
    <glyph glyph-name="plusminus" unicode="&#xb1;" horiz-adv-x="577" 
d="M107 74h425v-74h-425v74zM361 572v-171h170v-75h-170v-169h-81v169h-173v75h173v171h81z" />
    <glyph glyph-name="twosuperior" unicode="&#xb2;" horiz-adv-x="360" 
d="M164 407l181 2v-72h-257v29q27 60 171 166q56 41 56 87q0 26 -17.5 43t-43.5 17q-48 0 -105 -60l-21 24q80 93 165 93q42 0 72.5 -28t30.5 -70q0 -89 -115 -147q-85 -44 -117 -84z" />
    <glyph glyph-name="threesuperior" unicode="&#xb3;" horiz-adv-x="360" 
d="M199 537v30l54 18q44 28 44 63q0 17 -11 27t-29 10q-33 0 -94 -46l-10 33q82 63 150 63q28 0 46.5 -16.5t18.5 -46.5q0 -28 -24 -54.5t-58 -42.5q32 4 60 -14.5t28 -52.5q0 -50 -44 -92t-99.5 -63.5t-108.5 -27.5v39q37 6 73 19t68.5 42.5t32.5 67.5q0 32 -28 43.5
t-69 0.5z" />
    <glyph glyph-name="acute" unicode="&#xb4;" horiz-adv-x="415" 
d="M345 713h141l-191 -176h-37z" />
    <glyph glyph-name="mu" unicode="&#xb5;" horiz-adv-x="561" 
d="M378 164l55 315h113l-64 -366q-2 -10 8 -23t19 -13q10 0 47 34l19 -27q-87 -92 -127 -93q-36 -1 -54 26t-16 68l1 21h-5q-102 -115 -188 -106l-28 -154l-125 -61l122 603q2 11 -12 33.5t-23 22.5h-29v35h193l-72 -334q-5 -29 5 -49t34 -20q20 0 59.5 28t67.5 60z" />
    <glyph glyph-name="mu" unicode="&#x3bc;" horiz-adv-x="561" 
d="M378 164l55 315h113l-64 -366q-2 -10 8 -23t19 -13q10 0 47 34l19 -27q-87 -92 -127 -93q-36 -1 -54 26t-16 68l1 21h-5q-102 -115 -188 -106l-28 -154l-125 -61l122 603q2 11 -12 33.5t-23 22.5h-29v35h193l-72 -334q-5 -29 5 -49t34 -20q20 0 59.5 28t67.5 60z" />
    <glyph glyph-name="paragraph" unicode="&#xb6;" horiz-adv-x="433" 
d="M427 631l-128 -780l-75 -59l149 889h-52l-149 -887h-63l111 646h-35q-47 0 -77.5 33.5t-30.5 84.5q0 67 44.5 118.5t112.5 51.5h272v-37h-16q-10 0 -35.5 -24.5t-27.5 -35.5z" />
    <glyph glyph-name="periodcentered" unicode="&#xb7;" horiz-adv-x="293" 
d="M289 340q0 -33 -24.5 -57t-58.5 -24t-58.5 24t-24.5 57t24.5 57t58.5 24t58.5 -24t24.5 -57z" />
    <glyph glyph-name="cedilla" unicode="&#xb8;" horiz-adv-x="415" 
d="M167 -79l45 94h52l-53 -75q21 14 47 14q29 0 47.5 -18t18.5 -46q0 -47 -37.5 -75t-90.5 -28q-31 0 -55 14.5t-36 36.5l35 27q21 -31 57 -31q25 0 42 13.5t17 33.5q0 14 -9 22t-23 8t-34 -10z" />
    <glyph glyph-name="onesuperior" unicode="&#xb9;" horiz-adv-x="361" 
d="M347 742l-56 -337q-1 -7 7 -20t13 -13h32v-35h-198v35h27q5 0 18 13t14 20l34 198q1 7 -6 17t-12 10h-34v28q34 4 63.5 20t42.5 30l12 15z" />
    <glyph glyph-name="ordmasculine" unicode="&#xba;" horiz-adv-x="435" 
d="M271 400q64 0 92 94q13 45 18 99q4 44 -10.5 74t-43.5 30q-64 0 -92 -98q-14 -50 -20 -99q-5 -43 10 -71.5t46 -28.5zM271 354q-67 0 -107 42.5t-40 113.5q0 89 59.5 158t144.5 69q62 0 104 -41t42 -110q0 -93 -59 -162.5t-144 -69.5z" />
    <glyph glyph-name="guillemotright" unicode="&#xbb;" horiz-adv-x="565" 
d="M505 299l-139 167v93l199 -232v-58l-274 -232v81zM301 299l-138 167v93l198 -232v-58l-274 -232v81z" />
    <glyph glyph-name="onequarter" unicode="&#xbc;" horiz-adv-x="729" 
d="M537 63l4 23h-156v36q57 58 115.5 122t89.5 100l30 35l57 18l-44 -265h45v-46h-53l-4 -23q-1 -7 7.5 -20t14.5 -13h14v-30h-192v30h38q5 0 19 13t15 20zM678 728h61l-572 -728h-58zM330 742l-56 -337q-1 -7 7 -20t13 -13h32v-35h-198v35h27q5 0 18 13t14 20l34 198
q1 7 -6 17t-12 10h-34v28q34 4 63.5 20t41.5 30l13 15zM547 129l24 142q-59 -72 -129 -142h105z" />
    <glyph glyph-name="onehalf" unicode="&#xbd;" horiz-adv-x="734" 
d="M676 72l-181 -2q32 40 117 84q115 58 115 147q0 42 -30.5 70t-72.5 28q-85 0 -165 -93l21 -24q57 60 105 60q26 0 43.5 -17t17.5 -43q0 -46 -56 -87q-144 -106 -171 -166v-29h257v72zM678 728h61l-572 -728h-58zM330 742l-56 -337q-1 -7 7 -20t13 -13h32v-35h-198v35h27
q5 0 18 13t14 20l34 198q1 7 -6 17t-12 10h-34v28q34 4 63.5 20t41.5 30l13 15z" />
    <glyph glyph-name="threequarters" unicode="&#xbe;" horiz-adv-x="738" 
d="M537 63l4 23h-156v36q57 58 115.5 122t89.5 100l30 35l57 18l-44 -265h45v-46h-53l-4 -23q-1 -7 7.5 -20t14.5 -13h14v-30h-192v30h38q5 0 19 13t15 20zM678 728h61l-572 -728h-58zM202 537v30l54 18q44 28 44 63q0 17 -11 27t-29 10q-33 0 -94 -46l-10 33q82 63 150 63
q28 0 46.5 -16.5t18.5 -46.5q0 -28 -24 -54.5t-58 -42.5q32 4 60 -14.5t28 -52.5q0 -50 -44 -92t-99.5 -63.5t-108.5 -27.5v39q37 6 73 19t68.5 42.5t32.5 67.5q0 32 -28 43.5t-69 0.5zM547 129l24 142q-59 -72 -129 -142h105z" />
    <glyph glyph-name="questiondown" unicode="&#xbf;" horiz-adv-x="363" 
d="M328 243q0 -34 -19 -69t-46 -63.5t-53.5 -57t-45.5 -60.5t-19 -62q0 -29 17.5 -46.5t46.5 -17.5q30 0 49.5 20t19.5 50v112h48v-113q0 -71 -47.5 -110.5t-117.5 -39.5q-56 0 -93 34.5t-37 89.5q0 41 22.5 79.5t54.5 68.5t63.5 58t54 60t22.5 64q0 12 -8.5 20t-21.5 8
t-24.5 -9.5t-13.5 -24.5l-19 -88h-40l19 92q9 42 38 65t68 23q36 0 59 -23t23 -60zM336 465q0 -26 -18.5 -44t-44.5 -18t-44.5 18t-18.5 44t18.5 44t44.5 18t44.5 -18t18.5 -44z" />
    <glyph glyph-name="Agrave" unicode="&#xc0;" horiz-adv-x="682" 
d="M441 211l17 -109q0 -12 -24 -38t-36 -27h-38v-37h322v37h-16q-8 0 -27.5 23.5t-30.5 41.5l-124 641l-65 -43l-302 -597q-11 -14 -43 -39.5t-41 -26.5h-13v-37h228v37h-40q-9 0 -21.5 26t-12.5 40l55 108h212zM383 521h5l45 -260h-181zM293 917h163l46 -140h-47z" />
    <glyph glyph-name="Aacute" unicode="&#xc1;" horiz-adv-x="682" 
d="M458 102l-17 109h-212l-55 -108q0 -14 12.5 -40t21.5 -26h40v-37h-228v37h13q9 1 41 26.5t43 39.5l302 597l65 43l124 -641q11 -18 30.5 -41.5t27.5 -23.5h16v-37h-322v37h38q12 1 36 27t24 38zM388 521h-5l-131 -260h181zM507 917h162l-209 -140h-49z" />
    <glyph glyph-name="Acircumflex" unicode="&#xc2;" horiz-adv-x="682" 
d="M441 211l17 -109q0 -12 -24 -38t-36 -27h-38v-37h322v37h-16q-8 0 -27.5 23.5t-30.5 41.5l-124 641l-65 -43l-302 -597q-11 -14 -43 -39.5t-41 -26.5h-13v-37h228v37h-40q-9 0 -21.5 26t-12.5 40l55 108h212zM383 521h5l45 -260h-181zM448 931h100l62 -154h-40l-81 77
l-135 -77h-46z" />
    <glyph glyph-name="Atilde" unicode="&#xc3;" horiz-adv-x="682" 
d="M458 102l-17 109h-212l-55 -108q0 -14 12.5 -40t21.5 -26h40v-37h-228v37h13q9 1 41 26.5t43 39.5l302 597l65 43l124 -641q11 -18 30.5 -41.5t27.5 -23.5h16v-37h-322v37h38q12 1 36 27t24 38zM388 521h-5l-131 -260h181zM614 820l-27 -21q-2 40 -40 39q-21 -1 -74 -26
t-82 -25q-36 0 -54 26t-12 71l27 21q0 -16 11.5 -27.5t28.5 -11.5q27 0 78 25t78 25q36 0 54.5 -26t11.5 -70z" />
    <glyph glyph-name="Adieresis" unicode="&#xc4;" horiz-adv-x="682" 
d="M441 211l17 -109q0 -12 -24 -38t-36 -27h-38v-37h322v37h-16q-8 0 -27.5 23.5t-30.5 41.5l-124 641l-65 -43l-302 -597q-11 -14 -43 -39.5t-41 -26.5h-13v-37h228v37h-40q-9 0 -21.5 26t-12.5 40l55 108h212zM383 521h5l45 -260h-181zM646 840q0 -29 -20.5 -49.5
t-50.5 -20.5t-51 20.5t-21 49.5t21 49.5t51 20.5t50.5 -20.5t20.5 -49.5zM432 840q0 -29 -20.5 -49.5t-50.5 -20.5t-51 20.5t-21 49.5t21 49.5t51 20.5t50.5 -20.5t20.5 -49.5z" />
    <glyph glyph-name="Aring" unicode="&#xc5;" horiz-adv-x="682" 
d="M458 102l-17 109h-212l-55 -108q0 -14 12.5 -40t21.5 -26h40v-37h-228v37h13q9 1 41 26.5t43 39.5l302 597l65 43l124 -641q11 -18 30.5 -41.5t27.5 -23.5h16v-37h-322v37h38q12 1 36 27t24 38zM388 521h-5l-131 -260h181zM361 865q0 44 34 76t77 32q44 0 77 -32t33 -76
q0 -45 -33 -76.5t-77 -31.5t-77.5 31.5t-33.5 76.5zM415 865q0 -25 15.5 -41t41.5 -16q25 0 40.5 16t15.5 41t-15.5 40.5t-40.5 15.5t-41 -15.5t-16 -40.5z" />
    <glyph glyph-name="AE" unicode="&#xc6;" horiz-adv-x="910" 
d="M427 699l62 29h455l-34 -199h-33q2 15 -37 83t-50 68h-267q-4 0 -12 -9.5t-7 -13.5l46 -258h114q10 0 42.5 32t32.5 43v16h39l-2 -239h-37v23q0 12 -32 44t-43 32h-107l51 -278q1 -5 9 -13.5t12 -8.5h84q24 0 75 81.5t51 106.5h37v-238h-522v37h35q10 1 33.5 26.5
t25.5 38.5l-15 109h-212l-56 -108q0 -14 11.5 -40t20.5 -26h34v-37h-224v37h17q9 0 41.5 26t42.5 40zM388 521h-6l-135 -260h179z" />
    <glyph glyph-name="Ccedilla" unicode="&#xc7;" horiz-adv-x="685" 
d="M279 -79l34 71q-105 16 -161 97.5t-56 212.5q0 103 50 203.5t142.5 168.5t201.5 68q38 0 86.5 -17t72.5 -17q29 0 44 20h37l-61 -252h-39q0 26 -7 59t-22 70t-46 62t-72 25q-72 0 -128.5 -55t-81.5 -175q-19 -82 -30 -185q-10 -94 36 -154t129 -60q138 0 233 127h57
q-51 -87 -134 -143.5t-188 -58.5h-19l-34 -48q21 14 47 14q29 0 47.5 -18t18.5 -46q0 -47 -37.5 -75t-90.5 -28q-31 0 -55 14.5t-36 36.5l35 27q21 -31 57 -31q25 0 42 13.5t17 33.5q0 14 -9 22t-23 8t-34 -10z" />
    <glyph glyph-name="Egrave" unicode="&#xc8;" horiz-adv-x="658" 
d="M659 529l34 199h-565v-37h44q10 0 26 -23.5t14 -36.5l-90 -537q-2 -12 -24.5 -34.5t-32.5 -22.5h-20v-37h580v238h-36q0 -21 -52.5 -104.5t-75.5 -83.5h-186q-4 0 -8.5 8.5t-4.5 13.5l47 276h82q12 0 48.5 -32t36.5 -44v-21h38v239h-38v-18q0 -11 -36.5 -43t-48.5 -32
h-73l43 263q1 4 8.5 12t10.5 8h159q11 0 49.5 -68t36.5 -83h34zM285 917h163l46 -140h-47z" />
    <glyph glyph-name="Eacute" unicode="&#xc9;" horiz-adv-x="658" 
d="M693 728l-34 -199h-34q2 15 -36.5 83t-49.5 68h-159q-3 0 -10.5 -8t-8.5 -12l-43 -263h73q12 0 48.5 32t36.5 43v18h38v-239h-38v21q0 12 -36.5 44t-48.5 32h-82l-47 -276q0 -5 4.5 -13.5t8.5 -8.5h186q23 0 75.5 83.5t52.5 104.5h36v-238h-580v37h20q10 0 32.5 22.5
t24.5 34.5l90 537q2 13 -14 36.5t-26 23.5h-44v37h565zM473 917h162l-209 -140h-49z" />
    <glyph glyph-name="Ecircumflex" unicode="&#xca;" horiz-adv-x="658" 
d="M659 529l34 199h-565v-37h44q10 0 26 -23.5t14 -36.5l-90 -537q-2 -12 -24.5 -34.5t-32.5 -22.5h-20v-37h580v238h-36q0 -21 -52.5 -104.5t-75.5 -83.5h-186q-4 0 -8.5 8.5t-4.5 13.5l47 276h82q12 0 48.5 -32t36.5 -44v-21h38v239h-38v-18q0 -11 -36.5 -43t-48.5 -32
h-73l43 263q1 4 8.5 12t10.5 8h159q11 0 49.5 -68t36.5 -83h34zM428 931h100l62 -154h-40l-81 77l-135 -77h-46z" />
    <glyph glyph-name="Edieresis" unicode="&#xcb;" horiz-adv-x="658" 
d="M659 529l34 199h-565v-37h44q10 0 26 -23.5t14 -36.5l-90 -537q-2 -12 -24.5 -34.5t-32.5 -22.5h-20v-37h580v238h-36q0 -21 -52.5 -104.5t-75.5 -83.5h-186q-4 0 -8.5 8.5t-4.5 13.5l47 276h82q12 0 48.5 -32t36.5 -44v-21h38v239h-38v-18q0 -11 -36.5 -43t-48.5 -32
h-73l43 263q1 4 8.5 12t10.5 8h159q11 0 49.5 -68t36.5 -83h34zM628 840q0 -29 -20.5 -49.5t-50.5 -20.5t-51 20.5t-21 49.5t21 49.5t51 20.5t50.5 -20.5t20.5 -49.5zM414 840q0 -29 -20.5 -49.5t-50.5 -20.5t-51 20.5t-21 49.5t21 49.5t51 20.5t50.5 -20.5t20.5 -49.5z" />
    <glyph glyph-name="Igrave" unicode="&#xcc;" horiz-adv-x="352" 
d="M45 0h316v37h-50q-10 0 -25 24t-13 36l90 534q2 11 26.5 35.5t34.5 24.5h28v37h-321v-37h50q10 0 26.5 -24.5t14.5 -35.5l-89 -534q-2 -12 -26.5 -36t-33.5 -24h-28v-37zM155 917h163l46 -140h-47z" />
    <glyph glyph-name="Iacute" unicode="&#xcd;" horiz-adv-x="352" 
d="M361 0h-316v37h28q9 0 33.5 24t26.5 36l89 534q2 11 -14.5 35.5t-26.5 24.5h-50v37h321v-37h-28q-10 0 -34.5 -24.5t-26.5 -35.5l-90 -534q-2 -12 13 -36t25 -24h50v-37zM344 917h162l-209 -140h-49z" />
    <glyph glyph-name="Icircumflex" unicode="&#xce;" horiz-adv-x="352" 
d="M45 0h316v37h-50q-10 0 -25 24t-13 36l90 534q2 11 26.5 35.5t34.5 24.5h28v37h-321v-37h50q10 0 26.5 -24.5t14.5 -35.5l-89 -534q-2 -12 -26.5 -36t-33.5 -24h-28v-37zM290 931h100l62 -154h-40l-81 77l-135 -77h-46z" />
    <glyph glyph-name="Idieresis" unicode="&#xcf;" horiz-adv-x="352" 
d="M45 0h316v37h-50q-10 0 -25 24t-13 36l90 534q2 11 26.5 35.5t34.5 24.5h28v37h-321v-37h50q10 0 26.5 -24.5t14.5 -35.5l-89 -534q-2 -12 -26.5 -36t-33.5 -24h-28v-37zM494 840q0 -29 -20.5 -49.5t-50.5 -20.5t-51 20.5t-21 49.5t21 49.5t51 20.5t50.5 -20.5
t20.5 -49.5zM280 840q0 -29 -20.5 -49.5t-50.5 -20.5t-51 20.5t-21 49.5t21 49.5t51 20.5t50.5 -20.5t20.5 -49.5z" />
    <glyph glyph-name="Eth" unicode="&#xd0;" horiz-adv-x="683" 
d="M128 728h303q123 0 202.5 -81t79.5 -215q0 -177 -117 -304.5t-285 -127.5h-266v37h18q10 0 33.5 22.5t25.5 35.5l43 257h-85v48h93l39 232q2 11 -14.5 35t-25.5 24h-44v37zM507 400l-8 -48h-189l-43 -254q-2 -11 12.5 -29.5t22.5 -18.5h22q171 0 224 230q17 72 27 169
q24 232 -148 232h-21q-10 0 -29 -19.5t-20 -30.5l-39 -231h189z" />
    <glyph glyph-name="Ntilde" unicode="&#xd1;" horiz-adv-x="708" 
d="M723 623l-107 -642l-339 617h-5l-78 -485q-2 -12 20.5 -44t31.5 -32h46v-37h-247v37h19q9 0 41.5 32t33.5 44l87 512q1 11 -16 38.5t-24 27.5h-41v37h223l241 -449h5l56 344q2 11 -16.5 39.5t-26.5 28.5h-44v37h225v-37h-19q-9 0 -36.5 -28t-29.5 -40zM651 820l-27 -21
q-2 40 -40 39q-21 -1 -74 -26t-82 -25q-36 0 -54 26t-12 71l27 21q0 -16 11.5 -27.5t28.5 -11.5q27 0 78 25t78 25q36 0 54.5 -26t11.5 -70z" />
    <glyph glyph-name="Ograve" unicode="&#xd2;" horiz-adv-x="762" 
d="M512 742q-109 0 -204.5 -63.5t-151 -165.5t-55.5 -212q-2 -138 76 -225.5t210 -87.5q84 0 160 37t129 98t86.5 140.5t37.5 162.5q5 135 -75 225t-213 91zM504 689q82 0 122 -54.5t32 -153.5q-9 -114 -36 -218q-25 -97 -87.5 -156.5t-138.5 -59.5q-84 0 -124.5 52
t-30.5 150q11 107 37 218q23 97 85.5 159.5t140.5 62.5zM368 917h163l46 -140h-47z" />
    <glyph glyph-name="Oacute" unicode="&#xd3;" horiz-adv-x="762" 
d="M512 742q133 -1 213 -91t75 -225q-4 -83 -37.5 -162.5t-86.5 -140.5t-129 -98t-160 -37q-132 0 -210 87.5t-76 225.5q0 110 55.5 212t151 165.5t204.5 63.5zM504 689q-78 0 -140.5 -62.5t-85.5 -159.5q-26 -111 -37 -218q-10 -98 30.5 -150t124.5 -52q76 0 138.5 59.5
t87.5 156.5q27 104 36 218q8 99 -32 153.5t-122 54.5zM583 917h162l-209 -140h-49z" />
    <glyph glyph-name="Ocircumflex" unicode="&#xd4;" horiz-adv-x="762" 
d="M512 742q-109 0 -204.5 -63.5t-151 -165.5t-55.5 -212q-2 -138 76 -225.5t210 -87.5q84 0 160 37t129 98t86.5 140.5t37.5 162.5q5 135 -75 225t-213 91zM504 689q82 0 122 -54.5t32 -153.5q-9 -114 -36 -218q-25 -97 -87.5 -156.5t-138.5 -59.5q-84 0 -124.5 52
t-30.5 150q11 107 37 218q23 97 85.5 159.5t140.5 62.5zM510 931h100l62 -154h-40l-81 77l-135 -77h-46z" />
    <glyph glyph-name="Otilde" unicode="&#xd5;" horiz-adv-x="762" 
d="M512 742q133 -1 213 -91t75 -225q-4 -83 -37.5 -162.5t-86.5 -140.5t-129 -98t-160 -37q-132 0 -210 87.5t-76 225.5q0 110 55.5 212t151 165.5t204.5 63.5zM504 689q-78 0 -140.5 -62.5t-85.5 -159.5q-26 -111 -37 -218q-10 -98 30.5 -150t124.5 -52q76 0 138.5 59.5
t87.5 156.5q27 104 36 218q8 99 -32 153.5t-122 54.5zM677 820l-27 -21q-2 40 -40 39q-21 -1 -74 -26t-82 -25q-36 0 -54 26t-12 71l27 21q0 -16 11.5 -27.5t28.5 -11.5q27 0 78 25t78 25q36 0 54.5 -26t11.5 -70z" />
    <glyph glyph-name="Odieresis" unicode="&#xd6;" horiz-adv-x="762" 
d="M512 742q-109 0 -204.5 -63.5t-151 -165.5t-55.5 -212q-2 -138 76 -225.5t210 -87.5q84 0 160 37t129 98t86.5 140.5t37.5 162.5q5 135 -75 225t-213 91zM504 689q82 0 122 -54.5t32 -153.5q-9 -114 -36 -218q-25 -97 -87.5 -156.5t-138.5 -59.5q-84 0 -124.5 52
t-30.5 150q11 107 37 218q23 97 85.5 159.5t140.5 62.5zM701 840q0 -29 -20.5 -49.5t-50.5 -20.5t-51 20.5t-21 49.5t21 49.5t51 20.5t50.5 -20.5t20.5 -49.5zM487 840q0 -29 -20.5 -49.5t-50.5 -20.5t-51 20.5t-21 49.5t21 49.5t51 20.5t50.5 -20.5t20.5 -49.5z" />
    <glyph glyph-name="multiply" unicode="&#xd7;" horiz-adv-x="640" 
d="M104 54l196 196l-198 199l51 52l199 -199l197 197l50 -50l-197 -197l200 -200l-52 -51l-199 199l-197 -196z" />
    <glyph glyph-name="Oslash" unicode="&#xd8;" horiz-adv-x="768" 
d="M208 47l-65 -76l-40 37l66 77q-71 87 -68 216q0 110 56 212t152 165.5t205 63.5q99 -1 171 -53l62 72l41 -37l-62 -72q81 -90 76 -226q-4 -83 -37.5 -162.5t-86.5 -140.5t-129 -98t-160 -37q-106 0 -181 59zM398 47q77 0 140.5 60t85.5 156q22 102 36 218q5 46 -3 90
l-394 -460q40 -64 135 -64zM506 689q-79 0 -142.5 -62.5t-84.5 -159.5q-25 -112 -37 -218q-6 -40 1 -78l391 458q-42 60 -128 60z" />
    <glyph glyph-name="Ugrave" unicode="&#xd9;" horiz-adv-x="709" 
d="M674 249l48 365q1 10 32 43.5t38 33.5h17v37h-234v-37h46q7 0 28 -33.5t20 -43.5l-48 -367q-10 -75 -63 -125.5t-130 -51.5q-74 -1 -112.5 51.5t-22.5 138.5l67 367q2 8 28 36t33 28h23v37h-309v-37h43q5 0 22.5 -28t16.5 -36l-65 -354q-22 -120 45 -202.5t177 -82.5
q118 0 201 70t99 191zM350 917h163l46 -140h-47z" />
    <glyph glyph-name="Uacute" unicode="&#xda;" horiz-adv-x="709" 
d="M722 614l-48 -365q-16 -121 -99 -191t-201 -70q-110 0 -177 82.5t-45 202.5l65 354q1 8 -16.5 36t-22.5 28h-43v37h309v-37h-23q-7 0 -33 -28t-28 -36l-67 -367q-16 -86 22.5 -138.5t112.5 -51.5q77 1 130 51.5t63 125.5l48 367q1 10 -20 43.5t-28 33.5h-46v37h234v-37
h-17q-7 0 -38 -33.5t-32 -43.5zM560 917h162l-209 -140h-49z" />
    <glyph glyph-name="Ucircumflex" unicode="&#xdb;" horiz-adv-x="709" 
d="M674 249l48 365q1 10 32 43.5t38 33.5h17v37h-234v-37h46q7 0 28 -33.5t20 -43.5l-48 -367q-10 -75 -63 -125.5t-130 -51.5q-74 -1 -112.5 51.5t-22.5 138.5l67 367q2 8 28 36t33 28h23v37h-309v-37h43q5 0 22.5 -28t16.5 -36l-65 -354q-22 -120 45 -202.5t177 -82.5
q118 0 201 70t99 191zM504 931h100l62 -154h-40l-81 77l-135 -77h-46z" />
    <glyph glyph-name="Udieresis" unicode="&#xdc;" horiz-adv-x="709" 
d="M674 249l48 365q1 10 32 43.5t38 33.5h17v37h-234v-37h46q7 0 28 -33.5t20 -43.5l-48 -367q-10 -75 -63 -125.5t-130 -51.5q-74 -1 -112.5 51.5t-22.5 138.5l67 367q2 8 28 36t33 28h23v37h-309v-37h43q5 0 22.5 -28t16.5 -36l-65 -354q-22 -120 45 -202.5t177 -82.5
q118 0 201 70t99 191zM698 840q0 -29 -20.5 -49.5t-50.5 -20.5t-51 20.5t-21 49.5t21 49.5t51 20.5t50.5 -20.5t20.5 -49.5zM484 840q0 -29 -20.5 -49.5t-50.5 -20.5t-51 20.5t-21 49.5t21 49.5t51 20.5t50.5 -20.5t20.5 -49.5z" />
    <glyph glyph-name="Yacute" unicode="&#xdd;" horiz-adv-x="641" 
d="M448 304l-34 -207q-2 -10 13.5 -35t23.5 -25h51v-37h-339v37h51q8 0 31.5 25t25.5 35l36 208l-102 306q-5 13 -30.5 46.5t-34.5 33.5h-19v37h330v-37h-43q-9 0 -30 -30.5t-25 -45.5l70 -259h6l152 256q2 15 -8 47t-18 32h-42v37h237v-37h-17q-11 -2 -48.5 -34.5
t-46.5 -45.5zM518 917h162l-209 -140h-49z" />
    <glyph glyph-name="Thorn" unicode="&#xde;" horiz-adv-x="593" 
d="M332 554l-57 -345h55q50 0 96.5 38t59.5 88q11 41 15 85q5 54 -25 94t-79 40h-65zM115 96l92 535q2 11 -14.5 35.5t-26.5 24.5h-50v37h320v-37h-28q-10 0 -34.5 -24t-26.5 -35l-6 -32h64q97 0 164.5 -46t67.5 -135q0 -118 -93 -190t-221 -72h-55l-10 -61q-2 -11 14 -35
t25 -24h44v-37h-304v37h19q9 0 33.5 23.5t25.5 35.5z" />
    <glyph glyph-name="germandbls" unicode="&#xdf;" horiz-adv-x="562" 
d="M397 478q6 -10 13.5 -19.5t21 -21t21 -17t27 -20.5t25.5 -19q67 -51 67 -130q0 -106 -93.5 -185t-211.5 -78q-43 0 -86 20l85 124h20q14 -27 38.5 -44.5t51.5 -17.5q45 0 74 29.5t29 75.5q0 59 -74 119q-3 2 -15.5 12.5t-16 13t-14.5 11.5t-14.5 13t-12.5 12t-13 12.5
t-11 12.5t-10.5 13.5t-8 13t-7.5 14.5l6 32l69 36q35 18 60 49t25 69q0 40 -24 70.5t-56 30.5q-14 0 -25.5 -5t-20.5 -18t-15 -24t-12 -35t-9 -38t-9 -45l-107 -544l-24 -206h-113l25 206l98 519q14 77 62.5 135.5t108.5 86.5t120 28q48 0 79 -27t31 -77q0 -99 -154 -187z
" />
    <glyph glyph-name="agrave" unicode="&#xe0;" horiz-adv-x="572" 
d="M382 90h5q-6 -43 5.5 -71.5t44.5 -27.5q30 1 70 32.5t61 58.5l-19 26q-7 -9 -24 -22.5t-23 -13.5q-10 0 -20.5 12.5t-8.5 23.5l81 371h-9l-92 -67q-29 78 -116 78q-72 0 -134 -50t-96 -125t-34 -152q0 -79 39.5 -126.5t109.5 -47.5q43 0 85.5 25t74.5 76zM248 54
q-40 0 -57 38t-10 94q9 73 31 133q20 53 53.5 87.5t72.5 34.5q41 0 56 -36t6 -93q-12 -84 -30 -137q-17 -52 -50 -86.5t-72 -34.5zM236 713h129l30 -176h-36z" />
    <glyph glyph-name="aacute" unicode="&#xe1;" horiz-adv-x="572" 
d="M387 90h-5q-32 -51 -74.5 -76t-85.5 -25q-70 0 -109.5 47.5t-39.5 126.5q0 77 34 152t96 125t134 50q87 0 116 -78l92 67h9l-81 -371q-2 -11 8.5 -23.5t20.5 -12.5q6 0 23 13.5t24 22.5l19 -26q-21 -27 -61 -58.5t-70 -32.5q-33 -1 -44.5 27.5t-5.5 71.5zM248 54
q39 0 72 34.5t50 86.5q18 53 30 137q9 57 -6 93t-56 36q-39 0 -72.5 -34.5t-53.5 -87.5q-22 -60 -31 -133q-7 -56 10 -94t57 -38zM405 713h141l-191 -176h-37z" />
    <glyph glyph-name="acircumflex" unicode="&#xe2;" horiz-adv-x="572" 
d="M382 90h5q-6 -43 5.5 -71.5t44.5 -27.5q30 1 70 32.5t61 58.5l-19 26q-7 -9 -24 -22.5t-23 -13.5q-10 0 -20.5 12.5t-8.5 23.5l81 371h-9l-92 -67q-29 78 -116 78q-72 0 -134 -50t-96 -125t-34 -152q0 -79 39.5 -126.5t109.5 -47.5q43 0 85.5 25t74.5 76zM248 54
q-40 0 -57 38t-10 94q9 73 31 133q20 53 53.5 87.5t72.5 34.5q41 0 56 -36t6 -93q-12 -84 -30 -137q-17 -52 -50 -86.5t-72 -34.5zM368 713h86l54 -176h-41l-68 95l-131 -95h-43z" />
    <glyph glyph-name="atilde" unicode="&#xe3;" horiz-adv-x="572" 
d="M387 90h-5q-32 -51 -74.5 -76t-85.5 -25q-70 0 -109.5 47.5t-39.5 126.5q0 77 34 152t96 125t134 50q87 0 116 -78l92 67h9l-81 -371q-2 -11 8.5 -23.5t20.5 -12.5q6 0 23 13.5t24 22.5l19 -26q-21 -27 -61 -58.5t-70 -32.5q-33 -1 -44.5 27.5t-5.5 71.5zM248 54
q39 0 72 34.5t50 86.5q18 53 30 137q9 57 -6 93t-56 36q-39 0 -72.5 -34.5t-53.5 -87.5q-22 -60 -31 -133q-7 -56 10 -94t57 -38zM532 587l-29 -23q-5 21 -14 31.5t-28 9.5q-22 -1 -71.5 -28.5t-80.5 -27.5q-37 0 -56 28.5t-14 75.5l29 23q0 -17 12.5 -29t29.5 -12
q28 0 76 27.5t76 27.5q37 0 56.5 -28.5t13.5 -74.5z" />
    <glyph glyph-name="adieresis" unicode="&#xe4;" horiz-adv-x="572" 
d="M382 90h5q-6 -43 5.5 -71.5t44.5 -27.5q30 1 70 32.5t61 58.5l-19 26q-7 -9 -24 -22.5t-23 -13.5q-10 0 -20.5 12.5t-8.5 23.5l81 371h-9l-92 -67q-29 78 -116 78q-72 0 -134 -50t-96 -125t-34 -152q0 -79 39.5 -126.5t109.5 -47.5q43 0 85.5 25t74.5 76zM248 54
q-40 0 -57 38t-10 94q9 73 31 133q20 53 53.5 87.5t72.5 34.5q41 0 56 -36t6 -93q-12 -84 -30 -137q-17 -52 -50 -86.5t-72 -34.5zM551 621q0 -26 -18.5 -44t-44.5 -18t-44.5 18t-18.5 44t18.5 44t44.5 18t44.5 -18t18.5 -44zM347 621q0 -26 -18.5 -44t-44.5 -18t-44.5 18
t-18.5 44t18.5 44t44.5 18t44.5 -18t18.5 -44z" />
    <glyph glyph-name="aring" unicode="&#xe5;" horiz-adv-x="572" 
d="M387 90h-5q-32 -51 -74.5 -76t-85.5 -25q-70 0 -109.5 47.5t-39.5 126.5q0 77 34 152t96 125t134 50q87 0 116 -78l92 67h9l-81 -371q-2 -11 8.5 -23.5t20.5 -12.5q6 0 23 13.5t24 22.5l19 -26q-21 -27 -61 -58.5t-70 -32.5q-33 -1 -44.5 27.5t-5.5 71.5zM248 54
q39 0 72 34.5t50 86.5q18 53 30 137q9 57 -6 93t-56 36q-39 0 -72.5 -34.5t-53.5 -87.5q-22 -60 -31 -133q-7 -56 10 -94t57 -38zM279 636q0 44 33 75.5t76 31.5q44 0 76 -31.5t32 -75.5q0 -45 -32 -76t-76 -31t-76.5 31t-32.5 76zM332 636q0 -23 16.5 -39.5t39.5 -16.5
t39 16.5t16 39.5q0 22 -16.5 38.5t-38.5 16.5q-23 0 -39.5 -16t-16.5 -39z" />
    <glyph glyph-name="ae" unicode="&#xe6;" horiz-adv-x="782" 
d="M610 247l-107 -14q-10 -65 16.5 -107.5t84.5 -42.5q45 0 86.5 27.5t66.5 71.5h37q-34 -84 -98.5 -138.5t-133.5 -54.5q-61 0 -98 32q-23 -33 -47 -33q-29 0 -32.5 33t6.5 68h-7q-59 -100 -154 -100q-73 0 -115 45t-42 128q0 77 32.5 151.5t93 125t132.5 50.5
q77 0 114 -76l45 66h9v-66q65 77 146 77q58 0 95 -27t37 -77q0 -111 -167 -139zM250 53q42 0 74 34.5t46 87.5q18 67 27 137q6 57 -11 93t-58 36q-77 0 -118 -122q-23 -71 -29 -133q-6 -58 11 -95.5t58 -37.5zM507 268q54 9 106 22q38 10 63.5 34t25.5 58q0 29 -16.5 47
t-42.5 18q-46 -5 -86 -61.5t-50 -117.5z" />
    <glyph glyph-name="ccedilla" unicode="&#xe7;" horiz-adv-x="462" 
d="M170 -79l34 72q-60 13 -95.5 64t-35.5 121q0 73 32 143.5t96 119.5t143 49q90 0 143 -72l-94 -118q-21 0 -29 16t0 40q14 31 6 61t-44 30q-69 -10 -107 -76t-38 -156q0 -59 32 -95t86 -36q28 0 54 10t42.5 24.5t29.5 29t19 24.5l5 10h37q-36 -83 -100.5 -137t-137.5 -56
l-34 -49q21 14 47 14q29 0 47.5 -18t18.5 -46q0 -47 -37.5 -75t-90.5 -28q-31 0 -55 14.5t-36 36.5l35 27q21 -31 57 -31q25 0 42 13.5t17 33.5q0 14 -9 22t-23 8t-34 -10z" />
    <glyph glyph-name="egrave" unicode="&#xe8;" horiz-adv-x="463" 
d="M293 249q-40 -7 -108 -15q-10 -66 16 -108.5t84 -42.5q45 0 86 27.5t67 71.5h37q-36 -85 -99.5 -139t-132.5 -54q-83 0 -126.5 54t-43.5 137q0 110 79 210t177 100q58 0 93 -26t35 -78q0 -53 -46.5 -88.5t-117.5 -48.5zM188 268q56 8 106 22q37 10 63 35t26 57
q0 29 -16.5 47t-42.5 18q-46 -5 -86.5 -61.5t-49.5 -117.5zM205 713h129l30 -176h-36z" />
    <glyph glyph-name="eacute" unicode="&#xe9;" horiz-adv-x="463" 
d="M293 249q-40 -7 -108 -15q-10 -66 16 -108.5t84 -42.5q45 0 86 27.5t67 71.5h37q-36 -85 -99.5 -139t-132.5 -54q-83 0 -126.5 54t-43.5 137q0 110 79 210t177 100q58 0 93 -26t35 -78q0 -53 -46.5 -88.5t-117.5 -48.5zM188 268q56 8 106 22q37 10 63 35t26 57
q0 29 -16.5 47t-42.5 18q-46 -5 -86.5 -61.5t-49.5 -117.5zM380 713h141l-191 -176h-37z" />
    <glyph glyph-name="ecircumflex" unicode="&#xea;" horiz-adv-x="463" 
d="M293 249q-40 -7 -108 -15q-10 -66 16 -108.5t84 -42.5q45 0 86 27.5t67 71.5h37q-36 -85 -99.5 -139t-132.5 -54q-83 0 -126.5 54t-43.5 137q0 110 79 210t177 100q58 0 93 -26t35 -78q0 -53 -46.5 -88.5t-117.5 -48.5zM188 268q56 8 106 22q37 10 63 35t26 57
q0 29 -16.5 47t-42.5 18q-46 -5 -86.5 -61.5t-49.5 -117.5zM338 713h86l54 -176h-41l-68 95l-131 -95h-43z" />
    <glyph glyph-name="edieresis" unicode="&#xeb;" horiz-adv-x="463" 
d="M293 249q-40 -7 -108 -15q-10 -66 16 -108.5t84 -42.5q45 0 86 27.5t67 71.5h37q-36 -85 -99.5 -139t-132.5 -54q-83 0 -126.5 54t-43.5 137q0 110 79 210t177 100q58 0 93 -26t35 -78q0 -53 -46.5 -88.5t-117.5 -48.5zM188 268q56 8 106 22q37 10 63 35t26 57
q0 29 -16.5 47t-42.5 18q-46 -5 -86.5 -61.5t-49.5 -117.5zM508 621q0 -26 -18.5 -44t-44.5 -18t-44.5 18t-18.5 44t18.5 44t44.5 18t44.5 -18t18.5 -44zM304 621q0 -26 -18.5 -44t-44.5 -18t-44.5 18t-18.5 44t18.5 44t44.5 18t44.5 -18t18.5 -44z" />
    <glyph glyph-name="igrave" unicode="&#xec;" horiz-adv-x="309" 
d="M100 76q1 23 13 85.5t25 122.5t13 63q2 11 -13 30t-24 19h-39v32q45 10 98.5 26t84.5 27l31 11q-56 -277 -73 -384q-1 -12 8.5 -24.5t19.5 -12.5q11 0 46 35l19 -26q-23 -27 -62.5 -58.5t-68.5 -32.5q-35 -1 -57.5 25t-20.5 62zM124 713h129l30 -176h-36z" />
    <glyph glyph-name="iacute" unicode="&#xed;" horiz-adv-x="309" 
d="M100 76q1 23 13 85.5t25 122.5t13 63q2 11 -13 30t-24 19h-39v32q45 10 98.5 26t84.5 27l31 11q-56 -277 -73 -384q-1 -12 8.5 -24.5t19.5 -12.5q11 0 46 35l19 -26q-23 -27 -62.5 -58.5t-68.5 -32.5q-35 -1 -57.5 25t-20.5 62zM258 713h141l-191 -176h-37z" />
    <glyph glyph-name="icircumflex" unicode="&#xee;" horiz-adv-x="309" 
d="M100 76q1 23 13 85.5t25 122.5t13 63q2 11 -13 30t-24 19h-39v32q45 10 98.5 26t84.5 27l31 11q-56 -277 -73 -384q-1 -12 8.5 -24.5t19.5 -12.5q11 0 46 35l19 -26q-23 -27 -62.5 -58.5t-68.5 -32.5q-35 -1 -57.5 25t-20.5 62zM231 713h86l54 -176h-41l-68 95l-131 -95
h-43z" />
    <glyph glyph-name="idieresis" unicode="&#xef;" horiz-adv-x="309" 
d="M100 76q1 23 13 85.5t25 122.5t13 63q2 11 -13 30t-24 19h-39v32q45 10 98.5 26t84.5 27l31 11q-56 -277 -73 -384q-1 -12 8.5 -24.5t19.5 -12.5q11 0 46 35l19 -26q-23 -27 -62.5 -58.5t-68.5 -32.5q-35 -1 -57.5 25t-20.5 62zM407 621q0 -26 -18.5 -44t-44.5 -18
t-44.5 18t-18.5 44t18.5 44t44.5 18t44.5 -18t18.5 -44zM203 621q0 -26 -18.5 -44t-44.5 -18t-44.5 18t-18.5 44t18.5 44t44.5 18t44.5 -18t18.5 -44z" />
    <glyph glyph-name="eth" unicode="&#xf0;" horiz-adv-x="558" 
d="M473 379q39 112 -3 210l-205 -72v50l182 64q-50 71 -133 97l18 38q121 -21 189 -109l96 34v-50l-70 -25q34 -68 34 -152q0 -111 -41 -218.5t-120 -181t-175 -73.5q-85 0 -133.5 48t-48.5 132q0 74 35.5 147t101.5 122.5t143 49.5q50 0 84 -30.5t46 -80.5zM241 45
q49 0 93.5 49t69.5 116t25 126q0 40 -21.5 67t-58.5 27q-49 0 -95 -50t-72 -117t-26 -124q0 -41 22.5 -67.5t62.5 -26.5z" />
    <glyph glyph-name="ntilde" unicode="&#xf1;" horiz-adv-x="563" 
d="M385 404q-24 0 -77.5 -45.5t-55.5 -58.5l-53 -300h-116l62 350q1 10 -13 29t-23 19h-40v30q37 12 81 27.5t70 25.5l25 10v-138h5q46 51 101 94t94 43q56 0 86 -44.5t13 -97.5q-53 -163 -75 -242q-3 -12 7 -23.5t21 -11.5q7 0 23.5 13.5t25.5 23.5l19 -26q-24 -33 -60 -62
t-66 -29q-42 0 -68 32t-15 78q18 75 75 245q5 15 -13 36.5t-33 21.5zM528 587l-29 -23q-5 21 -14 31.5t-28 9.5q-22 -1 -71.5 -28.5t-80.5 -27.5q-37 0 -56 28.5t-14 75.5l29 23q0 -17 12.5 -29t29.5 -12q28 0 76 27.5t76 27.5q37 0 56.5 -28.5t13.5 -74.5z" />
    <glyph glyph-name="ograve" unicode="&#xf2;" horiz-adv-x="519" 
d="M256 -11q110 0 189 90.5t79 207.5q0 92 -50.5 147.5t-136.5 55.5q-109 0 -188 -92.5t-79 -208.5q0 -93 50 -146.5t136 -53.5zM262 45q-43 0 -63.5 31t-16.5 88q6 76 25 149q14 55 50 91t75 36q43 0 65 -29.5t18 -83.5q-6 -76 -25 -153q-13 -54 -50.5 -91.5t-77.5 -37.5z
M226 713h129l30 -176h-36z" />
    <glyph glyph-name="oacute" unicode="&#xf3;" horiz-adv-x="519" 
d="M256 -11q-86 0 -136 53.5t-50 146.5q0 116 79 208.5t188 92.5q86 0 136.5 -55.5t50.5 -147.5q0 -117 -79 -207.5t-189 -90.5zM262 45q40 0 77.5 37.5t50.5 91.5q19 77 25 153q4 54 -18 83.5t-65 29.5q-39 0 -75 -36t-50 -91q-19 -73 -25 -149q-4 -57 16.5 -88t63.5 -31z
M398 713h141l-191 -176h-37z" />
    <glyph glyph-name="ocircumflex" unicode="&#xf4;" horiz-adv-x="519" 
d="M262 45q-43 0 -63.5 31t-16.5 88q6 76 25 149q14 55 50 91t75 36q43 0 65 -29.5t18 -83.5q-6 -76 -25 -153q-13 -54 -50.5 -91.5t-77.5 -37.5zM256 -11q110 0 189 90.5t79 207.5q0 92 -50.5 147.5t-136.5 55.5q-109 0 -188 -92.5t-79 -208.5q0 -93 50 -146.5t136 -53.5z
M351 713h86l54 -176h-41l-68 95l-131 -95h-43z" />
    <glyph glyph-name="otilde" unicode="&#xf5;" horiz-adv-x="519" 
d="M256 -11q-86 0 -136 53.5t-50 146.5q0 116 79 208.5t188 92.5q86 0 136.5 -55.5t50.5 -147.5q0 -117 -79 -207.5t-189 -90.5zM262 45q40 0 77.5 37.5t50.5 91.5q19 77 25 153q4 54 -18 83.5t-65 29.5q-39 0 -75 -36t-50 -91q-19 -73 -25 -149q-4 -57 16.5 -88t63.5 -31z
M514 587l-29 -23q-5 21 -14 31.5t-28 9.5q-22 -1 -71.5 -28.5t-80.5 -27.5q-37 0 -56 28.5t-14 75.5l29 23q0 -17 12.5 -29t29.5 -12q28 0 76 27.5t76 27.5q37 0 56.5 -28.5t13.5 -74.5z" />
    <glyph glyph-name="odieresis" unicode="&#xf6;" horiz-adv-x="519" 
d="M262 45q-43 0 -63.5 31t-16.5 88q6 76 25 149q14 55 50 91t75 36q43 0 65 -29.5t18 -83.5q-6 -76 -25 -153q-13 -54 -50.5 -91.5t-77.5 -37.5zM256 -11q110 0 189 90.5t79 207.5q0 92 -50.5 147.5t-136.5 55.5q-109 0 -188 -92.5t-79 -208.5q0 -93 50 -146.5t136 -53.5z
M532 621q0 -26 -18.5 -44t-44.5 -18t-44.5 18t-18.5 44t18.5 44t44.5 18t44.5 -18t18.5 -44zM328 621q0 -26 -18.5 -44t-44.5 -18t-44.5 18t-18.5 44t18.5 44t44.5 18t44.5 -18t18.5 -44z" />
    <glyph glyph-name="divide" unicode="&#xf7;" horiz-adv-x="572" 
d="M63 325h544v-74h-544v74zM408 93q0 -29 -20 -49.5t-51 -20.5q-30 0 -50.5 20.5t-20.5 49.5t20.5 49.5t50.5 20.5q31 0 51 -20.5t20 -49.5zM408 486q0 -30 -20 -50t-51 -20q-30 0 -50.5 20.5t-20.5 49.5t20.5 49.5t50.5 20.5q31 0 51 -20t20 -50z" />
    <glyph glyph-name="oslash" unicode="&#xf8;" horiz-adv-x="519" 
d="M127 36l-52 -54l-29 29l55 57q-30 51 -30 121q0 116 79 208.5t188 92.5q73 0 124 -43l49 51l31 -30l-52 -54q35 -50 35 -127q0 -117 -79 -207.5t-189 -90.5q-81 0 -130 47zM263 45q39 0 77 37.5t51 91.5q19 78 25 152v11l-228 -238q17 -54 75 -54zM333 440
q-38 0 -75 -36.5t-50 -90.5q-20 -83 -26 -149v-11l227 238q-20 49 -76 49z" />
    <glyph glyph-name="ugrave" unicode="&#xf9;" horiz-adv-x="559" 
d="M211 143l69 237q12 43 -12 77t-66 33q-20 0 -50 -20.5t-49.5 -39t-32.5 -34.5l23 -23q35 35 46 35q10 0 20.5 -13.5t7.5 -23.5l-72 -242q-13 -51 15.5 -96t78.5 -45q81 0 185 118h5l-1 -21q-2 -41 16 -68t54 -26q40 1 127 93l-19 27q-37 -34 -47 -34q-9 0 -19 13t-8 23
l64 366h-113l-55 -316q-29 -34 -67 -61.5t-60 -27.5q-24 0 -36 21t-4 48zM230 713h129l30 -176h-36z" />
    <glyph glyph-name="uacute" unicode="&#xfa;" horiz-adv-x="559" 
d="M280 380l-69 -237q-8 -27 4 -48t36 -21q22 0 60 27.5t67 61.5l55 316h113l-64 -366q-2 -10 8 -23t19 -13q10 0 47 34l19 -27q-87 -92 -127 -93q-36 -1 -54 26t-16 68l1 21h-5q-104 -118 -185 -118q-50 0 -78.5 45t-15.5 96l72 242q3 10 -7.5 23.5t-20.5 13.5
q-11 0 -46 -35l-23 23q13 16 32.5 34.5t49.5 39t50 20.5q42 1 66 -33t12 -77zM398 713h141l-191 -176h-37z" />
    <glyph glyph-name="ucircumflex" unicode="&#xfb;" horiz-adv-x="559" 
d="M211 143l69 237q12 43 -12 77t-66 33q-20 0 -50 -20.5t-49.5 -39t-32.5 -34.5l23 -23q35 35 46 35q10 0 20.5 -13.5t7.5 -23.5l-72 -242q-13 -51 15.5 -96t78.5 -45q81 0 185 118h5l-1 -21q-2 -41 16 -68t54 -26q40 1 127 93l-19 27q-37 -34 -47 -34q-9 0 -19 13t-8 23
l64 366h-113l-55 -316q-29 -34 -67 -61.5t-60 -27.5q-24 0 -36 21t-4 48zM355 713h86l54 -176h-41l-68 95l-131 -95h-43z" />
    <glyph glyph-name="udieresis" unicode="&#xfc;" horiz-adv-x="559" 
d="M211 143l69 237q12 43 -12 77t-66 33q-20 0 -50 -20.5t-49.5 -39t-32.5 -34.5l23 -23q35 35 46 35q10 0 20.5 -13.5t7.5 -23.5l-72 -242q-13 -51 15.5 -96t78.5 -45q81 0 185 118h5l-1 -21q-2 -41 16 -68t54 -26q40 1 127 93l-19 27q-37 -34 -47 -34q-9 0 -19 13t-8 23
l64 366h-113l-55 -316q-29 -34 -67 -61.5t-60 -27.5q-24 0 -36 21t-4 48zM537 621q0 -26 -18.5 -44t-44.5 -18t-44.5 18t-18.5 44t18.5 44t44.5 18t44.5 -18t18.5 -44zM333 621q0 -26 -18.5 -44t-44.5 -18t-44.5 18t-18.5 44t18.5 44t44.5 18t44.5 -18t18.5 -44z" />
    <glyph glyph-name="yacute" unicode="&#xfd;" horiz-adv-x="453" 
d="M108 384q-4 13 -21.5 36.5t-25.5 23.5h-18v35h189v-96l36 -224h7l120 227q3 14 -7 36t-19 22h-32v35h185v-35h-15q-6 0 -28 -22t-33 -36l-205 -361l-110 -231h-67l115 232q-34 205 -71 358zM346 713h141l-191 -176h-37z" />
    <glyph glyph-name="thorn" unicode="&#xfe;" horiz-adv-x="547" 
d="M39 -115l134 749q2 11 -13.5 29.5t-23.5 18.5h-22v32q48 10 96 24.5t72 23.5l24 9l-59 -347q61 66 142 66q75 0 117.5 -46.5t42.5 -136.5q0 -74 -33.5 -146.5t-96 -121.5t-136.5 -49q-37 0 -63.5 23.5t-36.5 59.5h-5l-23 -188q-1 -14 12.5 -34.5t22.5 -20.5h45v-36h-270
v36h19q10 0 31.5 20.5t23.5 34.5zM205 169q-5 -53 18.5 -85t62.5 -32q38 0 73 35.5t52 91.5q21 69 23 137q2 53 -18 83t-58 30q-44 0 -83 -35.5t-49 -92.5q-15 -68 -21 -132z" />
    <glyph glyph-name="ydieresis" unicode="&#xff;" horiz-adv-x="453" 
d="M108 384q16 -68 34 -157.5t28 -144.5l9 -56l-115 -232h67l110 231l205 361q11 14 33 36t28 22h15v35h-185v-35h32q9 0 19 -22t7 -36l-120 -227h-7q-19 127 -36 224v96h-189v-35h18q8 0 25.5 -23.5t21.5 -36.5zM480 621q0 -26 -18.5 -44t-44.5 -18t-44.5 18t-18.5 44
t18.5 44t44.5 18t44.5 -18t18.5 -44zM276 621q0 -26 -18.5 -44t-44.5 -18t-44.5 18t-18.5 44t18.5 44t44.5 18t44.5 -18t18.5 -44z" />
    <glyph glyph-name="Amacron" unicode="&#x100;" horiz-adv-x="682" 
d="M458 102l-17 109h-212l-55 -108q0 -14 12.5 -40t21.5 -26h40v-37h-228v37h13q9 1 41 26.5t43 39.5l302 597l65 43l124 -641q11 -18 30.5 -41.5t27.5 -23.5h16v-37h-322v37h38q12 1 36 27t24 38zM388 521h-5l-131 -260h181zM363 879h247l-17 -80h-253z" />
    <glyph glyph-name="amacron" unicode="&#x101;" horiz-adv-x="572" 
d="M387 90h-5q-32 -51 -74.5 -76t-85.5 -25q-70 0 -109.5 47.5t-39.5 126.5q0 77 34 152t96 125t134 50q87 0 116 -78l92 67h9l-81 -371q-2 -11 8.5 -23.5t20.5 -12.5q6 0 23 13.5t24 22.5l19 -26q-21 -27 -61 -58.5t-70 -32.5q-33 -1 -44.5 27.5t-5.5 71.5zM248 54
q39 0 72 34.5t50 86.5q18 53 30 137q9 57 -6 93t-56 36q-39 0 -72.5 -34.5t-53.5 -87.5q-22 -60 -31 -133q-7 -56 10 -94t57 -38zM274 648h242l-16 -78h-243z" />
    <glyph glyph-name="Abreve" unicode="&#x102;" horiz-adv-x="682" 
d="M458 102l-17 109h-212l-55 -108q0 -14 12.5 -40t21.5 -26h40v-37h-228v37h13q9 1 41 26.5t43 39.5l302 597l65 43l124 -641q11 -18 30.5 -41.5t27.5 -23.5h16v-37h-322v37h38q12 1 36 27t24 38zM388 521h-5l-131 -260h181zM461 775q-68 0 -95.5 40.5t-8.5 101.5l32 4
q-5 -34 16.5 -49t61.5 -15q100 0 139 67l32 -7q-19 -63 -68.5 -102.5t-108.5 -39.5z" />
    <glyph glyph-name="abreve" unicode="&#x103;" horiz-adv-x="572" 
d="M387 90h-5q-32 -51 -74.5 -76t-85.5 -25q-70 0 -109.5 47.5t-39.5 126.5q0 77 34 152t96 125t134 50q87 0 116 -78l92 67h9l-81 -371q-2 -11 8.5 -23.5t20.5 -12.5q6 0 23 13.5t24 22.5l19 -26q-21 -27 -61 -58.5t-70 -32.5q-33 -1 -44.5 27.5t-5.5 71.5zM248 54
q39 0 72 34.5t50 86.5q18 53 30 137q9 57 -6 93t-56 36q-39 0 -72.5 -34.5t-53.5 -87.5q-22 -60 -31 -133q-7 -56 10 -94t57 -38zM372 537q-68 0 -93.5 42t-6.5 104l31 4q-5 -35 16 -53t59 -18q96 0 137 74l30 -7q-19 -64 -67 -105t-106 -41z" />
    <glyph glyph-name="Aogonek" unicode="&#x104;" horiz-adv-x="682" 
d="M458 102l-17 109h-212l-55 -108q0 -14 12.5 -40t21.5 -26h40v-37h-228v37h13q9 1 41 26.5t43 39.5l302 597l65 43l124 -641q11 -18 30.5 -41.5t27.5 -23.5h16v-37h-126q-53 -48 -63 -119q-1 -12 10.5 -24.5t22.5 -12.5q8 0 50 35l22 -26q-2 -2 -10.5 -11t-11 -11.5
l-11 -11t-12.5 -11.5t-12.5 -10t-13.5 -10t-13.5 -7.5t-15 -6.5t-14 -3.5t-15.5 -1.5q-42 0 -65.5 28t-15.5 64q7 33 48 77.5t69 61.5h-145v37h38q12 1 36 27t24 38zM388 521h-5l-131 -260h181z" />
    <glyph glyph-name="aogonek" unicode="&#x105;" horiz-adv-x="572" 
d="M504 21l-6 -5q-35 -24 -61 -25q-11 0 -19 3q4 4 9 6l77 21l-6 -5q-70 -52 -83 -135q-1 -12 10.5 -24.5t22.5 -12.5q8 0 50 35l22 -26q-2 -2 -10.5 -11t-11 -11.5l-11 -11t-12.5 -11.5t-12.5 -10t-13.5 -10t-13.5 -7.5t-15 -6.5t-14 -3.5t-15.5 -1.5q-42 0 -65.5 28
t-15.5 64q7 31 42 71t66 62q-42 15 -31 96h-5q-32 -51 -74.5 -76t-85.5 -25q-70 0 -109.5 47.5t-39.5 126.5q0 77 34 152t96 125t134 50q87 0 116 -78l92 67h9l-81 -371q-2 -11 8.5 -23.5t20.5 -12.5q6 0 23 13.5t24 22.5l19 -26q-24 -32 -64 -61zM248 54q39 0 72 34.5
t50 86.5q18 53 30 137q9 57 -6 93t-56 36q-39 0 -72.5 -34.5t-53.5 -87.5q-22 -60 -31 -133q-7 -56 10 -94t57 -38z" />
    <glyph glyph-name="Cacute" unicode="&#x106;" horiz-adv-x="685" 
d="M483 692q-72 0 -128.5 -55t-81.5 -175q-19 -82 -30 -185q-10 -94 36 -154t129 -60q138 0 233 127h57q-51 -87 -134 -143.5t-188 -58.5q-135 -3 -207.5 80.5t-72.5 233.5q0 103 50 203.5t142.5 168.5t201.5 68q38 0 86.5 -17t72.5 -17q29 0 44 20h37l-61 -252h-39
q0 26 -7 59t-22 70t-46 62t-72 25zM535 917h162l-209 -140h-49z" />
    <glyph glyph-name="cacute" unicode="&#x107;" horiz-adv-x="462" 
d="M326 447q-69 -10 -107 -76t-38 -156q0 -59 32 -95t86 -36q28 0 54 10t42.5 24.5t29.5 29t19 24.5l5 10h37q-36 -84 -102.5 -138.5t-140.5 -54.5q-77 0 -123.5 53.5t-46.5 135.5q0 73 32 143.5t96 119.5t143 49q90 0 143 -72l-94 -118q-21 0 -29 16t0 40q14 31 6 61
t-44 30zM379 713h141l-191 -176h-37z" />
    <glyph glyph-name="Ccircumflex" unicode="&#x108;" horiz-adv-x="685" 
d="M483 692q-72 0 -128.5 -55t-81.5 -175q-19 -82 -30 -185q-10 -94 36 -154t129 -60q138 0 233 127h57q-51 -87 -134 -143.5t-188 -58.5q-135 -3 -207.5 80.5t-72.5 233.5q0 103 50 203.5t142.5 168.5t201.5 68q38 0 86.5 -17t72.5 -17q29 0 44 20h37l-61 -252h-39
q0 26 -7 59t-22 70t-46 62t-72 25zM481 931h100l62 -154h-40l-81 77l-135 -77h-46z" />
    <glyph glyph-name="ccircumflex" unicode="&#x109;" horiz-adv-x="462" 
d="M326 447q-69 -10 -107 -76t-38 -156q0 -59 32 -95t86 -36q28 0 54 10t42.5 24.5t29.5 29t19 24.5l5 10h37q-36 -84 -102.5 -138.5t-140.5 -54.5q-77 0 -123.5 53.5t-46.5 135.5q0 73 32 143.5t96 119.5t143 49q90 0 143 -72l-94 -118q-21 0 -29 16t0 40q14 31 6 61
t-44 30zM339 713h86l54 -176h-41l-68 95l-131 -95h-43z" />
    <glyph glyph-name="Cdotaccent" unicode="&#x10a;" horiz-adv-x="685" 
d="M483 692q-72 0 -128.5 -55t-81.5 -175q-19 -82 -30 -185q-10 -94 36 -154t129 -60q138 0 233 127h57q-51 -87 -134 -143.5t-188 -58.5q-135 -3 -207.5 80.5t-72.5 233.5q0 103 50 203.5t142.5 168.5t201.5 68q38 0 86.5 -17t72.5 -17q29 0 44 20h37l-61 -252h-39
q0 26 -7 59t-22 70t-46 62t-72 25zM594 848q0 -32 -22 -54.5t-56 -22.5q-33 0 -55.5 22.5t-22.5 54.5t22.5 54.5t55.5 22.5q34 0 56 -22.5t22 -54.5z" />
    <glyph glyph-name="cdotaccent" unicode="&#x10b;" horiz-adv-x="462" 
d="M326 447q-69 -10 -107 -76t-38 -156q0 -59 32 -95t86 -36q28 0 54 10t42.5 24.5t29.5 29t19 24.5l5 10h37q-36 -84 -102.5 -138.5t-140.5 -54.5q-77 0 -123.5 53.5t-46.5 135.5q0 73 32 143.5t96 119.5t143 49q90 0 143 -72l-94 -118q-21 0 -29 16t0 40q14 31 6 61
t-44 30zM450 633q0 -33 -24.5 -57t-58.5 -24t-58.5 24t-24.5 57t24.5 57t58.5 24t58.5 -24t24.5 -57z" />
    <glyph glyph-name="Ccaron" unicode="&#x10c;" horiz-adv-x="685" 
d="M483 692q-72 0 -128.5 -55t-81.5 -175q-19 -82 -30 -185q-10 -94 36 -154t129 -60q138 0 233 127h57q-51 -87 -134 -143.5t-188 -58.5q-135 -3 -207.5 80.5t-72.5 233.5q0 103 50 203.5t142.5 168.5t201.5 68q38 0 86.5 -17t72.5 -17q29 0 44 20h37l-61 -252h-39
q0 26 -7 59t-22 70t-46 62t-72 25zM545 777h-101l-62 154h39l82 -78l134 78h46z" />
    <glyph glyph-name="ccaron" unicode="&#x10d;" horiz-adv-x="462" 
d="M326 447q-69 -10 -107 -76t-38 -156q0 -59 32 -95t86 -36q28 0 54 10t42.5 24.5t29.5 29t19 24.5l5 10h37q-36 -84 -102.5 -138.5t-140.5 -54.5q-77 0 -123.5 53.5t-46.5 135.5q0 73 32 143.5t96 119.5t143 49q90 0 143 -72l-94 -118q-21 0 -29 16t0 40q14 31 6 61
t-44 30zM383 537h-86l-58 176h41l70 -95l134 95h43z" />
    <glyph glyph-name="Dcaron" unicode="&#x10e;" horiz-adv-x="683" 
d="M548 280q17 72 27 169q24 232 -148 232h-21q-10 0 -29 -19.5t-20 -30.5l-90 -533q-2 -11 12.5 -29.5t22.5 -18.5h22q171 0 224 230zM128 728h303q123 0 202.5 -81t79.5 -215q0 -177 -117 -304.5t-285 -127.5h-266v37h18q10 0 33.5 22.5t25.5 35.5l90 537q2 11 -14.5 35
t-25.5 24h-44v37zM460 777h-101l-62 154h39l82 -78l134 78h46z" />
    <glyph glyph-name="dcaron" unicode="&#x10f;" horiz-adv-x="670" 
d="M427 444l30 180q1 13 -13.5 36t-23.5 23h-48v31q48 9 103 23.5t85 24.5l31 9l-112 -661q-1 -12 8.5 -24.5t19.5 -12.5q11 0 46 35l19 -26q-14 -16 -32 -34t-47.5 -37.5t-49.5 -19.5q-59 0 -51 98h-5q-75 -100 -157 -100q-73 0 -115 45t-42 128q0 77 32.5 152t93.5 125.5
t133 50.5q57 0 95 -46zM250 53q45 0 76 34t46 88q18 67 27 137q7 57 -10 93t-58 36q-40 0 -72 -34t-49 -88q-23 -70 -29 -133q-6 -58 11 -95.5t58 -37.5zM750 699l-4 -26q-9 -58 -51.5 -91t-93.5 -35v39q32 -1 58 14.5t33 38.5h-30q-19 5 -30.5 21t-11.5 38q0 26 20 46.5
t49 20.5q28 0 46.5 -19.5t14.5 -46.5z" />
    <glyph glyph-name="Dcroat" unicode="&#x110;" horiz-adv-x="683" 
d="M128 728h303q123 0 202.5 -81t79.5 -215q0 -177 -117 -304.5t-285 -127.5h-266v37h18q10 0 33.5 22.5t25.5 35.5l43 257h-85v48h93l39 232q2 11 -14.5 35t-25.5 24h-44v37zM507 400l-8 -48h-189l-43 -254q-2 -11 12.5 -29.5t22.5 -18.5h22q171 0 224 230q17 72 27 169
q24 232 -148 232h-21q-10 0 -29 -19.5t-20 -30.5l-39 -231h189z" />
    <glyph glyph-name="dcroat" unicode="&#x111;" horiz-adv-x="569" 
d="M452 596l5 28q1 13 -13.5 36t-23.5 23h-48v31q48 9 103 23.5t85 24.5l31 9l-30 -175h82l-11 -56h-80l-73 -430q-1 -12 8.5 -24.5t19.5 -12.5q11 0 46 35l19 -26q-14 -16 -32 -34t-47.5 -37.5t-49.5 -19.5q-59 0 -51 98h-5q-75 -100 -157 -100q-73 0 -115 45t-42 128
q0 77 32.5 152t93.5 125.5t133 50.5q57 0 95 -46l16 96h-195l11 56h193zM250 53q45 0 76 34t46 88q18 67 27 137q7 57 -10 93t-58 36q-40 0 -72 -34t-49 -88q-23 -70 -29 -133q-6 -58 11 -95.5t58 -37.5z" />
    <glyph glyph-name="Emacron" unicode="&#x112;" horiz-adv-x="658" 
d="M693 728l-34 -199h-34q2 15 -36.5 83t-49.5 68h-159q-3 0 -10.5 -8t-8.5 -12l-43 -263h73q12 0 48.5 32t36.5 43v18h38v-239h-38v21q0 12 -36.5 44t-48.5 32h-82l-47 -276q0 -5 4.5 -13.5t8.5 -8.5h186q23 0 75.5 83.5t52.5 104.5h36v-238h-580v37h20q10 0 32.5 22.5
t24.5 34.5l90 537q2 13 -14 36.5t-26 23.5h-44v37h565zM344 879h247l-17 -80h-253z" />
    <glyph glyph-name="emacron" unicode="&#x113;" horiz-adv-x="463" 
d="M293 249q-40 -7 -108 -15q-10 -66 16 -108.5t84 -42.5q45 0 86 27.5t67 71.5h37q-36 -85 -99.5 -139t-132.5 -54q-83 0 -126.5 54t-43.5 137q0 110 79 210t177 100q58 0 93 -26t35 -78q0 -53 -46.5 -88.5t-117.5 -48.5zM188 268q56 8 106 22q37 10 63 35t26 57
q0 29 -16.5 47t-42.5 18q-46 -5 -86.5 -61.5t-49.5 -117.5zM232 648h242l-16 -78h-243z" />
    <glyph glyph-name="Ebreve" unicode="&#x114;" horiz-adv-x="658" 
d="M693 728l-34 -199h-34q2 15 -36.5 83t-49.5 68h-159q-3 0 -10.5 -8t-8.5 -12l-43 -263h73q12 0 48.5 32t36.5 43v18h38v-239h-38v21q0 12 -36.5 44t-48.5 32h-82l-47 -276q0 -5 4.5 -13.5t8.5 -8.5h186q23 0 75.5 83.5t52.5 104.5h36v-238h-580v37h20q10 0 32.5 22.5
t24.5 34.5l90 537q2 13 -14 36.5t-26 23.5h-44v37h565zM434 775q-68 0 -95.5 40.5t-8.5 101.5l32 4q-5 -34 16.5 -49t61.5 -15q100 0 139 67l32 -7q-19 -63 -68.5 -102.5t-108.5 -39.5z" />
    <glyph glyph-name="ebreve" unicode="&#x115;" horiz-adv-x="463" 
d="M293 249q-40 -7 -108 -15q-10 -66 16 -108.5t84 -42.5q45 0 86 27.5t67 71.5h37q-36 -85 -99.5 -139t-132.5 -54q-83 0 -126.5 54t-43.5 137q0 110 79 210t177 100q58 0 93 -26t35 -78q0 -53 -46.5 -88.5t-117.5 -48.5zM188 268q56 8 106 22q37 10 63 35t26 57
q0 29 -16.5 47t-42.5 18q-46 -5 -86.5 -61.5t-49.5 -117.5zM331 537q-68 0 -93.5 42t-6.5 104l31 4q-5 -35 16 -53t59 -18q96 0 137 74l30 -7q-19 -64 -67 -105t-106 -41z" />
    <glyph glyph-name="Edotaccent" unicode="&#x116;" horiz-adv-x="658" 
d="M659 529l34 199h-565v-37h44q10 0 26 -23.5t14 -36.5l-90 -537q-2 -12 -24.5 -34.5t-32.5 -22.5h-20v-37h580v238h-36q0 -21 -52.5 -104.5t-75.5 -83.5h-186q-4 0 -8.5 8.5t-4.5 13.5l47 276h82q12 0 48.5 -32t36.5 -44v-21h38v239h-38v-18q0 -11 -36.5 -43t-48.5 -32
h-73l43 263q1 4 8.5 12t10.5 8h159q11 0 49.5 -68t36.5 -83h34zM525 848q0 -32 -22.5 -54.5t-55.5 -22.5t-55.5 22.5t-22.5 54.5t22.5 54.5t55.5 22.5t55.5 -22.5t22.5 -54.5z" />
    <glyph glyph-name="edotaccent" unicode="&#x117;" horiz-adv-x="463" 
d="M293 249q-40 -7 -108 -15q-10 -66 16 -108.5t84 -42.5q45 0 86 27.5t67 71.5h37q-36 -85 -99.5 -139t-132.5 -54q-83 0 -126.5 54t-43.5 137q0 110 79 210t177 100q58 0 93 -26t35 -78q0 -53 -46.5 -88.5t-117.5 -48.5zM188 268q56 8 106 22q37 10 63 35t26 57
q0 29 -16.5 47t-42.5 18q-46 -5 -86.5 -61.5t-49.5 -117.5zM438 633q0 -33 -24.5 -57t-58.5 -24t-58.5 24t-24.5 57t24.5 57t58.5 24t58.5 -24t24.5 -57z" />
    <glyph glyph-name="Eogonek" unicode="&#x118;" horiz-adv-x="658" 
d="M693 728l-34 -199h-34q2 15 -36.5 83t-49.5 68h-159q-3 0 -10.5 -8t-8.5 -12l-43 -263h73q12 0 48.5 32t36.5 43v18h38v-239h-38v21q0 12 -36.5 44t-48.5 32h-82l-47 -276q0 -5 4.5 -13.5t8.5 -8.5h186q23 0 75.5 83.5t52.5 104.5h36v-238h-61q-53 -48 -63 -119
q-1 -12 10.5 -24.5t22.5 -12.5q8 0 50 35l22 -26q-2 -2 -10.5 -11t-11 -11.5l-11 -11t-12.5 -11.5t-12.5 -10t-13.5 -10t-13.5 -7.5t-15 -6.5t-14 -3.5t-15.5 -1.5q-42 0 -65.5 28t-15.5 64q7 33 48 77.5t69 61.5h-468v37h20q10 0 32.5 22.5t24.5 34.5l90 537q2 13 -14 36.5
t-26 23.5h-44v37h565z" />
    <glyph glyph-name="eogonek" unicode="&#x119;" horiz-adv-x="463" 
d="M293 249q-40 -7 -108 -15q-10 -66 16 -108.5t84 -42.5q45 0 86 27.5t67 71.5h37q-30 -71 -80 -121q-76 -92 -97 -180q-3 -11 9.5 -24t23.5 -13q8 0 50 35l22 -26q-2 -2 -10.5 -11t-11 -11.5l-11 -11t-12.5 -11.5t-12.5 -10t-13.5 -10t-13.5 -7.5t-15 -6.5t-14 -3.5
t-15.5 -1.5q-43 0 -66 28.5t-12 63.5q20 61 98 136q-27 -8 -51 -8q-83 0 -126.5 54t-43.5 137q0 110 79 210t177 100q58 0 93 -26t35 -78q0 -53 -46.5 -88.5t-117.5 -48.5zM188 268q56 8 106 22q37 10 63 35t26 57q0 29 -16.5 47t-42.5 18q-46 -5 -86.5 -61.5t-49.5 -117.5z
" />
    <glyph glyph-name="Ecaron" unicode="&#x11a;" horiz-adv-x="658" 
d="M659 529l34 199h-565v-37h44q10 0 26 -23.5t14 -36.5l-90 -537q-2 -12 -24.5 -34.5t-32.5 -22.5h-20v-37h580v238h-36q0 -21 -52.5 -104.5t-75.5 -83.5h-186q-4 0 -8.5 8.5t-4.5 13.5l47 276h82q12 0 48.5 -32t36.5 -44v-21h38v239h-38v-18q0 -11 -36.5 -43t-48.5 -32
h-73l43 263q1 4 8.5 12t10.5 8h159q11 0 49.5 -68t36.5 -83h34zM492 777h-101l-62 154h39l82 -78l134 78h46z" />
    <glyph glyph-name="ecaron" unicode="&#x11b;" horiz-adv-x="463" 
d="M293 249q-40 -7 -108 -15q-10 -66 16 -108.5t84 -42.5q45 0 86 27.5t67 71.5h37q-36 -85 -99.5 -139t-132.5 -54q-83 0 -126.5 54t-43.5 137q0 110 79 210t177 100q58 0 93 -26t35 -78q0 -53 -46.5 -88.5t-117.5 -48.5zM188 268q56 8 106 22q37 10 63 35t26 57
q0 29 -16.5 47t-42.5 18q-46 -5 -86.5 -61.5t-49.5 -117.5zM373 537h-86l-58 176h41l70 -95l134 95h43z" />
    <glyph glyph-name="Gcircumflex" unicode="&#x11c;" horiz-adv-x="707" 
d="M506 742q46 0 95 -17t70 -17q29 0 44 20h37l-60 -252h-40q3 41 -9.5 88.5t-49.5 87.5t-89 40q-79 0 -138 -55t-89 -173q-20 -79 -33 -192q-11 -99 25.5 -158.5t109.5 -59.5h11q34 0 71 22.5t52 50.5l-1 105q0 11 -19.5 35t-27.5 24h-87v39h373v-39h-61q-9 0 -29.5 -23.5
t-20.5 -34.5l1 -233h-12l-72 84q-76 -96 -185 -96q-129 0 -202.5 84.5t-73.5 222.5q0 64 18.5 128.5t54.5 121.5t85 101t114.5 70t137.5 26zM490 931h100l62 -154h-40l-81 77l-135 -77h-46z" />
    <glyph glyph-name="gcircumflex" unicode="&#x11d;" horiz-adv-x="502" 
d="M136 -40q-3 -15 13 -24t45.5 -12t69 -3.5t83.5 0.5q37 0 37 -26q0 -64 -156 -68q-36 0 -99 29t-59 53q3 18 24.5 32t41.5 19zM479 305q3 16 23.5 48t32.5 32h27l-31 148q-76 11 -91 -192h-6q5 64 -31 106.5t-98 42.5q-93 0 -155 -57t-62 -148q0 -53 31.5 -88.5
t63.5 -44.5q-62 -13 -104.5 -40t-42.5 -65q0 -26 24 -45t52 -21q-121 -32 -121 -95q0 -47 65 -73.5t165 -26.5q104 0 176.5 41t72.5 114q0 38 -29.5 61t-76.5 22q-115 -2 -174 5q-22 2 -35.5 13t-13.5 28q0 41 54 51h63q86 0 147.5 54.5t73.5 129.5zM259 178q-36 0 -55 28
t-16 69q3 35 13 77q10 44 37.5 68t65.5 24q34 0 54 -28t17 -72q-3 -35 -14 -78q-11 -40 -37.5 -64t-64.5 -24zM308 713h86l54 -176h-41l-68 95l-131 -95h-43z" />
    <glyph glyph-name="Gbreve" unicode="&#x11e;" horiz-adv-x="707" 
d="M506 742q46 0 95 -17t70 -17q29 0 44 20h37l-60 -252h-40q3 41 -9.5 88.5t-49.5 87.5t-89 40q-79 0 -138 -55t-89 -173q-20 -79 -33 -192q-11 -99 25.5 -158.5t109.5 -59.5h11q34 0 71 22.5t52 50.5l-1 105q0 11 -19.5 35t-27.5 24h-87v39h373v-39h-61q-9 0 -29.5 -23.5
t-20.5 -34.5l1 -233h-12l-72 84q-76 -96 -185 -96q-129 0 -202.5 84.5t-73.5 222.5q0 64 18.5 128.5t54.5 121.5t85 101t114.5 70t137.5 26zM514 775q-68 0 -95.5 40.5t-8.5 101.5l32 4q-5 -34 16.5 -49t61.5 -15q100 0 139 67l32 -7q-19 -63 -68.5 -102.5t-108.5 -39.5z
" />
    <glyph glyph-name="gbreve" unicode="&#x11f;" horiz-adv-x="502" 
d="M136 -40q-20 -5 -41.5 -19t-24.5 -32q-4 -24 59 -53t99 -29q156 4 156 68q0 26 -37 26q-44 -1 -83.5 -0.5t-69 3.5t-45.5 12t-13 24zM479 305q-12 -75 -73.5 -129.5t-147.5 -54.5h-63q-54 -10 -54 -51q0 -17 13.5 -28t35.5 -13q59 -7 174 -5q47 1 76.5 -22t29.5 -61
q0 -73 -72.5 -114t-176.5 -41q-100 0 -165 26.5t-65 73.5q0 63 121 95q-28 2 -52 21t-24 45q0 38 42.5 65t104.5 40q-32 9 -63.5 44.5t-31.5 88.5q0 91 62 148t155 57q62 0 98 -42.5t31 -106.5h6q15 203 91 192l31 -148h-27q-12 0 -32.5 -32t-23.5 -48zM259 178
q38 0 64.5 24t37.5 64q11 43 14 78q3 44 -17 72t-54 28q-38 0 -65.5 -24t-37.5 -68q-10 -42 -13 -77q-3 -41 16 -69t55 -28zM317 537q-68 0 -93.5 42t-6.5 104l31 4q-5 -35 16 -53t59 -18q96 0 137 74l30 -7q-19 -64 -67 -105t-106 -41z" />
    <glyph glyph-name="Gdotaccent" unicode="&#x120;" horiz-adv-x="707" 
d="M506 742q46 0 95 -17t70 -17q29 0 44 20h37l-60 -252h-40q3 41 -9.5 88.5t-49.5 87.5t-89 40q-79 0 -138 -55t-89 -173q-20 -79 -33 -192q-11 -99 25.5 -158.5t109.5 -59.5h11q34 0 71 22.5t52 50.5l-1 105q0 11 -19.5 35t-27.5 24h-87v39h373v-39h-61q-9 0 -29.5 -23.5
t-20.5 -34.5l1 -233h-12l-72 84q-76 -96 -185 -96q-129 0 -202.5 84.5t-73.5 222.5q0 64 18.5 128.5t54.5 121.5t85 101t114.5 70t137.5 26zM602 848q0 -32 -22 -54.5t-56 -22.5q-33 0 -55.5 22.5t-22.5 54.5t22.5 54.5t55.5 22.5q34 0 56 -22.5t22 -54.5z" />
    <glyph glyph-name="gdotaccent" unicode="&#x121;" horiz-adv-x="502" 
d="M136 -40q-3 -15 13 -24t45.5 -12t69 -3.5t83.5 0.5q37 0 37 -26q0 -64 -156 -68q-36 0 -99 29t-59 53q3 18 24.5 32t41.5 19zM479 305q3 16 23.5 48t32.5 32h27l-31 148q-76 11 -91 -192h-6q5 64 -31 106.5t-98 42.5q-93 0 -155 -57t-62 -148q0 -53 31.5 -88.5
t63.5 -44.5q-62 -13 -104.5 -40t-42.5 -65q0 -26 24 -45t52 -21q-121 -32 -121 -95q0 -47 65 -73.5t165 -26.5q104 0 176.5 41t72.5 114q0 38 -29.5 61t-76.5 22q-115 -2 -174 5q-22 2 -35.5 13t-13.5 28q0 41 54 51h63q86 0 147.5 54.5t73.5 129.5zM259 178q-36 0 -55 28
t-16 69q3 35 13 77q10 44 37.5 68t65.5 24q34 0 54 -28t17 -72q-3 -35 -14 -78q-11 -40 -37.5 -64t-64.5 -24zM401 633q0 -33 -24.5 -57t-58.5 -24t-58.5 24t-24.5 57t24.5 57t58.5 24t58.5 -24t24.5 -57z" />
    <glyph glyph-name="Gcommaaccent" unicode="&#x122;" horiz-adv-x="707" 
d="M506 742q46 0 95 -17t70 -17q29 0 44 20h37l-60 -252h-40q3 41 -9.5 88.5t-49.5 87.5t-89 40q-79 0 -138 -55t-89 -173q-20 -79 -33 -192q-11 -99 25.5 -158.5t109.5 -59.5h11q34 0 71 22.5t52 50.5l-1 105q0 11 -19.5 35t-27.5 24h-87v39h373v-39h-61q-9 0 -29.5 -23.5
t-20.5 -34.5l1 -233h-12l-72 84q-76 -96 -185 -96q-129 0 -202.5 84.5t-73.5 222.5q0 64 18.5 128.5t54.5 121.5t85 101t114.5 70t137.5 26zM391 -105l-4 -26q-9 -58 -53 -92.5t-95 -36.5v39q32 -1 59.5 16t34.5 40h-30q-19 5 -30.5 21t-11.5 38q0 26 20 46.5t49 20.5
q28 0 46.5 -19.5t14.5 -46.5z" />
    <glyph glyph-name="gcommaaccent" unicode="&#x123;" horiz-adv-x="502" 
d="M136 -40q-3 -15 13 -24t45.5 -12t69 -3.5t83.5 0.5q37 0 37 -26q0 -64 -156 -68q-36 0 -99 29t-59 53q3 18 24.5 32t41.5 19zM479 305q3 16 23.5 48t32.5 32h27l-31 148q-76 11 -91 -192h-6q5 64 -31 106.5t-98 42.5q-93 0 -155 -57t-62 -148q0 -53 31.5 -88.5
t63.5 -44.5q-62 -13 -104.5 -40t-42.5 -65q0 -26 24 -45t52 -21q-121 -32 -121 -95q0 -47 65 -73.5t165 -26.5q104 0 176.5 41t72.5 114q0 38 -29.5 61t-76.5 22q-115 -2 -174 5q-22 2 -35.5 13t-13.5 28q0 41 54 51h63q86 0 147.5 54.5t73.5 129.5zM259 178q-36 0 -55 28
t-16 69q3 35 13 77q10 44 37.5 68t65.5 24q34 0 54 -28t17 -72q-3 -35 -14 -78q-11 -40 -37.5 -64t-64.5 -24zM252 613l4 26q9 58 53 92.5t95 36.5v-39q-32 1 -59.5 -16t-34.5 -40h30q19 -5 30.5 -21t11.5 -38q0 -26 -20 -46.5t-49 -20.5q-28 0 -46.5 19.5t-14.5 46.5z" />
    <glyph glyph-name="Hcircumflex" unicode="&#x124;" horiz-adv-x="722" 
d="M316 396h248l40 235q1 10 -17.5 35t-26.5 25h-37v37h299v-37h-19q-8 0 -33 -25t-26 -35l-89 -534q-2 -12 13 -36t25 -24h38v-37h-321v37h44q9 0 33.5 24t26.5 36l41 244h-248l-41 -244q-2 -12 14 -36t25 -24h40v-37h-300v37h19q9 0 33 24t26 36l89 534q1 10 -16.5 35
t-23.5 25h-44v37h324v-37h-37q-8 0 -33 -25t-26 -35zM487 931h100l62 -154h-40l-81 77l-135 -77h-46z" />
    <glyph glyph-name="hcircumflex" unicode="&#x125;" horiz-adv-x="543" 
d="M272 963h86l58 -166h-41l-71 93l-131 -93h-45zM336 101q18 75 75 245q5 15 -13 36.5t-33 21.5q-24 0 -76.5 -45.5t-54.5 -58.5l-52 -300h-116l110 634q2 12 -12 30t-24 18h-23v31q44 10 92.5 24.5t74.5 23.5l27 9l-68 -403q118 123 182 123q56 0 86 -44.5t13 -97.5
q-53 -163 -75 -242q-3 -12 7 -23.5t21 -11.5q7 0 23.5 13.5t25.5 23.5l19 -26q-24 -33 -60 -62t-66 -29q-42 0 -68 32t-15 78z" />
    <glyph glyph-name="Hbar" unicode="&#x126;" horiz-adv-x="722" 
d="M821 502h-99l-67 -405q-2 -12 13 -36t25 -24h38v-37h-321v37h44q9 0 33.5 24t26.5 36l41 244h-248l-41 -244q-2 -12 14 -36t25 -24h40v-37h-300v37h19q9 0 33 24t26 36l67 405h-100v48h108l14 81q1 10 -16.5 35t-23.5 25h-44v37h324v-37h-37q-8 0 -33 -25t-26 -35
l-14 -81h248l14 81q1 10 -17.5 35t-26.5 25h-37v37h299v-37h-19q-8 0 -33 -25t-26 -35l-14 -81h91v-48zM316 396h248l18 106h-248z" />
    <glyph glyph-name="hbar" unicode="&#x127;" horiz-adv-x="543" 
d="M336 101q18 75 75 245q5 15 -13 36.5t-33 21.5q-24 0 -76.5 -45.5t-54.5 -58.5l-52 -300h-116l93 540h-74l11 56h73l7 38q2 12 -12 30t-24 18h-23v31q44 10 92.5 24.5t74.5 23.5l27 9l-30 -174h199l-11 -56h-197l-29 -173q118 123 182 123q56 0 86 -44.5t13 -97.5
q-53 -163 -75 -242q-3 -12 7 -23.5t21 -11.5q7 0 23.5 13.5t25.5 23.5l19 -26q-24 -33 -60 -62t-66 -29q-42 0 -68 32t-15 78z" />
    <glyph glyph-name="Itilde" unicode="&#x128;" horiz-adv-x="352" 
d="M361 0h-316v37h28q9 0 33.5 24t26.5 36l89 534q2 11 -14.5 35.5t-26.5 24.5h-50v37h321v-37h-28q-10 0 -34.5 -24.5t-26.5 -35.5l-90 -534q-2 -12 13 -36t25 -24h50v-37zM460 820l-27 -21q-2 40 -40 39q-21 -1 -74 -26t-82 -25q-36 0 -54 26t-12 71l27 21
q0 -16 11.5 -27.5t28.5 -11.5q27 0 78 25t78 25q36 0 54.5 -26t11.5 -70z" />
    <glyph glyph-name="itilde" unicode="&#x129;" horiz-adv-x="309" 
d="M100 76q1 23 13 85.5t25 122.5t13 63q2 11 -13 30t-24 19h-39v32q45 10 98.5 26t84.5 27l31 11q-56 -277 -73 -384q-1 -12 8.5 -24.5t19.5 -12.5q11 0 46 35l19 -26q-23 -27 -62.5 -58.5t-68.5 -32.5q-35 -1 -57.5 25t-20.5 62zM380 587l-29 -23q-5 21 -14 31.5t-28 9.5
q-22 -1 -71.5 -28.5t-80.5 -27.5q-37 0 -56 28.5t-14 75.5l29 23q0 -17 12.5 -29t29.5 -12q29 0 76.5 27.5t75.5 27.5q37 0 56.5 -28.5t13.5 -74.5z" />
    <glyph glyph-name="Imacron" unicode="&#x12a;" horiz-adv-x="352" 
d="M361 0h-316v37h28q9 0 33.5 24t26.5 36l89 534q2 11 -14.5 35.5t-26.5 24.5h-50v37h321v-37h-28q-10 0 -34.5 -24.5t-26.5 -35.5l-90 -534q-2 -12 13 -36t25 -24h50v-37zM207 879h247l-17 -80h-253z" />
    <glyph glyph-name="imacron" unicode="&#x12b;" horiz-adv-x="309" 
d="M100 76q1 23 13 85.5t25 122.5t13 63q2 11 -13 30t-24 19h-39v32q45 10 98.5 26t84.5 27l31 11q-56 -277 -73 -384q-1 -12 8.5 -24.5t19.5 -12.5q11 0 46 35l19 -26q-23 -27 -62.5 -58.5t-68.5 -32.5q-35 -1 -57.5 25t-20.5 62zM116 648h242l-16 -78h-243z" />
    <glyph glyph-name="Ibreve" unicode="&#x12c;" horiz-adv-x="352" 
d="M361 0h-316v37h28q9 0 33.5 24t26.5 36l89 534q2 11 -14.5 35.5t-26.5 24.5h-50v37h321v-37h-28q-10 0 -34.5 -24.5t-26.5 -35.5l-90 -534q-2 -12 13 -36t25 -24h50v-37zM314 775q-68 0 -95.5 40.5t-8.5 101.5l32 4q-5 -34 16.5 -49t61.5 -15q100 0 139 67l32 -7
q-19 -63 -68.5 -102.5t-108.5 -39.5z" />
    <glyph glyph-name="ibreve" unicode="&#x12d;" horiz-adv-x="309" 
d="M100 76q1 23 13 85.5t25 122.5t13 63q2 11 -13 30t-24 19h-39v32q45 10 98.5 26t84.5 27l31 11q-56 -277 -73 -384q-1 -12 8.5 -24.5t19.5 -12.5q11 0 46 35l19 -26q-23 -27 -62.5 -58.5t-68.5 -32.5q-35 -1 -57.5 25t-20.5 62zM223 537q-68 0 -93.5 42t-6.5 104l31 4
q-5 -35 16 -53t59 -18q96 0 137 74l30 -7q-19 -64 -67 -105t-106 -41z" />
    <glyph glyph-name="Iogonek" unicode="&#x12e;" horiz-adv-x="352" 
d="M176 0h-131v37h28q9 0 33.5 24t26.5 36l89 534q2 11 -14.5 35.5t-26.5 24.5h-50v37h321v-37h-28q-10 0 -34.5 -24.5t-26.5 -35.5l-90 -534q-2 -12 13 -36t25 -24h50v-37h-134q-53 -48 -63 -119q-1 -12 10.5 -24.5t22.5 -12.5q8 0 50 35l22 -26q-2 -2 -10.5 -11t-11 -11.5
l-11 -11t-12.5 -11.5t-12.5 -10t-13.5 -10t-13.5 -7.5t-15 -6.5t-14 -3.5t-15.5 -1.5q-42 0 -65.5 28t-15.5 64q7 33 48 77.5t69 61.5z" />
    <glyph glyph-name="iogonek" unicode="&#x12f;" horiz-adv-x="295" 
d="M160 0l77 21q-76 -54 -89 -140q-1 -12 10.5 -24.5t22.5 -12.5q8 0 50 35l22 -26q-2 -2 -10.5 -11t-11 -11.5l-11 -11t-12.5 -11.5t-12.5 -10t-13.5 -10t-13.5 -7.5t-15 -6.5t-14 -3.5t-15.5 -1.5q-42 0 -65.5 28t-15.5 64q6 30 39 68.5t65 62.5q-26 7 -42 30.5t-14 53.5
q1 23 13 85.5t25 122.5t13 63q2 11 -13 30t-24 19h-39v32q45 10 98.5 26t84.5 27l31 11q-56 -277 -73 -384q-1 -12 8.5 -24.5t19.5 -12.5q11 0 46 35l19 -26q-23 -27 -62.5 -58.5t-68.5 -32.5q-11 0 -22 3zM175 628q0 30 21.5 51t51.5 21t51.5 -21.5t21.5 -50.5t-21.5 -50.5
t-51.5 -21.5t-51.5 21t-21.5 51z" />
    <glyph glyph-name="Idotaccent" unicode="&#x130;" horiz-adv-x="352" 
d="M45 0h316v37h-50q-10 0 -25 24t-13 36l90 534q2 11 26.5 35.5t34.5 24.5h28v37h-321v-37h50q10 0 26.5 -24.5t14.5 -35.5l-89 -534q-2 -12 -26.5 -36t-33.5 -24h-28v-37zM393 848q0 -32 -22.5 -54.5t-55.5 -22.5t-55.5 22.5t-22.5 54.5t22.5 54.5t55.5 22.5t55.5 -22.5
t22.5 -54.5z" />
    <glyph glyph-name="dotlessi" unicode="&#x131;" horiz-adv-x="309" 
d="M100 76q1 23 13 85.5t25 122.5t13 63q2 11 -13 30t-24 19h-39v32q45 10 98.5 26t84.5 27l31 11q-56 -277 -73 -384q-1 -12 8.5 -24.5t19.5 -12.5q11 0 46 35l19 -26q-23 -27 -62.5 -58.5t-68.5 -32.5q-35 -1 -57.5 25t-20.5 62z" />
    <glyph glyph-name="Jcircumflex" unicode="&#x134;" horiz-adv-x="399" 
d="M103 -150q-39 0 -61 24.5t-22 66.5v59h52v-59q0 -16 9 -25.5t25 -9.5q24 0 40 17t19 45l77 662q1 11 -16.5 36t-25.5 25h-54v37h313v-37h-19q-10 0 -31.5 -24.5t-23.5 -36.5l-62 -522q-18 -99 -81.5 -178.5t-138.5 -79.5zM295 931h100l62 -154h-40l-81 77l-135 -77h-46z
" />
    <glyph glyph-name="jcircumflex" unicode="&#x135;" horiz-adv-x="292" 
d="M75 -129l81 454q2 12 -12.5 35.5t-23.5 23.5h-46v30q54 15 110.5 34.5t85.5 31.5l30 12l-89 -513q-13 -72 -64.5 -132.5t-109.5 -60.5q-34 0 -53 21.5t-12 60.5l13 78h41l-13 -77q-2 -13 5 -23t19 -10q13 0 24.5 10t13.5 25zM228 713h86l54 -176h-41l-68 95l-131 -95h-43
z" />
    <glyph glyph-name="Kcommaaccent" unicode="&#x136;" horiz-adv-x="711" 
d="M377 329l-87 -91l-24 -141q-2 -12 13 -36t24 -24h34v-37h-292v37h19q10 0 33.5 23.5t25.5 36.5l89 534q2 12 -14.5 36t-25.5 24h-44v37h328v-37h-38q-10 0 -33.5 -24.5t-25.5 -35.5l-65 -310h7l289 301q8 9 -7 39t-25 30h-41v37h269v-37h-17q-9 0 -57 -32t-56 -41
l-179 -186l154 -330q6 -14 29 -39.5t32 -25.5h18v-37h-314v37h37q11 0 29 25.5t14 35.5zM418 -105l-4 -26q-9 -58 -53 -92.5t-95 -36.5v39q32 -1 59.5 16t34.5 40h-30q-19 5 -30.5 21t-11.5 38q0 26 20 46.5t49 20.5q28 0 46.5 -19.5t14.5 -46.5z" />
    <glyph glyph-name="kcommaaccent" unicode="&#x137;" horiz-adv-x="510" 
d="M353 35l-84 180l-59 -55l-26 -160h-118l109 633q2 11 -13.5 30t-24.5 19h-27v30q46 9 96.5 23.5t77.5 24.5l28 10l-106 -556h7l165 164q8 8 -6 37t-27 29h-50l6 35h276v-35h-20q-12 0 -61.5 -31.5t-63.5 -44.5l-75 -69l109 -215q19 -38 41 -48v-36l-115 -12zM328 -105
l-4 -26q-9 -58 -53 -92.5t-95 -36.5v39q32 -1 59.5 16t34.5 40h-30q-19 5 -30.5 21t-11.5 38q0 26 20 46.5t49 20.5q28 0 46.5 -19.5t14.5 -46.5z" />
    <glyph glyph-name="Lacute" unicode="&#x139;" horiz-adv-x="603" 
d="M128 728h353v-37h-63q-9 0 -34 -24t-27 -36l-91 -543q-1 -9 8 -21.5t16 -12.5h131q25 0 72.5 90t50.5 120h39v-264h-538v37h20q9 0 32.5 23.5t24.5 35.5l90 535q2 12 -15 36t-26 24h-43v37zM363 917h162l-209 -140h-49z" />
    <glyph glyph-name="lacute" unicode="&#x13a;" horiz-adv-x="281" 
d="M75 76q0 16 25.5 155.5t50.5 270.5l25 131q1 11 -14.5 30t-23.5 19h-24v31q47 11 95.5 25.5t73.5 23.5l25 9l-115 -663q-2 -12 8 -24.5t20 -12.5q11 0 46 35l19 -26q-23 -27 -62.5 -58.5t-68.5 -32.5q-35 -1 -57.5 25t-22.5 62zM274 937h162l-209 -140h-49z" />
    <glyph glyph-name="Lcommaaccent" unicode="&#x13b;" horiz-adv-x="603" 
d="M128 728h353v-37h-63q-9 0 -34 -24t-27 -36l-91 -543q-1 -9 8 -21.5t16 -12.5h131q25 0 72.5 90t50.5 120h39v-264h-538v37h20q9 0 32.5 23.5t24.5 35.5l90 535q2 12 -15 36t-26 24h-43v37zM384 -105l-4 -26q-9 -58 -53 -92.5t-95 -36.5v39q32 -1 59.5 16t34.5 40h-30
q-19 5 -30.5 21t-11.5 38q0 26 20 46.5t49 20.5q28 0 46.5 -19.5t14.5 -46.5z" />
    <glyph glyph-name="lcommaaccent" unicode="&#x13c;" horiz-adv-x="281" 
d="M75 76q0 16 25.5 155.5t50.5 270.5l25 131q1 11 -14.5 30t-23.5 19h-24v31q47 11 95.5 25.5t73.5 23.5l25 9l-115 -663q-2 -12 8 -24.5t20 -12.5q11 0 46 35l19 -26q-23 -27 -62.5 -58.5t-68.5 -32.5q-35 -1 -57.5 25t-22.5 62zM195 -105l-4 -26q-9 -58 -53 -92.5
t-95 -36.5v39q32 -1 59.5 16t34.5 40h-30q-19 5 -30.5 21t-11.5 38q0 26 20 46.5t49 20.5q28 0 46.5 -19.5t14.5 -46.5z" />
    <glyph glyph-name="Lcaron" unicode="&#x13d;" horiz-adv-x="603" 
d="M128 728h353v-37h-63q-9 0 -34 -24t-27 -36l-91 -543q-1 -9 8 -21.5t16 -12.5h131q25 0 72.5 90t50.5 120h39v-264h-538v37h20q9 0 32.5 23.5t24.5 35.5l90 535q2 12 -15 36t-26 24h-43v37zM646 699l-4 -26q-9 -58 -51.5 -91t-93.5 -35v39q32 -1 58 14.5t33 38.5h-30
q-19 5 -30.5 21t-11.5 38q0 26 20 46.5t49 20.5q28 0 46.5 -19.5t14.5 -46.5z" />
    <glyph glyph-name="lcaron" unicode="&#x13e;" horiz-adv-x="387" 
d="M75 76q0 16 25.5 155.5t50.5 270.5l25 131q1 11 -14.5 30t-23.5 19h-24v31q47 11 95.5 25.5t73.5 23.5l25 9l-115 -663q-2 -12 8 -24.5t20 -12.5q11 0 46 35l19 -26q-23 -27 -62.5 -58.5t-68.5 -32.5q-35 -1 -57.5 25t-22.5 62zM464 699l-4 -26q-9 -58 -51.5 -91
t-93.5 -35v39q32 -1 58 14.5t33 38.5h-30q-19 5 -30.5 21t-11.5 38q0 26 20 46.5t49 20.5q28 0 46.5 -19.5t14.5 -46.5z" />
    <glyph glyph-name="Ldot" unicode="&#x13f;" horiz-adv-x="603" 
d="M128 728h353v-37h-63q-9 0 -34 -24t-27 -36l-91 -543q-1 -9 8 -21.5t16 -12.5h131q25 0 72.5 90t50.5 120h39v-264h-538v37h20q9 0 32.5 23.5t24.5 35.5l90 535q2 12 -15 36t-26 24h-43v37zM543 370q0 -33 -24.5 -57t-58.5 -24t-58.5 24t-24.5 57t24.5 57t58.5 24
t58.5 -24t24.5 -57z" />
    <glyph glyph-name="ldot" unicode="&#x140;" horiz-adv-x="429" 
d="M75 76q0 16 25.5 155.5t50.5 270.5l25 131q1 11 -14.5 30t-23.5 19h-24v31q47 11 95.5 25.5t73.5 23.5l25 9l-115 -663q-2 -12 8 -24.5t20 -12.5q11 0 46 35l19 -26q-23 -27 -62.5 -58.5t-68.5 -32.5q-35 -1 -57.5 25t-22.5 62zM471 340q0 -33 -24.5 -57t-58.5 -24
t-58.5 24t-24.5 57t24.5 57t58.5 24t58.5 -24t24.5 -57z" />
    <glyph glyph-name="Lslash" unicode="&#x141;" horiz-adv-x="603" 
d="M128 728h353v-37h-63q-9 0 -34 -24t-27 -36l-42 -247l229 129l-11 -63l-228 -129l-39 -233q-1 -9 8 -21.5t16 -12.5h131q25 0 72.5 90t50.5 120h39v-264h-538v37h20q9 0 32.5 23.5t24.5 35.5l22 134l-87 -49l11 63l87 49l57 338q2 12 -15 36t-26 24h-43v37z" />
    <glyph glyph-name="lslash" unicode="&#x142;" horiz-adv-x="285" 
d="M345 428l-97 -46l-47 -274q-2 -12 8 -24.5t20 -12.5q11 0 46 35l19 -26q-23 -27 -62.5 -58.5t-68.5 -32.5q-35 -1 -57.5 25t-22.5 62q0 21 42 248l-73 -34v50l83 39l49 254q1 11 -14.5 30t-23.5 19h-24v31q47 11 95.5 25.5t73.5 23.5l25 9l-58 -334l87 42v-51z" />
    <glyph glyph-name="Nacute" unicode="&#x143;" horiz-adv-x="708" 
d="M723 623l-107 -642l-339 617h-5l-78 -485q-2 -12 20.5 -44t31.5 -32h46v-37h-247v37h19q9 0 41.5 32t33.5 44l87 512q1 11 -16 38.5t-24 27.5h-41v37h223l241 -449h5l56 344q2 11 -16.5 39.5t-26.5 28.5h-44v37h225v-37h-19q-9 0 -36.5 -28t-29.5 -40zM545 917h162
l-209 -140h-49z" />
    <glyph glyph-name="nacute" unicode="&#x144;" horiz-adv-x="563" 
d="M385 404q-24 0 -77.5 -45.5t-55.5 -58.5l-53 -300h-116l62 350q1 10 -13 29t-23 19h-40v30q37 12 81 27.5t70 25.5l25 10v-138h5q46 51 101 94t94 43q56 0 86 -44.5t13 -97.5q-53 -163 -75 -242q-3 -12 7 -23.5t21 -11.5q7 0 23.5 13.5t25.5 23.5l19 -26q-24 -33 -60 -62
t-66 -29q-42 0 -68 32t-15 78q18 75 75 245q5 15 -13 36.5t-33 21.5zM399 713h141l-191 -176h-37z" />
    <glyph glyph-name="Ncommaaccent" unicode="&#x145;" horiz-adv-x="708" 
d="M723 623l-107 -642l-339 617h-5l-78 -485q-2 -12 20.5 -44t31.5 -32h46v-37h-247v37h19q9 0 41.5 32t33.5 44l87 512q1 11 -16 38.5t-24 27.5h-41v37h223l241 -449h5l56 344q2 11 -16.5 39.5t-26.5 28.5h-44v37h225v-37h-19q-9 0 -36.5 -28t-29.5 -40zM449 -105l-4 -26
q-9 -58 -53 -92.5t-95 -36.5v39q32 -1 59.5 16t34.5 40h-30q-19 5 -30.5 21t-11.5 38q0 26 20 46.5t49 20.5q28 0 46.5 -19.5t14.5 -46.5z" />
    <glyph glyph-name="ncommaaccent" unicode="&#x146;" horiz-adv-x="563" 
d="M385 404q-24 0 -77.5 -45.5t-55.5 -58.5l-53 -300h-116l62 350q1 10 -13 29t-23 19h-40v30q37 12 81 27.5t70 25.5l25 10v-138h5q46 51 101 94t94 43q56 0 86 -44.5t13 -97.5q-53 -163 -75 -242q-3 -12 7 -23.5t21 -11.5q7 0 23.5 13.5t25.5 23.5l19 -26q-24 -33 -60 -62
t-66 -29q-42 0 -68 32t-15 78q18 75 75 245q5 15 -13 36.5t-33 21.5zM335 -105l-4 -26q-9 -58 -53 -92.5t-95 -36.5v39q32 -1 59.5 16t34.5 40h-30q-19 5 -30.5 21t-11.5 38q0 26 20 46.5t49 20.5q28 0 46.5 -19.5t14.5 -46.5z" />
    <glyph glyph-name="Ncaron" unicode="&#x147;" horiz-adv-x="708" 
d="M723 623l-107 -642l-339 617h-5l-78 -485q-2 -12 20.5 -44t31.5 -32h46v-37h-247v37h19q9 0 41.5 32t33.5 44l87 512q1 11 -16 38.5t-24 27.5h-41v37h223l241 -449h5l56 344q2 11 -16.5 39.5t-26.5 28.5h-44v37h225v-37h-19q-9 0 -36.5 -28t-29.5 -40zM542 777h-101
l-62 154h39l82 -78l134 78h46z" />
    <glyph glyph-name="ncaron" unicode="&#x148;" horiz-adv-x="563" 
d="M385 404q-24 0 -77.5 -45.5t-55.5 -58.5l-53 -300h-116l62 350q1 10 -13 29t-23 19h-40v30q37 12 81 27.5t70 25.5l25 10v-138h5q46 51 101 94t94 43q56 0 86 -44.5t13 -97.5q-53 -163 -75 -242q-3 -12 7 -23.5t21 -11.5q7 0 23.5 13.5t25.5 23.5l19 -26q-24 -33 -60 -62
t-66 -29q-42 0 -68 32t-15 78q18 75 75 245q5 15 -13 36.5t-33 21.5zM405 537h-86l-58 176h41l70 -95l134 95h43z" />
    <glyph glyph-name="Eng" unicode="&#x14a;" horiz-adv-x="708" 
d="M466 -150q-38 0 -61.5 25.5t-23.5 65.5v59h52v-59q0 -16 9.5 -25.5t25.5 -9.5q48 0 58 62l23 132l-272 498h-5l-78 -485q-2 -12 20.5 -44t31.5 -32h46v-37h-247v37h19q9 0 41.5 32t33.5 44l87 512q1 11 -16 38.5t-24 27.5h-41v37h223l241 -449h5l56 344q2 11 -16.5 39.5
t-26.5 28.5h-44v37h225v-37h-19q-9 0 -36.5 -28t-29.5 -40l-92 -550q-18 -105 -55 -164t-110 -59z" />
    <glyph glyph-name="eng" unicode="&#x14b;" horiz-adv-x="563" 
d="M290 -130l141 476q4 15 -13.5 36.5t-32.5 21.5q-24 0 -77.5 -45.5t-55.5 -58.5l-53 -300h-116l62 350q1 10 -13 29t-23 19h-40v30q37 12 81 27.5t70 25.5l25 10v-138h5q46 51 101 94t94 43q55 0 84.5 -44t14.5 -98q-13 -45 -112 -371q-23 -74 -74 -132.5t-108 -58.5
q-34 0 -53 21.5t-12 60.5l10 59h41l-10 -58q-2 -13 5 -23t19 -10q13 0 24 10t16 24z" />
    <glyph glyph-name="Omacron" unicode="&#x14c;" horiz-adv-x="762" 
d="M512 742q133 -1 213 -91t75 -225q-4 -83 -37.5 -162.5t-86.5 -140.5t-129 -98t-160 -37q-132 0 -210 87.5t-76 225.5q0 110 55.5 212t151 165.5t204.5 63.5zM504 689q-78 0 -140.5 -62.5t-85.5 -159.5q-26 -111 -37 -218q-10 -98 30.5 -150t124.5 -52q76 0 138.5 59.5
t87.5 156.5q27 104 36 218q8 99 -32 153.5t-122 54.5zM427 879h247l-17 -80h-253z" />
    <glyph glyph-name="omacron" unicode="&#x14d;" horiz-adv-x="519" 
d="M262 45q40 0 77.5 37.5t50.5 91.5q19 77 25 153q4 54 -18 83.5t-65 29.5q-39 0 -75 -36t-50 -91q-19 -73 -25 -149q-4 -57 16.5 -88t63.5 -31zM256 -11q-86 0 -136 53.5t-50 146.5q0 116 79 208.5t188 92.5q86 0 136.5 -55.5t50.5 -147.5q0 -117 -79 -207.5t-189 -90.5z
M244 648h242l-16 -78h-243z" />
    <glyph glyph-name="Obreve" unicode="&#x14e;" horiz-adv-x="762" 
d="M512 742q133 -1 213 -91t75 -225q-4 -83 -37.5 -162.5t-86.5 -140.5t-129 -98t-160 -37q-132 0 -210 87.5t-76 225.5q0 110 55.5 212t151 165.5t204.5 63.5zM504 689q-78 0 -140.5 -62.5t-85.5 -159.5q-26 -111 -37 -218q-10 -98 30.5 -150t124.5 -52q76 0 138.5 59.5
t87.5 156.5q27 104 36 218q8 99 -32 153.5t-122 54.5zM528 775q-68 0 -95.5 40.5t-8.5 101.5l32 4q-5 -34 16.5 -49t61.5 -15q100 0 139 67l32 -7q-19 -63 -68.5 -102.5t-108.5 -39.5z" />
    <glyph glyph-name="obreve" unicode="&#x14f;" horiz-adv-x="519" 
d="M262 45q40 0 77.5 37.5t50.5 91.5q19 77 25 153q4 54 -18 83.5t-65 29.5q-39 0 -75 -36t-50 -91q-19 -73 -25 -149q-4 -57 16.5 -88t63.5 -31zM256 -11q-86 0 -136 53.5t-50 146.5q0 116 79 208.5t188 92.5q86 0 136.5 -55.5t50.5 -147.5q0 -117 -79 -207.5t-189 -90.5z
M355 537q-68 0 -93.5 42t-6.5 104l31 4q-5 -35 16 -53t59 -18q96 0 137 74l30 -7q-19 -64 -67 -105t-106 -41z" />
    <glyph glyph-name="Ohungarumlaut" unicode="&#x150;" horiz-adv-x="762" 
d="M512 742q133 -1 213 -91t75 -225q-4 -83 -37.5 -162.5t-86.5 -140.5t-129 -98t-160 -37q-132 0 -210 87.5t-76 225.5q0 110 55.5 212t151 165.5t204.5 63.5zM504 689q-78 0 -140.5 -62.5t-85.5 -159.5q-26 -111 -37 -218q-10 -98 30.5 -150t124.5 -52q76 0 138.5 59.5
t87.5 156.5q27 104 36 218q8 99 -32 153.5t-122 54.5zM656 917h147l-188 -140h-45zM488 917h143l-186 -140h-43z" />
    <glyph glyph-name="ohungarumlaut" unicode="&#x151;" horiz-adv-x="519" 
d="M256 -11q-86 0 -136 53.5t-50 146.5q0 116 79 208.5t188 92.5q86 0 136.5 -55.5t50.5 -147.5q0 -117 -79 -207.5t-189 -90.5zM262 45q40 0 77.5 37.5t50.5 91.5q19 77 25 153q4 54 -18 83.5t-65 29.5q-39 0 -75 -36t-50 -91q-19 -73 -25 -149q-4 -57 16.5 -88t63.5 -31z
M496 713h135l-196 -176h-42zM329 713h132l-184 -176h-40z" />
    <glyph glyph-name="OE" unicode="&#x152;" horiz-adv-x="970" 
d="M397 51q10 0 34.5 22.5t26.5 34.5l87 511q2 12 -14.5 36t-26.5 24q-79 0 -141.5 -60.5t-85.5 -157.5q-25 -103 -37 -207q-11 -98 31 -150.5t126 -52.5zM608 50h164q24 0 75 81.5t51 106.5h37v-238h-550q-132 0 -208.5 84t-76.5 222q0 82 33 159.5t88 135t131 92.5t158 35
h494l-34 -199h-34q2 15 -36.5 83t-49.5 68h-137q-3 0 -10.5 -8t-8.5 -12l-44 -263h43q12 0 48.5 32t36.5 43v18h38v-239h-38v21q0 12 -36.5 44t-48.5 32h-51l-47 -276q0 -5 4.5 -13.5t8.5 -8.5z" />
    <glyph glyph-name="oe" unicode="&#x153;" horiz-adv-x="777" 
d="M618 247l-106 -14q-10 -65 16 -107.5t84 -42.5q45 0 81.5 27t58.5 74h37q-29 -85 -89.5 -140t-129.5 -55q-104 0 -140 84q-79 -84 -174 -84q-86 0 -136 53.5t-50 146.5q0 116 79 208.5t188 92.5q99 0 152 -86q77 86 164 86q58 0 95 -27t37 -77q0 -111 -167 -139zM262 45
q39 0 77 37.5t51 91.5q19 77 25 153q4 54 -18 83.5t-65 29.5q-38 0 -75 -36.5t-50 -90.5q-18 -76 -25 -149q-5 -57 16 -88t64 -31zM515 268q54 9 106 22q38 10 63.5 34t25.5 58q0 29 -16.5 47t-42.5 18q-46 -5 -86.5 -62t-49.5 -117z" />
    <glyph glyph-name="Racute" unicode="&#x154;" horiz-adv-x="676" 
d="M421 265q-9 29 -23 44.5t-29 15.5h-64l-38 -228q-2 -11 14 -35.5t26 -24.5h45v-37h-307v37h20q8 0 32 24.5t26 35.5l89 535q2 11 -14.5 35t-25.5 24h-44v37h317q103 0 166.5 -41.5t63.5 -124.5q0 -84 -65.5 -142.5t-161.5 -69.5l100 -18q66 -176 127 -285q6 -10 21 -10
v-37l-147 -12l-34 37q-55 114 -94 240zM360 649l-47 -273h68q43 6 84 35t55 79q8 30 12 76q4 53 -24.5 85t-71.5 32h-40q-9 0 -21.5 -12.5t-14.5 -21.5zM456 917h162l-209 -140h-49z" />
    <glyph glyph-name="racute" unicode="&#x155;" horiz-adv-x="393" 
d="M224 299h4q52 109 60 123q40 68 92 68q22 0 50 -11v-81l-27 -29h-45q-31 0 -57 -25t-57 -80l-44 -264h-115l59 342q2 12 -13.5 30t-25.5 18h-36v30q34 12 73 30t60 30l22 11v-192zM323 713h141l-191 -176h-37z" />
    <glyph glyph-name="Rcommaaccent" unicode="&#x156;" horiz-adv-x="676" 
d="M421 265q-9 29 -23 44.5t-29 15.5h-64l-38 -228q-2 -11 14 -35.5t26 -24.5h45v-37h-307v37h20q8 0 32 24.5t26 35.5l89 535q2 11 -14.5 35t-25.5 24h-44v37h317q103 0 166.5 -41.5t63.5 -124.5q0 -84 -65.5 -142.5t-161.5 -69.5l100 -18q66 -176 127 -285q6 -10 21 -10
v-37l-147 -12l-34 37q-55 114 -94 240zM360 649l-47 -273h68q43 6 84 35t55 79q8 30 12 76q4 53 -24.5 85t-71.5 32h-40q-9 0 -21.5 -12.5t-14.5 -21.5zM460 -105l-4 -26q-9 -58 -53 -92.5t-95 -36.5v39q32 -1 59.5 16t34.5 40h-30q-19 5 -30.5 21t-11.5 38q0 26 20 46.5
t49 20.5q28 0 46.5 -19.5t14.5 -46.5z" />
    <glyph glyph-name="rcommaaccent" unicode="&#x157;" horiz-adv-x="393" 
d="M224 299h4q52 109 60 123q40 68 92 68q22 0 50 -11v-81l-27 -29h-45q-31 0 -57 -25t-57 -80l-44 -264h-115l59 342q2 12 -13.5 30t-25.5 18h-36v30q34 12 73 30t60 30l22 11v-192zM194 -105l-4 -26q-9 -58 -53 -92.5t-95 -36.5v39q32 -1 59.5 16t34.5 40h-30
q-19 5 -30.5 21t-11.5 38q0 26 20 46.5t49 20.5q28 0 46.5 -19.5t14.5 -46.5z" />
    <glyph glyph-name="Rcaron" unicode="&#x158;" horiz-adv-x="676" 
d="M421 265q-9 29 -23 44.5t-29 15.5h-64l-38 -228q-2 -11 14 -35.5t26 -24.5h45v-37h-307v37h20q8 0 32 24.5t26 35.5l89 535q2 11 -14.5 35t-25.5 24h-44v37h317q103 0 166.5 -41.5t63.5 -124.5q0 -84 -65.5 -142.5t-161.5 -69.5l100 -18q66 -176 127 -285q6 -10 21 -10
v-37l-147 -12l-34 37q-55 114 -94 240zM360 649l-47 -273h68q43 6 84 35t55 79q8 30 12 76q4 53 -24.5 85t-71.5 32h-40q-9 0 -21.5 -12.5t-14.5 -21.5zM470 777h-101l-62 154h39l82 -78l134 78h46z" />
    <glyph glyph-name="rcaron" unicode="&#x159;" horiz-adv-x="393" 
d="M224 299h4q52 109 60 123q40 68 92 68q22 0 50 -11v-81l-27 -29h-45q-31 0 -57 -25t-57 -80l-44 -264h-115l59 342q2 12 -13.5 30t-25.5 18h-36v30q34 12 73 30t60 30l22 11v-192zM331 537h-86l-58 176h41l70 -95l134 95h43z" />
    <glyph glyph-name="Sacute" unicode="&#x15a;" horiz-adv-x="578" 
d="M323 44q62 0 100 29t38 83q0 15 -4.5 28.5t-9 24t-16.5 22t-19 18t-24 17t-23 14t-25.5 14t-23.5 12.5q-172 93 -172 216q0 97 68 158t173 61q31 0 79 -15t64 -15q33 0 48 17h32l-50 -206h-35q4 40 -39 106t-99 66t-90.5 -29t-34.5 -77q0 -27 11 -50t34 -42t39 -29
t46 -26q46 -25 71 -41t56.5 -43.5t46 -60.5t14.5 -74q0 -105 -72 -169t-184 -64q-30 0 -77.5 16t-70.5 16q-28 0 -51 -21h-33v238h37q-4 -43 64 -118.5t132 -75.5zM456 917h162l-209 -140h-49z" />
    <glyph glyph-name="sacute" unicode="&#x15b;" horiz-adv-x="427" 
d="M212 -11q-45 0 -94.5 28.5t-65.5 65.5q-11 24 6.5 42t43 15t34.5 -28t38.5 -47.5t55.5 -22.5q94 0 94 65q0 14 -6.5 25t-19 19.5t-22.5 14t-27 12t-23 9.5q-59 27 -93 58.5t-34 78.5q0 69 55.5 117t133.5 48q44 0 86.5 -22.5t60.5 -60.5q11 -23 -5.5 -40t-40 -15.5
t-31.5 23.5q-9 25 -34 47t-48 22q-39 0 -63.5 -16t-24.5 -46q0 -19 17.5 -36.5t33.5 -25.5t45 -21q75 -33 100 -55q36 -34 36 -80q0 -72 -61 -123t-147 -51zM330 713h141l-191 -176h-37z" />
    <glyph glyph-name="Scircumflex" unicode="&#x15c;" horiz-adv-x="578" 
d="M323 44q62 0 100 29t38 83q0 15 -4.5 28.5t-9 24t-16.5 22t-19 18t-24 17t-23 14t-25.5 14t-23.5 12.5q-172 93 -172 216q0 97 68 158t173 61q31 0 79 -15t64 -15q33 0 48 17h32l-50 -206h-35q4 40 -39 106t-99 66t-90.5 -29t-34.5 -77q0 -27 11 -50t34 -42t39 -29
t46 -26q46 -25 71 -41t56.5 -43.5t46 -60.5t14.5 -74q0 -105 -72 -169t-184 -64q-30 0 -77.5 16t-70.5 16q-28 0 -51 -21h-33v238h37q-4 -43 64 -118.5t132 -75.5zM393 931h100l62 -154h-40l-81 77l-135 -77h-46z" />
    <glyph glyph-name="scircumflex" unicode="&#x15d;" horiz-adv-x="427" 
d="M212 -11q-45 0 -94.5 28.5t-65.5 65.5q-11 24 6.5 42t43 15t34.5 -28t38.5 -47.5t55.5 -22.5q94 0 94 65q0 14 -6.5 25t-19 19.5t-22.5 14t-27 12t-23 9.5q-59 27 -93 58.5t-34 78.5q0 69 55.5 117t133.5 48q44 0 86.5 -22.5t60.5 -60.5q11 -23 -5.5 -40t-40 -15.5
t-31.5 23.5q-9 25 -34 47t-48 22q-39 0 -63.5 -16t-24.5 -46q0 -19 17.5 -36.5t33.5 -25.5t45 -21q75 -33 100 -55q36 -34 36 -80q0 -72 -61 -123t-147 -51zM292 713h86l54 -176h-41l-68 95l-131 -95h-43z" />
    <glyph glyph-name="Scedilla" unicode="&#x15e;" horiz-adv-x="578" 
d="M264 -79l33 70q-18 3 -59 16.5t-64 13.5q-28 0 -51 -21h-33v238h37q-4 -43 64 -118.5t132 -75.5q62 0 100 29t38 83q0 15 -4.5 28.5t-9 24t-16.5 22t-19 18t-24 17t-23 14t-25.5 14t-23.5 12.5q-172 93 -172 216q0 97 68 158t173 61q31 0 79 -15t64 -15q33 0 48 17h32
l-50 -206h-35q4 40 -39 106t-99 66t-90.5 -29t-34.5 -77q0 -27 11 -50t34 -42t39 -29t46 -26q46 -25 71 -41t56.5 -43.5t46 -60.5t14.5 -74q0 -100 -65.5 -163t-169.5 -69l-35 -50q21 14 47 14q29 0 47.5 -18t18.5 -46q0 -47 -37.5 -75t-90.5 -28q-31 0 -55 14.5t-36 36.5
l35 27q21 -31 57 -31q25 0 42 13.5t17 33.5q0 14 -9 22t-23 8t-34 -10z" />
    <glyph glyph-name="scedilla" unicode="&#x15f;" horiz-adv-x="427" 
d="M136 -79l35 74q-39 10 -73 34.5t-46 53.5q-11 24 6.5 42t43 15t34.5 -28t38.5 -47.5t55.5 -22.5q94 0 94 65q0 14 -6.5 25t-19 19.5t-22.5 14t-27 12t-23 9.5q-59 27 -93 58.5t-34 78.5q0 69 55.5 117t133.5 48q44 0 86.5 -22.5t60.5 -60.5q11 -23 -5.5 -40t-40 -15.5
t-31.5 23.5q-9 25 -34 47t-48 22q-39 0 -63.5 -16t-24.5 -46q0 -19 17.5 -36.5t33.5 -25.5t45 -21q75 -33 100 -55q36 -34 36 -80q0 -72 -60.5 -122.5t-145.5 -51.5l-34 -49q21 14 47 14q29 0 47.5 -18t18.5 -46q0 -47 -37.5 -75t-90.5 -28q-31 0 -55 14.5t-36 36.5l35 27
q21 -31 57 -31q25 0 42 13.5t17 33.5q0 14 -9 22t-23 8t-34 -10z" />
    <glyph glyph-name="Scaron" unicode="&#x160;" horiz-adv-x="578" 
d="M323 44q62 0 100 29t38 83q0 15 -4.5 28.5t-9 24t-16.5 22t-19 18t-24 17t-23 14t-25.5 14t-23.5 12.5q-172 93 -172 216q0 97 68 158t173 61q31 0 79 -15t64 -15q33 0 48 17h32l-50 -206h-35q4 40 -39 106t-99 66t-90.5 -29t-34.5 -77q0 -27 11 -50t34 -42t39 -29
t46 -26q46 -25 71 -41t56.5 -43.5t46 -60.5t14.5 -74q0 -105 -72 -169t-184 -64q-30 0 -77.5 16t-70.5 16q-28 0 -51 -21h-33v238h37q-4 -43 64 -118.5t132 -75.5zM452 777h-101l-62 154h39l82 -78l134 78h46z" />
    <glyph glyph-name="scaron" unicode="&#x161;" horiz-adv-x="427" 
d="M212 -11q-45 0 -94.5 28.5t-65.5 65.5q-11 24 6.5 42t43 15t34.5 -28t38.5 -47.5t55.5 -22.5q94 0 94 65q0 14 -6.5 25t-19 19.5t-22.5 14t-27 12t-23 9.5q-59 27 -93 58.5t-34 78.5q0 69 55.5 117t133.5 48q44 0 86.5 -22.5t60.5 -60.5q11 -23 -5.5 -40t-40 -15.5
t-31.5 23.5q-9 25 -34 47t-48 22q-39 0 -63.5 -16t-24.5 -46q0 -19 17.5 -36.5t33.5 -25.5t45 -21q75 -33 100 -55q36 -34 36 -80q0 -72 -61 -123t-147 -51zM340 537h-86l-58 176h41l70 -95l134 95h43z" />
    <glyph glyph-name="Tcedilla" unicode="&#x162;" horiz-adv-x="664" 
d="M267 -79l38 79h-146v37h51q9 0 33.5 24.5t26.5 35.5l97 583h-76q-20 0 -88.5 -84.5t-70.5 -105.5h-37q36 128 57 252h34q15 -14 111 -14h298q94 0 115 14h34q-9 -55 -15 -118t-8 -98l-2 -36h-34q0 24 -40.5 107t-56.5 83h-76l-97 -583q-2 -11 13 -35.5t25 -24.5h51v-37
h-151l-42 -60q21 14 47 14q29 0 47.5 -18t18.5 -46q0 -47 -37.5 -75t-90.5 -28q-31 0 -55 14.5t-36 36.5l35 27q21 -31 57 -31q25 0 42 13.5t17 33.5q0 14 -9 22t-23 8t-34 -10z" />
    <glyph glyph-name="tcedilla" unicode="&#x163;" horiz-adv-x="342" 
d="M119 -79l36 77q-28 13 -44.5 40.5t-10.5 61.5l50 288q1 8 -8 22t-15 14h-58v55h96l64 129h78l-25 -129h110v-57h-118l-54 -305q-2 -14 10 -30t24 -16q27 0 75 48l20 -31q-20 -26 -67 -61t-85 -38l-34 -49q21 14 47 14q29 0 47.5 -18t18.5 -46q0 -47 -37.5 -75t-90.5 -28
q-31 0 -55 14.5t-36 36.5l35 27q21 -31 57 -31q25 0 42 13.5t17 33.5q0 14 -9 22t-23 8t-34 -10z" />
    <glyph glyph-name="Tcaron" unicode="&#x164;" horiz-adv-x="664" 
d="M588 680h-76l-97 -583q-2 -11 13 -35.5t25 -24.5h51v-37h-345v37h51q9 0 33.5 24.5t26.5 35.5l97 583h-76q-20 0 -88.5 -84.5t-70.5 -105.5h-37q36 128 57 252h34q15 -14 111 -14h298q94 0 115 14h34q-9 -55 -15 -118t-8 -98l-2 -36h-34q0 24 -40.5 107t-56.5 83z
M503 777h-101l-62 154h39l82 -78l134 78h46z" />
    <glyph glyph-name="tcaron" unicode="&#x165;" horiz-adv-x="399" 
d="M274 422l-54 -305q-2 -14 10 -30t24 -16q27 0 75 48l20 -31q-21 -26 -70 -62t-87 -37t-69 32.5t-23 78.5l50 288q1 8 -8 22t-15 14h-58v55h96l64 129h78l-25 -129h110v-57h-118zM490 689l-4 -26q-9 -58 -51.5 -91t-93.5 -35v39q32 -1 58 14.5t33 38.5h-30q-19 5 -30.5 21
t-11.5 38q0 26 20 46.5t49 20.5q28 0 46.5 -19.5t14.5 -46.5z" />
    <glyph glyph-name="Tbar" unicode="&#x166;" horiz-adv-x="664" 
d="M588 680h-76l-50 -299h133v-48h-141l-39 -236q-2 -11 13 -35.5t25 -24.5h51v-37h-345v37h51q9 0 33.5 24.5t26.5 35.5l39 236h-138v48h146l50 299h-76q-20 0 -88.5 -84.5t-70.5 -105.5h-37q36 128 57 252h34q15 -14 111 -14h298q94 0 115 14h34q-9 -55 -15 -118t-8 -98
l-2 -36h-34q0 24 -40.5 107t-56.5 83z" />
    <glyph glyph-name="tbar" unicode="&#x167;" horiz-adv-x="342" 
d="M274 422l-23 -131h121v-56h-131l-21 -118q-2 -14 10 -30t24 -16q27 0 75 48l20 -31q-21 -26 -70 -62t-87 -37t-69 32.5t-23 78.5l23 135h-75v56h85l17 97q1 8 -8 22t-15 14h-58v55h96l64 129h78l-25 -129h110v-57h-118z" />
    <glyph glyph-name="Utilde" unicode="&#x168;" horiz-adv-x="709" 
d="M722 614l-48 -365q-16 -121 -99 -191t-201 -70q-110 0 -177 82.5t-45 202.5l65 354q1 8 -16.5 36t-22.5 28h-43v37h309v-37h-23q-7 0 -33 -28t-28 -36l-67 -367q-16 -86 22.5 -138.5t112.5 -51.5q77 1 130 51.5t63 125.5l48 367q1 10 -20 43.5t-28 33.5h-46v37h234v-37
h-17q-7 0 -38 -33.5t-32 -43.5zM672 820l-27 -21q-2 40 -40 39q-21 -1 -74 -26t-82 -25q-36 0 -54 26t-12 71l27 21q0 -16 11.5 -27.5t28.5 -11.5q27 0 78 25t78 25q36 0 54.5 -26t11.5 -70z" />
    <glyph glyph-name="utilde" unicode="&#x169;" horiz-adv-x="559" 
d="M280 380l-69 -237q-8 -27 4 -48t36 -21q22 0 60 27.5t67 61.5l55 316h113l-64 -366q-2 -10 8 -23t19 -13q10 0 47 34l19 -27q-87 -92 -127 -93q-36 -1 -54 26t-16 68l1 21h-5q-104 -118 -185 -118q-50 0 -78.5 45t-15.5 96l72 242q3 10 -7.5 23.5t-20.5 13.5
q-11 0 -46 -35l-23 23q13 16 32.5 34.5t49.5 39t50 20.5q42 1 66 -33t12 -77zM516 587l-29 -23q-5 21 -14 31.5t-28 9.5q-22 -1 -71.5 -28.5t-80.5 -27.5q-37 0 -56 28.5t-14 75.5l29 23q0 -17 12.5 -29t29.5 -12q28 0 76 27.5t76 27.5q37 0 56.5 -28.5t13.5 -74.5z" />
    <glyph glyph-name="Umacron" unicode="&#x16a;" horiz-adv-x="709" 
d="M722 614l-48 -365q-16 -121 -99 -191t-201 -70q-110 0 -177 82.5t-45 202.5l65 354q1 8 -16.5 36t-22.5 28h-43v37h309v-37h-23q-7 0 -33 -28t-28 -36l-67 -367q-16 -86 22.5 -138.5t112.5 -51.5q77 1 130 51.5t63 125.5l48 367q1 10 -20 43.5t-28 33.5h-46v37h234v-37
h-17q-7 0 -38 -33.5t-32 -43.5zM422 879h247l-17 -80h-253z" />
    <glyph glyph-name="umacron" unicode="&#x16b;" horiz-adv-x="559" 
d="M280 380l-69 -237q-8 -27 4 -48t36 -21q22 0 60 27.5t67 61.5l55 316h113l-64 -366q-2 -10 8 -23t19 -13q10 0 47 34l19 -27q-87 -92 -127 -93q-36 -1 -54 26t-16 68l1 21h-5q-104 -118 -185 -118q-50 0 -78.5 45t-15.5 96l72 242q3 10 -7.5 23.5t-20.5 13.5
q-11 0 -46 -35l-23 23q13 16 32.5 34.5t49.5 39t50 20.5q42 1 66 -33t12 -77zM261 648h242l-16 -78h-243z" />
    <glyph glyph-name="Ubreve" unicode="&#x16c;" horiz-adv-x="709" 
d="M722 614l-48 -365q-16 -121 -99 -191t-201 -70q-110 0 -177 82.5t-45 202.5l65 354q1 8 -16.5 36t-22.5 28h-43v37h309v-37h-23q-7 0 -33 -28t-28 -36l-67 -367q-16 -86 22.5 -138.5t112.5 -51.5q77 1 130 51.5t63 125.5l48 367q1 10 -20 43.5t-28 33.5h-46v37h234v-37
h-17q-7 0 -38 -33.5t-32 -43.5zM522 775q-68 0 -95.5 40.5t-8.5 101.5l32 4q-5 -34 16.5 -49t61.5 -15q100 0 139 67l32 -7q-19 -63 -68.5 -102.5t-108.5 -39.5z" />
    <glyph glyph-name="ubreve" unicode="&#x16d;" horiz-adv-x="559" 
d="M280 380l-69 -237q-8 -27 4 -48t36 -21q22 0 60 27.5t67 61.5l55 316h113l-64 -366q-2 -10 8 -23t19 -13q10 0 47 34l19 -27q-87 -92 -127 -93q-36 -1 -54 26t-16 68l1 21h-5q-104 -118 -185 -118q-50 0 -78.5 45t-15.5 96l72 242q3 10 -7.5 23.5t-20.5 13.5
q-11 0 -46 -35l-23 23q13 16 32.5 34.5t49.5 39t50 20.5q42 1 66 -33t12 -77zM365 537q-68 0 -93.5 42t-6.5 104l31 4q-5 -35 16 -53t59 -18q96 0 137 74l30 -7q-19 -64 -67 -105t-106 -41z" />
    <glyph glyph-name="Uring" unicode="&#x16e;" horiz-adv-x="709" 
d="M722 614l-48 -365q-16 -121 -99 -191t-201 -70q-110 0 -177 82.5t-45 202.5l65 354q1 8 -16.5 36t-22.5 28h-43v37h309v-37h-23q-7 0 -33 -28t-28 -36l-67 -367q-16 -86 22.5 -138.5t112.5 -51.5q77 1 130 51.5t63 125.5l48 367q1 10 -20 43.5t-28 33.5h-46v37h234v-37
h-17q-7 0 -38 -33.5t-32 -43.5zM409 865q0 44 34 76t77 32q44 0 77 -32t33 -76q0 -45 -33 -76.5t-77 -31.5t-77.5 31.5t-33.5 76.5zM463 865q0 -25 15.5 -41t41.5 -16q25 0 40.5 16t15.5 41t-15.5 40.5t-40.5 15.5t-41 -15.5t-16 -40.5z" />
    <glyph glyph-name="uring" unicode="&#x16f;" horiz-adv-x="559" 
d="M280 380l-69 -237q-8 -27 4 -48t36 -21q22 0 60 27.5t67 61.5l55 316h113l-64 -366q-2 -10 8 -23t19 -13q10 0 47 34l19 -27q-87 -92 -127 -93q-36 -1 -54 26t-16 68l1 21h-5q-104 -118 -185 -118q-50 0 -78.5 45t-15.5 96l72 242q3 10 -7.5 23.5t-20.5 13.5
q-11 0 -46 -35l-23 23q13 16 32.5 34.5t49.5 39t50 20.5q42 1 66 -33t12 -77zM267 636q0 44 33 75.5t76 31.5q44 0 76 -31.5t32 -75.5q0 -45 -32 -76t-76 -31t-76.5 31t-32.5 76zM320 636q0 -23 16.5 -39.5t39.5 -16.5t39 16.5t16 39.5q0 22 -16.5 38.5t-38.5 16.5
q-23 0 -39.5 -16t-16.5 -39z" />
    <glyph glyph-name="Uhungarumlaut" unicode="&#x170;" horiz-adv-x="709" 
d="M722 614l-48 -365q-16 -121 -99 -191t-201 -70q-110 0 -177 82.5t-45 202.5l65 354q1 8 -16.5 36t-22.5 28h-43v37h309v-37h-23q-7 0 -33 -28t-28 -36l-67 -367q-16 -86 22.5 -138.5t112.5 -51.5q77 1 130 51.5t63 125.5l48 367q1 10 -20 43.5t-28 33.5h-46v37h234v-37
h-17q-7 0 -38 -33.5t-32 -43.5zM658 917h147l-188 -140h-45zM490 917h143l-186 -140h-43z" />
    <glyph glyph-name="uhungarumlaut" unicode="&#x171;" horiz-adv-x="559" 
d="M280 380l-69 -237q-8 -27 4 -48t36 -21q22 0 60 27.5t67 61.5l55 316h113l-64 -366q-2 -10 8 -23t19 -13q10 0 47 34l19 -27q-87 -92 -127 -93q-36 -1 -54 26t-16 68l1 21h-5q-104 -118 -185 -118q-50 0 -78.5 45t-15.5 96l72 242q3 10 -7.5 23.5t-20.5 13.5
q-11 0 -46 -35l-23 23q13 16 32.5 34.5t49.5 39t50 20.5q42 1 66 -33t12 -77zM508 713h135l-196 -176h-42zM341 713h132l-184 -176h-40z" />
    <glyph glyph-name="Uogonek" unicode="&#x172;" horiz-adv-x="709" 
d="M722 614l-48 -365q-22 -161 -156 -229q-75 -53 -88 -139q-1 -12 10.5 -24.5t22.5 -12.5q8 0 50 35l22 -26q-2 -2 -10.5 -11t-11 -11.5l-11 -11t-12.5 -11.5t-12.5 -10t-13.5 -10t-13.5 -7.5t-15 -6.5t-14 -3.5t-15.5 -1.5q-42 0 -65.5 28t-15.5 64q7 30 40.5 69.5
t65.5 62.5q-32 -5 -57 -5q-110 0 -177 82.5t-45 202.5l65 354q1 8 -16.5 36t-22.5 28h-43v37h309v-37h-23q-7 0 -33 -28t-28 -36l-67 -367q-16 -86 22.5 -138.5t112.5 -51.5q77 1 130 51.5t63 125.5l48 367q1 10 -20 43.5t-28 33.5h-46v37h234v-37h-17q-7 0 -38 -33.5
t-32 -43.5z" />
    <glyph glyph-name="uogonek" unicode="&#x173;" horiz-adv-x="559" 
d="M280 380l-69 -237q-8 -27 4 -48t36 -21q22 0 60 27.5t67 61.5l55 316h113l-64 -366q-2 -10 8 -23t19 -13q10 0 47 34l19 -27q-60 -60 -83 -75q-63 -52 -73 -128q-1 -12 10.5 -24.5t22.5 -12.5q8 0 50 35l22 -26q-2 -2 -10.5 -11t-11 -11.5l-11 -11t-12.5 -11.5t-12.5 -10
t-13.5 -10t-13.5 -7.5t-15 -6.5t-14 -3.5t-15.5 -1.5q-42 0 -65.5 28t-15.5 64q7 31 42.5 71.5t66.5 62.5q-49 18 -45 90l1 21h-5q-104 -118 -185 -118q-50 0 -78.5 45t-15.5 96l72 242q3 10 -7.5 23.5t-20.5 13.5q-11 0 -46 -35l-23 23q13 16 32.5 34.5t49.5 39t50 20.5
q42 1 66 -33t12 -77z" />
    <glyph glyph-name="Wcircumflex" unicode="&#x174;" horiz-adv-x="937" 
d="M557 522l-210 -493l-62 -39l-90 616q-2 14 -25.5 49.5t-31.5 35.5h-13v37h324v-37h-47q-9 0 -33.5 -34t-27.5 -49l40 -371h3l157 373l128 132l66 -504h4l150 370q2 14 -13.5 48.5t-23.5 34.5h-48v37h248v-37h-12q-9 0 -48.5 -35.5t-46.5 -48.5l-253 -578l-62 -39l-68 532
h-5zM631 931h100l62 -154h-40l-81 77l-135 -77h-46z" />
    <glyph glyph-name="wcircumflex" unicode="&#x175;" horiz-adv-x="680" 
d="M496 184l97 202q5 10 -4 34t-17 24h-45l-8 35h201v-35h-18q-7 0 -28.5 -22t-31.5 -36l-182 -359l-54 -39q-20 208 -44 331h-5l-145 -292l-56 -39q-26 243 -50 397q-2 13 -18.5 36t-24.5 23h-20v35h178v-92l22 -204h4l100 225l96 106q12 -64 24.5 -146.5t18.5 -133.5
l6 -50h4zM412 713h86l54 -176h-41l-68 95l-131 -95h-43z" />
    <glyph glyph-name="Ycircumflex" unicode="&#x176;" horiz-adv-x="641" 
d="M448 304l-34 -207q-2 -10 13.5 -35t23.5 -25h51v-37h-339v37h51q8 0 31.5 25t25.5 35l36 208l-102 306q-5 13 -30.5 46.5t-34.5 33.5h-19v37h330v-37h-43q-9 0 -30 -30.5t-25 -45.5l70 -259h6l152 256q2 15 -8 47t-18 32h-42v37h237v-37h-17q-11 -2 -48.5 -34.5
t-46.5 -45.5zM450 931h100l62 -154h-40l-81 77l-135 -77h-46z" />
    <glyph glyph-name="ycircumflex" unicode="&#x177;" horiz-adv-x="453" 
d="M108 384q16 -68 34 -157.5t28 -144.5l9 -56l-115 -232h67l110 231l205 361q11 14 33 36t28 22h15v35h-185v-35h32q9 0 19 -22t7 -36l-120 -227h-7q-19 127 -36 224v96h-189v-35h18q8 0 25.5 -23.5t21.5 -36.5zM309 713h86l54 -176h-41l-68 95l-131 -95h-43z" />
    <glyph glyph-name="Ydieresis" unicode="&#x178;" horiz-adv-x="641" 
d="M448 304l-34 -207q-2 -10 13.5 -35t23.5 -25h51v-37h-339v37h51q8 0 31.5 25t25.5 35l36 208l-102 306q-5 13 -30.5 46.5t-34.5 33.5h-19v37h330v-37h-43q-9 0 -30 -30.5t-25 -45.5l70 -259h6l152 256q2 15 -8 47t-18 32h-42v37h237v-37h-17q-11 -2 -48.5 -34.5
t-46.5 -45.5zM657 840q0 -29 -20.5 -49.5t-50.5 -20.5t-51 20.5t-21 49.5t21 49.5t51 20.5t50.5 -20.5t20.5 -49.5zM443 840q0 -29 -20.5 -49.5t-50.5 -20.5t-51 20.5t-21 49.5t21 49.5t51 20.5t50.5 -20.5t20.5 -49.5z" />
    <glyph glyph-name="Zacute" unicode="&#x179;" horiz-adv-x="604" 
d="M510 679h-185q-13 0 -70.5 -69.5t-59.5 -83.5h-35l31 202h508l-488 -677h186q28 0 90 88t62 112h38v-251h-537v41zM469 917h162l-209 -140h-49z" />
    <glyph glyph-name="zacute" unicode="&#x17a;" horiz-adv-x="469" 
d="M30 36l352 352l-178 -2q-12 0 -36.5 -23t-29.5 -37h-28v153h414v-11l-369 -374l187 2q21 0 55.5 31t34.5 45h27l-26 -172h-403v36zM350 713h141l-191 -176h-37z" />
    <glyph glyph-name="Zdotaccent" unicode="&#x17b;" horiz-adv-x="604" 
d="M510 679h-185q-13 0 -70.5 -69.5t-59.5 -83.5h-35l31 202h508l-488 -677h186q28 0 90 88t62 112h38v-251h-537v41zM533 848q0 -32 -22.5 -54.5t-55.5 -22.5t-55.5 22.5t-22.5 54.5t22.5 54.5t55.5 22.5t55.5 -22.5t22.5 -54.5z" />
    <glyph glyph-name="zdotaccent" unicode="&#x17c;" horiz-adv-x="469" 
d="M30 36l352 352l-178 -2q-12 0 -36.5 -23t-29.5 -37h-28v153h414v-11l-369 -374l187 2q21 0 55.5 31t34.5 45h27l-26 -172h-403v36zM420 633q0 -33 -24.5 -57t-58.5 -24t-58.5 24t-24.5 57t24.5 57t58.5 24t58.5 -24t24.5 -57z" />
    <glyph glyph-name="Zcaron" unicode="&#x17d;" horiz-adv-x="604" 
d="M510 679h-185q-13 0 -70.5 -69.5t-59.5 -83.5h-35l31 202h508l-488 -677h186q28 0 90 88t62 112h38v-251h-537v41zM495 777h-101l-62 154h39l82 -78l134 78h46z" />
    <glyph glyph-name="zcaron" unicode="&#x17e;" horiz-adv-x="469" 
d="M30 36l352 352l-178 -2q-12 0 -36.5 -23t-29.5 -37h-28v153h414v-11l-369 -374l187 2q21 0 55.5 31t34.5 45h27l-26 -172h-403v36zM365 537h-86l-58 176h41l70 -95l134 95h43z" />
    <glyph glyph-name="florin" unicode="&#x192;" horiz-adv-x="365" 
d="M105 0l83 392q2 8 -6.5 27.5t-14.5 19.5h-82v40h120l15 61q22 93 84 159.5t133 66.5q28 0 46 -17t18 -43q0 -30 -19.5 -51t-49.5 -27h-24q-21 5 -34 23t-8 40h-10q-11 -5 -24 -20.5t-16 -32.5q-5 -24 5 -61.5t5 -62.5l-7 -35h112l-8 -40h-112l-146 -645h-60v206z" />
    <glyph glyph-name="Aringacute" unicode="&#x1fa;" horiz-adv-x="682" 
d="M458 102l-17 109h-212l-55 -108q0 -14 12.5 -40t21.5 -26h40v-37h-228v37h13q9 1 41 26.5t43 39.5l302 597l65 43l124 -641q11 -18 30.5 -41.5t27.5 -23.5h16v-37h-322v37h38q12 1 36 27t24 38zM363 865q0 44 34 76t77 32q44 0 77 -32t33 -76q0 -45 -33 -76.5t-77 -31.5
t-77.5 31.5t-33.5 76.5zM388 521h-5l-131 -260h181zM548 1138h162l-209 -140h-49zM417 865q0 -25 15.5 -41t41.5 -16q25 0 40.5 16t15.5 41t-15.5 40.5t-40.5 15.5t-41 -15.5t-16 -40.5z" />
    <glyph glyph-name="aringacute" unicode="&#x1fb;" horiz-adv-x="572" 
d="M387 90h-5q-32 -51 -74.5 -76t-85.5 -25q-70 0 -109.5 47.5t-39.5 126.5q0 77 34 152t96 125t134 50q87 0 116 -78l92 67h9l-81 -371q-2 -11 8.5 -23.5t20.5 -12.5q6 0 23 13.5t24 22.5l19 -26q-21 -27 -61 -58.5t-70 -32.5q-33 -1 -44.5 27.5t-5.5 71.5zM248 54
q39 0 72 34.5t50 86.5q18 53 30 137q9 57 -6 93t-56 36q-39 0 -72.5 -34.5t-53.5 -87.5q-22 -60 -31 -133q-7 -56 10 -94t57 -38zM278 633q0 44 33 75.5t76 31.5q44 0 76 -31.5t32 -75.5q0 -45 -32 -76t-76 -31t-76.5 31t-32.5 76zM479 957h141l-191 -176h-37zM331 633
q0 -23 16.5 -39.5t39.5 -16.5t39 16.5t16 39.5t-16 39t-39 16t-39.5 -16t-16.5 -39z" />
    <glyph glyph-name="AEacute" unicode="&#x1fc;" horiz-adv-x="910" 
d="M427 699l62 29h455l-34 -199h-33q2 15 -37 83t-50 68h-267q-4 0 -12 -9.5t-7 -13.5l46 -258h114q10 0 42.5 32t32.5 43v16h39l-2 -239h-37v23q0 12 -32 44t-43 32h-107l51 -278q1 -5 9 -13.5t12 -8.5h84q24 0 75 81.5t51 106.5h37v-238h-522v37h35q10 1 33.5 26.5
t25.5 38.5l-15 109h-212l-56 -108q0 -14 11.5 -40t20.5 -26h34v-37h-224v37h17q9 0 41.5 26t42.5 40zM388 521h-6l-135 -260h179zM698 917h162l-209 -140h-49z" />
    <glyph glyph-name="aeacute" unicode="&#x1fd;" horiz-adv-x="782" 
d="M610 247l-107 -14q-10 -65 16.5 -107.5t84.5 -42.5q45 0 86.5 27.5t66.5 71.5h37q-34 -84 -98.5 -138.5t-133.5 -54.5q-61 0 -98 32q-23 -33 -47 -33q-29 0 -32.5 33t6.5 68h-7q-59 -100 -154 -100q-73 0 -115 45t-42 128q0 77 32.5 151.5t93 125t132.5 50.5
q77 0 114 -76l45 66h9v-66q65 77 146 77q58 0 95 -27t37 -77q0 -111 -167 -139zM250 53q42 0 74 34.5t46 87.5q18 67 27 137q6 57 -11 93t-58 36q-77 0 -118 -122q-23 -71 -29 -133q-6 -58 11 -95.5t58 -37.5zM507 268q54 9 106 22q38 10 63.5 34t25.5 58q0 29 -16.5 47
t-42.5 18q-46 -5 -86 -61.5t-50 -117.5zM536 713h141l-191 -176h-37z" />
    <glyph glyph-name="Oslashacute" unicode="&#x1fe;" horiz-adv-x="768" 
d="M208 47l-65 -76l-40 37l66 77q-71 87 -68 216q0 110 56 212t152 165.5t205 63.5q99 -1 171 -53l62 72l41 -37l-62 -72q81 -90 76 -226q-4 -83 -37.5 -162.5t-86.5 -140.5t-129 -98t-160 -37q-106 0 -181 59zM398 47q77 0 140.5 60t85.5 156q22 102 36 218q5 46 -3 90
l-394 -460q40 -64 135 -64zM506 689q-79 0 -142.5 -62.5t-84.5 -159.5q-25 -112 -37 -218q-6 -40 1 -78l391 458q-42 60 -128 60zM569 917h162l-209 -140h-49z" />
    <glyph glyph-name="oslashacute" unicode="&#x1ff;" horiz-adv-x="519" 
d="M127 36l-52 -54l-29 29l55 57q-30 51 -30 121q0 116 79 208.5t188 92.5q73 0 124 -43l49 51l31 -30l-52 -54q35 -50 35 -127q0 -117 -79 -207.5t-189 -90.5q-81 0 -130 47zM263 45q39 0 77 37.5t51 91.5q19 78 25 152v11l-228 -238q17 -54 75 -54zM333 440
q-38 0 -75 -36.5t-50 -90.5q-20 -83 -26 -149v-11l227 238q-20 49 -76 49zM398 713h141l-191 -176h-37z" />
    <glyph glyph-name="Scommaaccent" unicode="&#x218;" horiz-adv-x="578" 
d="M323 44q62 0 100 29t38 83q0 15 -4.5 28.5t-9 24t-16.5 22t-19 18t-24 17t-23 14t-25.5 14t-23.5 12.5q-172 93 -172 216q0 97 68 158t173 61q31 0 79 -15t64 -15q33 0 48 17h32l-50 -206h-35q4 40 -39 106t-99 66t-90.5 -29t-34.5 -77q0 -27 11 -50t34 -42t39 -29
t46 -26q46 -25 71 -41t56.5 -43.5t46 -60.5t14.5 -74q0 -105 -72 -169t-184 -64q-30 0 -77.5 16t-70.5 16q-28 0 -51 -21h-33v238h37q-4 -43 64 -118.5t132 -75.5zM374 -105l-4 -26q-9 -58 -53 -92.5t-95 -36.5v39q32 -1 59.5 16t34.5 40h-30q-19 5 -30.5 21t-11.5 38
q0 26 20 46.5t49 20.5q28 0 46.5 -19.5t14.5 -46.5z" />
    <glyph glyph-name="scommaaccent" unicode="&#x219;" horiz-adv-x="427" 
d="M212 -11q-45 0 -94.5 28.5t-65.5 65.5q-11 24 6.5 42t43 15t34.5 -28t38.5 -47.5t55.5 -22.5q94 0 94 65q0 14 -6.5 25t-19 19.5t-22.5 14t-27 12t-23 9.5q-59 27 -93 58.5t-34 78.5q0 69 55.5 117t133.5 48q44 0 86.5 -22.5t60.5 -60.5q11 -23 -5.5 -40t-40 -15.5
t-31.5 23.5q-9 25 -34 47t-48 22q-39 0 -63.5 -16t-24.5 -46q0 -19 17.5 -36.5t33.5 -25.5t45 -21q75 -33 100 -55q36 -34 36 -80q0 -72 -61 -123t-147 -51zM253 -105l-4 -26q-9 -58 -53 -92.5t-95 -36.5v39q32 -1 59.5 16t34.5 40h-30q-19 5 -30.5 21t-11.5 38
q0 26 20 46.5t49 20.5q28 0 46.5 -19.5t14.5 -46.5z" />
    <glyph glyph-name="Tcommaaccent" unicode="&#x21a;" horiz-adv-x="664" 
d="M588 680h-76l-97 -583q-2 -11 13 -35.5t25 -24.5h51v-37h-345v37h51q9 0 33.5 24.5t26.5 35.5l97 583h-76q-20 0 -88.5 -84.5t-70.5 -105.5h-37q36 128 57 252h34q15 -14 111 -14h298q94 0 115 14h34q-9 -55 -15 -118t-8 -98l-2 -36h-34q0 24 -40.5 107t-56.5 83z
M377 -105l-4 -26q-9 -58 -53 -92.5t-95 -36.5v39q32 -1 59.5 16t34.5 40h-30q-19 5 -30.5 21t-11.5 38q0 26 20 46.5t49 20.5q28 0 46.5 -19.5t14.5 -46.5z" />
    <glyph glyph-name="tcommaaccent" unicode="&#x21b;" horiz-adv-x="342" 
d="M274 422l-54 -305q-2 -14 10 -30t24 -16q27 0 75 48l20 -31q-21 -26 -70 -62t-87 -37t-69 32.5t-23 78.5l50 288q1 8 -8 22t-15 14h-58v55h96l64 129h78l-25 -129h110v-57h-118zM221 -105l-4 -26q-9 -58 -53 -92.5t-95 -36.5v39q32 -1 59.5 16t34.5 40h-30
q-19 5 -30.5 21t-11.5 38q0 26 20 46.5t49 20.5q28 0 46.5 -19.5t14.5 -46.5z" />
    <glyph glyph-name="circumflex" unicode="&#x2c6;" horiz-adv-x="415" 
d="M284 713h86l54 -176h-41l-68 95l-131 -95h-43z" />
    <glyph glyph-name="caron" unicode="&#x2c7;" horiz-adv-x="415" 
d="M325 537h-86l-58 176h41l70 -95l134 95h43z" />
    <glyph glyph-name="breve" unicode="&#x2d8;" horiz-adv-x="415" 
d="M280 537q-68 0 -93.5 42t-6.5 104l31 4q-5 -35 16 -53t59 -18q96 0 137 74l30 -7q-19 -64 -67 -105t-106 -41z" />
    <glyph glyph-name="dotaccent" unicode="&#x2d9;" horiz-adv-x="415" 
d="M376 633q0 -33 -24.5 -57t-58.5 -24t-58.5 24t-24.5 57t24.5 57t58.5 24t58.5 -24t24.5 -57z" />
    <glyph glyph-name="ring" unicode="&#x2da;" horiz-adv-x="415" 
d="M186 636q0 44 33 75.5t76 31.5q44 0 76 -31.5t32 -75.5q0 -45 -32 -76t-76 -31t-76.5 31t-32.5 76zM239 636q0 -23 16.5 -39.5t39.5 -16.5t39 16.5t16 39.5q0 22 -16 38.5t-39 16.5t-39.5 -16t-16.5 -39z" />
    <glyph glyph-name="ogonek" unicode="&#x2db;" horiz-adv-x="415" 
d="M222 0l77 21q-76 -54 -89 -140q-1 -12 10.5 -24.5t22.5 -12.5q8 0 50 35l22 -26q-2 -2 -10.5 -11t-11 -11.5l-11 -11t-12.5 -11.5t-12.5 -10t-13.5 -10t-13.5 -7.5t-15 -6.5t-14 -3.5t-15.5 -1.5q-42 0 -65.5 28t-15.5 64q7 33 48 77.5t69 61.5z" />
    <glyph glyph-name="tilde" unicode="&#x2dc;" horiz-adv-x="415" 
d="M454 587l-29 -23q-5 21 -14 31.5t-28 9.5q-22 -1 -71.5 -28.5t-80.5 -27.5q-37 0 -56 28.5t-14 75.5l29 23q0 -17 12.5 -29t29.5 -12q28 0 76 27.5t76 27.5q37 0 56.5 -28.5t13.5 -74.5z" />
    <glyph glyph-name="hungarumlaut" unicode="&#x2dd;" horiz-adv-x="440" 
d="M430 713h135l-196 -176h-42zM263 713h132l-184 -176h-40z" />
    <glyph glyph-name="Delta" unicode="&#x394;" horiz-adv-x="644" 
d="M580 100l-223 596l-223 -596h446zM310 728h94l239 -629l-20 -99h-532l-20 99z" />
    <glyph glyph-name="Delta" unicode="&#x2206;" horiz-adv-x="644" 
d="M580 100l-223 596l-223 -596h446zM310 728h94l239 -629l-20 -99h-532l-20 99z" />
    <glyph glyph-name="Omega" unicode="&#x3a9;" horiz-adv-x="688" 
d="M392 742q130 0 215 -92t85 -228q0 -101 -68 -189t-147 -134h86q7 0 23 12.5t28 24.5l13 12h31l-51 -148h-194v92q132 100 148 223q13 102 2 201q-11 90 -57.5 134t-113.5 44q-68 0 -114 -44t-57 -134q-11 -92 2 -201q14 -122 148 -223v-92h-194l-51 148h31q49 -49 64 -49
h86q-80 47 -147.5 134.5t-67.5 188.5q0 136 85 228t215 92z" />
    <glyph glyph-name="Omega" unicode="&#x2126;" horiz-adv-x="688" 
d="M392 742q130 0 215 -92t85 -228q0 -101 -68 -189t-147 -134h86q7 0 23 12.5t28 24.5l13 12h31l-51 -148h-194v92q132 100 148 223q13 102 2 201q-11 90 -57.5 134t-113.5 44q-68 0 -114 -44t-57 -134q-11 -92 2 -201q14 -122 148 -223v-92h-194l-51 148h31q49 -49 64 -49
h86q-80 47 -147.5 134.5t-67.5 188.5q0 136 85 228t215 92z" />
    <glyph glyph-name="pi" unicode="&#x3c0;" horiz-adv-x="639" 
d="M162 92v309h-88l36 78h504v-78h-62v-309q0 -12 19.5 -34t28.5 -22h22v-36h-249v36h18q10 0 26 21.5t16 34.5v309h-152v-309q0 -13 15 -34.5t24 -21.5h18v-36h-247v36h20q10 0 30.5 21.5t20.5 34.5z" />
    <glyph glyph-name="Wgrave" unicode="&#x1e80;" horiz-adv-x="937" 
d="M557 522l-210 -493l-62 -39l-90 616q-2 14 -25.5 49.5t-31.5 35.5h-13v37h324v-37h-47q-9 0 -33.5 -34t-27.5 -49l40 -371h3l157 373l128 132l66 -504h4l150 370q2 14 -13.5 48.5t-23.5 34.5h-48v37h248v-37h-12q-9 0 -48.5 -35.5t-46.5 -48.5l-253 -578l-62 -39l-68 532
h-5zM461 917h163l46 -140h-47z" />
    <glyph glyph-name="wgrave" unicode="&#x1e81;" horiz-adv-x="680" 
d="M496 184l97 202q5 10 -4 34t-17 24h-45l-8 35h201v-35h-18q-7 0 -28.5 -22t-31.5 -36l-182 -359l-54 -39q-20 208 -44 331h-5l-145 -292l-56 -39q-26 243 -50 397q-2 13 -18.5 36t-24.5 23h-20v35h178v-92l22 -204h4l100 225l96 106q12 -64 24.5 -146.5t18.5 -133.5
l6 -50h4zM283 713h129l30 -176h-36z" />
    <glyph glyph-name="Wacute" unicode="&#x1e82;" horiz-adv-x="937" 
d="M557 522l-210 -493l-62 -39l-90 616q-2 14 -25.5 49.5t-31.5 35.5h-13v37h324v-37h-47q-9 0 -33.5 -34t-27.5 -49l40 -371h3l157 373l128 132l66 -504h4l150 370q2 14 -13.5 48.5t-23.5 34.5h-48v37h248v-37h-12q-9 0 -48.5 -35.5t-46.5 -48.5l-253 -578l-62 -39l-68 532
h-5zM689 917h162l-209 -140h-49z" />
    <glyph glyph-name="wacute" unicode="&#x1e83;" horiz-adv-x="680" 
d="M496 184l97 202q5 10 -4 34t-17 24h-45l-8 35h201v-35h-18q-7 0 -28.5 -22t-31.5 -36l-182 -359l-54 -39q-20 208 -44 331h-5l-145 -292l-56 -39q-26 243 -50 397q-2 13 -18.5 36t-24.5 23h-20v35h178v-92l22 -204h4l100 225l96 106q12 -64 24.5 -146.5t18.5 -133.5
l6 -50h4zM468 713h141l-191 -176h-37z" />
    <glyph glyph-name="Wdieresis" unicode="&#x1e84;" horiz-adv-x="937" 
d="M557 522l-210 -493l-62 -39l-90 616q-2 14 -25.5 49.5t-31.5 35.5h-13v37h324v-37h-47q-9 0 -33.5 -34t-27.5 -49l40 -371h3l157 373l128 132l66 -504h4l150 370q2 14 -13.5 48.5t-23.5 34.5h-48v37h248v-37h-12q-9 0 -48.5 -35.5t-46.5 -48.5l-253 -578l-62 -39l-68 532
h-5zM826 840q0 -29 -20.5 -49.5t-50.5 -20.5t-51 20.5t-21 49.5t21 49.5t51 20.5t50.5 -20.5t20.5 -49.5zM612 840q0 -29 -20.5 -49.5t-50.5 -20.5t-51 20.5t-21 49.5t21 49.5t51 20.5t50.5 -20.5t20.5 -49.5z" />
    <glyph glyph-name="wdieresis" unicode="&#x1e85;" horiz-adv-x="680" 
d="M496 184l97 202q5 10 -4 34t-17 24h-45l-8 35h201v-35h-18q-7 0 -28.5 -22t-31.5 -36l-182 -359l-54 -39q-20 208 -44 331h-5l-145 -292l-56 -39q-26 243 -50 397q-2 13 -18.5 36t-24.5 23h-20v35h178v-92l22 -204h4l100 225l96 106q12 -64 24.5 -146.5t18.5 -133.5
l6 -50h4zM596 621q0 -26 -18.5 -44t-44.5 -18t-44.5 18t-18.5 44t18.5 44t44.5 18t44.5 -18t18.5 -44zM392 621q0 -26 -18.5 -44t-44.5 -18t-44.5 18t-18.5 44t18.5 44t44.5 18t44.5 -18t18.5 -44z" />
    <glyph glyph-name="Ygrave" unicode="&#x1ef2;" horiz-adv-x="641" 
d="M448 304l-34 -207q-2 -10 13.5 -35t23.5 -25h51v-37h-339v37h51q8 0 31.5 25t25.5 35l36 208l-102 306q-5 13 -30.5 46.5t-34.5 33.5h-19v37h330v-37h-43q-9 0 -30 -30.5t-25 -45.5l70 -259h6l152 256q2 15 -8 47t-18 32h-42v37h237v-37h-17q-11 -2 -48.5 -34.5
t-46.5 -45.5zM306 917h163l46 -140h-47z" />
    <glyph glyph-name="ygrave" unicode="&#x1ef3;" horiz-adv-x="453" 
d="M108 384q16 -68 34 -157.5t28 -144.5l9 -56l-115 -232h67l110 231l205 361q11 14 33 36t28 22h15v35h-185v-35h32q9 0 19 -22t7 -36l-120 -227h-7q-19 127 -36 224v96h-189v-35h18q8 0 25.5 -23.5t21.5 -36.5zM184 713h129l30 -176h-36z" />
    <glyph glyph-name="endash" unicode="&#x2013;" horiz-adv-x="549" 
d="M82 330h505l-15 -91h-505z" />
    <glyph glyph-name="emdash" unicode="&#x2014;" horiz-adv-x="794" 
d="M58 330h794l-13 -79h-794z" />
    <glyph glyph-name="quoteleft" unicode="&#x2018;" horiz-adv-x="186" 
d="M90 554l5 26q14 73 65.5 112.5t128.5 35.5v-41q-48 5 -87.5 -15.5t-47.5 -57.5h28q20 -4 32.5 -21t12.5 -40q0 -29 -21 -51.5t-53 -22.5q-30 0 -49.5 22t-13.5 53z" />
    <glyph glyph-name="quoteright" unicode="&#x2019;" horiz-adv-x="220" 
d="M293 653l-5 -26q-14 -72 -65.5 -112t-128.5 -36v41q48 -5 87 15.5t47 57.5h-27q-20 4 -32.5 21t-12.5 40q0 29 21 51.5t53 22.5q30 0 49.5 -22t13.5 -53z" />
    <glyph glyph-name="quotesinglbase" unicode="&#x201a;" horiz-adv-x="208" 
d="M192 60l-5 -26q-14 -72 -65.5 -112t-128.5 -36v41q48 -5 87 15.5t47 57.5h-27q-20 4 -32.5 21t-12.5 40q0 29 21 51.5t53 22.5q30 0 49.5 -22t13.5 -53z" />
    <glyph glyph-name="quotedblleft" unicode="&#x201c;" horiz-adv-x="354" 
d="M90 554l5 26q14 72 65.5 112t128.5 36v-41q-48 5 -87 -15.5t-47 -57.5h27q20 -4 32.5 -21t12.5 -40q0 -29 -21 -51.5t-53 -22.5q-30 0 -49.5 22t-13.5 53zM423 728v-41q-38 -4 -65.5 -23.5t-34.5 -49.5h27q20 -4 32.5 -21t12.5 -40q0 -29 -21 -51.5t-53 -22.5
q-30 0 -49.5 22t-13.5 53l5 26q12 63 54.5 102.5t105.5 45.5z" />
    <glyph glyph-name="quotedblright" unicode="&#x201d;" horiz-adv-x="385" 
d="M458 653l-5 -26q-14 -72 -65.5 -112t-128.5 -36v41q48 -5 87 15.5t47 57.5h-27q-20 4 -32.5 21t-12.5 40q0 29 21 51.5t53 22.5q30 0 49.5 -22t13.5 -53zM125 479v41q38 4 65.5 23.5t34.5 49.5h-27q-20 4 -32.5 21t-12.5 40q0 29 21 51.5t53 22.5q30 0 49.5 -22t13.5 -53
l-5 -26q-12 -63 -54.5 -102.5t-105.5 -45.5z" />
    <glyph glyph-name="quotedblbase" unicode="&#x201e;" horiz-adv-x="376" 
d="M360 60l-5 -26q-14 -72 -65.5 -112t-128.5 -36v41q48 -5 87 15.5t47 57.5h-27q-20 4 -32.5 21t-12.5 40q0 29 21 51.5t53 22.5q30 0 49.5 -22t13.5 -53zM27 -114v41q38 4 65.5 23.5t34.5 49.5h-27q-20 4 -32.5 21t-12.5 40q0 29 21 51.5t53 22.5q30 0 49.5 -22t13.5 -53
l-5 -26q-12 -63 -54.5 -102.5t-105.5 -45.5z" />
    <glyph glyph-name="dagger" unicode="&#x2020;" horiz-adv-x="465" 
d="M136 527l162 -34l8 234l50 15l46 -15l-73 -234l171 34l8 -48l-24 -49l-159 33l-46 -463l-25 -99h-75v99l114 463l-174 -33l-7 49z" />
    <glyph glyph-name="daggerdbl" unicode="&#x2021;" horiz-adv-x="465" 
d="M236 251l57 212l-174 -33l-7 49l24 48l162 -34l8 234l50 15l46 -15l-73 -234l171 34l8 -48l-24 -49l-159 33l-12 -212l-35 -71l170 32l8 -49l-24 -47l-159 33l-9 -234l-47 -15l-44 16l69 233l-170 -33l-8 47l24 49l158 -32z" />
    <glyph glyph-name="bullet" unicode="&#x2022;" horiz-adv-x="340" 
d="M229 534q58 0 98 -39.5t40 -96.5t-40 -96.5t-98 -39.5t-98 39.5t-40 96.5t40 96.5t98 39.5z" />
    <glyph glyph-name="ellipsis" unicode="&#x2026;" horiz-adv-x="719" 
d="M221 79q0 -32 -23.5 -55.5t-57.5 -23.5t-57.5 23.5t-23.5 55.5t23.5 55.5t57.5 23.5t57.5 -23.5t23.5 -55.5zM695 62q0 -26 -18.5 -44t-44.5 -18t-44.5 18t-18.5 44t18.5 44t44.5 18t44.5 -18t18.5 -44zM468 70q0 -30 -20 -50t-51 -20q-30 0 -50.5 20.5t-20.5 49.5
t20.5 49.5t50.5 20.5q31 0 51 -20t20 -50z" />
    <glyph glyph-name="perthousand" unicode="&#x2030;" horiz-adv-x="808" 
d="M624 237h-9q4 -15 4 -33q0 -84 -51.5 -150t-129.5 -66q-54 0 -90 38.5t-36 103.5q0 86 52 149t133 63h7q-4 15 -4 37q0 86 51 149t132 63q58 0 91.5 -37t33.5 -101q0 -84 -53 -150t-131 -66zM205 388q-54 0 -90 38.5t-36 103.5q0 86 52 149t133 63q58 0 91.5 -37
t33.5 -101q0 -84 -53 -150t-131 -66zM628 283q29 0 52 23.5t34 63.5q10 38 15 87q4 41 -9.5 66.5t-40.5 25.5q-65 0 -87 -87q-11 -45 -14 -86q-5 -93 50 -93zM442 34q29 0 52 23.5t34 63.5q10 38 15 87q4 41 -9.5 66.5t-40.5 25.5q-65 0 -87 -87q-11 -45 -14 -86
q-5 -93 50 -93zM209 434q29 0 52 23.5t34 63.5q10 38 15 87q4 41 -9.5 66.5t-40.5 25.5q-65 0 -87 -87q-11 -45 -14 -86q-5 -93 50 -93zM589 728h60l-542 -728h-61z" />
    <glyph glyph-name="guilsinglleft" unicode="&#x2039;" horiz-adv-x="325" 
d="M134 298l165 -158v-94l-228 220v64l309 241v-81z" />
    <glyph glyph-name="guilsinglright" unicode="&#x203a;" horiz-adv-x="325" 
d="M57 129l244 171l-157 178v93l223 -240v-65l-310 -220v83z" />
    <glyph glyph-name="interrobang" unicode="&#x203d;" horiz-adv-x="475" 
d="M181 389l16 8v274q0 31 20.5 50t51.5 19q27 0 44.5 -16t17.5 -42q17 26 47 41.5t63 15.5q50 0 83.5 -32.5t33.5 -85.5q0 -38 -19.5 -73t-44.5 -58t-71.5 -49t-75 -38.5t-81.5 -33.5l-20 -92q-18 -82 -89 -82q-33 0 -56 23t-23 59t27 62t76 50zM313 588l-34 -155
q173 75 173 153q0 30 -17.5 46.5t-47.5 16.5q-27 0 -47.5 -17t-26.5 -44zM138 70q0 -29 20.5 -49.5t50.5 -20.5t50.5 20.5t20.5 49.5t-20.5 49.5t-50.5 20.5t-50.5 -20.5t-20.5 -49.5zM197 279v60q-64 -28 -64 -60q0 -14 8.5 -23t22.5 -9t23.5 9.5t9.5 22.5z" />
    <glyph glyph-name="fraction" unicode="&#x2044;" horiz-adv-x="682" 
d="M714 728h70l-692 -728h-68z" />
    <glyph glyph-name="Euro" unicode="&#x20ac;" horiz-adv-x="628" 
d="M477 692q-78 0 -132 -63t-68 -190h215v-47h-219v-47h251v-47h-263q-17 -122 17.5 -184.5t107.5 -62.5q63 0 111.5 37t74.5 101h54q-87 -201 -265 -201q-107 0 -168 88t-57 222h-80v47h95v47h-63v47h71q35 137 121 220t200 83q31 0 74.5 -16t63.5 -16q30 0 44 18h37
l-72 -238h-39q13 75 -19.5 138.5t-91.5 63.5z" />
    <glyph glyph-name="trademark" unicode="&#x2122;" horiz-adv-x="893" 
d="M349 698l-54 -322q-1 -6 6.5 -20t12.5 -14h40v-29h-220v29h39q3 0 17.5 14t15.5 20l54 322h-33q-5 0 -28 -31t-47.5 -67.5t-26.5 -38.5h-21q8 28 18.5 70.5t16.5 70.5l6 29l86 -3h155l88 3q-13 -105 -17 -170h-21q-1 3 -13.5 39t-24.5 67t-16 31h-33zM635 301l-67 341
l-45 -266q-1 -6 8 -20t14 -14h29v-29h-159v29h40q4 0 17 14t14 20l49 290q1 6 -8 20t-13 14h-15v28h143l48 -262l147 262h130v-28h-15q-5 0 -19.5 -14t-15.5 -20l-48 -290q-1 -6 8 -20t14 -14h17v-29h-195v29h38q5 0 18 14t14 20l45 264z" />
    <glyph glyph-name="partialdiff" unicode="&#x2202;" horiz-adv-x="560" 
d="M377 685q-39 0 -73.5 -45t-54.5 -102h-29v161q84 43 182 43q84 0 138 -68.5t53 -199.5q0 -113 -40.5 -222.5t-119.5 -185.5t-176 -76q-85 0 -133.5 48t-48.5 132q0 71 37 145t103 124.5t140 50.5q50 0 84 -30.5t46 -80.5q25 131 -8.5 218.5t-99.5 87.5zM253 44
q49 0 93.5 49.5t69.5 116.5t25 126q0 40 -21.5 67t-58.5 27q-49 0 -95 -50t-72 -117.5t-26 -124.5q0 -41 22.5 -67.5t62.5 -26.5z" />
    <glyph glyph-name="product" unicode="&#x220f;" horiz-adv-x="732" 
d="M92 728h639v-37h-15q-9 0 -32 -25t-23 -35v-740q0 -12 21 -36t32 -24h15v-37h-291v37h36q10 0 32.5 24t22.5 36v783h-233v-783q0 -12 22.5 -36t32.5 -24h36v-37h-295v37h16q10 0 31.5 24t21.5 36v740q0 10 -24 35t-31 25h-14v37z" />
    <glyph glyph-name="summation" unicode="&#x2211;" horiz-adv-x="580" 
d="M390 284v-46l-205 -395h202q14 0 76 71.5t62 85.5h39l-19 -206h-530l241 467l-240 467h529l19 -206h-39q0 14 -62 85.5t-76 71.5h-201z" />
    <glyph glyph-name="minus" unicode="&#x2212;" horiz-adv-x="644" 
d="M92 326h544v-75h-544v75z" />
    <glyph glyph-name="radical" unicode="&#x221a;" horiz-adv-x="631" 
d="M147 315h-81l21 78h162l152 -473l227 849h62l-256 -938l-111 -46z" />
    <glyph glyph-name="infinity" unicode="&#x221e;" horiz-adv-x="657" 
d="M376 212q-75 -95 -167 -95q-65 0 -109 45.5t-44 115.5t44 116t108 46q87 0 168 -95q81 95 168 95q64 0 108 -46t44 -116t-44 -115.5t-109 -45.5q-92 0 -167 95zM328 279q-17 29 -28.5 45.5t-35 34t-48.5 17.5q-42 0 -68 -27.5t-26 -70.5t26 -69t68 -26q36 0 61.5 26
t50.5 70zM424 279q16 -28 28.5 -45.5t35.5 -34t48 -16.5q42 0 68 26t26 69t-26 70.5t-68 27.5q-25 0 -48.5 -17.5t-35 -34t-28.5 -45.5z" />
    <glyph glyph-name="integral" unicode="&#x222b;" horiz-adv-x="457" 
d="M101 37l203 503q39 97 95.5 161.5t124.5 64.5q28 0 46 -17t18 -43q0 -30 -19.5 -51t-49.5 -27h-24q-21 5 -34 23t-8 40h-10q-11 -5 -24 -20.5t-16 -32.5q-5 -22 7.5 -60.5t2.5 -63.5l-208 -525q-35 -89 -97 -146t-132 -57q-27 0 -44.5 19.5t-15.5 45.5q2 29 19.5 49
t47.5 25h23q21 -5 35 -23.5t11 -42.5h11q17 6 31 21.5t17 33.5q5 27 -9 59t-1 64z" />
    <glyph glyph-name="therefore" unicode="&#x2234;" horiz-adv-x="755" 
d="M483 557q0 -32 -23.5 -55.5t-57.5 -23.5t-57.5 23.5t-23.5 55.5t23.5 55.5t57.5 23.5t57.5 -23.5t23.5 -55.5zM735 62q0 -26 -18.5 -44t-44.5 -18t-44.5 18t-18.5 44t18.5 44t44.5 18t44.5 -18t18.5 -44zM212 70q0 -30 -20 -50t-51 -20q-30 0 -50.5 20.5t-20.5 49.5
t20.5 49.5t50.5 20.5q31 0 51 -20t20 -50z" />
    <glyph glyph-name="because" unicode="&#x2235;" horiz-adv-x="755" 
d="M392 79q0 32 23.5 55.5t57.5 23.5t57.5 -23.5t23.5 -55.5t-23.5 -55.5t-57.5 -23.5t-57.5 23.5t-23.5 55.5zM140 574q0 26 18.5 44t44.5 18t44.5 -18t18.5 -44t-18.5 -44t-44.5 -18t-44.5 18t-18.5 44zM663 566q0 30 20.5 50t50.5 20t50.5 -20.5t20.5 -49.5t-20.5 -49.5
t-50.5 -20.5t-50.5 20t-20.5 50z" />
    <glyph glyph-name="approxequal" unicode="&#x2248;" horiz-adv-x="509" 
d="M203 440q54 0 124.5 -35.5t99.5 -35.5q33 0 53 18t19 46l41 -8q2 -141 -129 -141q-45 0 -115.5 35.5t-108.5 35.5q-33 0 -53 -18t-19 -46l-41 8q-1 61 29.5 101t99.5 40zM203 266q54 0 124.5 -35.5t99.5 -35.5q33 0 53 18t19 46l41 -8q2 -141 -129 -141
q-45 0 -115.5 35.5t-108.5 35.5q-33 0 -53 -18t-19 -46l-41 8q-1 61 29.5 101t99.5 40z" />
    <glyph glyph-name="notequal" unicode="&#x2260;" horiz-adv-x="578" 
d="M59 242h195l64 95h-259v77h311l126 187h76l-126 -187h157v-77h-208l-64 -95h272v-77h-323l-111 -165h-77l111 165h-144v77z" />
    <glyph glyph-name="lessequal" unicode="&#x2264;" horiz-adv-x="450" 
d="M54 69l286 -2l-244 202v61l440 268v-76l-368 -224l238 -201v-97h-352v69z" />
    <glyph glyph-name="greaterequal" unicode="&#x2265;" horiz-adv-x="450" 
d="M126 67l290 2v-69h-357v97l337 201l-290 224v76l358 -268v-61z" />
    <glyph glyph-name="lozenge" unicode="&#x25ca;" horiz-adv-x="555" 
d="M374 0h-106l-174 364l174 364h106l174 -364zM321 32l154 332l-154 332l-154 -332z" />
    <glyph glyph-name="at.cap" horiz-adv-x="789" 
d="M538 203h-6q-20 -42 -57 -67.5t-77 -25.5q-61 0 -102.5 43.5t-41.5 113.5q0 116 65 210t170 94q33 0 59.5 -19.5t40.5 -49.5l87 62h9l-77 -352q-4 -18 3.5 -29.5t21.5 -11.5q52 0 92 81.5t40 183.5q0 115 -64 184t-173 69q-154 0 -258.5 -124.5t-104.5 -303.5
q0 -119 71.5 -190t194.5 -71h107v-56h-108q-144 0 -235 87t-91 230q0 122 51.5 231.5t150.5 179.5t223 70q135 0 214 -86t79 -220q0 -132 -62.5 -228.5t-154.5 -96.5q-35 0 -53.5 25.5t-13.5 66.5zM414 166q35 0 62.5 32t43.5 85q19 65 25 121q6 53 -8 87.5t-48 34.5
q-69 0 -109 -114q-20 -56 -26 -117q-6 -56 8.5 -92.5t51.5 -36.5z" />
    <glyph glyph-name="zero.tnum" horiz-adv-x="568" 
d="M409 742q93 0 145.5 -80.5t52.5 -198.5q0 -79 -22 -161.5t-62 -153t-103 -115.5t-137 -45q-97 0 -147 82t-50 208q0 108 37.5 212.5t113.5 178t172 73.5zM447 254q29 120 42 255q8 85 -12.5 131t-69.5 46q-114 0 -162 -201q-32 -132 -44 -255q-8 -88 13.5 -135.5
t70.5 -47.5q112 0 162 207z" />
    <glyph glyph-name="one.tnum" horiz-adv-x="568" 
d="M481 743l-121 -646q-2 -13 13.5 -36.5t25.5 -23.5h40v-37h-310v37h43q9 0 33.5 23.5t27.5 36.5l83 425q2 12 -11 30t-22 18h-54v37q63 12 104 36.5t74 69.5z" />
    <glyph glyph-name="two.tnum" horiz-adv-x="568" 
d="M162 111l314 2v-113h-423v34q19 63 102 155.5t187 176.5q104 83 104 170q0 49 -30.5 79.5t-77.5 30.5q-37 0 -73 -22.5t-58 -46.5t-51 -64l-41 32q30 44 49 68t54.5 59.5t77 52.5t89.5 17q78 0 130.5 -51t52.5 -130q0 -136 -185 -256q-77 -50 -142.5 -104.5t-78.5 -89.5z
" />
    <glyph glyph-name="three.tnum" horiz-adv-x="568" 
d="M221 373v39l113 42q86 55 86 125q0 34 -22 55t-57 21q-36 0 -82 -22.5t-83 -53.5l-27 38q55 48 124 86t130 38q58 0 95.5 -32t37.5 -87q0 -58 -41 -105.5t-106 -77.5q60 2 108 -31.5t48 -101.5q0 -75 -46.5 -141t-118.5 -108.5t-152.5 -67.5t-154.5 -28v54q73 3 149 34.5
t133.5 95t57.5 142.5q0 68 -54 90.5t-138 -4.5z" />
    <glyph glyph-name="four.tnum" horiz-adv-x="568" 
d="M320 251l54 306h-5q-111 -155 -242 -306h193zM292 97l15 83h-265v49q204 238 357 455l129 59l-82 -492h94v-71h-106l-14 -83q-2 -13 13.5 -36.5t25.5 -23.5h16v-37h-298v37h53q10 0 34.5 23.5t27.5 36.5z" />
    <glyph glyph-name="five.tnum" horiz-adv-x="568" 
d="M499 742l35 -112q-3 -1 -14.5 -3t-80 -5t-176.5 -3l-57 -188q102 94 180 94q77 0 125 -44t48 -121q0 -78 -48.5 -153.5t-122 -128t-161 -85t-165.5 -32.5v54q84 0 170 40t145.5 112t59.5 153q0 52 -29.5 82t-82.5 30q-30 0 -61 -17.5t-82 -55.5l-39 23l95 346h47
q210 0 214 14z" />
    <glyph glyph-name="six.tnum" horiz-adv-x="568" 
d="M549 756v-55q-118 4 -217 -89.5t-109 -212.5q66 91 173 91q71 0 115 -52.5t44 -142.5q0 -76 -33 -146t-94.5 -115.5t-136.5 -45.5q-93 0 -144.5 75t-51.5 194q0 94 34 184.5t93 160.5t145 112.5t182 41.5zM216 232q0 -75 27 -126.5t71 -51.5q60 0 92 59.5t32 135.5
q0 71 -27 115.5t-72 44.5q-59 0 -91 -52.5t-32 -124.5z" />
    <glyph glyph-name="seven.tnum" horiz-adv-x="568" 
d="M180 0h-153q101 176 202 326.5t143.5 205t71.5 87.5q-21 -5 -272 -5q-10 0 -33 -19.5t-28 -28.5h-41l74 162h396v-37l-50 -76q-52 -74 -171 -312t-139 -303z" />
    <glyph glyph-name="eight.tnum" horiz-adv-x="568" 
d="M460 177q0 15 -7 29t-14 23.5t-24 21.5t-24 16.5t-28 16t-23 12.5q-38 21 -40 34q-138 -68 -138 -173q0 -50 37 -80t92 -30q69 0 119 36t50 94zM400 428q43 27 74 70t31 86q-1 46 -31.5 76t-75.5 30q-49 0 -88 -33.5t-39 -75.5q3 -63 96 -123q2 -2 9.5 -6t11.5 -7t8 -7.5
t4 -9.5zM254 364q-96 77 -96 165q0 92 80.5 152.5t180.5 60.5q71 0 124 -37.5t53 -102.5q0 -64 -46 -117.5t-106 -81.5q60 -37 92 -73t32 -93q0 -68 -43 -126.5t-108.5 -90.5t-133.5 -32q-93 0 -155.5 45.5t-62.5 122.5q0 70 56 122t133 86z" />
    <glyph glyph-name="nine.tnum" horiz-adv-x="568" 
d="M110 -26v55q78 -2 154.5 41.5t127 115t59.5 148.5q-65 -90 -173 -90q-71 0 -115 53.5t-44 140.5q0 118 75.5 211t188.5 93q93 0 144.5 -75t51.5 -194q0 -126 -61 -241t-170.5 -187t-237.5 -71zM457 501q0 75 -26.5 125t-70.5 50q-60 0 -92 -58t-32 -134q0 -71 27 -115
t72 -44q58 0 90 52t32 124z" />
    <glyph glyph-name="zero.onum" horiz-adv-x="562" 
d="M357 491q91 0 148 -57t57 -146q0 -124 -83 -212t-198 -88q-91 0 -148 58.5t-57 147.5q0 124 83 210.5t198 86.5zM141 200q0 -61 38 -98t102 -37q90 0 153.5 65.5t63.5 150.5q0 60 -39.5 96.5t-101.5 36.5q-88 0 -152 -65.5t-64 -148.5z" />
    <glyph glyph-name="one.onum" horiz-adv-x="467" 
d="M376 382l-55 -285q-3 -13 14.5 -36.5t28.5 -23.5h60v-37h-356v37h57q11 0 38.5 23.5t30.5 36.5l56 285q3 13 -15.5 36.5t-29.5 23.5h-58v37h351v-37h-55q-11 0 -37.5 -23.5t-29.5 -36.5z" />
    <glyph glyph-name="two.onum" horiz-adv-x="525" 
d="M164 98l265 5v-103h-379v34q25 58 87 102t175 103q109 56 109 114q0 29 -20 46t-55 17q-85 0 -192 -103l-33 35q132 144 270 144q58 0 97 -33t41 -85q1 -38 -13 -66.5t-49 -52.5t-59.5 -36t-77.5 -35q-141 -60 -166 -86z" />
    <glyph glyph-name="three.onum" horiz-adv-x="560" 
d="M159 156v40l121 37q93 51 93 113q0 33 -24 50.5t-67 17.5q-67 0 -172 -82l-28 40q142 121 272 121q63 0 101.5 -27t38.5 -77q0 -105 -159 -171q73 19 123.5 -16t50.5 -98q0 -76 -51.5 -141t-130.5 -106t-165 -65t-162 -27v58q89 7 173.5 37.5t146 89t62.5 130.5
q1 67 -64.5 88.5t-158.5 -12.5z" />
    <glyph glyph-name="four.onum" horiz-adv-x="605" 
d="M344 71l53 257h-5q-122 -136 -254 -257h206zM288 -206l43 206h-286v52q208 199 375 384q30 10 62.5 24t49.5 23l18 9l-82 -421h106v-71h-120l-33 -166z" />
    <glyph glyph-name="five.onum" horiz-adv-x="555" 
d="M460 489l31 -106l-20 -6q-63 -11 -249 -6l-78 -169q63 41 111.5 63.5t96.5 22.5q72 0 116 -38t44 -104q0 -77 -48 -146.5t-124 -117t-165 -78t-175 -38.5v57q96 11 185 49t151 102.5t62 139.5q0 44 -30 69t-79 25q-61 0 -177 -79l-42 27l140 323l45 -1q190 -4 205 11z
" />
    <glyph glyph-name="six.onum" horiz-adv-x="545" 
d="M578 746v-55q-123 6 -236.5 -84.5t-128.5 -207.5q66 91 173 91q71 0 115 -52.5t44 -142.5q0 -76 -33 -146t-94.5 -115.5t-136.5 -45.5q-93 0 -144.5 75t-51.5 194q0 127 62.5 239.5t177 182t253.5 67.5zM206 232q0 -75 27 -126.5t71 -51.5q60 0 92 59.5t32 135.5
q0 71 -27 115.5t-72 44.5q-59 0 -91 -52.5t-32 -124.5z" />
    <glyph glyph-name="seven.onum" horiz-adv-x="460" 
d="M106 -206h-94q127 192 213 309.5t208 270.5q-16 -5 -267 -5q-10 0 -37 -26.5t-32 -36.5h-41l81 173h395v-37l-44 -70q-115 -161 -192 -276.5t-190 -301.5z" />
    <glyph glyph-name="eight.onum" horiz-adv-x="545" 
d="M440 177q0 11 -3.5 22t-8.5 19.5t-15 18t-16 15t-19.5 14t-19 12t-20.5 11.5t-17 9q-38 21 -40 34q-139 -69 -139 -175q0 -50 37 -80t92 -30q69 0 119 36t50 94zM380 427q43 27 74 70.5t31 86.5q-1 46 -31.5 76t-75.5 30q-49 0 -88 -33.5t-39 -75.5q3 -64 96 -124
q2 -2 9.5 -6t11.5 -7t8 -7.5t4 -9.5zM235 366q-97 78 -97 163q0 92 80.5 152.5t180.5 60.5q71 0 124 -37.5t53 -102.5q0 -64 -46 -118t-106 -82q60 -37 92 -72.5t32 -92.5q0 -68 -43 -126.5t-108.5 -90.5t-133.5 -32q-93 0 -155.5 45.5t-62.5 122.5q0 37 17.5 71t47 60
t60.5 45t65 34z" />
    <glyph glyph-name="nine.onum" horiz-adv-x="545" 
d="M15 -235v58q84 -3 167 29.5t143 94.5t72 137q-64 -89 -171 -89q-71 0 -115 53t-44 140q0 76 32.5 145.5t93.5 114t136 44.5q93 0 144.5 -75t51.5 -194q0 -125 -67 -231.5t-185 -168.5t-258 -58zM403 251q0 75 -26.5 125t-70.5 50q-60 0 -92 -58t-32 -134q0 -71 27 -115
t72 -44q58 0 90 52t32 124z" />
    <glyph glyph-name="commaaccent" horiz-adv-x="251" 
d="M186 -105l-4 -26q-9 -58 -53 -92.5t-95 -36.5v39q32 -1 59.5 16t34.5 40h-30q-19 5 -30.5 21t-11.5 38q0 26 20 46.5t49 20.5q28 0 46.5 -19.5t14.5 -46.5z" />
    <glyph glyph-name="commaaccent.alt" horiz-adv-x="200" 
d="M130 613l4 26q9 58 53 92.5t95 36.5v-39q-32 1 -59.5 -16t-34.5 -40h30q19 -5 30.5 -21t11.5 -38q0 -26 -20 -46.5t-49 -20.5q-28 0 -46.5 19.5t-14.5 46.5z" />
    <glyph glyph-name="caron.alt" horiz-adv-x="259" 
d="M321 699l-4 -26q-9 -58 -51.5 -91t-93.5 -35v39q32 -1 58 14.5t33 38.5h-30q-19 5 -30.5 21t-11.5 38q0 26 20 46.5t49 20.5q28 0 46.5 -19.5t14.5 -46.5z" />
    <glyph glyph-name="caron.cap" 
d="M406 777h-101l-62 154h39l82 -78l134 78h46z" />
    <glyph glyph-name="circumflex.cap" 
d="M355 931h100l62 -154h-40l-81 77l-135 -77h-46z" />
    <glyph glyph-name="acute.cap" 
d="M415 917h162l-209 -140h-49z" />
    <glyph glyph-name="grave.cap" 
d="M168 917h163l46 -140h-47z" />
    <glyph glyph-name="macron.cap" 
d="M258 879h247l-17 -80h-253z" />
    <glyph glyph-name="breve.cap" 
d="M374 775q-68 0 -95.5 40.5t-8.5 101.5l32 4q-5 -34 16.5 -49t61.5 -15q100 0 139 67l32 -7q-19 -63 -68.5 -102.5t-108.5 -39.5z" />
    <glyph glyph-name="ring.cap" 
d="M256 865q0 44 34 76t77 32q44 0 77 -32t33 -76q0 -45 -33 -76.5t-77 -31.5t-77.5 31.5t-33.5 76.5zM310 865q0 -25 16 -41t41 -16t40.5 16t15.5 41t-15.5 40.5t-40.5 15.5t-41 -15.5t-16 -40.5z" />
    <glyph glyph-name="tilde.cap" 
d="M511 820l-27 -21q-2 40 -40 39q-21 -1 -74 -26t-82 -25q-36 0 -54 26t-12 71l27 21q0 -16 11.5 -27.5t28.5 -11.5q27 0 78 25t78 25q36 0 54.5 -26t11.5 -70z" />
    <glyph glyph-name="dotaccent.cap" 
d="M438 848q0 -32 -22 -54.5t-56 -22.5q-33 0 -55.5 22.5t-22.5 54.5t22.5 54.5t55.5 22.5q34 0 56 -22.5t22 -54.5z" />
    <glyph glyph-name="hungarumlaut.cap" 
d="M501 917h147l-188 -140h-45zM333 917h143l-186 -140h-43z" />
    <glyph glyph-name="dieresis.cap" 
d="M531 840q0 -29 -20.5 -49.5t-50.5 -20.5t-51 20.5t-21 49.5t21 49.5t51 20.5t50.5 -20.5t20.5 -49.5zM317 840q0 -29 -20.5 -49.5t-50.5 -20.5t-51 20.5t-21 49.5t21 49.5t51 20.5t50.5 -20.5t20.5 -49.5z" />
    <glyph glyph-name="germandbls.ss02" horiz-adv-x="613" 
d="M243 269l-66 -269h-117l97 397q2 10 -10.5 28.5t-21.5 18.5h-59v35h109l19 61q28 93 89 159.5t131 66.5q28 0 46 -17t18 -43q0 -30 -19.5 -51t-49.5 -27h-24q-21 5 -34 23t-8 40h-10q-11 -5 -24 -20.5t-16 -32.5q-5 -23 6.5 -61t3.5 -63l-69 -207l144 172h265v-35
l-188 -188l54 -13q35 -8 56.5 -36t20.5 -68q-3 -83 -85.5 -165.5t-197 -132.5t-212.5 -50q-71 0 -96 32l104 132h36q-9 -39 9 -61t55 -22q59 0 123.5 27t111 74t49.5 97q4 75 -67 93l-49 12v34l145 165h-141q-11 0 -128 -105z" />
    <glyph glyph-name="colon.ss01" horiz-adv-x="245" 
d="M276 396q0 -26 -18.5 -44t-44.5 -18t-44.5 18t-18.5 44t18.5 44t44.5 18t44.5 -18t18.5 -44zM241 79q0 -32 -23.5 -55.5t-57.5 -23.5t-57.5 23.5t-23.5 55.5t23.5 55.5t57.5 23.5t57.5 -23.5t23.5 -55.5z" />
    <glyph glyph-name="ellipsis.ss01" horiz-adv-x="719" 
d="M530 79q0 32 23.5 55.5t57.5 23.5t57.5 -23.5t23.5 -55.5t-23.5 -55.5t-57.5 -23.5t-57.5 23.5t-23.5 55.5zM56 62q0 26 18.5 44t44.5 18t44.5 -18t18.5 -44t-18.5 -44t-44.5 -18t-44.5 18t-18.5 44zM283 70q0 30 20.5 50t50.5 20t50.5 -20.5t20.5 -49.5t-20.5 -49.5
t-50.5 -20.5t-50.5 20t-20.5 50z" />
    <glyph glyph-name="arrow_right" horiz-adv-x="850" 
d="M70 250v82l676 -1l-33 25l-205 191h124q113 -120 244 -232v-46q-57 -48 -117.5 -106t-92.5 -92l-33 -34h-124l204 190l33 24z" />
    <glyph glyph-name="arrow_left" horiz-adv-x="850" 
d="M876 332v-82l-676 1l33 -24l204 -190h-124q-115 124 -243 232v46q58 50 119 108t93 91l32 33h124l-205 -191l-33 -25z" />
    <glyph glyph-name="arrow_down" horiz-adv-x="630" 
d="M327 728h82l-1 -676l24 33l190 204v-124q-124 -115 -232 -243h-46q-50 58 -108 119t-91 93l-33 32v124l191 -205l25 -33z" />
    <glyph glyph-name="arrow_up" horiz-adv-x="630" 
d="M409 -78h-82l1 676l-25 -33l-191 -205v124q120 113 232 244h46q48 -57 106 -117.5t92 -92.5l34 -33v-124l-190 204l-24 33z" />
    <glyph glyph-name="arrow_left_up" horiz-adv-x="820" 
d="M789 118l-58 -58l-477 479l6 -40l10 -279l-87 88q6 169 -8 336l32 32q76 -6 160.5 -8t130.5 -1l46 1l88 -88l-280 10l-41 6z" />
    <glyph glyph-name="arrow_left_down" horiz-adv-x="820" 
d="M731 676l58 -58l-478 -478l41 6l280 10l-88 -88q-165 5 -337 -8l-32 32q6 74 8 158t1 131l-1 47l87 88l-10 -279l-6 -40z" />
    <glyph glyph-name="arrow_right_up" horiz-adv-x="820" 
d="M219 60l-58 58l478 478l-41 -6l-280 -10l88 88q165 -5 337 8l32 -32q-6 -74 -8 -158t-1 -131l1 -47l-87 -88l10 279l6 40z" />
    <glyph glyph-name="arrow_right_down" horiz-adv-x="820" 
d="M165 618l58 58l477 -479l-6 40l-10 279l87 -88q-6 -169 8 -336l-32 -32q-76 6 -160.5 8t-130.5 1l-46 -1l-88 88l280 -10l41 -6z" />
    <glyph glyph-name="RP" horiz-adv-x="810" 
d="M421 433l-140 246l6 4l140 -247zM510 433l140 246l-6 4l-140 -247zM421 297l-140 -246l6 -4l140 247zM510 297l140 -246l-6 -4l-140 247zM398 319l-230 -164l4 -6l230 165zM533 411l230 164l-4 6l-230 -165zM398 411l-230 164l4 6l230 -165zM533 319l230 -164l-4 -6
l-230 165zM437 441l-87 269l7 2l86 -269zM437 289l-87 -269l7 -2l86 269zM494 441l87 269l-7 2l-86 -269zM494 289l87 -269l-7 -2l-86 269zM409 307l-190 -210l5 -5l190 211zM409 423l-190 210l5 5l190 -211zM522 423l190 210l-5 5l-190 -211zM522 307l190 -210l-5 -5
l-190 211zM390 335l-260 -114l3 -6l260 114zM541 395l260 114l-3 6l-260 -114zM541 335l260 -114l-3 -6l-260 114zM390 395l-260 114l3 6l260 -114zM385 379l-277 57l2 7l276 -58zM385 351l-277 -57l2 -7l276 58zM546 379l277 57l-2 7l-276 -58zM546 351l277 -57l-2 -7
l-276 58zM454 285l-31 -281l7 -1l30 281zM477 445l31 281l-7 1l-30 -281zM477 285l31 -281l-7 -1l-30 281zM454 445l-31 281l7 1l30 -281zM100 368h284v-6h-284v6zM830 368h-283v-6h283v6zM550 476l133 181l-6 5l-133 -182zM381 476l-133 181l6 5l133 -182zM381 254
l-133 -181l6 -5l133 182zM550 254l133 -181l-6 -5l-133 182zM433 501l-46 219l7 2l46 -220zM433 229l-46 -219l7 -2l46 220zM498 501l46 219l-7 2l-46 -220zM498 229l46 -219l-7 -2l-46 220zM462 225v-225h7v225h-7zM462 505v225h7v-225h-7zM588 299l196 -112l-3 -6
l-197 112zM343 299l-196 -112l3 -6l197 112zM343 431l-196 112l3 6l197 -112zM588 431l196 112l-3 6l-197 -112zM600 325l214 -68l-2 -7l-214 69zM600 405l214 68l-2 7l-214 -69zM331 325l-214 -68l2 -7l214 69zM331 405l-214 68l2 7l214 -69zM739 606l-5 5l-167 -151l4 -5z
M192 606l5 5l167 -151l-4 -5zM739 124l-5 -5l-167 151l4 5zM192 124l5 -5l167 151l-4 5zM407 491l-92 206l6 3l92 -206zM524 491l92 206l-6 3l-92 -206zM524 239l92 -206l-6 -3l-92 206zM407 239l-92 -206l6 -3l92 206zM829 331l-1 -7l-224 24l1 6zM102 399l1 7l224 -24
l-1 -6zM829 399l-1 7l-224 -24l1 -6zM102 331l1 -7l224 24l-1 6z" />
    <glyph glyph-name="threestars" horiz-adv-x="1086" 
d="M574 395l-37 36q2 14 13 63t14 72q-10 -15 -34 -56t-38 -58h-51v45q16 12 61.5 41t58.5 39q-23 -3 -71.5 -13.5t-68.5 -12.5l-32 32l32 32q20 -2 69.5 -13t70.5 -13q-19 14 -62 41t-58 38v46h51q13 -16 40 -60.5t32 -51.5q-3 20 -13 69t-12 64l35 35l35 -35
q-2 -17 -12.5 -64.5t-13.5 -68.5q11 16 34.5 55t38.5 57h51v-46q-16 -12 -59.5 -38.5t-61.5 -40.5q22 2 71.5 13t69.5 13l32 -32l-32 -32q-22 2 -71.5 13t-69.5 13q14 -10 58.5 -37.5t62.5 -42.5v-45h-51q-13 16 -39 58.5t-35 55.5q3 -23 14 -72t13 -63zM892 0l-37 36
q2 14 13 63t14 72q-10 -15 -34 -56t-38 -58h-51v45q16 12 61.5 41t58.5 39q-23 -3 -71.5 -13.5t-68.5 -12.5l-32 32l32 32q20 -2 69.5 -13t70.5 -13q-19 14 -62 41t-58 38v46h51q13 -16 40 -60.5t32 -51.5q-3 20 -13 69t-12 64l35 35l35 -35q-2 -17 -12.5 -64.5t-13.5 -68.5
q11 16 34.5 55t38.5 57h51v-46q-16 -12 -59.5 -38.5t-61.5 -40.5q22 2 71.5 13t69.5 13l32 -32l-32 -32q-22 2 -71.5 13t-69.5 13q14 -10 58.5 -37.5t62.5 -42.5v-45h-51q-13 16 -39 58.5t-35 55.5q3 -23 14 -72t13 -63zM256 0l-37 36q2 14 13 63t14 72q-10 -15 -34 -56
t-38 -58h-51v45q16 12 61.5 41t58.5 39q-23 -3 -71.5 -13.5t-68.5 -12.5l-32 32l32 32q20 -2 69.5 -13t70.5 -13q-19 14 -62 41t-58 38v46h51q13 -16 40 -60.5t32 -51.5q-3 20 -13 69t-12 64l35 35l35 -35q-2 -17 -12.5 -64.5t-13.5 -68.5q11 16 34.5 55t38.5 57h51v-46
q-15 -12 -58.5 -38.5t-62.5 -40.5q22 2 71.5 13t69.5 13l32 -32l-32 -32q-22 2 -71.5 13t-69.5 13q14 -10 58.5 -37.5t62.5 -42.5v-45h-51q-13 16 -39 58.5t-35 55.5q3 -23 14 -72t13 -63z" />
    </font>
</defs>
</svg>
