<?xml version="1.0" standalone="no"?>
<!DOCTYPE svg PUBLIC "-//W3C//DTD SVG 1.1//EN" "http://www.w3.org/Graphics/SVG/1.1/DTD/svg11.dtd" >
<svg xmlns="http://www.w3.org/2000/svg" xmlns:xlink="http://www.w3.org/1999/xlink" version="1.1">
<metadata>
Created by FontForge 20170731 at Sun Oct 12 02:47:51 2008
 By Aleksey,,,
Copyright (c) 2008 by Kai Bernau, distributed by B&#38;P Foundry Srl, Switzerland, http://www.bpfoundry.com. All rights reserved.
</metadata>
<defs>
<font id="NeutralBP-Italic" horiz-adv-x="500" >
  <font-face 
    font-family="Neutral BP Italic"
    font-weight="400"
    font-style="italic"
    font-stretch="normal"
    units-per-em="1000"
    panose-1="2 0 0 0 0 0 0 0 0 0"
    ascent="800"
    descent="-200"
    x-height="535"
    cap-height="755"
    bbox="-135 -233 1400 1162"
    underline-thickness="50"
    underline-position="-200"
    slope="-12"
    unicode-range="U+0020-FB02"
  />
<missing-glyph horiz-adv-x="476" 
d="M-83 0l164 778h478l-165 -778h-477zM144 239h65l12 50q10 43 57 73q68 44 109 90.5t41 106.5q0 54 -38 88.5t-106 34.5q-60 0 -105.5 -30t-63.5 -84l71 -16q9 31 32 52.5t58 21.5q36 0 56 -20t20 -50t-18.5 -59t-37.5 -45.5t-48 -36.5q-48 -33 -67.5 -56.5t-27.5 -66.5z
M102 84h83l19 88h-83z" />
    <glyph glyph-name="fi" unicode="fi" horiz-adv-x="587" 
d="M67 462l16 73h72l22 106q15 74 58.5 108.5t104.5 34.5q22 0 40.5 -3t25.5 -5l8 -3l-19 -73q-30 7 -58 7q-25 0 -41 -13.5t-21 -27.5t-10 -39l-19 -92h117l-16 -73h-116l-95 -462h-91l95 462h-73zM355 0l109 535h92l-109 -535h-92zM486 653l21 102h96l-21 -102h-96z" />
    <glyph glyph-name="fl" unicode="fl" horiz-adv-x="577" 
d="M67 462l16 73h72l22 106q15 74 58.5 108.5t104.5 34.5q22 0 40.5 -3t25.5 -5l8 -3l-19 -73q-30 7 -58 7q-25 0 -41 -13.5t-21 -27.5t-10 -39l-19 -92h117l-16 -73h-116l-95 -462h-91l95 462h-73zM354 0l158 778h90l-158 -778h-90z" />
    <glyph glyph-name=".notdef" horiz-adv-x="476" 
d="M-83 0l164 778h478l-165 -778h-477zM144 239h65l12 50q10 43 57 73q68 44 109 90.5t41 106.5q0 54 -38 88.5t-106 34.5q-60 0 -105.5 -30t-63.5 -84l71 -16q9 31 32 52.5t58 21.5q36 0 56 -20t20 -50t-18.5 -59t-37.5 -45.5t-48 -36.5q-48 -33 -67.5 -56.5t-27.5 -66.5z
M102 84h83l19 88h-83z" />
    <glyph glyph-name=".null" horiz-adv-x="0" 
 />
    <glyph glyph-name="nonmarkingreturn" horiz-adv-x="333" 
 />
    <glyph glyph-name="space" unicode=" " horiz-adv-x="235" 
 />
    <glyph glyph-name="exclam" unicode="!" horiz-adv-x="318" 
d="M112 213l49 302l54 263h98l-54 -263l-73 -302h-74zM50 0l25 117h110l-25 -117h-110z" />
    <glyph glyph-name="quotedbl" unicode="&#x22;" horiz-adv-x="385" 
d="M110 494l4 184l22 100h112l-21 -99l-58 -185h-59zM302 494l4 184l22 100h112l-21 -99l-58 -185h-59z" />
    <glyph glyph-name="numbersign" unicode="#" horiz-adv-x="662" 
d="M89 433l16 74h121l54 170h87l-54 -170h140l54 170h87l-54 -170h109l-16 -74h-116l-59 -189h114l-16 -74h-122l-53 -170h-87l53 170h-140l-53 -170h-87l53 170h-107l15 74h116l59 189h-114zM290 433l-59 -189h140l59 189h-140z" />
    <glyph glyph-name="dollar" unicode="$" horiz-adv-x="601" 
d="M154 -162l36 155q-77 17 -126.5 67.5t-47.5 139.5l91 7q0 -71 47 -107.5t115 -36.5q65 0 114.5 32t49.5 82q0 76 -154 141q-161 70 -161 184q0 85 61.5 135.5t157.5 54.5l31 156h94l-39 -164q58 -14 98.5 -52t54.5 -92l-85 -28q-12 50 -51 76.5t-93 26.5
q-57 0 -96.5 -27.5t-39.5 -74.5q0 -18 8.5 -35t19.5 -28.5t32 -24t36 -19.5t40 -18q37 -17 64 -33t56 -40t44.5 -56t15.5 -70q0 -93 -73 -147t-177 -57l-29 -147h-94z" />
    <glyph glyph-name="percent" unicode="%" horiz-adv-x="918" 
d="M118 -15l600 710h99l-599 -710h-100zM221 333q-63 0 -99.5 38.5t-36.5 101.5q0 83 50.5 149.5t132.5 66.5q63 0 99 -38.5t36 -101.5q0 -83 -50 -149.5t-132 -66.5zM229 399q42 0 69 45t27 94q0 38 -16.5 61.5t-49.5 23.5q-42 0 -69 -45.5t-27 -95.5q0 -83 66 -83z
M671 -11q-63 0 -99.5 38.5t-36.5 101.5q0 83 50.5 149.5t132.5 66.5q63 0 99 -38.5t36 -101.5q0 -83 -50 -149.5t-132 -66.5zM679 55q42 0 69 45t27 94q0 38 -16.5 61.5t-49.5 23.5q-42 0 -69 -45.5t-27 -95.5q0 -83 66 -83z" />
    <glyph glyph-name="ampersand" unicode="&#x26;" horiz-adv-x="643" 
d="M493 -12l-45 81q-99 -84 -215 -84q-84 0 -143.5 47.5t-59.5 135.5q0 50 17.5 92t50.5 74.5t67.5 55.5t81.5 47q-42 81 -42 147q0 77 51 129.5t141 52.5q62 0 106 -36t44 -102q0 -67 -51 -116t-141 -97l115 -207q40 67 55 151l78 -32q-20 -100 -92 -193l65 -116zM253 62
q86 0 160 72l-133 242q-158 -91 -158 -197q0 -53 36.5 -85t94.5 -32zM291 587q0 -54 30 -112q141 72 141 147q0 33 -19.5 54.5t-53.5 21.5q-47 0 -72.5 -32t-25.5 -79z" />
    <glyph glyph-name="quotesingle" unicode="'" horiz-adv-x="193" 
d="M110 494l4 184l22 100h112l-21 -99l-58 -185h-59z" />
    <glyph glyph-name="parenleft" unicode="(" horiz-adv-x="340" 
d="M176 -162h-75q-36 133 -36 262q0 326 247 678h78q-235 -372 -235 -714q0 -111 21 -226z" />
    <glyph glyph-name="parenright" unicode=")" horiz-adv-x="340" 
d="M164 778h75q36 -133 36 -262q0 -326 -247 -678h-78q235 372 235 714q0 110 -21 226z" />
    <glyph glyph-name="asterisk" unicode="*" horiz-adv-x="431" 
d="M106 492l125 106l-131 30l46 89l118 -60l13 145h100l-47 -144l141 60l10 -94l-145 -29l78 -106l-91 -55l-47 123l-101 -126z" />
    <glyph glyph-name="plus" unicode="+" horiz-adv-x="574" 
d="M40 235l16 76h199l46 214h85l-46 -214h199l-16 -76h-199l-47 -222h-85l47 222h-199z" />
    <glyph glyph-name="comma" unicode="," horiz-adv-x="253" 
d="M35 -166l-42 34q33 31 53 60t28 72h-46l28 129h122l-26 -120q-10 -45 -33.5 -84t-40 -54t-43.5 -37z" />
    <glyph glyph-name="hyphen" unicode="-" horiz-adv-x="450" 
d="M55 252l19 87h326l-19 -87h-326z" />
    <glyph glyph-name="period" unicode="." horiz-adv-x="261" 
d="M20 0l27 129h129l-27 -129h-129z" />
    <glyph glyph-name="slash" unicode="/" horiz-adv-x="468" 
d="M-40 -97l468 875h90l-468 -875h-90z" />
    <glyph glyph-name="zero" unicode="0" horiz-adv-x="570" 
d="M238 -15q-92 0 -142.5 65.5t-50.5 168.5q0 121 49.5 253t141.5 190q52 33 121 33q92 0 142.5 -65.5t50.5 -168.5q0 -121 -49.5 -253t-141.5 -190q-53 -33 -121 -33zM250 61q47 0 87 42t64 104.5t37.5 127.5t13.5 118q0 42 -8.5 76.5t-33.5 62t-65 27.5q-47 0 -87 -42
t-64 -104.5t-37.5 -127.5t-13.5 -118q0 -42 8.5 -76.5t33.5 -62t65 -27.5z" />
    <glyph glyph-name="one" unicode="1" horiz-adv-x="381" 
d="M97 0l120 571q-69 -44 -132 -50l10 84q40 5 80 26.5t65 48.5h91l-139 -680h-95z" />
    <glyph glyph-name="two" unicode="2" horiz-adv-x="517" 
d="M-35 0l16 82q25 21 88.5 72t103.5 84.5t89.5 80t78.5 83.5q56 70 56 127q0 39 -26 65.5t-74 26.5q-47 0 -77 -28t-42 -69l-94 20q24 72 84 111.5t139 39.5q90 0 140 -46t50 -117q0 -54 -26 -102t-73 -102q-25 -28 -54 -56t-65 -57.5t-57.5 -46.5t-63 -48t-49.5 -38h304
l-17 -82h-431z" />
    <glyph glyph-name="three" unicode="3" horiz-adv-x="538" 
d="M0 169l94 6q0 -53 33 -84.5t95 -31.5q61 0 103.5 42.5t42.5 109.5q0 56 -43 91t-133 28l17 74q31 -2 64.5 3t66 17.5t53.5 40t21 64.5q0 39 -23.5 65.5t-70.5 26.5q-96 0 -124 -96l-89 19q50 151 220 151q86 0 132.5 -45t46.5 -109q0 -60 -39.5 -109.5t-111.5 -65.5
q55 -18 82.5 -61t27.5 -93q0 -92 -68.5 -159.5t-176.5 -67.5q-96 0 -158 46.5t-62 137.5z" />
    <glyph glyph-name="four" unicode="4" horiz-adv-x="551" 
d="M5 195l15 76l364 409h118l-85 -406l104 1l-16 -80h-105l-40 -195h-88l41 195h-308zM396 588l-274 -315l207 1z" />
    <glyph glyph-name="five" unicode="5" horiz-adv-x="547" 
d="M5 169l94 6q0 -52 33.5 -84t87.5 -32q73 0 126 59.5t53 134.5q0 57 -32 86.5t-81 29.5q-76 0 -136 -60l-76 46l107 322l356 3l-17 -84h-277l-65 -192q57 39 131 39q80 0 133 -48.5t53 -132.5q0 -114 -79 -195.5t-201 -81.5q-91 0 -150.5 47t-59.5 137z" />
    <glyph glyph-name="six" unicode="6" horiz-adv-x="546" 
d="M546 531l-89 -10q-2 44 -27 72t-68 28q-132 0 -207 -253q62 83 155 83q79 0 132.5 -55t53.5 -140q0 -107 -68 -189t-178 -82q-100 0 -152.5 63t-52.5 169q0 70 20 149.5t57 154.5t101.5 124.5t142.5 49.5q76 0 125.5 -44.5t54.5 -119.5zM252 57q65 0 108 59.5t43 130.5
q0 54 -32 90t-84 36q-65 0 -108 -59.5t-43 -130.5q0 -54 32 -90t84 -36z" />
    <glyph glyph-name="seven" unicode="7" horiz-adv-x="443" 
d="M98 0h-103q214 369 384 593h-308l17 84h410l-17 -80q-212 -293 -383 -597z" />
    <glyph glyph-name="eight" unicode="8" horiz-adv-x="552" 
d="M190 379q-72 44 -72 120q0 84 64 140t157 56q78 0 135.5 -42.5t57.5 -119.5q0 -60 -35 -105t-95 -69q92 -52 92 -151q0 -94 -73 -158.5t-174 -64.5q-94 0 -155.5 48t-61.5 137q0 72 44 128.5t116 80.5zM123 181q0 -56 34.5 -90.5t94.5 -34.5t104 46.5t44 109.5
q0 55 -35.5 89.5t-89.5 34.5q-63 0 -107.5 -44.5t-44.5 -110.5zM206 502q0 -48 31 -74t83 -26q50 0 87 36.5t37 88.5q0 44 -30 72t-81 28t-89 -34.5t-38 -90.5z" />
    <glyph glyph-name="nine" unicode="9" horiz-adv-x="529" 
d="M10 149l92 10q2 -43 32.5 -71.5t74.5 -28.5q36 0 67 18t52.5 46.5t38.5 65t26.5 70.5t14.5 67q-60 -88 -158 -88q-80 0 -134 54.5t-54 140.5q0 106 68.5 184t178.5 78q99 0 149 -62t50 -170q0 -61 -9.5 -123.5t-32 -127t-56 -114.5t-87 -81.5t-118.5 -31.5
q-77 0 -133.5 45t-61.5 119zM269 312q66 0 108.5 55.5t42.5 125.5q0 56 -31.5 93t-82.5 37q-66 0 -108.5 -55.5t-42.5 -125.5q0 -56 31.5 -93t82.5 -37z" />
    <glyph glyph-name="colon" unicode=":" horiz-adv-x="309" 
d="M40 0l27 129h129l-27 -129h-129zM123 406l27 129h129l-27 -129h-129z" />
    <glyph glyph-name="semicolon" unicode=";" horiz-adv-x="308" 
d="M122 406l27 129h129l-27 -129h-129zM52 -166l-42 34q33 31 53 60t28 72h-46l28 129h122l-26 -120q-10 -45 -33.5 -84t-40 -54t-43.5 -37z" />
    <glyph glyph-name="less" unicode="&#x3c;" horiz-adv-x="527" 
d="M40 233l15 67l457 222l-20 -93l-351 -166l281 -165l-19 -87z" />
    <glyph glyph-name="equal" unicode="=" horiz-adv-x="567" 
d="M91 393l16 78h430l-16 -78h-430zM50 202l16 78h430l-16 -78h-430z" />
    <glyph glyph-name="greater" unicode="&#x3e;" horiz-adv-x="507" 
d="M467 300l-15 -67l-457 -222l20 93l351 166l-281 165l19 87z" />
    <glyph glyph-name="question" unicode="?" horiz-adv-x="470" 
d="M131 204l12 70q10 57 36 88t88 74q39 27 64.5 48.5t49.5 59.5t24 78q0 39 -26 65.5t-74 26.5q-47 0 -77 -28t-42 -69l-94 20q24 72 84 111.5t139 39.5q90 0 140 -46t50 -117q0 -79 -54 -140t-144 -119q-61 -39 -75 -96l-16 -66h-85zM75 0l25 117h110l-25 -117h-110z" />
    <glyph glyph-name="at" unicode="@" horiz-adv-x="1093" 
d="M758 -76l34 -58q-4 -3 -12 -8.5t-34.5 -19t-57 -23.5t-79 -18.5t-99.5 -8.5q-201 0 -333 114.5t-132 309.5q0 111 43.5 210.5t118 172t180 115t223.5 42.5q123 0 221.5 -42.5t159.5 -132t61 -214.5q0 -87 -29 -163.5t-91 -128.5t-146 -52q-37 0 -65 10.5t-42 26t-22.5 31
t-10.5 25.5l-2 11q-27 -50 -72.5 -76t-95.5 -26q-82 0 -126 52.5t-44 145.5q0 116 71 213t178 97q97 0 135 -91l16 77h85l-57 -281q-9 -50 -9 -67q0 -32 18 -53t54 -21q55 0 94 44t54 98t15 107q0 161 -100 248t-259 87q-192 0 -320.5 -128t-138.5 -315q-7 -169 97 -269.5
t280 -100.5q66 0 126 15t87 30zM502 95q70 0 115 74t45 155q0 131 -106 131q-46 0 -83.5 -37t-56 -88.5t-18.5 -101.5q0 -133 104 -133z" />
    <glyph glyph-name="A" unicode="A" horiz-adv-x="687" 
d="M-50 0l449 755h105l118 -755h-101l-30 218h-310l-123 -218h-108zM430 657l-208 -367h259z" />
    <glyph glyph-name="B" unicode="B" horiz-adv-x="691" 
d="M540 403q101 -37 101 -143q0 -124 -98 -199q-84 -64 -247 -64l-261 3l154 754q162 3 241 3q96 0 144 -19q42 -16 69.5 -52.5t27.5 -86.5q0 -64 -35 -116.5t-96 -79.5zM388 362q-35 0 -108 -1t-76 -1l-57 -284q112 -1 165 -1q110 0 172 50q58 45 58 127q0 65 -58 92
q-39 18 -96 18zM269 677l-49 -240q1 0 50.5 -1t73.5 -1q230 0 230 156q0 52 -46 74q-32 15 -108 15z" />
    <glyph glyph-name="C" unicode="C" horiz-adv-x="715" 
d="M580 214l80 -37q-40 -87 -121 -139.5t-182 -52.5q-133 0 -207.5 80.5t-74.5 223.5q0 82 26 164.5t73.5 153t123.5 114.5t166 44q106 0 173.5 -53.5t87.5 -146.5l-89 -32q-14 67 -58.5 109t-121.5 42q-64 0 -118.5 -37.5t-89 -95.5t-53.5 -125t-19 -130q0 -101 46.5 -164
t142.5 -63q69 0 124 39.5t91 105.5z" />
    <glyph glyph-name="D" unicode="D" horiz-adv-x="760" 
d="M35 0l156 755q104 2 194 2q108 0 180 -30q77 -33 116 -104t39 -169q0 -218 -126.5 -337.5t-324.5 -119.5q-141 0 -234 3zM271 678l-123 -600q52 -3 125 -3q147 0 246 96t99 278q0 159 -110 208q-52 23 -133 23q-44 0 -104 -2z" />
    <glyph glyph-name="E" unicode="E" horiz-adv-x="579" 
d="M35 0l155 755h434l-18 -81l-338 1l-52 -252h289l-18 -78h-287l-54 -264l349 2l-18 -83h-442z" />
    <glyph glyph-name="F" unicode="F" horiz-adv-x="522" 
d="M35 0l155 755h412l-17 -81l-317 1l-53 -254h267l-16 -78h-267l-70 -343h-94z" />
    <glyph glyph-name="G" unicode="G" horiz-adv-x="785" 
d="M557 0l15 101q-34 -50 -92.5 -83t-122.5 -33q-133 0 -207.5 81.5t-74.5 222.5q0 82 26 164.5t73.5 153t123.5 114.5t166 44q106 0 173.5 -53.5t87.5 -146.5l-88 -32q-36 151 -181 151q-64 0 -118.5 -37.5t-89 -95.5t-53.5 -125t-19 -130q0 -101 45 -164t141 -63
q95 0 165.5 70t83.5 161h-162l16 75h249l-76 -375h-81z" />
    <glyph glyph-name="H" unicode="H" horiz-adv-x="742" 
d="M35 0l154 755h96l-64 -313h371l64 313h91l-154 -755h-92l74 360h-371l-73 -360h-96z" />
    <glyph glyph-name="I" unicode="I" horiz-adv-x="282" 
d="M35 0l155 755h97l-155 -755h-97z" />
    <glyph glyph-name="J" unicode="J" horiz-adv-x="617" 
d="M40 203l92 6q-23 -143 110 -143q92 0 142 80q26 42 41 120l101 489h96l-105 -510q-29 -142 -101 -201t-188 -59q-104 0 -155 59t-33 159z" />
    <glyph glyph-name="K" unicode="K" horiz-adv-x="685" 
d="M35 0l155 755h96l-73 -354l407 354h125l-347 -298l226 -457h-110l-189 395l-137 -118l-57 -277h-96z" />
    <glyph glyph-name="L" unicode="L" horiz-adv-x="536" 
d="M35 0l155 755h96l-137 -672l337 2l-19 -85h-432z" />
    <glyph glyph-name="M" unicode="M" horiz-adv-x="940" 
d="M35 0l161 755h118l114 -672l378 672h129l-141 -755h-95l119 611l-344 -611h-120l-104 617l-122 -617h-93z" />
    <glyph glyph-name="N" unicode="N" horiz-adv-x="763" 
d="M35 0l153 755h113l252 -629l122 629h93l-153 -755h-111l-253 640l-124 -640h-92z" />
    <glyph glyph-name="O" unicode="O" horiz-adv-x="784" 
d="M357 -15q-132 0 -207 82.5t-75 223.5q0 118 49.5 232.5t137.5 178.5q87 63 202 63q131 0 205.5 -85t74.5 -226q0 -120 -53 -236.5t-146 -178.5q-80 -54 -188 -54zM360 66q85 0 151.5 61t98.5 147t32 175q0 102 -47 168.5t-141 66.5q-64 0 -118 -36.5t-88 -94.5
t-52.5 -125t-18.5 -132q0 -101 44.5 -165.5t138.5 -64.5z" />
    <glyph glyph-name="P" unicode="P" horiz-adv-x="619" 
d="M35 0l155 754q141 3 220 3q90 0 148 -27q43 -20 69.5 -62.5t26.5 -95.5q0 -127 -98 -202q-90 -68 -243 -68h-120l-62 -302h-96zM270 677l-61 -294h115q111 0 172 49q58 47 58 134q0 35 -16 61t-43 37q-39 16 -95 16z" />
    <glyph glyph-name="Q" unicode="Q" horiz-adv-x="784" 
d="M357 -15q-132 0 -207 82.5t-75 223.5q0 118 49.5 232.5t137.5 178.5q87 63 202 63q131 0 205.5 -85t74.5 -226q0 -109 -43.5 -215.5t-121.5 -173.5l61 -77l-71 -51l-60 81q-71 -33 -152 -33zM360 66q53 0 97 23l-60 82l61 49l65 -83q56 55 87.5 141t31.5 171
q0 102 -47 168.5t-141 66.5q-64 0 -118 -36.5t-88 -94.5t-52.5 -125t-18.5 -132q0 -101 44.5 -165.5t138.5 -64.5z" />
    <glyph glyph-name="R" unicode="R" horiz-adv-x="669" 
d="M35 0l155 754q146 3 225 3q89 0 148 -27q43 -19 69.5 -60t26.5 -93q0 -66 -24.5 -110.5t-73.5 -81.5q-42 -32 -98 -49l141 -336h-105l-130 318q-38 -2 -56 -2h-117l-65 -316h-96zM270 677l-58 -282h117q111 0 172 49q58 47 58 127q0 69 -59 93q-39 16 -95 16z" />
    <glyph glyph-name="S" unicode="S" horiz-adv-x="640" 
d="M16 217l94 7q0 -78 54.5 -118.5t136.5 -40.5q69 0 123 37.5t54 97.5q0 52 -41 83.5t-131 69.5q-88 37 -132.5 82t-44.5 121q0 97 73.5 153t184.5 56q91 0 157.5 -45t85.5 -120l-88 -28q-13 54 -57.5 83.5t-104.5 29.5q-65 0 -109 -31.5t-44 -85.5q0 -15 4 -28.5
t8.5 -23.5t16.5 -20.5t18.5 -16.5t24 -15.5t24.5 -12.5t28.5 -12.5t27.5 -12.5q49 -22 77 -38t60 -42t46.5 -60t14.5 -78q0 -104 -85.5 -163.5t-202.5 -59.5q-39 0 -76.5 7t-74.5 24.5t-64 43t-43 66t-15 91.5z" />
    <glyph glyph-name="T" unicode="T" horiz-adv-x="551" 
d="M166 0l138 675l-239 -2l17 82h579l-17 -82l-245 2l-137 -675h-96z" />
    <glyph glyph-name="U" unicode="U" horiz-adv-x="732" 
d="M94 333l90 422h98l-90 -425q-17 -85 -17 -125q0 -68 36 -104t107 -36q79 0 127 37.5t78 105.5q16 36 36 127l89 420h94l-96 -449q-24 -115 -57 -170q-90 -151 -288 -151q-109 0 -167.5 56t-58.5 153q0 46 19 139z" />
    <glyph glyph-name="V" unicode="V" horiz-adv-x="611" 
d="M170 0l-85 755h101l67 -658l351 658h107l-418 -755h-123z" />
    <glyph glyph-name="W" unicode="W" horiz-adv-x="959" 
d="M125 0l-40 755h98l24 -675l302 675h126l7 -661l317 661h100l-370 -755h-134l-6 643l-288 -643h-136z" />
    <glyph glyph-name="X" unicode="X" horiz-adv-x="613" 
d="M554 0h-105l-131 327l-258 -327h-111l324 401l-139 354h105l110 -294l226 294h111l-291 -368z" />
    <glyph glyph-name="Y" unicode="Y" horiz-adv-x="556" 
d="M171 0l63 308l-154 447h106l113 -358l255 358h107l-332 -452l-62 -303h-96z" />
    <glyph glyph-name="Z" unicode="Z" horiz-adv-x="622" 
d="M-30 0l17 79l557 597l-414 -4l18 83h529l-17 -80l-549 -596l428 5l-18 -84h-551z" />
    <glyph glyph-name="bracketleft" unicode="[" horiz-adv-x="365" 
d="M20 -162l196 940h199l-12 -57l-110 -2l-171 -820l108 -2l-12 -59h-198z" />
    <glyph glyph-name="backslash" unicode="\" horiz-adv-x="368" 
d="M187 -15l-87 793h80l88 -793h-81z" />
    <glyph glyph-name="bracketright" unicode="]" horiz-adv-x="360" 
d="M-50 -162l12 58l105 2l172 821l-107 2l12 57h196l-195 -940h-195z" />
    <glyph glyph-name="asciicircum" unicode="^" 
d="M144 623l22 94l193 110l141 -117l-19 -85l-136 110z" />
    <glyph glyph-name="underscore" unicode="_" 
d="M-65 -176l16 80h500l-17 -80h-499z" />
    <glyph glyph-name="grave" unicode="`" 
d="M265 632l-157 176h133l116 -176h-92z" />
    <glyph glyph-name="a" unicode="a" horiz-adv-x="558" 
d="M345 0l12 77q-71 -87 -176 -87q-67 0 -114 36.5t-47 106.5q0 65 39.5 109t95 61t121.5 17q74 0 128 -8q9 42 9 61q0 101 -105 101q-25 0 -47 -8t-35.5 -20t-23.5 -24t-14 -20l-4 -8l-79 31q29 60 84.5 92t125.5 32q117 0 163 -66q25 -36 25 -91q0 -39 -8 -72l-43 -200
q-6 -28 -10.5 -58t-5.5 -46l-1 -16h-90zM388 239l1 6q-32 4 -110 4q-71 0 -118.5 -25.5t-47.5 -81.5q0 -36 25.5 -58t65.5 -22q79 0 125.5 54t58.5 123z" />
    <glyph glyph-name="b" unicode="b" horiz-adv-x="602" 
d="M118 0h-88l160 778h90l-70 -330q23 43 69 72t101 29q89 0 135.5 -59t46.5 -161q0 -60 -18 -120t-51 -110.5t-86.5 -82t-118.5 -31.5q-59 0 -96.5 30t-54.5 74zM286 61q55 0 97.5 42.5t63 100.5t20.5 116q0 153 -119 153q-80 0 -131.5 -85t-51.5 -177q0 -150 121 -150z
" />
    <glyph glyph-name="c" unicode="c" horiz-adv-x="514" 
d="M384 139l72 -33q-30 -57 -83.5 -89t-120.5 -32q-103 0 -157.5 58.5t-54.5 161.5q0 82 35 160t104 131t154 53q146 0 186 -131l-84 -35q-11 44 -37 67t-74 23q-77 0 -133.5 -86t-56.5 -176q0 -148 125 -148q71 0 125 76z" />
    <glyph glyph-name="d" unicode="d" horiz-adv-x="597" 
d="M376 0l18 88q-22 -39 -69 -70.5t-96 -31.5q-91 0 -140 58.5t-49 161.5q0 84 33.5 162.5t98.5 130t145 51.5q109 0 149 -106l66 334h90l-159 -778h-87zM254 62q80 0 131.5 85t51.5 177q0 150 -121 150q-52 0 -95 -42.5t-64.5 -101t-21.5 -115.5q0 -153 119 -153z" />
    <glyph glyph-name="e" unicode="e" horiz-adv-x="556" 
d="M508 254h-374q-3 -22 -3 -43q0 -70 35 -111t103 -41q82 0 140 81l72 -30q-30 -57 -89 -91t-130 -34q-105 0 -163.5 59t-58.5 161q0 85 33 162.5t99.5 129.5t151.5 52q119 0 167.5 -85.5t16.5 -209.5zM316 475q-55 0 -98 -42.5t-67 -107.5h279q8 69 -21.5 109.5
t-92.5 40.5z" />
    <glyph glyph-name="f" unicode="f" horiz-adv-x="324" 
d="M67 462l16 73h72l22 106q15 74 58.5 108.5t104.5 34.5q22 0 40.5 -3t25.5 -5l8 -3l-19 -73q-30 7 -58 7q-25 0 -41 -13.5t-21 -27.5t-10 -39l-19 -92h117l-16 -73h-116l-95 -462h-91l95 462h-73z" />
    <glyph glyph-name="g" unicode="g" horiz-adv-x="603" 
d="M-19 -94l86 26q27 -90 141 -90q45 0 80.5 22t55.5 59q28 52 53 174q-22 -39 -69 -70t-96 -31q-91 0 -140 58.5t-49 161.5q0 82 33 157.5t97.5 126t144.5 50.5q109 0 149 -106l19 91h87l-101 -504q-12 -60 -31 -104.5t-50 -82t-80 -57t-114 -19.5q-85 0 -141 34.5
t-75 103.5zM257 72q53 0 96 40.5t64 97.5t21 114q0 150 -121 150q-52 0 -94.5 -41t-63.5 -97t-21 -111q0 -153 119 -153z" />
    <glyph glyph-name="h" unicode="h" horiz-adv-x="594" 
d="M30 0l160 778h90l-72 -338q27 42 73 75.5t104 33.5q79 0 116.5 -43t37.5 -115q0 -34 -9 -81l-64 -310h-91l65 319q6 34 6 56q0 95 -86 95q-66 0 -122 -64q-43 -49 -71 -184l-45 -222h-92z" />
    <glyph glyph-name="i" unicode="i" horiz-adv-x="262" 
d="M30 0l109 535h92l-109 -535h-92zM161 653l21 102h96l-21 -102h-96z" />
    <glyph glyph-name="j" unicode="j" horiz-adv-x="267" 
d="M-125 -207l20 73q25 -12 51 -12q39 0 58 29.5t29 80.5l111 571h90l-117 -599q-32 -161 -163 -161q-49 0 -79 18zM165 653l21 102h96l-21 -102h-96z" />
    <glyph glyph-name="k" unicode="k" horiz-adv-x="517" 
d="M30 0l160 778h89l-100 -484l257 241h116l-222 -203l138 -332h-100l-105 271l-109 -98l-35 -173h-89z" />
    <glyph glyph-name="l" unicode="l" horiz-adv-x="253" 
d="M30 0l158 778h90l-158 -778h-90z" />
    <glyph glyph-name="m" unicode="m" horiz-adv-x="918" 
d="M30 0l110 535h87l-19 -95q27 43 70.5 76t101.5 33q124 0 145 -118q32 51 81 84.5t108 33.5q149 0 149 -158q0 -34 -9 -81l-64 -310h-91l65 319q6 34 6 56q0 45 -17.5 70t-63.5 25q-61 0 -117 -64q-43 -49 -71 -184l-45 -222h-91l65 319q6 34 6 56q0 45 -17.5 70t-63.5 25
q-61 0 -117 -64q-43 -49 -71 -184l-45 -222h-92z" />
    <glyph glyph-name="n" unicode="n" horiz-adv-x="594" 
d="M30 0l110 535h87l-19 -95q27 42 73 75.5t104 33.5q79 0 116.5 -43t37.5 -115q0 -34 -9 -81l-64 -310h-91l65 319q6 34 6 56q0 95 -86 95q-66 0 -122 -64q-43 -49 -71 -184l-45 -222h-92z" />
    <glyph glyph-name="o" unicode="o" horiz-adv-x="586" 
d="M257 -15q-101 0 -159 60t-58 162q0 83 33.5 160t102 129.5t155.5 52.5q100 0 157.5 -60.5t57.5 -161.5q0 -83 -33 -160t-101 -129.5t-155 -52.5zM264 59q55 0 99 42.5t66 101t22 115.5q0 70 -32.5 113.5t-96.5 43.5q-80 0 -133.5 -85t-53.5 -177q0 -70 32.5 -112
t96.5 -42z" />
    <glyph glyph-name="p" unicode="p" horiz-adv-x="601" 
d="M74 -222h-90l156 757h87l-18 -87q23 43 69 72t101 29q89 0 135.5 -59t46.5 -161q0 -60 -18 -120t-51 -110.5t-86.5 -82t-118.5 -31.5q-109 0 -149 104zM285 61q55 0 97.5 42.5t63 100.5t20.5 116q0 153 -119 153q-80 0 -131.5 -85t-51.5 -177q0 -150 121 -150z" />
    <glyph glyph-name="q" unicode="q" horiz-adv-x="602" 
d="M327 -222l63 303q-22 -38 -67 -66.5t-94 -28.5q-91 0 -140 58.5t-49 161.5q0 84 33.5 162.5t98.5 130t145 51.5q109 0 149 -106l19 91h87l-155 -757h-90zM254 62q80 0 131.5 85t51.5 177q0 150 -121 150q-52 0 -95 -42.5t-64.5 -101t-21.5 -115.5q0 -153 119 -153z" />
    <glyph glyph-name="r" unicode="r" horiz-adv-x="376" 
d="M30 0l110 535h87l-25 -117q37 58 90 94.5t114 36.5l-25 -110q-49 9 -97 -15.5t-79 -79.5q-19 -34 -45 -159l-38 -185h-92z" />
    <glyph glyph-name="s" unicode="s" horiz-adv-x="463" 
d="M-5 127l81 27q27 -96 132 -96q48 0 79.5 23t31.5 60q0 19 -7 33t-26 26t-33 19t-46 20q-129 53 -129 153q0 70 53 113.5t136 43.5q69 0 115.5 -32t65.5 -89l-77 -31q-10 38 -39.5 59t-69.5 21q-41 0 -68.5 -21t-27.5 -54q0 -17 5.5 -29.5t21 -23.5t29 -18t42.5 -21
q38 -18 57.5 -29t43 -29.5t33.5 -42.5t10 -55q0 -80 -61.5 -124.5t-146.5 -44.5q-74 0 -131.5 36t-73.5 106z" />
    <glyph glyph-name="t" unicode="t" horiz-adv-x="339" 
d="M65 462l16 73h75l41 145h79l-32 -145h115l-16 -73h-114l-66 -307q-5 -25 -5 -39q0 -48 51 -48q12 0 50 6l-12 -71q-38 -13 -77 -13q-103 0 -103 106q0 24 5 49l67 317h-74z" />
    <glyph glyph-name="u" unicode="u" horiz-adv-x="586" 
d="M64 217l66 318h91l-65 -319q-6 -34 -6 -56q0 -95 81 -95q61 0 117 64q43 49 71 184l45 222h92l-110 -535h-87l19 95q-26 -41 -72.5 -75t-99.5 -34q-75 0 -112.5 40.5t-37.5 109.5q0 39 8 81z" />
    <glyph glyph-name="v" unicode="v" horiz-adv-x="503" 
d="M139 0l-79 535h94l55 -449l234 449h95l-291 -535h-108z" />
    <glyph glyph-name="w" unicode="w" horiz-adv-x="775" 
d="M109 0l-49 535h90l26 -411l205 401h92l30 -419l215 429h92l-284 -535h-95l-29 409l-212 -409h-81z" />
    <glyph glyph-name="x" unicode="x" horiz-adv-x="482" 
d="M406 0h-104l-87 209l-171 -209h-104l238 277l-111 258h99l80 -200l162 200h104l-228 -266z" />
    <glyph glyph-name="y" unicode="y" horiz-adv-x="487" 
d="M10 -222l126 222l-76 535h94l51 -425l222 425h95l-291 -535l-123 -222h-98z" />
    <glyph glyph-name="z" unicode="z" horiz-adv-x="516" 
d="M-5 0l16 76l373 383l-286 -2l17 78h396l-16 -75l-364 -383l300 2l-17 -79h-419z" />
    <glyph glyph-name="braceleft" unicode="{" horiz-adv-x="368" 
d="M73 -17l57 222q6 24 7.5 39.5t-8.5 30t-35 15.5l-49 2l15 70l49 2q26 1 42 15.5t21 30t9 39.5l30 192q11 69 51 103t102 34q22 0 40.5 -3t25.5 -5l8 -3l-14 -67q-34 7 -60 7q-25 0 -41 -13t-21 -28t-9 -39l-31 -197q-11 -66 -71 -103q46 -38 28 -103l-63 -239
q-10 -35 1 -57.5t47 -22.5q6 0 51 3l-14 -66q-27 -7 -57 -7q-65 0 -97 41.5t-14 106.5z" />
    <glyph glyph-name="bar" unicode="|" horiz-adv-x="266" 
d="M7 -162l183 940h82l-183 -940h-82z" />
    <glyph glyph-name="braceright" unicode="}" horiz-adv-x="346" 
d="M-70 -154l14 67q34 -7 60 -7q25 0 41 13t21 28t9 39l34 213q11 66 71 103q-46 38 -28 103l60 223q10 35 -1 57.5t-47 22.5q-6 0 -51 -3l14 66q27 7 57 7q65 0 97 -41.5t14 -106.5l-54 -206q-6 -24 -7.5 -39.5t8.5 -30t35 -15.5l49 -2l-15 -70l-49 -2q-26 -1 -42 -15.5
t-21 -30t-9 -39.5l-33 -208q-11 -69 -51 -103t-102 -34q-22 0 -40.5 2.5t-25.5 5.5z" />
    <glyph glyph-name="asciitilde" unicode="~" horiz-adv-x="593" 
d="M64 213l-44 6q13 62 49.5 105.5t97.5 43.5q50 0 143 -36.5t142 -36.5q29 0 50.5 23.5t31.5 47.5l44 -6q-13 -62 -49.5 -105.5t-97.5 -43.5q-50 0 -144.5 36.5t-140.5 36.5q-29 0 -50.5 -23.5t-31.5 -47.5z" />
    <glyph glyph-name="uni00A0" unicode="&#xa0;" horiz-adv-x="267" 
 />
    <glyph glyph-name="exclamdown" unicode="&#xa1;" horiz-adv-x="308" 
d="M196 343l-49 -302l-54 -263h-98l54 263l73 302h74zM258 556l-25 -117h-110l25 117h110z" />
    <glyph glyph-name="cent" unicode="&#xa2;" horiz-adv-x="514" 
d="M143 -162l36 156q-68 19 -103.5 73.5t-35.5 137.5q0 76 30.5 149t90.5 127t135 65l30 156h92l-37 -158q104 -19 138 -126l-84 -35q-11 44 -37 67t-74 23q-77 0 -133.5 -86t-56.5 -176q0 -148 125 -148q71 0 125 76l72 -33q-63 -115 -193 -120l-28 -148h-92z" />
    <glyph glyph-name="sterling" unicode="&#xa3;" horiz-adv-x="539" 
d="M30 0l15 75q3 3 9 8.5t21.5 24.5t28.5 41t27 58.5t21 75.5h-93l16 74h86l9 124q6 90 67.5 152t153.5 62q78 0 129.5 -45t55.5 -119l-84 -18q-4 45 -34 74t-77 29q-59 0 -89 -41t-36 -103l-11 -115h101l-16 -74h-94q-8 -66 -31.5 -117.5t-43.5 -70.5l-20 -19l327 5
l-17 -81h-421z" />
    <glyph glyph-name="currency" unicode="&#xa4;" horiz-adv-x="539" 
d="M30 47l-42 53l69 59q-33 52 -33 117q0 101 78 182l-44 57l57 47l45 -57q68 41 144 41q83 0 149 -55l73 61l43 -53l-71 -59q33 -54 33 -115q0 -109 -88 -192l44 -57l-57 -47l-48 60q-62 -35 -131 -35q-84 0 -148 53zM109 278q0 -61 43.5 -105.5t108.5 -44.5q73 0 129 58.5
t56 134.5q0 61 -42 106t-106 45q-75 0 -132 -58t-57 -136z" />
    <glyph glyph-name="yen" unicode="&#xa5;" horiz-adv-x="548" 
d="M70 240l17 77h123l-123 360h104l98 -314l222 314h107l-267 -360h125l-17 -77h-147l-50 -240h-96l50 240h-146z" />
    <glyph glyph-name="brokenbar" unicode="&#xa6;" horiz-adv-x="306" 
d="M10 -162l79 376h88l-80 -376h-87zM128 402l80 376h88l-80 -376h-88z" />
    <glyph glyph-name="section" unicode="&#xa7;" horiz-adv-x="562" 
d="M34 144l85 15q5 -48 40 -74.5t83 -26.5q47 0 79 23t32 61q0 31 -25.5 50.5t-94.5 48.5q-128 54 -128 150q0 49 30 84.5t81 49.5q-52 43 -52 106q0 70 52.5 114t136.5 44q72 0 126 -40.5t60 -111.5l-78 -13q-19 93 -114 93q-36 0 -65.5 -20t-29.5 -55q0 -32 22 -49t79 -44
q85 -39 118 -74t33 -88q0 -51 -29 -86t-82 -49q49 -40 49 -98q0 -77 -58 -123t-150 -46q-78 0 -136 40.5t-64 118.5zM315 469q-15 5 -32 14q-36 -5 -62 -26t-26 -55q0 -8 1.5 -15t3 -12t6.5 -11t7.5 -9.5t10.5 -9t11.5 -8t13.5 -7.5l14 -7t16.5 -7.5t16.5 -7.5l29 -14
q37 5 64 27t27 57q0 48 -101 91z" />
    <glyph glyph-name="dieresis" unicode="&#xa8;" horiz-adv-x="485" 
d="M211 653l22 105h99l-22 -105h-99zM420 653l22 105h99l-22 -105h-99z" />
    <glyph glyph-name="copyright" unicode="&#xa9;" horiz-adv-x="1072" 
d="M70 278q0 97 38 189t103 163t159.5 114.5t200.5 43.5q192 0 321.5 -132t129.5 -322q0 -127 -65 -242t-182 -187.5t-255 -72.5q-205 0 -327.5 122.5t-122.5 323.5zM525 -90q110 0 206 57.5t152.5 154.5t56.5 208q0 158 -107.5 269t-266.5 111q-170 0 -292 -126.5
t-122 -298.5q0 -165 101 -270t272 -105zM657 207l72 -34q-28 -62 -86.5 -100t-131.5 -38q-97 0 -152.5 58t-55.5 161q0 82 32.5 159t99.5 130.5t153 53.5q76 0 124.5 -38.5t63.5 -105.5l-82 -29q-17 93 -116 93q-55 0 -97.5 -41.5t-62.5 -98t-20 -112.5q0 -65 30 -106.5
t92 -41.5q89 0 137 90z" />
    <glyph glyph-name="ordfeminine" unicode="&#xaa;" horiz-adv-x="300" 
d="M229 404l5 42q-34 -48 -89 -48q-39 0 -64.5 21t-25.5 61q0 57 43 82.5t104 25.5q35 0 60 -4q4 18 4 30q0 45 -49 45q-41 0 -63 -40l-61 23q37 72 129 72q51 0 79.5 -25.5t28.5 -73.5q0 -21 -4 -38l-22 -101l-9 -72h-66zM253 536q-20 3 -48 3q-82 0 -82 -51
q0 -16 12 -25.5t29 -9.5q38 0 60.5 22.5t28.5 60.5z" />
    <glyph glyph-name="guillemotleft" unicode="&#xab;" horiz-adv-x="455" 
d="M115 112l-80 170l145 165h89l-142 -170l72 -165h-84zM291 112l-80 170l145 165h89l-142 -170l72 -165h-84z" />
    <glyph glyph-name="logicalnot" unicode="&#xac;" horiz-adv-x="514" 
d="M46 298l17 79h450l-47 -218h-83l30 139h-367z" />
    <glyph glyph-name="registered" unicode="&#xae;" 
d="M311 380q-91 0 -147.5 56.5t-56.5 147.5q0 84 60 144t144 60t144 -60t60 -144t-60 -144t-144 -60zM311 417q69 0 118 49t49 118t-49 118t-118 49t-118 -49t-49 -118q0 -73 46 -120t121 -47zM213 474l46 225h68q29 0 50.5 -14.5t21.5 -43.5q0 -46 -48 -70l43 -97h-44
l-35 89h-47l-18 -89h-37zM290 667l-15 -70h34q50 0 50 40q0 30 -34 30h-35z" />
    <glyph glyph-name="macron" unicode="&#xaf;" 
d="M99 680l15 75h362l-15 -75h-362z" />
    <glyph glyph-name="degree" unicode="&#xb0;" horiz-adv-x="349" 
d="M110 581q0 53 39 92t94 39q49 0 85 -29.5t36 -81.5q0 -53 -39 -92t-94 -39q-49 0 -85 29.5t-36 81.5zM232 526q27 0 48.5 20t21.5 50q0 24 -15.5 42t-44.5 18q-27 0 -48.5 -20t-21.5 -50q0 -24 15.5 -42t44.5 -18z" />
    <glyph glyph-name="plusminus" unicode="&#xb1;" horiz-adv-x="593" 
d="M58 295l17 76h201l37 174h81l-37 -174h201l-17 -76h-200l-37 -174h-81l37 174h-202zM-5 -14l17 76h482l-17 -76h-482z" />
    <glyph glyph-name="twosuperior" unicode="&#xb2;" horiz-adv-x="355" 
d="M50 408l8 57q150 120 194 170q27 31 27 60q0 15 -10.5 25t-30.5 10q-21 0 -37.5 -14.5t-22.5 -35.5l-75 14q15 46 54.5 72t86.5 26q53 0 84.5 -26t31.5 -68q0 -53 -54 -111q-39 -41 -143 -116h155l-13 -63h-255z" />
    <glyph glyph-name="threesuperior" unicode="&#xb3;" horiz-adv-x="341" 
d="M50 515l77 5q0 -61 52 -61q28 0 46.5 19t18.5 51q0 27 -16.5 41t-61.5 10l14 56q34 -2 61.5 13.5t27.5 46.5q0 35 -38 35q-21 0 -35.5 -14.5t-20.5 -35.5l-73 13q15 47 50.5 72.5t82.5 25.5q51 0 80 -27t29 -64q0 -64 -76 -95q55 -22 55 -76q0 -52 -41.5 -91t-103.5 -39
q-57 0 -92.5 29t-35.5 86z" />
    <glyph glyph-name="acute" unicode="&#xb4;" 
d="M169 632l185 176h146l-231 -176h-100z" />
    <glyph glyph-name="paragraph" unicode="&#xb6;" horiz-adv-x="573" 
d="M312 366h-35q-82 0 -139.5 33.5t-57.5 111.5q0 119 80.5 182.5t204.5 63.5h30zM278 -130l189 885h96l-188 -885h-97z" />
    <glyph glyph-name="periodcentered" unicode="&#xb7;" horiz-adv-x="276" 
d="M70 230l27 129h129l-27 -129h-129z" />
    <glyph glyph-name="cedilla" unicode="&#xb8;" 
d="M162 -184l55 25q18 -25 55 -25q22 0 38 11.5t16 31.5q0 37 -46 37q-28 0 -51 -19l-40 20l82 127l40 -9l-58 -89q22 14 54 14q36 0 59 -20.5t23 -54.5q0 -47 -36 -72t-87 -25q-69 0 -104 48z" />
    <glyph glyph-name="onesuperior" unicode="&#xb9;" horiz-adv-x="238" 
d="M89 408l60 284q-35 -18 -70 -20l9 69q50 6 82 40h74l-77 -373h-78z" />
    <glyph glyph-name="ordmasculine" unicode="&#xba;" horiz-adv-x="331" 
d="M198 398q-56 0 -89.5 34.5t-33.5 89.5q0 80 45 136t119 56q56 0 89 -34.5t33 -89.5q0 -80 -44.5 -136t-118.5 -56zM205 458q39 0 62 36t23 85q0 75 -59 75q-38 0 -61.5 -37t-23.5 -85q0 -74 59 -74z" />
    <glyph glyph-name="guillemotright" unicode="&#xbb;" horiz-adv-x="445" 
d="M154 447l80 -170l-145 -165h-89l142 170l-72 165h84zM330 447l80 -170l-145 -165h-89l142 170l-72 165h84z" />
    <glyph glyph-name="onequarter" unicode="&#xbc;" horiz-adv-x="890" 
d="M22 -30l674 815h93l-674 -815h-93zM520 96l8 44l212 233h81l-47 -222h56l-12 -55h-55l-20 -96h-68l20 96h-175zM101 408l60 284q-35 -18 -70 -20l9 69q50 6 82 40h74l-77 -373h-78zM735 290l-124 -139h95z" />
    <glyph glyph-name="onehalf" unicode="&#xbd;" horiz-adv-x="891" 
d="M22 -30l674 815h93l-674 -815h-93zM101 408l60 284q-35 -18 -70 -20l9 69q50 6 82 40h74l-77 -373h-78zM526 0l8 57q150 120 194 170q27 31 27 60q0 15 -10.5 25t-30.5 10q-21 0 -37.5 -14.5t-22.5 -35.5l-75 14q15 46 54.5 72t86.5 26q53 0 84.5 -26t31.5 -68
q0 -53 -54 -111q-39 -41 -143 -116h155l-13 -63h-255z" />
    <glyph glyph-name="threequarters" unicode="&#xbe;" horiz-adv-x="952" 
d="M84 -30l674 815h93l-674 -815h-93zM582 96l8 44l212 233h81l-47 -222h56l-12 -55h-55l-20 -96h-68l20 96h-175zM50 515l77 5q0 -61 52 -61q28 0 46.5 19t18.5 51q0 27 -16.5 41t-61.5 10l14 56q34 -2 61.5 13.5t27.5 46.5q0 35 -38 35q-21 0 -35.5 -14.5t-20.5 -35.5
l-73 13q15 47 50.5 72.5t82.5 25.5q51 0 80 -27t29 -64q0 -64 -76 -95q55 -22 55 -76q0 -52 -41.5 -91t-103.5 -39q-57 0 -92.5 29t-35.5 86zM797 290l-124 -139h95z" />
    <glyph glyph-name="questiondown" unicode="&#xbf;" horiz-adv-x="415" 
d="M309 351l-12 -70q-10 -57 -36 -88t-88 -74q-39 -27 -64.5 -48.5t-49.5 -59.5t-24 -78q0 -39 26 -65.5t74 -26.5q47 0 77 28t42 69l94 -20q-24 -72 -84 -111.5t-139 -39.5q-90 0 -140 46t-50 117q0 79 54 140t144 119q61 39 75 96l16 66h85zM365 555l-25 -117h-110l25 117
h110z" />
    <glyph glyph-name="Agrave" unicode="&#xc0;" horiz-adv-x="687" 
d="M-50 0l449 755h105l118 -755h-101l-30 218h-310l-123 -218h-108zM430 657l-208 -367h259zM228 967h133l146 -141h-112z" />
    <glyph glyph-name="Aacute" unicode="&#xc1;" horiz-adv-x="687" 
d="M-50 0l449 755h105l118 -755h-101l-30 218h-310l-123 -218h-108zM430 657l-208 -367h259zM408 826l200 141h161l-241 -141h-120z" />
    <glyph glyph-name="Acircumflex" unicode="&#xc2;" horiz-adv-x="687" 
d="M-50 0l449 755h105l118 -755h-101l-30 218h-310l-123 -218h-108zM430 657l-208 -367h259zM290 801l22 94l186 84l148 -91l-19 -85l-143 84z" />
    <glyph glyph-name="Atilde" unicode="&#xc3;" horiz-adv-x="687" 
d="M-50 0l449 755h105l118 -755h-101l-30 218h-310l-123 -218h-108zM430 657l-208 -367h259zM337 848l-50 6q3 17 9.5 34t19.5 38.5t37 34.5t56 13q36 0 80.5 -26t72.5 -26q46 0 57 55l50 -5q-3 -16 -10 -34t-20.5 -38.5t-38 -34t-56.5 -13.5q-33 0 -78.5 26t-72.5 26
q-20 0 -35.5 -16t-20.5 -40z" />
    <glyph glyph-name="Adieresis" unicode="&#xc4;" horiz-adv-x="687" 
d="M-50 0l449 755h105l118 -755h-101l-30 218h-310l-123 -218h-108zM430 657l-208 -367h259zM304 826l22 105h104l-22 -105h-104zM523 826l22 105h104l-22 -105h-104z" />
    <glyph glyph-name="Aring" unicode="&#xc5;" horiz-adv-x="687" 
d="M-50 0l449 755h105l118 -755h-101l-30 218h-310l-123 -218h-108zM430 657l-208 -367h259zM359 880q0 49 36.5 85.5t88.5 36.5q46 0 79.5 -27.5t33.5 -76.5t-36.5 -85.5t-88.5 -36.5q-46 0 -79.5 27.5t-33.5 76.5zM473 831q25 0 44 18t19 45q0 21 -13.5 37t-39.5 16
q-25 0 -44 -18t-19 -45q0 -21 13.5 -37t39.5 -16z" />
    <glyph glyph-name="AE" unicode="&#xc6;" horiz-adv-x="1031" 
d="M497 0l45 218h-297l-191 -218h-114l670 755h466l-18 -81l-328 1l-52 -252h289l-18 -78h-287l-54 -264l349 2l-18 -83h-442zM308 290h248l76 368z" />
    <glyph glyph-name="Ccedilla" unicode="&#xc7;" horiz-adv-x="715" 
d="M182 -184l63 18q15 -21 44 -21q22 0 39.5 13.5t17.5 35.5q0 35 -40 35q-33 0 -57 -20l-40 20l55 101q-91 25 -140 100.5t-49 190.5q0 82 26 164.5t73.5 153t123.5 114.5t166 44q106 0 173.5 -53.5t87.5 -146.5l-89 -32q-14 67 -58.5 109t-121.5 42q-64 0 -118.5 -37.5
t-89 -95.5t-53.5 -125t-19 -130q0 -101 46.5 -164t142.5 -63q69 0 124 39.5t91 105.5l80 -37q-40 -87 -121 -139.5t-182 -52.5q-23 0 -44 3l-34 -62q24 15 57 15q32 0 53.5 -19t21.5 -52q0 -47 -37.5 -74.5t-87.5 -27.5q-70 0 -104 48z" />
    <glyph glyph-name="Egrave" unicode="&#xc8;" horiz-adv-x="579" 
d="M35 0l155 755h434l-18 -81l-338 1l-52 -252h289l-18 -78h-287l-54 -264l349 2l-18 -83h-442zM208 967h133l146 -141h-112z" />
    <glyph glyph-name="Eacute" unicode="&#xc9;" horiz-adv-x="579" 
d="M35 0l155 755h434l-18 -81l-338 1l-52 -252h289l-18 -78h-287l-54 -264l349 2l-18 -83h-442zM305 826l200 141h161l-241 -141h-120z" />
    <glyph glyph-name="Ecircumflex" unicode="&#xca;" horiz-adv-x="579" 
d="M35 0l155 755h434l-18 -81l-338 1l-52 -252h289l-18 -78h-287l-54 -264l349 2l-18 -83h-442zM249 801l22 94l186 84l148 -91l-19 -85l-143 84z" />
    <glyph glyph-name="Edieresis" unicode="&#xcb;" horiz-adv-x="579" 
d="M35 0l155 755h434l-18 -81l-338 1l-52 -252h289l-18 -78h-287l-54 -264l349 2l-18 -83h-442zM475 826l22 105h104l-22 -105h-104zM256 826l22 105h104l-22 -105h-104z" />
    <glyph glyph-name="Igrave" unicode="&#xcc;" horiz-adv-x="282" 
d="M35 0l155 755h97l-155 -755h-97zM215 826l-117 141h118l86 -141h-87z" />
    <glyph glyph-name="Iacute" unicode="&#xcd;" horiz-adv-x="282" 
d="M35 0l155 755h97l-155 -755h-97zM199 826l145 141h131l-181 -141h-95z" />
    <glyph glyph-name="Icircumflex" unicode="&#xce;" horiz-adv-x="282" 
d="M35 0l155 755h97l-155 -755h-97zM112 805l22 94l162 80l112 -82l-19 -90l-107 80z" />
    <glyph glyph-name="Idieresis" unicode="&#xcf;" horiz-adv-x="282" 
d="M35 0l155 755h97l-155 -755h-97zM118 826l22 105h99l-22 -105h-99zM289 826l22 105h99l-22 -105h-99z" />
    <glyph glyph-name="Eth" unicode="&#xd0;" horiz-adv-x="777" 
d="M17 363l16 75h109l66 317q104 2 194 2q108 0 180 -30q77 -33 116 -104t39 -169q0 -218 -126.5 -337.5t-324.5 -119.5q-141 0 -234 3l75 363h-110zM288 678l-49 -240h116l-16 -75h-116l-58 -285q53 -3 125 -3q147 0 246 96t99 278q0 159 -110 208q-52 23 -133 23
q-44 0 -104 -2z" />
    <glyph glyph-name="Ntilde" unicode="&#xd1;" horiz-adv-x="763" 
d="M35 0l153 755h113l252 -629l122 629h93l-153 -755h-111l-253 640l-124 -640h-92zM373 848l-50 6q3 17 9.5 34t19.5 38.5t37 34.5t56 13q36 0 80.5 -26t72.5 -26q46 0 57 55l50 -5q-3 -16 -10 -34t-20.5 -38.5t-38 -34t-56.5 -13.5q-33 0 -78.5 26t-72.5 26
q-20 0 -35.5 -16t-20.5 -40z" />
    <glyph glyph-name="Ograve" unicode="&#xd2;" horiz-adv-x="784" 
d="M357 -15q-132 0 -207 82.5t-75 223.5q0 118 49.5 232.5t137.5 178.5q87 63 202 63q131 0 205.5 -85t74.5 -226q0 -120 -53 -236.5t-146 -178.5q-80 -54 -188 -54zM360 66q85 0 151.5 61t98.5 147t32 175q0 102 -47 168.5t-141 66.5q-64 0 -118 -36.5t-88 -94.5
t-52.5 -125t-18.5 -132q0 -101 44.5 -165.5t138.5 -64.5zM309 967h133l146 -141h-112z" />
    <glyph glyph-name="Oacute" unicode="&#xd3;" horiz-adv-x="784" 
d="M357 -15q-132 0 -207 82.5t-75 223.5q0 118 49.5 232.5t137.5 178.5q87 63 202 63q131 0 205.5 -85t74.5 -226q0 -120 -53 -236.5t-146 -178.5q-80 -54 -188 -54zM360 66q85 0 151.5 61t98.5 147t32 175q0 102 -47 168.5t-141 66.5q-64 0 -118 -36.5t-88 -94.5
t-52.5 -125t-18.5 -132q0 -101 44.5 -165.5t138.5 -64.5zM371 826l200 141h161l-241 -141h-120z" />
    <glyph glyph-name="Ocircumflex" unicode="&#xd4;" horiz-adv-x="784" 
d="M357 -15q-132 0 -207 82.5t-75 223.5q0 118 49.5 232.5t137.5 178.5q87 63 202 63q131 0 205.5 -85t74.5 -226q0 -120 -53 -236.5t-146 -178.5q-80 -54 -188 -54zM360 66q85 0 151.5 61t98.5 147t32 175q0 102 -47 168.5t-141 66.5q-64 0 -118 -36.5t-88 -94.5
t-52.5 -125t-18.5 -132q0 -101 44.5 -165.5t138.5 -64.5zM319 801l22 94l186 84l148 -91l-19 -85l-143 84z" />
    <glyph glyph-name="Otilde" unicode="&#xd5;" horiz-adv-x="784" 
d="M357 -15q-132 0 -207 82.5t-75 223.5q0 118 49.5 232.5t137.5 178.5q87 63 202 63q131 0 205.5 -85t74.5 -226q0 -120 -53 -236.5t-146 -178.5q-80 -54 -188 -54zM360 66q85 0 151.5 61t98.5 147t32 175q0 102 -47 168.5t-141 66.5q-64 0 -118 -36.5t-88 -94.5
t-52.5 -125t-18.5 -132q0 -101 44.5 -165.5t138.5 -64.5zM375 848l-50 6q3 17 9.5 34t19.5 38.5t37 34.5t56 13q36 0 80.5 -26t72.5 -26q46 0 57 55l50 -5q-3 -16 -10 -34t-20.5 -38.5t-38 -34t-56.5 -13.5q-33 0 -78.5 26t-72.5 26q-20 0 -35.5 -16t-20.5 -40z" />
    <glyph glyph-name="Odieresis" unicode="&#xd6;" horiz-adv-x="784" 
d="M357 -15q-132 0 -207 82.5t-75 223.5q0 118 49.5 232.5t137.5 178.5q87 63 202 63q131 0 205.5 -85t74.5 -226q0 -120 -53 -236.5t-146 -178.5q-80 -54 -188 -54zM360 66q85 0 151.5 61t98.5 147t32 175q0 102 -47 168.5t-141 66.5q-64 0 -118 -36.5t-88 -94.5
t-52.5 -125t-18.5 -132q0 -101 44.5 -165.5t138.5 -64.5zM337 826l22 105h104l-22 -105h-104zM556 826l22 105h104l-22 -105h-104z" />
    <glyph glyph-name="multiply" unicode="&#xd7;" horiz-adv-x="580" 
d="M82 37l-53 65l208 174l-124 164l68 56l123 -164l199 168l52 -65l-201 -169l128 -170l-67 -54l-128 168z" />
    <glyph glyph-name="Oslash" unicode="&#xd8;" horiz-adv-x="784" 
d="M357 -15q-119 0 -191 66l-87 -100l-58 44l99 113q-45 76 -45 183q0 118 49.5 232.5t137.5 178.5q87 63 202 63q108 0 179 -60l73 83l56 -46l-80 -91q52 -80 52 -197q0 -120 -53 -236.5t-146 -178.5q-80 -54 -188 -54zM360 66q85 0 151.5 61t98.5 147t32 175q0 67 -21 121
l-393 -448q46 -56 132 -56zM177 296q0 -58 15 -106l389 444q-48 50 -127 50q-64 0 -118 -36.5t-88 -94.5t-52.5 -125t-18.5 -132z" />
    <glyph glyph-name="Ugrave" unicode="&#xd9;" horiz-adv-x="732" 
d="M94 333l90 422h98l-90 -425q-17 -85 -17 -125q0 -68 36 -104t107 -36q79 0 127 37.5t78 105.5q16 36 36 127l89 420h94l-96 -449q-24 -115 -57 -170q-90 -151 -288 -151q-109 0 -167.5 56t-58.5 153q0 46 19 139zM266 967h133l146 -141h-112z" />
    <glyph glyph-name="Uacute" unicode="&#xda;" horiz-adv-x="732" 
d="M94 333l90 422h98l-90 -425q-17 -85 -17 -125q0 -68 36 -104t107 -36q79 0 127 37.5t78 105.5q16 36 36 127l89 420h94l-96 -449q-24 -115 -57 -170q-90 -151 -288 -151q-109 0 -167.5 56t-58.5 153q0 46 19 139zM376 826l200 141h161l-241 -141h-120z" />
    <glyph glyph-name="Ucircumflex" unicode="&#xdb;" horiz-adv-x="732" 
d="M94 333l90 422h98l-90 -425q-17 -85 -17 -125q0 -68 36 -104t107 -36q79 0 127 37.5t78 105.5q16 36 36 127l89 420h94l-96 -449q-24 -115 -57 -170q-90 -151 -288 -151q-109 0 -167.5 56t-58.5 153q0 46 19 139zM310 801l22 94l186 84l148 -91l-19 -85l-143 84z" />
    <glyph glyph-name="Udieresis" unicode="&#xdc;" horiz-adv-x="732" 
d="M94 333l90 422h98l-90 -425q-17 -85 -17 -125q0 -68 36 -104t107 -36q79 0 127 37.5t78 105.5q16 36 36 127l89 420h94l-96 -449q-24 -115 -57 -170q-90 -151 -288 -151q-109 0 -167.5 56t-58.5 153q0 46 19 139zM318 826l22 105h104l-22 -105h-104zM537 826l22 105h104
l-22 -105h-104z" />
    <glyph glyph-name="Yacute" unicode="&#xdd;" horiz-adv-x="556" 
d="M171 0l63 308l-154 447h106l113 -358l255 358h107l-332 -452l-62 -303h-96zM296 826l200 141h161l-241 -141h-120z" />
    <glyph glyph-name="Thorn" unicode="&#xde;" horiz-adv-x="616" 
d="M35 0l155 755h96l-33 -160q52 2 93 2q124 0 181 -29q94 -49 94 -156q0 -127 -98 -202q-90 -68 -243 -68h-120l-29 -142h-96zM333 520q-21 0 -96 -3l-61 -294h115q111 0 172 49q58 47 58 134q0 65 -49 92q-39 22 -139 22z" />
    <glyph glyph-name="germandbls" unicode="&#xdf;" horiz-adv-x="621" 
d="M25 0l120 580q22 107 85 155.5t150 48.5q86 0 132.5 -46.5t46.5 -109.5q0 -42 -18 -76.5t-44 -56t-52 -39.5t-44 -37t-18 -39q0 -19 20.5 -36.5t80.5 -53.5q97 -57 97 -142q0 -74 -57.5 -118.5t-137.5 -44.5q-67 0 -112 29.5t-57 87.5l82 24q5 -32 31.5 -49.5t61.5 -17.5
q40 0 70 22.5t30 60.5q0 28 -24 50t-77 51q-56 30 -78 57t-22 64t18 66.5t44.5 49.5t52.5 39.5t44 46.5t18 60q0 34 -25.5 57.5t-70.5 23.5q-50 0 -86.5 -31.5t-49.5 -95.5l-120 -580h-91z" />
    <glyph glyph-name="agrave" unicode="&#xe0;" horiz-adv-x="558" 
d="M345 0l12 77q-71 -87 -176 -87q-67 0 -114 36.5t-47 106.5q0 65 39.5 109t95 61t121.5 17q74 0 128 -8q9 42 9 61q0 101 -105 101q-25 0 -47 -8t-35.5 -20t-23.5 -24t-14 -20l-4 -8l-79 31q29 60 84.5 92t125.5 32q117 0 163 -66q25 -36 25 -91q0 -39 -8 -72l-43 -200
q-6 -28 -10.5 -58t-5.5 -46l-1 -16h-90zM388 239l1 6q-32 4 -110 4q-71 0 -118.5 -25.5t-47.5 -81.5q0 -36 25.5 -58t65.5 -22q79 0 125.5 54t58.5 123zM301 632l-157 176h133l116 -176h-92z" />
    <glyph glyph-name="aacute" unicode="&#xe1;" horiz-adv-x="558" 
d="M345 0l12 77q-71 -87 -176 -87q-67 0 -114 36.5t-47 106.5q0 65 39.5 109t95 61t121.5 17q74 0 128 -8q9 42 9 61q0 101 -105 101q-25 0 -47 -8t-35.5 -20t-23.5 -24t-14 -20l-4 -8l-79 31q29 60 84.5 92t125.5 32q117 0 163 -66q25 -36 25 -91q0 -39 -8 -72l-43 -200
q-6 -28 -10.5 -58t-5.5 -46l-1 -16h-90zM388 239l1 6q-32 4 -110 4q-71 0 -118.5 -25.5t-47.5 -81.5q0 -36 25.5 -58t65.5 -22q79 0 125.5 54t58.5 123zM281 632l185 176h146l-231 -176h-100z" />
    <glyph glyph-name="acircumflex" unicode="&#xe2;" horiz-adv-x="558" 
d="M345 0l12 77q-71 -87 -176 -87q-67 0 -114 36.5t-47 106.5q0 65 39.5 109t95 61t121.5 17q74 0 128 -8q9 42 9 61q0 101 -105 101q-25 0 -47 -8t-35.5 -20t-23.5 -24t-14 -20l-4 -8l-79 31q29 60 84.5 92t125.5 32q117 0 163 -66q25 -36 25 -91q0 -39 -8 -72l-43 -200
q-6 -28 -10.5 -58t-5.5 -46l-1 -16h-90zM388 239l1 6q-32 4 -110 4q-71 0 -118.5 -25.5t-47.5 -81.5q0 -36 25.5 -58t65.5 -22q79 0 125.5 54t58.5 123zM172 623l22 94l193 110l141 -117l-19 -85l-136 110z" />
    <glyph glyph-name="atilde" unicode="&#xe3;" horiz-adv-x="558" 
d="M345 0l12 77q-71 -87 -176 -87q-67 0 -114 36.5t-47 106.5q0 65 39.5 109t95 61t121.5 17q74 0 128 -8q9 42 9 61q0 101 -105 101q-25 0 -47 -8t-35.5 -20t-23.5 -24t-14 -20l-4 -8l-79 31q29 60 84.5 92t125.5 32q117 0 163 -66q25 -36 25 -91q0 -39 -8 -72l-43 -200
q-6 -28 -10.5 -58t-5.5 -46l-1 -16h-90zM388 239l1 6q-32 4 -110 4q-71 0 -118.5 -25.5t-47.5 -81.5q0 -36 25.5 -58t65.5 -22q79 0 125.5 54t58.5 123zM213 639l-50 6q3 17 9.5 34t19.5 38.5t37 34.5t56 13q36 0 80.5 -26t72.5 -26q46 0 57 55l50 -5q-3 -16 -10 -34
t-20.5 -38.5t-38 -34t-56.5 -13.5q-33 0 -78.5 26t-72.5 26q-20 0 -35.5 -16t-20.5 -40z" />
    <glyph glyph-name="adieresis" unicode="&#xe4;" horiz-adv-x="558" 
d="M345 0l12 77q-71 -87 -176 -87q-67 0 -114 36.5t-47 106.5q0 65 39.5 109t95 61t121.5 17q74 0 128 -8q9 42 9 61q0 101 -105 101q-25 0 -47 -8t-35.5 -20t-23.5 -24t-14 -20l-4 -8l-79 31q29 60 84.5 92t125.5 32q117 0 163 -66q25 -36 25 -91q0 -39 -8 -72l-43 -200
q-6 -28 -10.5 -58t-5.5 -46l-1 -16h-90zM388 239l1 6q-32 4 -110 4q-71 0 -118.5 -25.5t-47.5 -81.5q0 -36 25.5 -58t65.5 -22q79 0 125.5 54t58.5 123zM198 653l22 105h99l-22 -105h-99zM407 653l22 105h99l-22 -105h-99z" />
    <glyph glyph-name="aring" unicode="&#xe5;" horiz-adv-x="558" 
d="M345 0l12 77q-71 -87 -176 -87q-67 0 -114 36.5t-47 106.5q0 65 39.5 109t95 61t121.5 17q74 0 128 -8q9 42 9 61q0 101 -105 101q-25 0 -47 -8t-35.5 -20t-23.5 -24t-14 -20l-4 -8l-79 31q29 60 84.5 92t125.5 32q117 0 163 -66q25 -36 25 -91q0 -39 -8 -72l-43 -200
q-6 -28 -10.5 -58t-5.5 -46l-1 -16h-90zM388 239l1 6q-32 4 -110 4q-71 0 -118.5 -25.5t-47.5 -81.5q0 -36 25.5 -58t65.5 -22q79 0 125.5 54t58.5 123zM242 686q0 49 36.5 85.5t88.5 36.5q46 0 79.5 -27.5t33.5 -76.5t-36.5 -85.5t-88.5 -36.5q-46 0 -79.5 27.5t-33.5 76.5
zM356 637q25 0 44 18t19 45q0 21 -13.5 37t-39.5 16q-25 0 -44 -18t-19 -45q0 -21 13.5 -37t39.5 -16z" />
    <glyph glyph-name="ae" unicode="&#xe6;" horiz-adv-x="918" 
d="M359 0l12 77q-71 -87 -176 -87q-67 0 -114 36.5t-47 106.5q0 65 37 108.5t90 60t119 16.5h140q7 25 7 55q0 101 -105 101q-25 0 -47 -8t-35.5 -20t-23.5 -24t-14 -20l-4 -8l-79 31q29 60 84.5 92t125.5 32q127 0 170 -95q73 95 187 95q82 0 132.5 -43t60 -110t-8.5 -149
h-375q-2 -12 -2 -36q0 -69 34.5 -108t103.5 -39q82 0 140 81l72 -30q-30 -57 -89 -91t-130 -34q-65 0 -105 19t-62 67l-8 -76h-90zM402 239l1 8h-120q-156 0 -156 -105q0 -36 25.5 -58t65.5 -22q80 0 127.5 54.5t56.5 122.5zM678 475q-57 0 -100.5 -45t-66.5 -112h281
q9 71 -19.5 114t-94.5 43z" />
    <glyph glyph-name="ccedilla" unicode="&#xe7;" horiz-adv-x="514" 
d="M90 -184l55 25q18 -25 55 -25q22 0 38 11.5t16 31.5q0 37 -46 37q-28 0 -51 -19l-40 20l62 97q-68 19 -103.5 73.5t-35.5 137.5q0 82 35 160t104 131t154 53q146 0 186 -131l-84 -35q-11 44 -37 67t-74 23q-77 0 -133.5 -86t-56.5 -176q0 -148 125 -148q71 0 125 76
l72 -33q-30 -57 -83.5 -89t-120.5 -32q-12 0 -32 2l-39 -61q22 14 54 14q36 0 59 -20.5t23 -54.5q0 -47 -36 -72t-87 -25q-70 0 -104 48z" />
    <glyph glyph-name="egrave" unicode="&#xe8;" horiz-adv-x="556" 
d="M508 254h-374q-3 -22 -3 -43q0 -70 35 -111t103 -41q82 0 140 81l72 -30q-30 -57 -89 -91t-130 -34q-105 0 -163.5 59t-58.5 161q0 85 33 162.5t99.5 129.5t151.5 52q119 0 167.5 -85.5t16.5 -209.5zM316 475q-55 0 -98 -42.5t-67 -107.5h279q8 69 -21.5 109.5
t-92.5 40.5zM305 632l-157 176h133l116 -176h-92z" />
    <glyph glyph-name="eacute" unicode="&#xe9;" horiz-adv-x="556" 
d="M508 254h-374q-3 -22 -3 -43q0 -70 35 -111t103 -41q82 0 140 81l72 -30q-30 -57 -89 -91t-130 -34q-105 0 -163.5 59t-58.5 161q0 85 33 162.5t99.5 129.5t151.5 52q119 0 167.5 -85.5t16.5 -209.5zM316 475q-55 0 -98 -42.5t-67 -107.5h279q8 69 -21.5 109.5
t-92.5 40.5zM269 632l185 176h146l-231 -176h-100z" />
    <glyph glyph-name="ecircumflex" unicode="&#xea;" horiz-adv-x="556" 
d="M508 254h-374q-3 -22 -3 -43q0 -70 35 -111t103 -41q82 0 140 81l72 -30q-30 -57 -89 -91t-130 -34q-105 0 -163.5 59t-58.5 161q0 85 33 162.5t99.5 129.5t151.5 52q119 0 167.5 -85.5t16.5 -209.5zM316 475q-55 0 -98 -42.5t-67 -107.5h279q8 69 -21.5 109.5
t-92.5 40.5zM181 623l22 94l193 110l141 -117l-19 -85l-136 110z" />
    <glyph glyph-name="edieresis" unicode="&#xeb;" horiz-adv-x="556" 
d="M508 254h-374q-3 -22 -3 -43q0 -70 35 -111t103 -41q82 0 140 81l72 -30q-30 -57 -89 -91t-130 -34q-105 0 -163.5 59t-58.5 161q0 85 33 162.5t99.5 129.5t151.5 52q119 0 167.5 -85.5t16.5 -209.5zM316 475q-55 0 -98 -42.5t-67 -107.5h279q8 69 -21.5 109.5
t-92.5 40.5zM215 653l22 105h99l-22 -105h-99zM424 653l22 105h99l-22 -105h-99z" />
    <glyph glyph-name="igrave" unicode="&#xec;" horiz-adv-x="261" 
d="M30 0l109 535h92l-109 -535h-92zM155 632l-122 176h123l86 -176h-87z" />
    <glyph glyph-name="iacute" unicode="&#xed;" horiz-adv-x="261" 
d="M30 0l109 535h92l-109 -535h-92zM159 632l145 176h136l-186 -176h-95z" />
    <glyph glyph-name="icircumflex" unicode="&#xee;" horiz-adv-x="261" 
d="M30 0l109 535h92l-109 -535h-92zM60 618l22 99l162 110l112 -117l-19 -90l-107 110z" />
    <glyph glyph-name="idieresis" unicode="&#xef;" horiz-adv-x="261" 
d="M30 0l109 535h92l-109 -535h-92zM75 653l22 105h99l-22 -105h-99zM246 653l22 105h99l-22 -105h-99z" />
    <glyph glyph-name="eth" unicode="&#xf0;" horiz-adv-x="596" 
d="M205 733l23 74q131 -18 212 -86l92 41l22 -52l-74 -33q71 -95 71 -285q0 -72 -16 -140.5t-49 -130t-92 -99t-137 -37.5q-101 0 -159 60t-58 162q0 82 33.5 159.5t99.5 130t148 52.5q93 0 140 -59q-9 92 -61 152l-125 -54l-21 49l101 45q-60 42 -150 51zM264 59
q55 0 99 42.5t66 101t22 115.5q0 70 -32.5 113.5t-96.5 43.5q-80 0 -133.5 -85t-53.5 -177q0 -70 32.5 -112t96.5 -42z" />
    <glyph glyph-name="ntilde" unicode="&#xf1;" horiz-adv-x="594" 
d="M30 0l110 535h87l-19 -95q27 42 73 75.5t104 33.5q79 0 116.5 -43t37.5 -115q0 -34 -9 -81l-64 -310h-91l65 319q6 34 6 56q0 95 -86 95q-66 0 -122 -64q-43 -49 -71 -184l-45 -222h-92zM253 639l-50 6q3 17 9.5 34t19.5 38.5t37 34.5t56 13q36 0 80.5 -26t72.5 -26
q46 0 57 55l50 -5q-3 -16 -10 -34t-20.5 -38.5t-38 -34t-56.5 -13.5q-33 0 -78.5 26t-72.5 26q-20 0 -35.5 -16t-20.5 -40z" />
    <glyph glyph-name="ograve" unicode="&#xf2;" horiz-adv-x="586" 
d="M257 -15q-101 0 -159 60t-58 162q0 83 33.5 160t102 129.5t155.5 52.5q100 0 157.5 -60.5t57.5 -161.5q0 -83 -33 -160t-101 -129.5t-155 -52.5zM264 59q55 0 99 42.5t66 101t22 115.5q0 70 -32.5 113.5t-96.5 43.5q-80 0 -133.5 -85t-53.5 -177q0 -70 32.5 -112
t96.5 -42zM315 632l-157 176h133l116 -176h-92z" />
    <glyph glyph-name="oacute" unicode="&#xf3;" horiz-adv-x="586" 
d="M257 -15q-101 0 -159 60t-58 162q0 83 33.5 160t102 129.5t155.5 52.5q100 0 157.5 -60.5t57.5 -161.5q0 -83 -33 -160t-101 -129.5t-155 -52.5zM264 59q55 0 99 42.5t66 101t22 115.5q0 70 -32.5 113.5t-96.5 43.5q-80 0 -133.5 -85t-53.5 -177q0 -70 32.5 -112
t96.5 -42zM269 632l185 176h146l-231 -176h-100z" />
    <glyph glyph-name="ocircumflex" unicode="&#xf4;" horiz-adv-x="586" 
d="M257 -15q-101 0 -159 60t-58 162q0 83 33.5 160t102 129.5t155.5 52.5q100 0 157.5 -60.5t57.5 -161.5q0 -83 -33 -160t-101 -129.5t-155 -52.5zM264 59q55 0 99 42.5t66 101t22 115.5q0 70 -32.5 113.5t-96.5 43.5q-80 0 -133.5 -85t-53.5 -177q0 -70 32.5 -112
t96.5 -42zM188 623l22 94l193 110l141 -117l-19 -85l-136 110z" />
    <glyph glyph-name="otilde" unicode="&#xf5;" horiz-adv-x="586" 
d="M257 -15q-101 0 -159 60t-58 162q0 83 33.5 160t102 129.5t155.5 52.5q100 0 157.5 -60.5t57.5 -161.5q0 -83 -33 -160t-101 -129.5t-155 -52.5zM264 59q55 0 99 42.5t66 101t22 115.5q0 70 -32.5 113.5t-96.5 43.5q-80 0 -133.5 -85t-53.5 -177q0 -70 32.5 -112
t96.5 -42zM242 639l-50 6q3 17 9.5 34t19.5 38.5t37 34.5t56 13q36 0 80.5 -26t72.5 -26q46 0 57 55l50 -5q-3 -16 -10 -34t-20.5 -38.5t-38 -34t-56.5 -13.5q-33 0 -78.5 26t-72.5 26q-20 0 -35.5 -16t-20.5 -40z" />
    <glyph glyph-name="odieresis" unicode="&#xf6;" horiz-adv-x="586" 
d="M257 -15q-101 0 -159 60t-58 162q0 83 33.5 160t102 129.5t155.5 52.5q100 0 157.5 -60.5t57.5 -161.5q0 -83 -33 -160t-101 -129.5t-155 -52.5zM264 59q55 0 99 42.5t66 101t22 115.5q0 70 -32.5 113.5t-96.5 43.5q-80 0 -133.5 -85t-53.5 -177q0 -70 32.5 -112
t96.5 -42zM221 653l22 105h99l-22 -105h-99zM430 653l22 105h99l-22 -105h-99z" />
    <glyph glyph-name="divide" unicode="&#xf7;" horiz-adv-x="485" 
d="M30 286l16 75h420l-16 -75h-420zM226 438l20 97h97l-20 -97h-97zM159 122l20 97h97l-20 -97h-97z" />
    <glyph glyph-name="oslash" unicode="&#xf8;" horiz-adv-x="586" 
d="M257 -15q-79 0 -134 38l-60 -68l-57 42l68 77q-34 56 -34 133q0 83 33.5 160t102 129.5t155.5 52.5q77 0 129 -37l62 70l54 -44l-67 -76q37 -56 37 -135q0 -83 -33 -160t-101 -129.5t-155 -52.5zM264 59q55 0 99 42.5t66 101t22 115.5q0 37 -9 67l-262 -297
q31 -29 84 -29zM135 213q0 -32 8 -61l260 295q-31 28 -81 28q-80 0 -133.5 -85t-53.5 -177z" />
    <glyph glyph-name="ugrave" unicode="&#xf9;" horiz-adv-x="586" 
d="M64 217l66 318h91l-65 -319q-6 -34 -6 -56q0 -95 81 -95q61 0 117 64q43 49 71 184l45 222h92l-110 -535h-87l19 95q-26 -41 -72.5 -75t-99.5 -34q-75 0 -112.5 40.5t-37.5 109.5q0 39 8 81zM310 632l-157 176h133l116 -176h-92z" />
    <glyph glyph-name="uacute" unicode="&#xfa;" horiz-adv-x="586" 
d="M64 217l66 318h91l-65 -319q-6 -34 -6 -56q0 -95 81 -95q61 0 117 64q43 49 71 184l45 222h92l-110 -535h-87l19 95q-26 -41 -72.5 -75t-99.5 -34q-75 0 -112.5 40.5t-37.5 109.5q0 39 8 81zM276 632l185 176h146l-231 -176h-100z" />
    <glyph glyph-name="ucircumflex" unicode="&#xfb;" horiz-adv-x="586" 
d="M64 217l66 318h91l-65 -319q-6 -34 -6 -56q0 -95 81 -95q61 0 117 64q43 49 71 184l45 222h92l-110 -535h-87l19 95q-26 -41 -72.5 -75t-99.5 -34q-75 0 -112.5 40.5t-37.5 109.5q0 39 8 81zM193 623l22 94l193 110l141 -117l-19 -85l-136 110z" />
    <glyph glyph-name="udieresis" unicode="&#xfc;" horiz-adv-x="586" 
d="M64 217l66 318h91l-65 -319q-6 -34 -6 -56q0 -95 81 -95q61 0 117 64q43 49 71 184l45 222h92l-110 -535h-87l19 95q-26 -41 -72.5 -75t-99.5 -34q-75 0 -112.5 40.5t-37.5 109.5q0 39 8 81zM216 653l22 105h99l-22 -105h-99zM425 653l22 105h99l-22 -105h-99z" />
    <glyph glyph-name="yacute" unicode="&#xfd;" horiz-adv-x="487" 
d="M10 -222l126 222l-76 535h94l51 -425l222 425h95l-291 -535l-123 -222h-98zM240 632l185 176h146l-231 -176h-100z" />
    <glyph glyph-name="thorn" unicode="&#xfe;" horiz-adv-x="601" 
d="M74 -222h-90l206 1000h90l-70 -330q23 43 68.5 72t100.5 29q89 0 135.5 -59t46.5 -161q0 -60 -18 -120t-51 -110.5t-86.5 -82t-118.5 -31.5q-109 0 -149 104zM285 61q55 0 97.5 42.5t63 100.5t20.5 116q0 153 -119 153q-80 0 -131.5 -85t-51.5 -177q0 -150 121 -150z" />
    <glyph glyph-name="ydieresis" unicode="&#xff;" horiz-adv-x="487" 
d="M10 -222l126 222l-76 535h94l51 -425l222 425h95l-291 -535l-123 -222h-98zM167 653l22 105h99l-22 -105h-99zM376 653l22 105h99l-22 -105h-99z" />
    <glyph glyph-name="Amacron" unicode="&#x100;" horiz-adv-x="687" 
d="M-50 0l449 755h105l118 -755h-101l-30 218h-310l-123 -218h-108zM430 657l-208 -367h259zM275 826l15 75h382l-15 -75h-382z" />
    <glyph glyph-name="amacron" unicode="&#x101;" horiz-adv-x="558" 
d="M345 0l12 77q-71 -87 -176 -87q-67 0 -114 36.5t-47 106.5q0 65 39.5 109t95 61t121.5 17q74 0 128 -8q9 42 9 61q0 101 -105 101q-25 0 -47 -8t-35.5 -20t-23.5 -24t-14 -20l-4 -8l-79 31q29 60 84.5 92t125.5 32q117 0 163 -66q25 -36 25 -91q0 -39 -8 -72l-43 -200
q-6 -28 -10.5 -58t-5.5 -46l-1 -16h-90zM388 239l1 6q-32 4 -110 4q-71 0 -118.5 -25.5t-47.5 -81.5q0 -36 25.5 -58t65.5 -22q79 0 125.5 54t58.5 123zM178 680l15 75h362l-15 -75h-362z" />
    <glyph glyph-name="Abreve" unicode="&#x102;" horiz-adv-x="687" 
d="M-50 0l449 755h105l118 -755h-101l-30 218h-310l-123 -218h-108zM430 657l-208 -367h259zM301 960l63 14q-1 -39 28 -62.5t74 -23.5q47 0 84 22.5t52 65.5l59 -16q-36 -142 -200 -142q-70 0 -118 34.5t-42 107.5z" />
    <glyph glyph-name="abreve" unicode="&#x103;" horiz-adv-x="558" 
d="M345 0l12 77q-71 -87 -176 -87q-67 0 -114 36.5t-47 106.5q0 65 39.5 109t95 61t121.5 17q74 0 128 -8q9 42 9 61q0 101 -105 101q-25 0 -47 -8t-35.5 -20t-23.5 -24t-14 -20l-4 -8l-79 31q29 60 84.5 92t125.5 32q117 0 163 -66q25 -36 25 -91q0 -39 -8 -72l-43 -200
q-6 -28 -10.5 -58t-5.5 -46l-1 -16h-90zM388 239l1 6q-32 4 -110 4q-71 0 -118.5 -25.5t-47.5 -81.5q0 -36 25.5 -58t65.5 -22q79 0 125.5 54t58.5 123zM195 799l63 14q-1 -42 26 -69t76 -27q48 0 84 26.5t52 71.5l59 -16q-19 -77 -72 -114.5t-128 -37.5q-71 0 -118.5 39
t-41.5 113z" />
    <glyph glyph-name="Aogonek" unicode="&#x104;" horiz-adv-x="687" 
d="M560 -160l21 -51q-33 -21 -77 -21q-47 0 -81.5 24t-34.5 66q0 83 145 142h-12l-30 218h-310l-123 -218h-108l449 755h105l118 -755q-81 -34 -117 -63t-36 -65q0 -20 15 -30t37 -10q21 0 39 8zM430 657l-208 -367h259z" />
    <glyph glyph-name="aogonek" unicode="&#x105;" horiz-adv-x="558" 
d="M345 0l12 77q-71 -87 -176 -87q-67 0 -114 36.5t-47 106.5q0 65 39.5 109t95 61t121.5 17q74 0 128 -8q9 42 9 61q0 101 -105 101q-25 0 -47 -8t-35.5 -20t-23.5 -24t-14 -20l-4 -8l-79 31q29 60 84.5 92t125.5 32q117 0 163 -66q25 -36 25 -91q0 -39 -8 -72l-43 -200
q-6 -28 -10.5 -58t-5.5 -46l-1 -16q-81 -34 -117 -63t-36 -65q0 -20 15 -30t37 -10q21 0 39 8l21 -51q-33 -21 -77 -21q-47 0 -81.5 24t-34.5 66q0 83 145 142h-1zM388 239l1 6q-32 4 -110 4q-71 0 -118.5 -25.5t-47.5 -81.5q0 -36 25.5 -58t65.5 -22q79 0 125.5 54
t58.5 123z" />
    <glyph glyph-name="Cacute" unicode="&#x106;" horiz-adv-x="715" 
d="M580 214l80 -37q-40 -87 -121 -139.5t-182 -52.5q-133 0 -207.5 80.5t-74.5 223.5q0 82 26 164.5t73.5 153t123.5 114.5t166 44q106 0 173.5 -53.5t87.5 -146.5l-89 -32q-14 67 -58.5 109t-121.5 42q-64 0 -118.5 -37.5t-89 -95.5t-53.5 -125t-19 -130q0 -101 46.5 -164
t142.5 -63q69 0 124 39.5t91 105.5zM361 826l200 141h161l-241 -141h-120z" />
    <glyph glyph-name="cacute" unicode="&#x107;" horiz-adv-x="514" 
d="M384 139l72 -33q-30 -57 -83.5 -89t-120.5 -32q-103 0 -157.5 58.5t-54.5 161.5q0 82 35 160t104 131t154 53q146 0 186 -131l-84 -35q-11 44 -37 67t-74 23q-77 0 -133.5 -86t-56.5 -176q0 -148 125 -148q71 0 125 76zM259 632l185 176h146l-231 -176h-100z" />
    <glyph glyph-name="Ccircumflex" unicode="&#x108;" horiz-adv-x="715" 
d="M580 214l80 -37q-40 -87 -121 -139.5t-182 -52.5q-133 0 -207.5 80.5t-74.5 223.5q0 82 26 164.5t73.5 153t123.5 114.5t166 44q106 0 173.5 -53.5t87.5 -146.5l-89 -32q-14 67 -58.5 109t-121.5 42q-64 0 -118.5 -37.5t-89 -95.5t-53.5 -125t-19 -130q0 -101 46.5 -164
t142.5 -63q69 0 124 39.5t91 105.5zM322 801l22 94l186 84l148 -91l-19 -85l-143 84z" />
    <glyph glyph-name="ccircumflex" unicode="&#x109;" horiz-adv-x="514" 
d="M384 139l72 -33q-30 -57 -83.5 -89t-120.5 -32q-103 0 -157.5 58.5t-54.5 161.5q0 82 35 160t104 131t154 53q146 0 186 -131l-84 -35q-11 44 -37 67t-74 23q-77 0 -133.5 -86t-56.5 -176q0 -148 125 -148q71 0 125 76zM194 623l22 94l193 110l141 -117l-19 -85l-136 110
z" />
    <glyph glyph-name="Cdotaccent" unicode="&#x10a;" horiz-adv-x="715" 
d="M580 214l80 -37q-40 -87 -121 -139.5t-182 -52.5q-133 0 -207.5 80.5t-74.5 223.5q0 82 26 164.5t73.5 153t123.5 114.5t166 44q106 0 173.5 -53.5t87.5 -146.5l-89 -32q-14 67 -58.5 109t-121.5 42q-64 0 -118.5 -37.5t-89 -95.5t-53.5 -125t-19 -130q0 -101 46.5 -164
t142.5 -63q69 0 124 39.5t91 105.5zM442 821l21 102h96l-21 -102h-96z" />
    <glyph glyph-name="cdotaccent" unicode="&#x10b;" horiz-adv-x="514" 
d="M384 139l72 -33q-30 -57 -83.5 -89t-120.5 -32q-103 0 -157.5 58.5t-54.5 161.5q0 82 35 160t104 131t154 53q146 0 186 -131l-84 -35q-11 44 -37 67t-74 23q-77 0 -133.5 -86t-56.5 -176q0 -148 125 -148q71 0 125 76zM317 653l21 102h96l-21 -102h-96z" />
    <glyph glyph-name="Ccaron" unicode="&#x10c;" horiz-adv-x="715" 
d="M580 214l80 -37q-40 -87 -121 -139.5t-182 -52.5q-133 0 -207.5 80.5t-74.5 223.5q0 82 26 164.5t73.5 153t123.5 114.5t166 44q106 0 173.5 -53.5t87.5 -146.5l-89 -32q-14 67 -58.5 109t-121.5 42q-64 0 -118.5 -37.5t-89 -95.5t-53.5 -125t-19 -130q0 -101 46.5 -164
t142.5 -63q69 0 124 39.5t91 105.5zM330 914l19 85l141 -105l196 112l-22 -94l-188 -110z" />
    <glyph glyph-name="ccaron" unicode="&#x10d;" horiz-adv-x="514" 
d="M384 139l72 -33q-30 -57 -83.5 -89t-120.5 -32q-103 0 -157.5 58.5t-54.5 161.5q0 82 35 160t104 131t154 53q146 0 186 -131l-84 -35q-11 44 -37 67t-74 23q-77 0 -133.5 -86t-56.5 -176q0 -148 125 -148q71 0 125 76zM220 735l19 85l141 -105l196 112l-22 -94
l-188 -110z" />
    <glyph glyph-name="Dcaron" unicode="&#x10e;" horiz-adv-x="760" 
d="M35 0l156 755q104 2 194 2q108 0 180 -30q77 -33 116 -104t39 -169q0 -218 -126.5 -337.5t-324.5 -119.5q-141 0 -234 3zM271 678l-123 -600q52 -3 125 -3q147 0 246 96t99 278q0 159 -110 208q-52 23 -133 23q-44 0 -104 -2zM307 914l19 85l141 -105l196 112l-22 -94
l-188 -110z" />
    <glyph glyph-name="dcaron" unicode="&#x10f;" horiz-adv-x="597" 
d="M376 0l18 88q-22 -39 -69 -70.5t-96 -31.5q-91 0 -140 58.5t-49 161.5q0 84 33.5 162.5t98.5 130t145 51.5q109 0 149 -106l66 334h90l-159 -778h-87zM254 62q80 0 131.5 85t51.5 177q0 150 -121 150q-52 0 -95 -42.5t-64.5 -101t-21.5 -115.5q0 -153 119 -153zM644 591
l84 187h112l-124 -187h-72z" />
    <glyph glyph-name="Dcroat" unicode="&#x110;" horiz-adv-x="777" 
d="M17 363l16 75h109l66 317q104 2 194 2q108 0 180 -30q77 -33 116 -104t39 -169q0 -218 -126.5 -337.5t-324.5 -119.5q-141 0 -234 3l75 363h-110zM288 678l-49 -240h116l-16 -75h-116l-58 -285q53 -3 125 -3q147 0 246 96t99 278q0 159 -110 208q-52 23 -133 23
q-44 0 -104 -2z" />
    <glyph glyph-name="dcroat" unicode="&#x111;" horiz-adv-x="597" 
d="M334 643l15 72h170l13 63h90l-13 -63h77l-15 -72h-77l-131 -643h-87l18 88q-22 -39 -69 -70.5t-96 -31.5q-91 0 -140 58.5t-49 161.5q0 84 33.5 162.5t98.5 130t145 51.5q109 0 149 -106l39 199h-171zM254 62q80 0 131.5 85t51.5 177q0 150 -121 150q-52 0 -95 -42.5
t-64.5 -101t-21.5 -115.5q0 -153 119 -153z" />
    <glyph glyph-name="Emacron" unicode="&#x112;" horiz-adv-x="579" 
d="M35 0l155 755h434l-18 -81l-338 1l-52 -252h289l-18 -78h-287l-54 -264l349 2l-18 -83h-442zM221 826l15 75h382l-15 -75h-382z" />
    <glyph glyph-name="emacron" unicode="&#x113;" horiz-adv-x="556" 
d="M508 254h-374q-3 -22 -3 -43q0 -70 35 -111t103 -41q82 0 140 81l72 -30q-30 -57 -89 -91t-130 -34q-105 0 -163.5 59t-58.5 161q0 85 33 162.5t99.5 129.5t151.5 52q119 0 167.5 -85.5t16.5 -209.5zM316 475q-55 0 -98 -42.5t-67 -107.5h279q8 69 -21.5 109.5
t-92.5 40.5zM181 680l15 75h362l-15 -75h-362z" />
    <glyph glyph-name="Ebreve" unicode="&#x114;" horiz-adv-x="579" 
d="M35 0l155 755h434l-18 -81l-338 1l-52 -252h289l-18 -78h-287l-54 -264l349 2l-18 -83h-442zM263 960l63 14q-1 -39 28 -62.5t74 -23.5q47 0 84 22.5t52 65.5l59 -16q-36 -142 -200 -142q-70 0 -118 34.5t-42 107.5z" />
    <glyph glyph-name="ebreve" unicode="&#x115;" horiz-adv-x="556" 
d="M508 254h-374q-3 -22 -3 -43q0 -70 35 -111t103 -41q82 0 140 81l72 -30q-30 -57 -89 -91t-130 -34q-105 0 -163.5 59t-58.5 161q0 85 33 162.5t99.5 129.5t151.5 52q119 0 167.5 -85.5t16.5 -209.5zM316 475q-55 0 -98 -42.5t-67 -107.5h279q8 69 -21.5 109.5
t-92.5 40.5zM196 799l63 14q-1 -42 26 -69t76 -27q48 0 84 26.5t52 71.5l59 -16q-19 -77 -72 -114.5t-128 -37.5q-71 0 -118.5 39t-41.5 113z" />
    <glyph glyph-name="Edotaccent" unicode="&#x116;" horiz-adv-x="579" 
d="M35 0l155 755h434l-18 -81l-338 1l-52 -252h289l-18 -78h-287l-54 -264l349 2l-18 -83h-442zM370 821l21 102h96l-21 -102h-96z" />
    <glyph glyph-name="edotaccent" unicode="&#x117;" horiz-adv-x="556" 
d="M508 254h-374q-3 -22 -3 -43q0 -70 35 -111t103 -41q82 0 140 81l72 -30q-30 -57 -89 -91t-130 -34q-105 0 -163.5 59t-58.5 161q0 85 33 162.5t99.5 129.5t151.5 52q119 0 167.5 -85.5t16.5 -209.5zM316 475q-55 0 -98 -42.5t-67 -107.5h279q8 69 -21.5 109.5
t-92.5 40.5zM312 653l21 102h96l-21 -102h-96z" />
    <glyph glyph-name="Eogonek" unicode="&#x118;" horiz-adv-x="579" 
d="M35 0l155 755h434l-18 -81l-338 1l-52 -252h289l-18 -78h-287l-54 -264l349 2l-18 -83q-81 -34 -117 -63t-36 -65q0 -20 15 -30t37 -10q21 0 39 8l21 -51q-33 -21 -77 -21q-47 0 -81.5 24t-34.5 66q0 83 145 142h-353z" />
    <glyph glyph-name="eogonek" unicode="&#x119;" horiz-adv-x="556" 
d="M287 -160l21 -51q-33 -21 -77 -21q-47 0 -81.5 24t-34.5 66q0 74 114 129q-90 9 -139.5 66.5t-49.5 151.5q0 85 33 162.5t99.5 129.5t151.5 52q119 0 167.5 -85.5t16.5 -209.5h-374q-3 -22 -3 -43q0 -70 35 -111t103 -41q82 0 140 81l72 -30q-44 -81 -136 -111
q-79 -35 -114 -63t-35 -64q0 -20 15 -30t37 -10q21 0 39 8zM316 475q-55 0 -98 -42.5t-67 -107.5h279q8 69 -21.5 109.5t-92.5 40.5z" />
    <glyph glyph-name="Ecaron" unicode="&#x11a;" horiz-adv-x="579" 
d="M35 0l155 755h434l-18 -81l-338 1l-52 -252h289l-18 -78h-287l-54 -264l349 2l-18 -83h-442zM263 914l19 85l141 -105l196 112l-22 -94l-188 -110z" />
    <glyph glyph-name="ecaron" unicode="&#x11b;" horiz-adv-x="556" 
d="M508 254h-374q-3 -22 -3 -43q0 -70 35 -111t103 -41q82 0 140 81l72 -30q-30 -57 -89 -91t-130 -34q-105 0 -163.5 59t-58.5 161q0 85 33 162.5t99.5 129.5t151.5 52q119 0 167.5 -85.5t16.5 -209.5zM316 475q-55 0 -98 -42.5t-67 -107.5h279q8 69 -21.5 109.5
t-92.5 40.5zM204 735l19 85l141 -105l196 112l-22 -94l-188 -110z" />
    <glyph glyph-name="Gcircumflex" unicode="&#x11c;" horiz-adv-x="785" 
d="M557 0l15 101q-34 -50 -92.5 -83t-122.5 -33q-133 0 -207.5 81.5t-74.5 222.5q0 82 26 164.5t73.5 153t123.5 114.5t166 44q106 0 173.5 -53.5t87.5 -146.5l-88 -32q-36 151 -181 151q-64 0 -118.5 -37.5t-89 -95.5t-53.5 -125t-19 -130q0 -101 45 -164t141 -63
q95 0 165.5 70t83.5 161h-162l16 75h249l-76 -375h-81zM316 801l22 94l186 84l148 -91l-19 -85l-143 84z" />
    <glyph glyph-name="gcircumflex" unicode="&#x11d;" horiz-adv-x="603" 
d="M-19 -94l86 26q27 -90 141 -90q45 0 80.5 22t55.5 59q28 52 53 174q-22 -39 -69 -70t-96 -31q-91 0 -140 58.5t-49 161.5q0 82 33 157.5t97.5 126t144.5 50.5q109 0 149 -106l19 91h87l-101 -504q-12 -60 -31 -104.5t-50 -82t-80 -57t-114 -19.5q-85 0 -141 34.5
t-75 103.5zM257 72q53 0 96 40.5t64 97.5t21 114q0 150 -121 150q-52 0 -94.5 -41t-63.5 -97t-21 -111q0 -153 119 -153zM192 623l22 94l193 110l141 -117l-19 -85l-136 110z" />
    <glyph glyph-name="Gbreve" unicode="&#x11e;" horiz-adv-x="785" 
d="M557 0l15 101q-34 -50 -92.5 -83t-122.5 -33q-133 0 -207.5 81.5t-74.5 222.5q0 82 26 164.5t73.5 153t123.5 114.5t166 44q106 0 173.5 -53.5t87.5 -146.5l-88 -32q-36 151 -181 151q-64 0 -118.5 -37.5t-89 -95.5t-53.5 -125t-19 -130q0 -101 45 -164t141 -63
q95 0 165.5 70t83.5 161h-162l16 75h249l-76 -375h-81zM314 960l63 14q-1 -39 28 -62.5t74 -23.5q47 0 84 22.5t52 65.5l59 -16q-36 -142 -200 -142q-70 0 -118 34.5t-42 107.5z" />
    <glyph glyph-name="gbreve" unicode="&#x11f;" horiz-adv-x="603" 
d="M-19 -94l86 26q27 -90 141 -90q45 0 80.5 22t55.5 59q28 52 53 174q-22 -39 -69 -70t-96 -31q-91 0 -140 58.5t-49 161.5q0 82 33 157.5t97.5 126t144.5 50.5q109 0 149 -106l19 91h87l-101 -504q-12 -60 -31 -104.5t-50 -82t-80 -57t-114 -19.5q-85 0 -141 34.5
t-75 103.5zM257 72q53 0 96 40.5t64 97.5t21 114q0 150 -121 150q-52 0 -94.5 -41t-63.5 -97t-21 -111q0 -153 119 -153zM209 799l63 14q-1 -42 26 -69t76 -27q48 0 84 26.5t52 71.5l59 -16q-19 -77 -72 -114.5t-128 -37.5q-71 0 -118.5 39t-41.5 113z" />
    <glyph glyph-name="Gdotaccent" unicode="&#x120;" horiz-adv-x="785" 
d="M557 0l15 101q-34 -50 -92.5 -83t-122.5 -33q-133 0 -207.5 81.5t-74.5 222.5q0 82 26 164.5t73.5 153t123.5 114.5t166 44q106 0 173.5 -53.5t87.5 -146.5l-88 -32q-36 151 -181 151q-64 0 -118.5 -37.5t-89 -95.5t-53.5 -125t-19 -130q0 -101 45 -164t141 -63
q95 0 165.5 70t83.5 161h-162l16 75h249l-76 -375h-81zM429 821l21 102h96l-21 -102h-96z" />
    <glyph glyph-name="gdotaccent" unicode="&#x121;" horiz-adv-x="603" 
d="M-19 -94l86 26q27 -90 141 -90q45 0 80.5 22t55.5 59q28 52 53 174q-22 -39 -69 -70t-96 -31q-91 0 -140 58.5t-49 161.5q0 82 33 157.5t97.5 126t144.5 50.5q109 0 149 -106l19 91h87l-101 -504q-12 -60 -31 -104.5t-50 -82t-80 -57t-114 -19.5q-85 0 -141 34.5
t-75 103.5zM257 72q53 0 96 40.5t64 97.5t21 114q0 150 -121 150q-52 0 -94.5 -41t-63.5 -97t-21 -111q0 -153 119 -153zM312 653l21 102h96l-21 -102h-96z" />
    <glyph glyph-name="Gcommaaccent" unicode="&#x122;" horiz-adv-x="785" 
d="M557 0l15 101q-34 -50 -92.5 -83t-122.5 -33q-133 0 -207.5 81.5t-74.5 222.5q0 82 26 164.5t73.5 153t123.5 114.5t166 44q106 0 173.5 -53.5t87.5 -146.5l-88 -32q-36 151 -181 151q-64 0 -118.5 -37.5t-89 -95.5t-53.5 -125t-19 -130q0 -101 45 -164t141 -63
q95 0 165.5 70t83.5 161h-162l16 75h249l-76 -375h-81zM307 -225l-33 23q38 36 47 80h-28l17 77h83l-16 -72q-14 -65 -70 -108z" />
    <glyph glyph-name="gcommaaccent" unicode="&#x123;" horiz-adv-x="603" 
d="M-19 -94l86 26q27 -90 141 -90q45 0 80.5 22t55.5 59q28 52 53 174q-22 -39 -69 -70t-96 -31q-91 0 -140 58.5t-49 161.5q0 82 33 157.5t97.5 126t144.5 50.5q109 0 149 -106l19 91h87l-101 -504q-12 -60 -31 -104.5t-50 -82t-80 -57t-114 -19.5q-85 0 -141 34.5
t-75 103.5zM257 72q53 0 96 40.5t64 97.5t21 114q0 150 -121 150q-52 0 -94.5 -41t-63.5 -97t-21 -111q0 -153 119 -153zM324 643l16 72q14 61 70 105l30 -20q-40 -38 -49 -80h28l-17 -77h-78z" />
    <glyph glyph-name="Hcircumflex" unicode="&#x124;" horiz-adv-x="742" 
d="M35 0l154 755h96l-64 -313h371l64 313h91l-154 -755h-92l74 360h-371l-73 -360h-96zM307 801l22 94l186 84l148 -91l-19 -85l-143 84z" />
    <glyph glyph-name="hcircumflex" unicode="&#x125;" horiz-adv-x="594" 
d="M294 634l22 93l158 100l116 -102l-19 -84l-111 95zM30 0l160 778h90l-72 -338q27 42 73 75.5t104 33.5q79 0 116.5 -43t37.5 -115q0 -34 -9 -81l-64 -310h-91l65 319q6 34 6 56q0 95 -86 95q-66 0 -122 -64q-43 -49 -71 -184l-45 -222h-92z" />
    <glyph glyph-name="Hbar" unicode="&#x126;" horiz-adv-x="742" 
d="M93 528l15 72h49l32 155h96l-32 -155h371l32 155h91l-32 -155h51l-15 -72h-50l-108 -528h-92l74 360h-371l-73 -360h-96l107 528h-49zM239 528l-18 -86h371l17 86h-370z" />
    <glyph glyph-name="hbar" unicode="&#x127;" horiz-adv-x="594" 
d="M80 643l15 72h82l13 63h90l-14 -63h166l-15 -72h-166l-43 -203q27 42 73 75.5t104 33.5q79 0 116.5 -43t37.5 -115q0 -34 -9 -81l-64 -310h-91l65 319q6 34 6 56q0 95 -86 95q-66 0 -122 -64q-43 -49 -71 -184l-45 -222h-92l132 643h-82z" />
    <glyph glyph-name="Itilde" unicode="&#x128;" horiz-adv-x="282" 
d="M35 0l155 755h97l-155 -755h-97zM151 850l-47 6q6 44 31.5 81t72.5 37q33 0 77 -26t61 -26q35 0 47 57l47 -5q-6 -43 -33 -80.5t-74 -37.5q-29 0 -74.5 26t-61.5 26q-17 0 -29 -16.5t-17 -41.5z" />
    <glyph glyph-name="itilde" unicode="&#x129;" horiz-adv-x="261" 
d="M30 0l109 535h92l-109 -535h-92zM99 639l-47 6q6 44 31.5 81t72.5 37q33 0 77 -26t61 -26q35 0 47 57l47 -5q-6 -43 -33 -80.5t-74 -37.5q-29 0 -74.5 26t-61.5 26q-17 0 -29 -16.5t-17 -41.5z" />
    <glyph glyph-name="Imacron" unicode="&#x12a;" horiz-adv-x="282" 
d="M35 0l155 755h97l-155 -755h-97zM93 826l15 75h322l-15 -75h-322z" />
    <glyph glyph-name="imacron" unicode="&#x12b;" horiz-adv-x="261" 
d="M30 0l109 535h92l-109 -535h-92zM56 680l15 75h322l-15 -75h-322z" />
    <glyph glyph-name="Ibreve" unicode="&#x12c;" horiz-adv-x="282" 
d="M35 0l155 755h97l-155 -755h-97zM115 960l68 15q-5 -42 14.5 -65.5t62.5 -23.5q44 0 77 22t44 67l54 -15q-16 -71 -63 -106.5t-117 -35.5q-68 0 -109 38.5t-31 103.5z" />
    <glyph glyph-name="ibreve" unicode="&#x12d;" horiz-adv-x="261" 
d="M30 0l109 535h92l-109 -535h-92zM82 799l68 15q-11 -99 67 -99q86 0 111 99l54 -15q-34 -152 -170 -152q-65 0 -102.5 42.5t-27.5 109.5z" />
    <glyph glyph-name="Iogonek" unicode="&#x12e;" horiz-adv-x="282" 
d="M35 0l155 755h97l-155 -755q-81 -34 -117 -63t-36 -65q0 -20 15 -30t37 -10q21 0 39 8l21 -51q-33 -21 -77 -21q-47 0 -81.5 24t-34.5 66q0 83 145 142h-8z" />
    <glyph glyph-name="iogonek" unicode="&#x12f;" horiz-adv-x="262" 
d="M30 0l109 535h92l-109 -535h1q-81 -34 -117 -63t-36 -65q0 -20 15 -30t37 -10q21 0 39 8l21 -51q-33 -21 -77 -21q-47 0 -81.5 24t-34.5 66q0 83 145 142h-4zM161 653l21 102h96l-21 -102h-96z" />
    <glyph glyph-name="Idotaccent" unicode="&#x130;" horiz-adv-x="282" 
d="M35 0l155 755h97l-155 -755h-97zM204 821l21 102h96l-21 -102h-96z" />
    <glyph glyph-name="dotlessi" unicode="&#x131;" horiz-adv-x="261" 
d="M30 0l109 535h92l-109 -535h-92z" />
    <glyph glyph-name="IJ" unicode="&#x132;" horiz-adv-x="849" 
d="M35 0l155 755h97l-155 -755h-97zM272 203l92 6q-23 -143 110 -143q92 0 142 80q26 42 41 120l101 489h96l-105 -510q-29 -142 -101 -201t-188 -59q-104 0 -155 59t-33 159z" />
    <glyph glyph-name="ij" unicode="&#x133;" horiz-adv-x="518" 
d="M30 0l109 535h92l-109 -535h-92zM161 653l21 102h96l-21 -102h-96zM126 -207l20 73q26 -12 51 -12q39 0 58 29.5t29 80.5l111 571h90l-117 -599q-32 -161 -163 -161q-49 0 -79 18zM416 653l21 102h96l-21 -102h-96z" />
    <glyph glyph-name="Jcircumflex" unicode="&#x134;" horiz-adv-x="617" 
d="M40 203l92 6q-23 -143 110 -143q92 0 142 80q26 42 41 120l101 489h96l-105 -510q-29 -142 -101 -201t-188 -59q-104 0 -155 59t-33 159zM438 805l22 94l162 80l112 -82l-19 -90l-107 80z" />
    <glyph glyph-name="jcircumflex" unicode="&#x135;" horiz-adv-x="267" 
d="M-125 -207l20 73q25 -12 51 -12q39 0 58 29.5t29 80.5l111 571h90l-117 -599q-32 -161 -163 -161q-49 0 -79 18zM36 623l22 94l193 110l141 -117l-19 -85l-136 110z" />
    <glyph glyph-name="Kcommaaccent" unicode="&#x136;" horiz-adv-x="685" 
d="M35 0l155 755h96l-73 -354l407 354h125l-347 -298l226 -457h-110l-189 395l-137 -118l-57 -277h-96zM257 -225l-33 23q38 36 47 80h-28l17 77h83l-16 -72q-14 -65 -70 -108z" />
    <glyph glyph-name="kcommaaccent" unicode="&#x137;" horiz-adv-x="517" 
d="M30 0l160 778h89l-100 -484l257 241h116l-222 -203l138 -332h-100l-105 271l-109 -98l-35 -173h-89zM200 -225l-33 23q38 36 47 80h-28l17 77h83l-16 -72q-14 -65 -70 -108z" />
    <glyph glyph-name="kgreenlandic" unicode="&#x138;" horiz-adv-x="518" 
d="M30 0l109 535h90l-52 -253l260 253h116l-220 -208l138 -327h-102l-102 264l-116 -109l-31 -155h-90z" />
    <glyph glyph-name="Lacute" unicode="&#x139;" horiz-adv-x="536" 
d="M35 0l155 755h96l-137 -672l337 2l-19 -85h-432zM206 826l200 141h161l-241 -141h-120z" />
    <glyph glyph-name="lacute" unicode="&#x13a;" horiz-adv-x="253" 
d="M30 0l158 778h90l-158 -778h-90zM196 832l185 176h146l-231 -176h-100z" />
    <glyph glyph-name="Lcommaaccent" unicode="&#x13b;" horiz-adv-x="536" 
d="M35 0l155 755h96l-137 -672l337 2l-19 -85h-432zM210 -225l-33 23q38 36 47 80h-28l17 77h83l-16 -72q-14 -65 -70 -108z" />
    <glyph glyph-name="lcommaaccent" unicode="&#x13c;" horiz-adv-x="253" 
d="M30 0l158 778h90l-158 -778h-90zM20 -225l-33 23q38 36 47 80h-28l17 77h83l-16 -72q-14 -65 -70 -108z" />
    <glyph glyph-name="Lcaron" unicode="&#x13d;" horiz-adv-x="536" 
d="M35 0l155 755h96l-137 -672l337 2l-19 -85h-432zM390 591l84 187h112l-124 -187h-72z" />
    <glyph glyph-name="lcaron" unicode="&#x13e;" horiz-adv-x="253" 
d="M30 0l158 778h90l-158 -778h-90zM300 591l84 187h112l-124 -187h-72z" />
    <glyph glyph-name="Ldot" unicode="&#x13f;" horiz-adv-x="536" 
d="M35 0l155 755h96l-137 -672l337 2l-19 -85h-432zM345 433l21 102h96l-21 -102h-96z" />
    <glyph glyph-name="ldot" unicode="&#x140;" horiz-adv-x="373" 
d="M30 0l158 778h90l-158 -778h-90zM286 433l21 102h96l-21 -102h-96z" />
    <glyph glyph-name="Lslash" unicode="&#x141;" horiz-adv-x="536" 
d="M11 333l18 88l98 30l63 304h96l-56 -272l121 38l-18 -88l-121 -38l-63 -312l337 2l-19 -85h-432l74 363z" />
    <glyph glyph-name="lslash" unicode="&#x142;" horiz-adv-x="290" 
d="M43 348l19 86l70 21l66 323h90l-60 -294l77 24l-19 -86l-75 -23l-81 -399h-90l75 370z" />
    <glyph glyph-name="Nacute" unicode="&#x143;" horiz-adv-x="763" 
d="M35 0l153 755h113l252 -629l122 629h93l-153 -755h-111l-253 640l-124 -640h-92zM411 826l200 141h161l-241 -141h-120z" />
    <glyph glyph-name="nacute" unicode="&#x144;" horiz-adv-x="594" 
d="M30 0l110 535h87l-19 -95q27 42 73 75.5t104 33.5q79 0 116.5 -43t37.5 -115q0 -34 -9 -81l-64 -310h-91l65 319q6 34 6 56q0 95 -86 95q-66 0 -122 -64q-43 -49 -71 -184l-45 -222h-92zM279 632l185 176h146l-231 -176h-100z" />
    <glyph glyph-name="Ncommaaccent" unicode="&#x145;" horiz-adv-x="763" 
d="M35 0l153 755h113l252 -629l122 629h93l-153 -755h-111l-253 640l-124 -640h-92zM282 -225l-33 23q38 36 47 80h-28l17 77h83l-16 -72q-14 -65 -70 -108z" />
    <glyph glyph-name="ncommaaccent" unicode="&#x146;" horiz-adv-x="594" 
d="M30 0l110 535h87l-19 -95q27 42 73 75.5t104 33.5q79 0 116.5 -43t37.5 -115q0 -34 -9 -81l-64 -310h-91l65 319q6 34 6 56q0 95 -86 95q-66 0 -122 -64q-43 -49 -71 -184l-45 -222h-92zM195 -225l-33 23q38 36 47 80h-28l17 77h83l-16 -72q-14 -65 -70 -108z" />
    <glyph glyph-name="Ncaron" unicode="&#x147;" horiz-adv-x="763" 
d="M35 0l153 755h113l252 -629l122 629h93l-153 -755h-111l-253 640l-124 -640h-92zM338 914l19 85l141 -105l196 112l-22 -94l-188 -110z" />
    <glyph glyph-name="ncaron" unicode="&#x148;" horiz-adv-x="594" 
d="M30 0l110 535h87l-19 -95q27 42 73 75.5t104 33.5q79 0 116.5 -43t37.5 -115q0 -34 -9 -81l-64 -310h-91l65 319q6 34 6 56q0 95 -86 95q-66 0 -122 -64q-43 -49 -71 -184l-45 -222h-92zM219 735l19 85l141 -105l196 112l-22 -94l-188 -110z" />
    <glyph glyph-name="napostrophe" unicode="&#x149;" horiz-adv-x="594" 
d="M30 0l110 535h87l-19 -95q27 42 73 75.5t104 33.5q79 0 116.5 -43t37.5 -115q0 -34 -9 -81l-64 -310h-91l65 319q6 34 6 56q0 95 -86 95q-66 0 -122 -64q-43 -49 -71 -184l-45 -222h-92zM185 586l-33 23q38 36 47 80h-28l17 77h83l-16 -72q-14 -65 -70 -108z" />
    <glyph glyph-name="Eng" unicode="&#x14a;" horiz-adv-x="763" 
d="M35 0l153 755h113l252 -629l122 629h93l-165 -819q-32 -161 -164 -161q-49 0 -79 18l20 73q26 -12 51 -12q40 0 60 35t35 111h-22l-253 640l-124 -640h-92z" />
    <glyph glyph-name="eng" unicode="&#x14b;" horiz-adv-x="594" 
d="M210 -207l20 73q26 -12 51 -12q39 0 58 29.5t29 80.5l72 355q6 34 6 56q0 95 -86 95q-66 0 -122 -64q-43 -49 -71 -184l-45 -222h-92l110 535h87l-19 -95q27 42 73 75.5t104 33.5q79 0 116.5 -43t37.5 -115q0 -34 -9 -81l-77 -374q-32 -161 -164 -161q-49 0 -79 18z" />
    <glyph glyph-name="Omacron" unicode="&#x14c;" horiz-adv-x="784" 
d="M357 -15q-132 0 -207 82.5t-75 223.5q0 118 49.5 232.5t137.5 178.5q87 63 202 63q131 0 205.5 -85t74.5 -226q0 -120 -53 -236.5t-146 -178.5q-80 -54 -188 -54zM360 66q85 0 151.5 61t98.5 147t32 175q0 102 -47 168.5t-141 66.5q-64 0 -118 -36.5t-88 -94.5
t-52.5 -125t-18.5 -132q0 -101 44.5 -165.5t138.5 -64.5zM306 826l15 75h382l-15 -75h-382z" />
    <glyph glyph-name="omacron" unicode="&#x14d;" horiz-adv-x="586" 
d="M257 -15q-101 0 -159 60t-58 162q0 83 33.5 160t102 129.5t155.5 52.5q100 0 157.5 -60.5t57.5 -161.5q0 -83 -33 -160t-101 -129.5t-155 -52.5zM264 59q55 0 99 42.5t66 101t22 115.5q0 70 -32.5 113.5t-96.5 43.5q-80 0 -133.5 -85t-53.5 -177q0 -70 32.5 -112
t96.5 -42zM199 680l15 75h362l-15 -75h-362z" />
    <glyph glyph-name="Obreve" unicode="&#x14e;" horiz-adv-x="784" 
d="M357 -15q-132 0 -207 82.5t-75 223.5q0 118 49.5 232.5t137.5 178.5q87 63 202 63q131 0 205.5 -85t74.5 -226q0 -120 -53 -236.5t-146 -178.5q-80 -54 -188 -54zM360 66q85 0 151.5 61t98.5 147t32 175q0 102 -47 168.5t-141 66.5q-64 0 -118 -36.5t-88 -94.5
t-52.5 -125t-18.5 -132q0 -101 44.5 -165.5t138.5 -64.5zM337 960l63 14q-1 -39 28 -62.5t74 -23.5q47 0 84 22.5t52 65.5l59 -16q-36 -142 -200 -142q-70 0 -118 34.5t-42 107.5z" />
    <glyph glyph-name="obreve" unicode="&#x14f;" horiz-adv-x="586" 
d="M257 -15q-101 0 -159 60t-58 162q0 83 33.5 160t102 129.5t155.5 52.5q100 0 157.5 -60.5t57.5 -161.5q0 -83 -33 -160t-101 -129.5t-155 -52.5zM264 59q55 0 99 42.5t66 101t22 115.5q0 70 -32.5 113.5t-96.5 43.5q-80 0 -133.5 -85t-53.5 -177q0 -70 32.5 -112
t96.5 -42zM210 799l63 14q-1 -42 26 -69t76 -27q48 0 84 26.5t52 71.5l59 -16q-19 -77 -72 -114.5t-128 -37.5q-71 0 -118.5 39t-41.5 113z" />
    <glyph glyph-name="Ohungarumlaut" unicode="&#x150;" horiz-adv-x="784" 
d="M357 -15q-132 0 -207 82.5t-75 223.5q0 118 49.5 232.5t137.5 178.5q87 63 202 63q131 0 205.5 -85t74.5 -226q0 -120 -53 -236.5t-146 -178.5q-80 -54 -188 -54zM360 66q85 0 151.5 61t98.5 147t32 175q0 102 -47 168.5t-141 66.5q-64 0 -118 -36.5t-88 -94.5
t-52.5 -125t-18.5 -132q0 -101 44.5 -165.5t138.5 -64.5zM308 826l145 141h136l-186 -141h-95zM530 826l145 141h136l-186 -141h-95z" />
    <glyph glyph-name="ohungarumlaut" unicode="&#x151;" horiz-adv-x="586" 
d="M257 -15q-101 0 -159 60t-58 162q0 83 33.5 160t102 129.5t155.5 52.5q100 0 157.5 -60.5t57.5 -161.5q0 -83 -33 -160t-101 -129.5t-155 -52.5zM264 59q55 0 99 42.5t66 101t22 115.5q0 70 -32.5 113.5t-96.5 43.5q-80 0 -133.5 -85t-53.5 -177q0 -70 32.5 -112
t96.5 -42zM201 632l165 176h131l-206 -176h-90zM419 632l165 176h131l-206 -176h-90z" />
    <glyph glyph-name="OE" unicode="&#x152;" horiz-adv-x="1105" 
d="M561 0l13 64q-92 -79 -217 -79q-132 0 -207 82.5t-75 223.5q0 118 49.5 232.5t137.5 178.5q87 63 202 63q158 0 228 -126l24 116h434l-18 -81l-338 1l-52 -252h289l-18 -78h-287l-54 -264l349 2l-18 -83h-442zM360 66q85 0 151.5 61t98.5 147t32 175q0 102 -47 168.5
t-141 66.5q-64 0 -118 -36.5t-88 -94.5t-52.5 -125t-18.5 -132q0 -101 44.5 -165.5t138.5 -64.5z" />
    <glyph glyph-name="oe" unicode="&#x153;" horiz-adv-x="961" 
d="M257 -15q-101 0 -159 60t-58 162q0 83 33.5 160t102 129.5t155.5 52.5q137 0 190 -108q83 108 208 108q119 0 167.5 -85.5t16.5 -209.5h-374q-3 -22 -3 -43q0 -70 35 -111t103 -41q82 0 140 81l72 -30q-30 -57 -89 -91t-130 -34q-147 0 -199 108q-84 -108 -211 -108z
M264 59q55 0 99 42.5t66 101t22 115.5q0 70 -32.5 113.5t-96.5 43.5q-80 0 -133.5 -85t-53.5 -177q0 -70 32.5 -112t96.5 -42zM721 475q-55 0 -98 -42.5t-67 -107.5h279q8 69 -21.5 109.5t-92.5 40.5z" />
    <glyph glyph-name="Racute" unicode="&#x154;" horiz-adv-x="669" 
d="M35 0l155 754q146 3 225 3q89 0 148 -27q43 -19 69.5 -60t26.5 -93q0 -66 -24.5 -110.5t-73.5 -81.5q-42 -32 -98 -49l141 -336h-105l-130 318q-38 -2 -56 -2h-117l-65 -316h-96zM270 677l-58 -282h117q111 0 172 49q58 47 58 127q0 69 -59 93q-39 16 -95 16zM331 826
l200 141h161l-241 -141h-120z" />
    <glyph glyph-name="racute" unicode="&#x155;" horiz-adv-x="376" 
d="M30 0l110 535h87l-25 -117q37 58 90 94.5t114 36.5l-25 -110q-49 9 -97 -15.5t-79 -79.5q-19 -34 -45 -159l-38 -185h-92zM229 632l185 176h146l-231 -176h-100z" />
    <glyph glyph-name="Rcommaaccent" unicode="&#x156;" horiz-adv-x="669" 
d="M35 0l155 754q146 3 225 3q89 0 148 -27q43 -19 69.5 -60t26.5 -93q0 -66 -24.5 -110.5t-73.5 -81.5q-42 -32 -98 -49l141 -336h-105l-130 318q-38 -2 -56 -2h-117l-65 -316h-96zM270 677l-58 -282h117q111 0 172 49q58 47 58 127q0 69 -59 93q-39 16 -95 16zM244 -225
l-33 23q38 36 47 80h-28l17 77h83l-16 -72q-14 -65 -70 -108z" />
    <glyph glyph-name="rcommaaccent" unicode="&#x157;" horiz-adv-x="376" 
d="M30 0l110 535h87l-25 -117q37 58 90 94.5t114 36.5l-25 -110q-49 9 -97 -15.5t-79 -79.5q-19 -34 -45 -159l-38 -185h-92zM23 -225l-33 23q38 36 47 80h-28l17 77h83l-16 -72q-14 -65 -70 -108z" />
    <glyph glyph-name="Rcaron" unicode="&#x158;" horiz-adv-x="669" 
d="M35 0l155 754q146 3 225 3q89 0 148 -27q43 -19 69.5 -60t26.5 -93q0 -66 -24.5 -110.5t-73.5 -81.5q-42 -32 -98 -49l141 -336h-105l-130 318q-38 -2 -56 -2h-117l-65 -316h-96zM270 677l-58 -282h117q111 0 172 49q58 47 58 127q0 69 -59 93q-39 16 -95 16zM276 914
l19 85l141 -105l196 112l-22 -94l-188 -110z" />
    <glyph glyph-name="rcaron" unicode="&#x159;" horiz-adv-x="376" 
d="M30 0l110 535h87l-25 -117q37 58 90 94.5t114 36.5l-25 -110q-49 9 -97 -15.5t-79 -79.5q-19 -34 -45 -159l-38 -185h-92zM134 735l19 85l141 -105l196 112l-22 -94l-188 -110z" />
    <glyph glyph-name="Sacute" unicode="&#x15a;" horiz-adv-x="640" 
d="M16 217l94 7q0 -78 54.5 -118.5t136.5 -40.5q69 0 123 37.5t54 97.5q0 52 -41 83.5t-131 69.5q-88 37 -132.5 82t-44.5 121q0 97 73.5 153t184.5 56q91 0 157.5 -45t85.5 -120l-88 -28q-13 54 -57.5 83.5t-104.5 29.5q-65 0 -109 -31.5t-44 -85.5q0 -15 4 -28.5
t8.5 -23.5t16.5 -20.5t18.5 -16.5t24 -15.5t24.5 -12.5t28.5 -12.5t27.5 -12.5q49 -22 77 -38t60 -42t46.5 -60t14.5 -78q0 -104 -85.5 -163.5t-202.5 -59.5q-39 0 -76.5 7t-74.5 24.5t-64 43t-43 66t-15 91.5zM294 826l200 141h161l-241 -141h-120z" />
    <glyph glyph-name="sacute" unicode="&#x15b;" horiz-adv-x="463" 
d="M-5 127l81 27q27 -96 132 -96q48 0 79.5 23t31.5 60q0 19 -7 33t-26 26t-33 19t-46 20q-129 53 -129 153q0 70 53 113.5t136 43.5q69 0 115.5 -32t65.5 -89l-77 -31q-10 38 -39.5 59t-69.5 21q-41 0 -68.5 -21t-27.5 -54q0 -17 5.5 -29.5t21 -23.5t29 -18t42.5 -21
q38 -18 57.5 -29t43 -29.5t33.5 -42.5t10 -55q0 -80 -61.5 -124.5t-146.5 -44.5q-74 0 -131.5 36t-73.5 106zM214 632l185 176h146l-231 -176h-100z" />
    <glyph glyph-name="Scircumflex" unicode="&#x15c;" horiz-adv-x="640" 
d="M16 217l94 7q0 -78 54.5 -118.5t136.5 -40.5q69 0 123 37.5t54 97.5q0 52 -41 83.5t-131 69.5q-88 37 -132.5 82t-44.5 121q0 97 73.5 153t184.5 56q91 0 157.5 -45t85.5 -120l-88 -28q-13 54 -57.5 83.5t-104.5 29.5q-65 0 -109 -31.5t-44 -85.5q0 -15 4 -28.5
t8.5 -23.5t16.5 -20.5t18.5 -16.5t24 -15.5t24.5 -12.5t28.5 -12.5t27.5 -12.5q49 -22 77 -38t60 -42t46.5 -60t14.5 -78q0 -104 -85.5 -163.5t-202.5 -59.5q-39 0 -76.5 7t-74.5 24.5t-64 43t-43 66t-15 91.5zM246 801l22 94l186 84l148 -91l-19 -85l-143 84z" />
    <glyph glyph-name="scircumflex" unicode="&#x15d;" horiz-adv-x="463" 
d="M-5 127l81 27q27 -96 132 -96q48 0 79.5 23t31.5 60q0 19 -7 33t-26 26t-33 19t-46 20q-129 53 -129 153q0 70 53 113.5t136 43.5q69 0 115.5 -32t65.5 -89l-77 -31q-10 38 -39.5 59t-69.5 21q-41 0 -68.5 -21t-27.5 -54q0 -17 5.5 -29.5t21 -23.5t29 -18t42.5 -21
q38 -18 57.5 -29t43 -29.5t33.5 -42.5t10 -55q0 -80 -61.5 -124.5t-146.5 -44.5q-74 0 -131.5 36t-73.5 106zM140 623l22 94l193 110l141 -117l-19 -85l-136 110z" />
    <glyph glyph-name="Scedilla" unicode="&#x15e;" horiz-adv-x="640" 
d="M122 -184l63 18q15 -21 44 -21q22 0 39.5 13.5t17.5 35.5q0 35 -40 35q-33 0 -57 -20l-40 20l53 98q-83 18 -135.5 72.5t-50.5 149.5l94 7q0 -78 54.5 -118.5t136.5 -40.5q69 0 123 37.5t54 97.5q0 52 -41 83.5t-131 69.5q-88 37 -132.5 82t-44.5 121q0 97 73.5 153
t184.5 56q91 0 157.5 -45t85.5 -120l-88 -28q-13 54 -57.5 83.5t-104.5 29.5q-65 0 -109 -31.5t-44 -85.5q0 -15 4 -28.5t8.5 -23.5t16.5 -20.5t18.5 -16.5t24 -15.5t24.5 -12.5t28.5 -12.5t27.5 -12.5q49 -22 77 -38t60 -42t46.5 -60t14.5 -78q0 -104 -85.5 -163.5
t-202.5 -59.5q-12 0 -36 2l-34 -61q24 15 57 15q32 0 53.5 -19t21.5 -52q0 -47 -37.5 -74.5t-87.5 -27.5q-70 0 -104 48z" />
    <glyph glyph-name="scedilla" unicode="&#x15f;" horiz-adv-x="463" 
d="M46 -184l55 25q18 -25 55 -25q22 0 38 11.5t16 31.5q0 37 -46 37q-28 0 -51 -19l-40 20l62 96q-116 28 -140 134l81 27q27 -96 132 -96q48 0 79.5 23t31.5 60q0 19 -7 33t-26 26t-33 19t-46 20q-129 53 -129 153q0 70 53 113.5t136 43.5q69 0 115.5 -32t65.5 -89l-77 -31
q-10 38 -39.5 59t-69.5 21q-41 0 -68.5 -21t-27.5 -54q0 -17 5.5 -29.5t21 -23.5t29 -18t42.5 -21q38 -18 57.5 -29t43 -29.5t33.5 -42.5t10 -55q0 -80 -61.5 -124.5t-146.5 -44.5q-4 0 -12 0.5t-12 0.5l-39 -60q22 14 54 14q36 0 59 -20.5t23 -54.5q0 -47 -36 -72t-87 -25
q-70 0 -104 48z" />
    <glyph glyph-name="Scaron" unicode="&#x160;" horiz-adv-x="671" 
d="M16 217l94 7q0 -78 54.5 -118.5t136.5 -40.5q69 0 123 37.5t54 97.5q0 52 -41 83.5t-131 69.5q-88 37 -132.5 82t-44.5 121q0 97 73.5 153t184.5 56q91 0 157.5 -45t85.5 -120l-88 -28q-13 54 -57.5 83.5t-104.5 29.5q-65 0 -109 -31.5t-44 -85.5q0 -15 4 -28.5
t8.5 -23.5t16.5 -20.5t18.5 -16.5t24 -15.5t24.5 -12.5t28.5 -12.5t27.5 -12.5q49 -22 77 -38t60 -42t46.5 -60t14.5 -78q0 -104 -85.5 -163.5t-202.5 -59.5q-39 0 -76.5 7t-74.5 24.5t-64 43t-43 66t-15 91.5zM268 914l19 85l141 -105l196 112l-22 -94l-188 -110z" />
    <glyph glyph-name="scaron" unicode="&#x161;" horiz-adv-x="463" 
d="M-5 127l81 27q27 -96 132 -96q48 0 79.5 23t31.5 60q0 19 -7 33t-26 26t-33 19t-46 20q-129 53 -129 153q0 70 53 113.5t136 43.5q69 0 115.5 -32t65.5 -89l-77 -31q-10 38 -39.5 59t-69.5 21q-41 0 -68.5 -21t-27.5 -54q0 -17 5.5 -29.5t21 -23.5t29 -18t42.5 -21
q38 -18 57.5 -29t43 -29.5t33.5 -42.5t10 -55q0 -80 -61.5 -124.5t-146.5 -44.5q-74 0 -131.5 36t-73.5 106zM142 735l19 85l141 -105l196 112l-22 -94l-188 -110z" />
    <glyph glyph-name="Tcommaaccent" unicode="&#x162;" horiz-adv-x="551" 
d="M166 0l138 675l-239 -2l17 82h579l-17 -82l-245 2l-137 -675h-96zM160 -225l-33 23q38 36 47 80h-28l17 77h83l-16 -72q-14 -65 -70 -108z" />
    <glyph glyph-name="tcommaaccent" unicode="&#x163;" horiz-adv-x="339" 
d="M65 462l16 73h75l41 145h79l-32 -145h115l-16 -73h-114l-66 -307q-5 -25 -5 -39q0 -48 51 -48q12 0 50 6l-12 -71q-38 -13 -77 -13q-103 0 -103 106q0 24 5 49l67 317h-74zM87 -225l-33 23q38 36 47 80h-28l17 77h83l-16 -72q-14 -65 -70 -108z" />
    <glyph glyph-name="Tcaron" unicode="&#x164;" horiz-adv-x="551" 
d="M166 0l138 675l-239 -2l17 82h579l-17 -82l-245 2l-137 -675h-96zM227 914l19 85l141 -105l196 112l-22 -94l-188 -110z" />
    <glyph glyph-name="tcaron" unicode="&#x165;" horiz-adv-x="339" 
d="M65 462l16 73h75l41 145h79l-32 -145h115l-16 -73h-114l-66 -307q-5 -25 -5 -39q0 -48 51 -48q12 0 50 6l-12 -71q-38 -13 -77 -13q-103 0 -103 106q0 24 5 49l67 317h-74zM318 591l84 187h112l-124 -187h-72z" />
    <glyph glyph-name="Tbar" unicode="&#x166;" horiz-adv-x="551" 
d="M128 363l16 75h111l49 237l-239 -2l17 82h579l-17 -82l-245 2l-48 -237h115l-16 -75h-115l-73 -363h-96l74 363h-112z" />
    <glyph glyph-name="tbar" unicode="&#x167;" horiz-adv-x="339" 
d="M65 462l16 73h75l41 145h79l-32 -145h115l-16 -73h-114l-27 -124h115l-16 -73h-115l-23 -110q-5 -25 -5 -39q0 -48 51 -48q12 0 50 6l-12 -71q-38 -13 -77 -13q-103 0 -103 106q0 24 5 49l25 120h-74l16 73h74l26 124h-74z" />
    <glyph glyph-name="Utilde" unicode="&#x168;" horiz-adv-x="732" 
d="M94 333l90 422h98l-90 -425q-17 -85 -17 -125q0 -68 36 -104t107 -36q79 0 127 37.5t78 105.5q16 36 36 127l89 420h94l-96 -449q-24 -115 -57 -170q-90 -151 -288 -151q-109 0 -167.5 56t-58.5 153q0 46 19 139zM355 848l-50 6q3 17 9.5 34t19.5 38.5t37 34.5t56 13
q36 0 80.5 -26t72.5 -26q46 0 57 55l50 -5q-3 -16 -10 -34t-20.5 -38.5t-38 -34t-56.5 -13.5q-33 0 -78.5 26t-72.5 26q-20 0 -35.5 -16t-20.5 -40z" />
    <glyph glyph-name="utilde" unicode="&#x169;" horiz-adv-x="586" 
d="M64 217l66 318h91l-65 -319q-6 -34 -6 -56q0 -95 81 -95q61 0 117 64q43 49 71 184l45 222h92l-110 -535h-87l19 95q-26 -41 -72.5 -75t-99.5 -34q-75 0 -112.5 40.5t-37.5 109.5q0 39 8 81zM235 639l-50 6q3 17 9.5 34t19.5 38.5t37 34.5t56 13q36 0 80.5 -26t72.5 -26
q46 0 57 55l50 -5q-3 -16 -10 -34t-20.5 -38.5t-38 -34t-56.5 -13.5q-33 0 -78.5 26t-72.5 26q-20 0 -35.5 -16t-20.5 -40z" />
    <glyph glyph-name="Umacron" unicode="&#x16a;" horiz-adv-x="732" 
d="M94 333l90 422h98l-90 -425q-17 -85 -17 -125q0 -68 36 -104t107 -36q79 0 127 37.5t78 105.5q16 36 36 127l89 420h94l-96 -449q-24 -115 -57 -170q-90 -151 -288 -151q-109 0 -167.5 56t-58.5 153q0 46 19 139zM285 826l15 75h382l-15 -75h-382z" />
    <glyph glyph-name="umacron" unicode="&#x16b;" horiz-adv-x="586" 
d="M64 217l66 318h91l-65 -319q-6 -34 -6 -56q0 -95 81 -95q61 0 117 64q43 49 71 184l45 222h92l-110 -535h-87l19 95q-26 -41 -72.5 -75t-99.5 -34q-75 0 -112.5 40.5t-37.5 109.5q0 39 8 81zM195 680l15 75h362l-15 -75h-362z" />
    <glyph glyph-name="Ubreve" unicode="&#x16c;" horiz-adv-x="732" 
d="M94 333l90 422h98l-90 -425q-17 -85 -17 -125q0 -68 36 -104t107 -36q79 0 127 37.5t78 105.5q16 36 36 127l89 420h94l-96 -449q-24 -115 -57 -170q-90 -151 -288 -151q-109 0 -167.5 56t-58.5 153q0 46 19 139zM315 960l63 14q-1 -39 28 -62.5t74 -23.5q47 0 84 22.5
t52 65.5l59 -16q-36 -142 -200 -142q-70 0 -118 34.5t-42 107.5z" />
    <glyph glyph-name="ubreve" unicode="&#x16d;" horiz-adv-x="586" 
d="M64 217l66 318h91l-65 -319q-6 -34 -6 -56q0 -95 81 -95q61 0 117 64q43 49 71 184l45 222h92l-110 -535h-87l19 95q-26 -41 -72.5 -75t-99.5 -34q-75 0 -112.5 40.5t-37.5 109.5q0 39 8 81zM207 799l63 14q-1 -42 26 -69t76 -27q48 0 84 26.5t52 71.5l59 -16
q-19 -77 -72 -114.5t-128 -37.5q-71 0 -118.5 39t-41.5 113z" />
    <glyph glyph-name="Uring" unicode="&#x16e;" horiz-adv-x="732" 
d="M94 333l90 422h98l-90 -425q-17 -85 -17 -125q0 -68 36 -104t107 -36q79 0 127 37.5t78 105.5q16 36 36 127l89 420h94l-96 -449q-24 -115 -57 -170q-90 -151 -288 -151q-109 0 -167.5 56t-58.5 153q0 46 19 139zM362 880q0 49 36.5 85.5t88.5 36.5q46 0 79.5 -27.5
t33.5 -76.5t-36.5 -85.5t-88.5 -36.5q-46 0 -79.5 27.5t-33.5 76.5zM476 831q25 0 44 18t19 45q0 21 -13.5 37t-39.5 16q-25 0 -44 -18t-19 -45q0 -21 13.5 -37t39.5 -16z" />
    <glyph glyph-name="uring" unicode="&#x16f;" horiz-adv-x="586" 
d="M64 217l66 318h91l-65 -319q-6 -34 -6 -56q0 -95 81 -95q61 0 117 64q43 49 71 184l45 222h92l-110 -535h-87l19 95q-26 -41 -72.5 -75t-99.5 -34q-75 0 -112.5 40.5t-37.5 109.5q0 39 8 81zM259 686q0 49 36.5 85.5t88.5 36.5q46 0 79.5 -27.5t33.5 -76.5t-36.5 -85.5
t-88.5 -36.5q-46 0 -79.5 27.5t-33.5 76.5zM373 637q25 0 44 18t19 45q0 21 -13.5 37t-39.5 16q-25 0 -44 -18t-19 -45q0 -21 13.5 -37t39.5 -16z" />
    <glyph glyph-name="Uhungarumlaut" unicode="&#x170;" horiz-adv-x="732" 
d="M94 333l90 422h98l-90 -425q-17 -85 -17 -125q0 -68 36 -104t107 -36q79 0 127 37.5t78 105.5q16 36 36 127l89 420h94l-96 -449q-24 -115 -57 -170q-90 -151 -288 -151q-109 0 -167.5 56t-58.5 153q0 46 19 139zM303 826l145 141h136l-186 -141h-95zM525 826l145 141
h136l-186 -141h-95z" />
    <glyph glyph-name="uhungarumlaut" unicode="&#x171;" horiz-adv-x="586" 
d="M64 217l66 318h91l-65 -319q-6 -34 -6 -56q0 -95 81 -95q61 0 117 64q43 49 71 184l45 222h92l-110 -535h-87l19 95q-26 -41 -72.5 -75t-99.5 -34q-75 0 -112.5 40.5t-37.5 109.5q0 39 8 81zM201 632l165 176h131l-206 -176h-90zM419 632l165 176h131l-206 -176h-90z" />
    <glyph glyph-name="Uogonek" unicode="&#x172;" horiz-adv-x="732" 
d="M320 -160l21 -51q-33 -21 -77 -21q-47 0 -81.5 24t-34.5 66q0 74 115 129q-91 10 -139.5 64.5t-48.5 142.5q0 46 19 139l90 422h98l-90 -425q-17 -85 -17 -125q0 -68 36 -104t107 -36q79 0 127 37.5t78 105.5q16 36 36 127l89 420h94l-96 -449q-24 -115 -57 -170
q-78 -131 -236 -148q-65 -30 -94.5 -56.5t-29.5 -59.5q0 -20 15 -30t37 -10q21 0 39 8z" />
    <glyph glyph-name="uogonek" unicode="&#x173;" horiz-adv-x="586" 
d="M385 -160l21 -51q-33 -21 -77 -21q-47 0 -81.5 24t-34.5 66q0 83 146 142l19 95q-26 -41 -72.5 -75t-99.5 -34q-75 0 -112.5 40.5t-37.5 109.5q0 39 8 81l66 318h91l-65 -319q-6 -34 -6 -56q0 -95 81 -95q61 0 117 64q43 49 71 184l45 222h92l-110 -535h1
q-81 -34 -117 -63t-36 -65q0 -20 15 -30t37 -10q21 0 39 8z" />
    <glyph glyph-name="Wcircumflex" unicode="&#x174;" horiz-adv-x="959" 
d="M125 0l-40 755h98l24 -675l302 675h126l7 -661l317 661h100l-370 -755h-134l-6 643l-288 -643h-136zM413 801l22 94l186 84l148 -91l-19 -85l-143 84z" />
    <glyph glyph-name="wcircumflex" unicode="&#x175;" horiz-adv-x="775" 
d="M109 0l-49 535h90l26 -411l205 401h92l30 -419l215 429h92l-284 -535h-95l-29 409l-212 -409h-81zM274 623l22 94l193 110l141 -117l-19 -85l-136 110z" />
    <glyph glyph-name="Ycircumflex" unicode="&#x176;" horiz-adv-x="556" 
d="M171 0l63 308l-154 447h106l113 -358l255 358h107l-332 -452l-62 -303h-96zM211 801l22 94l186 84l148 -91l-19 -85l-143 84z" />
    <glyph glyph-name="ycircumflex" unicode="&#x177;" horiz-adv-x="487" 
d="M10 -222l126 222l-76 535h94l51 -425l222 425h95l-291 -535l-123 -222h-98zM144 623l22 94l193 110l141 -117l-19 -85l-136 110z" />
    <glyph glyph-name="Ydieresis" unicode="&#x178;" horiz-adv-x="556" 
d="M171 0l63 308l-154 447h106l113 -358l255 358h107l-332 -452l-62 -303h-96zM228 826l22 105h104l-22 -105h-104zM447 826l22 105h104l-22 -105h-104z" />
    <glyph glyph-name="Zacute" unicode="&#x179;" horiz-adv-x="622" 
d="M-30 0l17 79l557 597l-414 -4l18 83h529l-17 -80l-549 -596l428 5l-18 -84h-551zM330 826l200 141h161l-241 -141h-120z" />
    <glyph glyph-name="zacute" unicode="&#x17a;" horiz-adv-x="516" 
d="M-5 0l16 76l373 383l-286 -2l17 78h396l-16 -75l-364 -383l300 2l-17 -79h-419zM244 632l185 176h146l-231 -176h-100z" />
    <glyph glyph-name="Zdotaccent" unicode="&#x17b;" horiz-adv-x="622" 
d="M-30 0l17 79l557 597l-414 -4l18 83h529l-17 -80l-549 -596l428 5l-18 -84h-551zM377 821l21 102h96l-21 -102h-96z" />
    <glyph glyph-name="zdotaccent" unicode="&#x17c;" horiz-adv-x="516" 
d="M-5 0l16 76l373 383l-286 -2l17 78h396l-16 -75l-364 -383l300 2l-17 -79h-419zM289 653l21 102h96l-21 -102h-96z" />
    <glyph glyph-name="Zcaron" unicode="&#x17d;" horiz-adv-x="622" 
d="M-30 0l17 79l557 597l-414 -4l18 83h529l-17 -80l-549 -596l428 5l-18 -84h-551zM274 914l19 85l141 -105l196 112l-22 -94l-188 -110z" />
    <glyph glyph-name="zcaron" unicode="&#x17e;" horiz-adv-x="516" 
d="M-5 0l16 76l373 383l-286 -2l17 78h396l-16 -75l-364 -383l300 2l-17 -79h-419zM190 735l19 85l141 -105l196 112l-22 -94l-188 -110z" />
    <glyph glyph-name="uni0186" unicode="&#x186;" horiz-adv-x="708" 
d="M17 193l92 24q14 -70 57.5 -110.5t117.5 -40.5q85 0 151.5 61t98.5 147t32 175q0 102 -47 168.5t-141 66.5q-61 0 -111 -32t-83 -86l-76 42q44 74 117.5 115.5t162.5 41.5q131 0 205.5 -85t74.5 -226q0 -120 -53 -236.5t-146 -178.5q-79 -54 -188 -54q-106 0 -174.5 55
t-89.5 153z" />
    <glyph glyph-name="uni018F" unicode="&#x18f;" horiz-adv-x="753" 
d="M337 -15q-69 0 -122 24.5t-84.5 66.5t-48 96t-15.5 114t18 121h525q2 28 2 42q0 102 -47 168.5t-141 66.5q-61 0 -111 -32t-83 -86l-76 42q44 74 117.5 115.5t162.5 41.5q131 0 205.5 -85t74.5 -226q0 -125 -54 -241.5t-150 -178.5q-76 -49 -173 -49zM340 66q98 0 164 75
t93 188h-427q-11 -62 1.5 -120t56 -100.5t112.5 -42.5z" />
    <glyph glyph-name="uni0190" unicode="&#x190;" horiz-adv-x="535" 
d="M276 87h169l-19 -87h-168q-103 0 -168 44t-65 142q0 81 52.5 147.5t136.5 82.5q-76 46 -76 127q0 101 86 164q65 48 162 48h194l-17 -80h-185q-57 0 -98 -34.5t-41 -94.5q0 -51 33 -78.5t90 -27.5h96l-17 -81h-132q-51 0 -92 -22q-88 -47 -88 -139q0 -56 41 -83.5
t106 -27.5z" />
    <glyph glyph-name="florin" unicode="&#x192;" horiz-adv-x="352" 
d="M95 462l16 73h72l22 106q16 74 59.5 108.5t103.5 34.5q22 0 40.5 -3t25.5 -5l8 -3l-19 -73q-30 7 -58 7q-19 0 -32.5 -6.5t-21 -20t-10.5 -24t-7 -29.5l-19 -92h106l-16 -73h-106l-113 -544q-16 -74 -59 -108.5t-103 -34.5q-22 0 -40.5 2.5t-25.5 5.5l-8 3l19 75
q30 -7 58 -7q33 0 48 21t23 57l110 530h-73z" />
    <glyph glyph-name="uni019D" unicode="&#x19d;" horiz-adv-x="763" 
d="M-131 -207l20 73q25 -12 51 -12q39 0 58 29.5t29 80.5l161 791h113l252 -629l122 629h93l-153 -755h-111l-253 640l-139 -704q-32 -161 -164 -161q-49 0 -79 18z" />
    <glyph glyph-name="uni019F" unicode="&#x19f;" horiz-adv-x="784" 
d="M357 -15q-132 0 -207 82.5t-75 223.5q0 118 49.5 232.5t137.5 178.5q87 63 202 63q131 0 205.5 -85t74.5 -226q0 -120 -53 -236.5t-146 -178.5q-80 -54 -188 -54zM360 66q102 0 174 82t97 199h-451q-3 -27 -3 -51q0 -101 44.5 -165.5t138.5 -64.5zM454 684
q-96 0 -164 -75.5t-97 -186.5h448q0 4 0.5 13t0.5 14q0 102 -47 168.5t-141 66.5z" />
    <glyph glyph-name="Ohorn" unicode="&#x1a0;" horiz-adv-x="784" 
d="M357 -15q-132 0 -207 82.5t-75 223.5q0 118 49.5 232.5t137.5 178.5q87 63 202 63q105 0 177 -58q35 -26 65 -26q25 0 37.5 17t12.5 42q0 19 -8 37l71 20q11 -25 11 -48q0 -52 -31 -86.5t-95 -33.5q40 -74 40 -175q0 -120 -53 -236.5t-146 -178.5q-80 -54 -188 -54z
M360 66q85 0 151.5 61t98.5 147t32 175q0 102 -47 168.5t-141 66.5q-64 0 -118 -36.5t-88 -94.5t-52.5 -125t-18.5 -132q0 -101 44.5 -165.5t138.5 -64.5z" />
    <glyph glyph-name="ohorn" unicode="&#x1a1;" horiz-adv-x="596" 
d="M257 -15q-101 0 -159 60t-58 162q0 83 33.5 160t102 129.5t155.5 52.5q51 0 93 -17q6 -2 22 -10t30.5 -12.5t28.5 -4.5q23 0 36.5 15.5t13.5 40.5q0 16 -8 34l68 17q9 -29 9 -42q0 -112 -111 -114q33 -55 33 -129q0 -83 -33 -160t-101 -129.5t-155 -52.5zM264 59
q55 0 99 42.5t66 101t22 115.5q0 70 -32.5 113.5t-96.5 43.5q-80 0 -133.5 -85t-53.5 -177q0 -70 32.5 -112t96.5 -42z" />
    <glyph glyph-name="Uhorn" unicode="&#x1af;" horiz-adv-x="732" 
d="M94 333l90 422h98l-90 -425q-17 -85 -17 -125q0 -68 36 -104t107 -36q79 0 127 37.5t78 105.5q16 36 36 127l89 420h90q25 0 39 17t14 38q0 17 -11 41l71 20q11 -25 11 -48q0 -51 -34.5 -85t-96.5 -34l-85 -398q-24 -115 -57 -170q-90 -151 -288 -151q-109 0 -167.5 56
t-58.5 153q0 46 19 139z" />
    <glyph glyph-name="uhorn" unicode="&#x1b0;" horiz-adv-x="613" 
d="M64 217l66 318h91l-65 -319q-6 -34 -6 -56q0 -95 81 -95q61 0 117 64q43 49 71 184l45 222h83q23 0 36.5 16.5t13.5 40.5q0 18 -6 33l66 17q6 -20 6 -39q0 -51 -28.5 -84t-88.5 -33l-100 -486h-87l19 95q-26 -41 -72.5 -75t-99.5 -34q-75 0 -112.5 40.5t-37.5 109.5
q0 39 8 81z" />
    <glyph glyph-name="uni01C4" unicode="&#x1c4;" horiz-adv-x="1345" 
d="M35 0l156 755q104 2 194 2q108 0 180 -30q77 -33 116 -104t39 -169q0 -218 -126.5 -337.5t-324.5 -119.5q-141 0 -234 3zM271 678l-123 -600q52 -3 125 -3q147 0 246 96t99 278q0 159 -110 208q-52 23 -133 23q-44 0 -104 -2zM693 0l17 79l557 597l-414 -4l18 83h529
l-17 -80l-549 -596l428 5l-18 -84h-551zM997 914l19 85l141 -105l196 112l-22 -94l-188 -110z" />
    <glyph glyph-name="uni01C5" unicode="&#x1c5;" horiz-adv-x="1246" 
d="M35 0l156 755q104 2 194 2q108 0 180 -30q77 -33 116 -104t39 -169q0 -218 -126.5 -337.5t-324.5 -119.5q-141 0 -234 3zM271 678l-123 -600q52 -3 125 -3q147 0 246 96t99 278q0 159 -110 208q-52 23 -133 23q-44 0 -104 -2zM725 0l16 76l373 383l-286 -2l17 78h396
l-16 -75l-364 -383l300 2l-17 -79h-419zM920 735l19 85l141 -105l196 112l-22 -94l-188 -110z" />
    <glyph glyph-name="uni01C6" unicode="&#x1c6;" horiz-adv-x="1100" 
d="M376 0l18 88q-22 -39 -69 -70.5t-96 -31.5q-91 0 -140 58.5t-49 161.5q0 84 33.5 162.5t98.5 130t145 51.5q109 0 149 -106l66 334h90l-159 -778h-87zM254 62q80 0 131.5 85t51.5 177q0 150 -121 150q-52 0 -95 -42.5t-64.5 -101t-21.5 -115.5q0 -153 119 -153zM579 0
l16 76l373 383l-286 -2l17 78h396l-16 -75l-364 -383l300 2l-17 -79h-419zM774 735l19 85l141 -105l196 112l-22 -94l-188 -110z" />
    <glyph glyph-name="uni01C7" unicode="&#x1c7;" horiz-adv-x="1112" 
d="M35 0l155 755h96l-137 -672l337 2l-19 -85h-432zM535 203l92 6q-23 -143 110 -143q92 0 142 80q26 42 41 120l101 489h96l-105 -510q-29 -142 -101 -201t-188 -59q-104 0 -155 59t-33 159z" />
    <glyph glyph-name="uni01C8" unicode="&#x1c8;" horiz-adv-x="814" 
d="M35 0l155 755h96l-137 -672l337 2l-19 -85h-432zM422 -207l20 73q26 -12 51 -12q39 0 58 29.5t29 80.5l111 571h90l-117 -599q-32 -161 -163 -161q-49 0 -79 18zM712 653l21 102h96l-21 -102h-96z" />
    <glyph glyph-name="uni01C9" unicode="&#x1c9;" horiz-adv-x="512" 
d="M30 0l158 778h90l-158 -778h-90zM120 -207l20 73q26 -12 51 -12q39 0 58 29.5t29 80.5l111 571h90l-117 -599q-32 -161 -163 -161q-49 0 -79 18zM410 653l21 102h96l-21 -102h-96z" />
    <glyph glyph-name="uni01CA" unicode="&#x1ca;" horiz-adv-x="1333" 
d="M35 0l153 755h113l252 -629l122 629h93l-153 -755h-111l-253 640l-124 -640h-92zM756 203l92 6q-23 -143 110 -143q92 0 142 80q26 42 41 120l101 489h96l-105 -510q-29 -142 -101 -201t-188 -59q-104 0 -155 59t-33 159z" />
    <glyph glyph-name="uni01CB" unicode="&#x1cb;" horiz-adv-x="1024" 
d="M35 0l153 755h113l252 -629l122 629h93l-153 -755h-111l-253 640l-124 -640h-92zM632 -207l20 73q26 -12 51 -12q39 0 58 29.5t29 80.5l111 571h90l-117 -599q-32 -161 -163 -161q-49 0 -79 18zM922 653l21 102h96l-21 -102h-96z" />
    <glyph glyph-name="uni01CC" unicode="&#x1cc;" horiz-adv-x="856" 
d="M30 0l110 535h87l-19 -95q27 42 73 75.5t104 33.5q79 0 116.5 -43t37.5 -115q0 -34 -9 -81l-64 -310h-91l65 319q6 34 6 56q0 95 -86 95q-66 0 -122 -64q-43 -49 -71 -184l-45 -222h-92zM464 -207l20 73q26 -12 51 -12q39 0 58 29.5t29 80.5l111 571h90l-117 -599
q-32 -161 -163 -161q-49 0 -79 18zM754 653l21 102h96l-21 -102h-96z" />
    <glyph glyph-name="uni01F1" unicode="&#x1f1;" horiz-adv-x="1345" 
d="M35 0l156 755q104 2 194 2q108 0 180 -30q77 -33 116 -104t39 -169q0 -218 -126.5 -337.5t-324.5 -119.5q-141 0 -234 3zM271 678l-123 -600q52 -3 125 -3q147 0 246 96t99 278q0 159 -110 208q-52 23 -133 23q-44 0 -104 -2zM693 0l17 79l557 597l-414 -4l18 83h529
l-17 -80l-549 -596l428 5l-18 -84h-551z" />
    <glyph glyph-name="uni01F2" unicode="&#x1f2;" horiz-adv-x="1246" 
d="M35 0l156 755q104 2 194 2q108 0 180 -30q77 -33 116 -104t39 -169q0 -218 -126.5 -337.5t-324.5 -119.5q-141 0 -234 3zM271 678l-123 -600q52 -3 125 -3q147 0 246 96t99 278q0 159 -110 208q-52 23 -133 23q-44 0 -104 -2zM725 0l16 76l373 383l-286 -2l17 78h396
l-16 -75l-364 -383l300 2l-17 -79h-419z" />
    <glyph glyph-name="uni01F3" unicode="&#x1f3;" horiz-adv-x="1100" 
d="M376 0l18 88q-22 -39 -69 -70.5t-96 -31.5q-91 0 -140 58.5t-49 161.5q0 84 33.5 162.5t98.5 130t145 51.5q109 0 149 -106l66 334h90l-159 -778h-87zM254 62q80 0 131.5 85t51.5 177q0 150 -121 150q-52 0 -95 -42.5t-64.5 -101t-21.5 -115.5q0 -153 119 -153zM579 0
l16 76l373 383l-286 -2l17 78h396l-16 -75l-364 -383l300 2l-17 -79h-419z" />
    <glyph glyph-name="Aringacute" unicode="&#x1fa;" horiz-adv-x="693" 
d="M-50 0l449 755h105l118 -755h-101l-30 218h-310l-123 -218h-108zM430 657l-208 -367h259zM356 880q0 49 36.5 85.5t88.5 36.5q46 0 79.5 -27.5t33.5 -76.5t-36.5 -85.5t-88.5 -36.5q-46 0 -79.5 27.5t-33.5 76.5zM430 1021l200 141h161l-241 -141h-120zM470 831
q25 0 44 18t19 45q0 21 -13.5 37t-39.5 16q-25 0 -44 -18t-19 -45q0 -21 13.5 -37t39.5 -16z" />
    <glyph glyph-name="aringacute" unicode="&#x1fb;" horiz-adv-x="558" 
d="M345 0l12 77q-71 -87 -176 -87q-67 0 -114 36.5t-47 106.5q0 65 39.5 109t95 61t121.5 17q74 0 128 -8q9 42 9 61q0 101 -105 101q-25 0 -47 -8t-35.5 -20t-23.5 -24t-14 -20l-4 -8l-79 31q29 60 84.5 92t125.5 32q117 0 163 -66q25 -36 25 -91q0 -39 -8 -72l-43 -200
q-6 -28 -10.5 -58t-5.5 -46l-1 -16h-90zM388 239l1 6q-32 4 -110 4q-71 0 -118.5 -25.5t-47.5 -81.5q0 -36 25.5 -58t65.5 -22q79 0 125.5 54t58.5 123zM245 686q0 49 36.5 85.5t88.5 36.5q46 0 79.5 -27.5t33.5 -76.5t-36.5 -85.5t-88.5 -36.5q-46 0 -79.5 27.5t-33.5 76.5
zM359 637q25 0 44 18t19 45q0 21 -13.5 37t-39.5 16q-25 0 -44 -18t-19 -45q0 -21 13.5 -37t39.5 -16zM340 832l185 176h146l-231 -176h-100z" />
    <glyph glyph-name="AEacute" unicode="&#x1fc;" horiz-adv-x="1031" 
d="M497 0l45 218h-297l-191 -218h-114l670 755h466l-18 -81l-328 1l-52 -252h289l-18 -78h-287l-54 -264l349 2l-18 -83h-442zM308 290h248l76 368zM716 826l200 141h161l-241 -141h-120z" />
    <glyph glyph-name="aeacute" unicode="&#x1fd;" horiz-adv-x="918" 
d="M359 0l12 77q-71 -87 -176 -87q-67 0 -114 36.5t-47 106.5q0 65 37 108.5t90 60t119 16.5h140q7 25 7 55q0 101 -105 101q-25 0 -47 -8t-35.5 -20t-23.5 -24t-14 -20l-4 -8l-79 31q29 60 84.5 92t125.5 32q127 0 170 -95q73 95 187 95q82 0 132.5 -43t60 -110t-8.5 -149
h-375q-2 -12 -2 -36q0 -69 34.5 -108t103.5 -39q82 0 140 81l72 -30q-30 -57 -89 -91t-130 -34q-65 0 -105 19t-62 67l-8 -76h-90zM402 239l1 8h-120q-156 0 -156 -105q0 -36 25.5 -58t65.5 -22q80 0 127.5 54.5t56.5 122.5zM678 475q-57 0 -100.5 -45t-66.5 -112h281
q9 71 -19.5 114t-94.5 43zM459 632l185 176h146l-231 -176h-100z" />
    <glyph glyph-name="Oslashacute" unicode="&#x1fe;" horiz-adv-x="784" 
d="M357 -15q-119 0 -191 66l-87 -100l-58 44l99 113q-45 76 -45 183q0 118 49.5 232.5t137.5 178.5q87 63 202 63q108 0 179 -60l73 83l56 -46l-80 -91q52 -80 52 -197q0 -120 -53 -236.5t-146 -178.5q-80 -54 -188 -54zM360 66q85 0 151.5 61t98.5 147t32 175q0 67 -21 121
l-393 -448q46 -56 132 -56zM177 296q0 -58 15 -106l389 444q-48 50 -127 50q-64 0 -118 -36.5t-88 -94.5t-52.5 -125t-18.5 -132zM373 826l200 141h161l-241 -141h-120z" />
    <glyph glyph-name="oslashacute" unicode="&#x1ff;" horiz-adv-x="586" 
d="M257 -15q-79 0 -134 38l-60 -68l-57 42l68 77q-34 56 -34 133q0 83 33.5 160t102 129.5t155.5 52.5q77 0 129 -37l62 70l54 -44l-67 -76q37 -56 37 -135q0 -83 -33 -160t-101 -129.5t-155 -52.5zM264 59q55 0 99 42.5t66 101t22 115.5q0 37 -9 67l-262 -297
q31 -29 84 -29zM135 213q0 -32 8 -61l260 295q-31 28 -81 28q-80 0 -133.5 -85t-53.5 -177zM281 632l185 176h146l-231 -176h-100z" />
    <glyph glyph-name="Scommaaccent" unicode="&#x218;" horiz-adv-x="640" 
d="M16 217l94 7q0 -78 54.5 -118.5t136.5 -40.5q69 0 123 37.5t54 97.5q0 52 -41 83.5t-131 69.5q-88 37 -132.5 82t-44.5 121q0 97 73.5 153t184.5 56q91 0 157.5 -45t85.5 -120l-88 -28q-13 54 -57.5 83.5t-104.5 29.5q-65 0 -109 -31.5t-44 -85.5q0 -15 4 -28.5
t8.5 -23.5t16.5 -20.5t18.5 -16.5t24 -15.5t24.5 -12.5t28.5 -12.5t27.5 -12.5q49 -22 77 -38t60 -42t46.5 -60t14.5 -78q0 -104 -85.5 -163.5t-202.5 -59.5q-39 0 -76.5 7t-74.5 24.5t-64 43t-43 66t-15 91.5zM225 -225l-33 23q38 36 47 80h-28l17 77h83l-16 -72
q-14 -65 -70 -108z" />
    <glyph glyph-name="scommaaccent" unicode="&#x219;" horiz-adv-x="463" 
d="M-5 127l81 27q27 -96 132 -96q48 0 79.5 23t31.5 60q0 19 -7 33t-26 26t-33 19t-46 20q-129 53 -129 153q0 70 53 113.5t136 43.5q69 0 115.5 -32t65.5 -89l-77 -31q-10 38 -39.5 59t-69.5 21q-41 0 -68.5 -21t-27.5 -54q0 -17 5.5 -29.5t21 -23.5t29 -18t42.5 -21
q38 -18 57.5 -29t43 -29.5t33.5 -42.5t10 -55q0 -80 -61.5 -124.5t-146.5 -44.5q-74 0 -131.5 36t-73.5 106zM133 -225l-33 23q38 36 47 80h-28l17 77h83l-16 -72q-14 -65 -70 -108z" />
    <glyph glyph-name="uni021D" unicode="&#x21d;" horiz-adv-x="471" 
d="M-55 -219l5 74q39 -2 86 -1.5t97 15.5t91 36.5t67 61.5t26 91q0 36 -20.5 62t-51 36.5t-66.5 14t-66 -5.5l18 85q44 -5 90.5 5.5t83 44.5t36.5 84q0 44 -27 67t-72 23q-49 0 -83 -26.5t-46 -58.5l-83 27q20 52 79.5 92.5t135.5 40.5q80 0 135.5 -38.5t55.5 -114.5
q0 -62 -36.5 -109.5t-97.5 -72.5q55 -21 83 -61.5t28 -88.5q0 -83 -46 -144.5t-118 -92t-150.5 -42t-153.5 -4.5z" />
    <glyph glyph-name="uni0226" unicode="&#x226;" horiz-adv-x="687" 
d="M-50 0l449 755h105l118 -755h-101l-30 218h-310l-123 -218h-108zM430 657l-208 -367h259zM418 821l21 102h96l-21 -102h-96z" />
    <glyph glyph-name="uni0227" unicode="&#x227;" horiz-adv-x="558" 
d="M345 0l12 77q-71 -87 -176 -87q-67 0 -114 36.5t-47 106.5q0 65 39.5 109t95 61t121.5 17q74 0 128 -8q9 42 9 61q0 101 -105 101q-25 0 -47 -8t-35.5 -20t-23.5 -24t-14 -20l-4 -8l-79 31q29 60 84.5 92t125.5 32q117 0 163 -66q25 -36 25 -91q0 -39 -8 -72l-43 -200
q-6 -28 -10.5 -58t-5.5 -46l-1 -16h-90zM388 239l1 6q-32 4 -110 4q-71 0 -118.5 -25.5t-47.5 -81.5q0 -36 25.5 -58t65.5 -22q79 0 125.5 54t58.5 123zM303 653l21 102h96l-21 -102h-96z" />
    <glyph glyph-name="uni0232" unicode="&#x232;" horiz-adv-x="556" 
d="M171 0l63 308l-154 447h106l113 -358l255 358h107l-332 -452l-62 -303h-96zM197 826l15 75h382l-15 -75h-382z" />
    <glyph glyph-name="uni0233" unicode="&#x233;" horiz-adv-x="487" 
d="M10 -222l126 222l-76 535h94l51 -425l222 425h95l-291 -535l-123 -222h-98zM142 680l15 75h362l-15 -75h-362z" />
    <glyph glyph-name="dotlessj" unicode="&#x237;" horiz-adv-x="267" 
d="M-125 -207l20 73q25 -12 51 -12q39 0 58 29.5t29 80.5l111 571h90l-117 -599q-32 -161 -163 -161q-49 0 -79 18z" />
    <glyph glyph-name="uni0254" unicode="&#x254;" horiz-adv-x="525" 
d="M2 139l81 23q10 -46 41 -73.5t79 -27.5q81 0 134 83t53 174q0 71 -30 113t-94 42q-39 0 -73 -21.5t-52 -56.5l-79 32q31 57 86.5 89.5t126.5 32.5q100 0 155 -60t55 -162q0 -83 -33 -160t-101 -129.5t-155 -52.5q-81 0 -132 43t-62 111z" />
    <glyph glyph-name="uni0259" unicode="&#x259;" horiz-adv-x="583" 
d="M262 -15q-51 0 -91.5 17.5t-64.5 46.5t-38.5 68t-13.5 82t10 87h385q2 22 2 32q0 75 -34 115t-100 40q-44 0 -82 -23t-56 -60l-79 32q30 59 90 93t136 34q102 0 159.5 -58t57.5 -164q0 -62 -18.5 -122t-53 -109.5t-89 -80t-120.5 -30.5zM269 59q58 0 101 44.5t64 111.5
h-287q-8 -60 24 -108t98 -48z" />
    <glyph glyph-name="uni025B" unicode="&#x25b;" horiz-adv-x="454" 
d="M392 89l-5 -79q-67 -21 -151 -21q-95 0 -160.5 33.5t-65.5 107.5q0 62 44 104t101 54q-65 26 -65 91q0 78 62.5 121t151.5 43q93 0 175 -39l-23 -74q-26 15 -71 25.5t-89 10.5q-116 0 -116 -82q0 -32 27 -53t72 -21h89l-15 -69h-99q-149 0 -149 -94q0 -43 40 -62.5
t100 -19.5q80 0 147 24z" />
    <glyph glyph-name="uni0272" unicode="&#x272;" horiz-adv-x="594" 
d="M-135 -207l20 73q25 -12 51 -12q39 0 58 29.5t29 80.5l117 571h87l-19 -95q27 42 73 75.5t104 33.5q79 0 116.5 -43t37.5 -115q0 -34 -9 -81l-64 -310h-91l65 319q6 34 6 56q0 95 -86 95q-66 0 -122 -64q-43 -49 -71 -184l-58 -286q-32 -161 -165 -161q-49 0 -79 18z" />
    <glyph glyph-name="uni0275" unicode="&#x275;" horiz-adv-x="586" 
d="M257 -15q-101 0 -159 60t-58 162q0 83 33.5 160t102 129.5t155.5 52.5q100 0 157.5 -60.5t57.5 -161.5q0 -83 -33 -160t-101 -129.5t-155 -52.5zM264 59q62 0 108.5 50.5t66.5 124.5h-304v-21q0 -70 32.5 -112t96.5 -42zM322 475q-59 0 -104.5 -48.5t-67.5 -119.5h301v11
q0 70 -32.5 113.5t-96.5 43.5z" />
    <glyph glyph-name="circumflex" unicode="&#x2c6;" 
d="M144 623l22 94l193 110l141 -117l-19 -85l-136 110z" />
    <glyph glyph-name="caron" unicode="&#x2c7;" 
d="M144 735l19 85l141 -105l196 112l-22 -94l-188 -110z" />
    <glyph glyph-name="breve" unicode="&#x2d8;" 
d="M140 799l63 14q-1 -42 26 -69t76 -27q48 0 84 26.5t52 71.5l59 -16q-19 -77 -72 -114.5t-128 -37.5q-71 0 -118.5 39t-41.5 113z" />
    <glyph glyph-name="dotaccent" unicode="&#x2d9;" horiz-adv-x="277" 
d="M161 653l21 102h96l-21 -102h-96z" />
    <glyph glyph-name="ring" unicode="&#x2da;" 
d="M262 686q0 49 36.5 85.5t88.5 36.5q46 0 79.5 -27.5t33.5 -76.5t-36.5 -85.5t-88.5 -36.5q-46 0 -79.5 27.5t-33.5 76.5zM376 637q25 0 44 18t19 45q0 21 -13.5 37t-39.5 16q-25 0 -44 -18t-19 -45q0 -21 13.5 -37t39.5 -16z" />
    <glyph glyph-name="ogonek" unicode="&#x2db;" 
d="M321 -160l21 -51q-33 -21 -77 -21q-47 0 -81.5 24t-34.5 66q0 87 163 149l71 -7q-81 -34 -117 -63t-36 -65q0 -20 15 -30t37 -10q21 0 39 8z" />
    <glyph glyph-name="tilde" unicode="&#x2dc;" 
d="M168 639l-50 6q3 17 9.5 34t19.5 38.5t37 34.5t56 13q36 0 80.5 -26t72.5 -26q46 0 57 55l50 -5q-3 -16 -10 -34t-20.5 -38.5t-38 -34t-56.5 -13.5q-33 0 -78.5 26t-72.5 26q-20 0 -35.5 -16t-20.5 -40z" />
    <glyph glyph-name="hungarumlaut" unicode="&#x2dd;" horiz-adv-x="737" 
d="M191 632l165 176h131l-206 -176h-90zM409 632l165 176h131l-206 -176h-90z" />
    <glyph glyph-name="uni032C" unicode="&#x32c;" horiz-adv-x="543" 
d="M-30 -109l8 76q46 -5 98.5 -0.5t107.5 22t99.5 45t72.5 73.5t28 103q0 42 -20.5 71.5t-50.5 41.5t-64.5 16.5t-63.5 -5.5l17 79q84 1 149.5 48t65.5 125q0 48 -29.5 75t-79.5 27q-46 0 -82.5 -20.5t-53.5 -52.5l-72 35q27 50 85.5 82.5t128.5 32.5q80 0 139.5 -43
t59.5 -125q0 -73 -42 -128t-115 -78q59 -20 91 -69.5t32 -112.5q0 -89 -49 -156.5t-126 -103.5t-164 -51t-170 -7z" />
    <glyph glyph-name="Delta" unicode="&#x394;" horiz-adv-x="664" 
d="M-25 0l15 75l374 602h99l119 -602l-15 -75h-592zM77 75h422l-100 518z" />
    <glyph glyph-name="Omega" unicode="&#x3a9;" horiz-adv-x="781" 
d="M0 0l16 76l167 -3q-44 41 -73 104t-29 129q0 104 47.5 190t131.5 137q79 48 184 48q126 0 204 -81t78 -200q0 -214 -191 -327l153 3l-16 -76h-266l15 73q89 40 146 125.5t57 196.5q0 80 -49.5 142.5t-138.5 62.5q-116 0 -185 -84t-69 -206q0 -138 85 -234l-16 -76h-251z
" />
    <glyph glyph-name="mu" unicode="&#x3bc;" horiz-adv-x="603" 
d="M-26 -222l156 757h91l-65 -319q-6 -34 -6 -56q0 -95 81 -95q61 0 117 64q43 49 71 184l45 222h92l-110 -535h-87l19 95q-28 -44 -74.5 -76.5t-93.5 -32.5q-66 0 -94 45l-52 -253h-90z" />
    <glyph glyph-name="pi" unicode="&#x3c0;" horiz-adv-x="665" 
d="M80 0l97 459h-82l16 76h583l-16 -76h-100l-65 -304q-5 -25 -5 -39q0 -48 51 -48q12 0 50 6l-12 -71q-38 -13 -77 -13q-54 0 -79 29t-25 78q0 20 5 48l65 314h-214l-97 -459h-95z" />
    <glyph glyph-name="Wgrave" unicode="&#x1e80;" horiz-adv-x="959" 
d="M125 0l-40 755h98l24 -675l302 675h126l7 -661l317 661h100l-370 -755h-134l-6 643l-288 -643h-136zM356 967h133l146 -141h-112z" />
    <glyph glyph-name="wgrave" unicode="&#x1e81;" horiz-adv-x="775" 
d="M109 0l-49 535h90l26 -411l205 401h92l30 -419l215 429h92l-284 -535h-95l-29 409l-212 -409h-81zM385 632l-157 176h133l116 -176h-92z" />
    <glyph glyph-name="Wacute" unicode="&#x1e82;" horiz-adv-x="959" 
d="M125 0l-40 755h98l24 -675l302 675h126l7 -661l317 661h100l-370 -755h-134l-6 643l-288 -643h-136zM481 826l200 141h161l-241 -141h-120z" />
    <glyph glyph-name="wacute" unicode="&#x1e83;" horiz-adv-x="775" 
d="M109 0l-49 535h90l26 -411l205 401h92l30 -419l215 429h92l-284 -535h-95l-29 409l-212 -409h-81zM379 632l185 176h146l-231 -176h-100z" />
    <glyph glyph-name="Wdieresis" unicode="&#x1e84;" horiz-adv-x="959" 
d="M125 0l-40 755h98l24 -675l302 675h126l7 -661l317 661h100l-370 -755h-134l-6 643l-288 -643h-136zM425 826l22 105h104l-22 -105h-104zM644 826l22 105h104l-22 -105h-104z" />
    <glyph glyph-name="wdieresis" unicode="&#x1e85;" horiz-adv-x="775" 
d="M109 0l-49 535h90l26 -411l205 401h92l30 -419l215 429h92l-284 -535h-95l-29 409l-212 -409h-81zM299 653l22 105h99l-22 -105h-99zM508 653l22 105h99l-22 -105h-99z" />
    <glyph glyph-name="uni1EA0" unicode="&#x1ea0;" horiz-adv-x="687" 
d="M-50 0l449 755h105l118 -755h-101l-30 218h-310l-123 -218h-108zM430 657l-208 -367h259zM207 -194l21 102h96l-21 -102h-96z" />
    <glyph glyph-name="uni1EA1" unicode="&#x1ea1;" horiz-adv-x="558" 
d="M345 0l12 77q-71 -87 -176 -87q-67 0 -114 36.5t-47 106.5q0 65 39.5 109t95 61t121.5 17q74 0 128 -8q9 42 9 61q0 101 -105 101q-25 0 -47 -8t-35.5 -20t-23.5 -24t-14 -20l-4 -8l-79 31q29 60 84.5 92t125.5 32q117 0 163 -66q25 -36 25 -91q0 -39 -8 -72l-43 -200
q-6 -28 -10.5 -58t-5.5 -46l-1 -16h-90zM388 239l1 6q-32 4 -110 4q-71 0 -118.5 -25.5t-47.5 -81.5q0 -36 25.5 -58t65.5 -22q79 0 125.5 54t58.5 123zM146 -194l21 102h96l-21 -102h-96z" />
    <glyph glyph-name="uni1EB8" unicode="&#x1eb8;" horiz-adv-x="579" 
d="M35 0l155 755h434l-18 -81l-338 1l-52 -252h289l-18 -78h-287l-54 -264l349 2l-18 -83h-442zM184 -194l21 102h96l-21 -102h-96z" />
    <glyph glyph-name="uni1EB9" unicode="&#x1eb9;" horiz-adv-x="556" 
d="M508 254h-374q-3 -22 -3 -43q0 -70 35 -111t103 -41q82 0 140 81l72 -30q-30 -57 -89 -91t-130 -34q-105 0 -163.5 59t-58.5 161q0 85 33 162.5t99.5 129.5t151.5 52q119 0 167.5 -85.5t16.5 -209.5zM316 475q-55 0 -98 -42.5t-67 -107.5h279q8 69 -21.5 109.5
t-92.5 40.5zM140 -194l21 102h96l-21 -102h-96z" />
    <glyph glyph-name="uni1ECA" unicode="&#x1eca;" horiz-adv-x="282" 
d="M35 0l155 755h97l-155 -755h-97zM-4 -194l21 102h96l-21 -102h-96z" />
    <glyph glyph-name="uni1ECB" unicode="&#x1ecb;" horiz-adv-x="262" 
d="M30 0l109 535h92l-109 -535h-92zM161 653l21 102h96l-21 -102h-96zM-12 -194l21 102h96l-21 -102h-96z" />
    <glyph glyph-name="uni1ECC" unicode="&#x1ecc;" horiz-adv-x="784" 
d="M357 -15q-132 0 -207 82.5t-75 223.5q0 118 49.5 232.5t137.5 178.5q87 63 202 63q131 0 205.5 -85t74.5 -226q0 -120 -53 -236.5t-146 -178.5q-80 -54 -188 -54zM360 66q85 0 151.5 61t98.5 147t32 175q0 102 -47 168.5t-141 66.5q-64 0 -118 -36.5t-88 -94.5
t-52.5 -125t-18.5 -132q0 -101 44.5 -165.5t138.5 -64.5zM247 -194l21 102h96l-21 -102h-96z" />
    <glyph glyph-name="uni1ECD" unicode="&#x1ecd;" horiz-adv-x="586" 
d="M257 -15q-101 0 -159 60t-58 162q0 83 33.5 160t102 129.5t155.5 52.5q100 0 157.5 -60.5t57.5 -161.5q0 -83 -33 -160t-101 -129.5t-155 -52.5zM264 59q55 0 99 42.5t66 101t22 115.5q0 70 -32.5 113.5t-96.5 43.5q-80 0 -133.5 -85t-53.5 -177q0 -70 32.5 -112
t96.5 -42zM149 -194l21 102h96l-21 -102h-96z" />
    <glyph glyph-name="uni1EE4" unicode="&#x1ee4;" horiz-adv-x="732" 
d="M94 333l90 422h98l-90 -425q-17 -85 -17 -125q0 -68 36 -104t107 -36q79 0 127 37.5t78 105.5q16 36 36 127l89 420h94l-96 -449q-24 -115 -57 -170q-90 -151 -288 -151q-109 0 -167.5 56t-58.5 153q0 46 19 139zM217 -194l21 102h96l-21 -102h-96z" />
    <glyph glyph-name="uni1EE5" unicode="&#x1ee5;" horiz-adv-x="586" 
d="M64 217l66 318h91l-65 -319q-6 -34 -6 -56q0 -95 81 -95q61 0 117 64q43 49 71 184l45 222h92l-110 -535h-87l19 95q-26 -41 -72.5 -75t-99.5 -34q-75 0 -112.5 40.5t-37.5 109.5q0 39 8 81zM150 -194l21 102h96l-21 -102h-96z" />
    <glyph glyph-name="Ygrave" unicode="&#x1ef2;" horiz-adv-x="556" 
d="M171 0l63 308l-154 447h106l113 -358l255 358h107l-332 -452l-62 -303h-96zM172 967h133l146 -141h-112z" />
    <glyph glyph-name="ygrave" unicode="&#x1ef3;" horiz-adv-x="487" 
d="M10 -222l126 222l-76 535h94l51 -425l222 425h95l-291 -535l-123 -222h-98zM253 632l-157 176h133l116 -176h-92z" />
    <glyph glyph-name="endash" unicode="&#x2013;" 
d="M-8 253l16 74h500l-16 -74h-500z" />
    <glyph glyph-name="emdash" unicode="&#x2014;" horiz-adv-x="1000" 
d="M-8 253l16 74h1000l-16 -74h-1000z" />
    <glyph glyph-name="quoteleft" unicode="&#x2018;" horiz-adv-x="225" 
d="M233 789l42 -34q-33 -31 -53 -60t-28 -72h46l-28 -129h-122l26 120q10 45 33.5 84t40 54t43.5 37z" />
    <glyph glyph-name="quoteright" unicode="&#x2019;" horiz-adv-x="225" 
d="M132 460l-42 34q33 31 53 60t28 72h-46l28 129h122l-26 -120q-10 -45 -33.5 -84t-40 -54t-43.5 -37z" />
    <glyph glyph-name="quotesinglbase" unicode="&#x201a;" horiz-adv-x="240" 
d="M22 -166l-42 34q33 31 53 60t28 72h-46l28 129h122l-26 -120q-10 -45 -33.5 -84t-40 -54t-43.5 -37z" />
    <glyph glyph-name="quotedblleft" unicode="&#x201c;" horiz-adv-x="421" 
d="M233 789l42 -34q-33 -31 -53 -60t-28 -72h46l-28 -129h-122l26 120q10 45 33.5 84t40 54t43.5 37zM429 789l42 -34q-33 -31 -53 -60t-28 -72h46l-28 -129h-122l26 120q10 45 33.5 84t40 54t43.5 37z" />
    <glyph glyph-name="quotedblright" unicode="&#x201d;" horiz-adv-x="421" 
d="M132 460l-42 34q33 31 53 60t28 72h-46l28 129h122l-26 -120q-10 -45 -33.5 -84t-40 -54t-43.5 -37zM328 460l-42 34q33 31 53 60t28 72h-46l28 129h122l-26 -120q-10 -45 -33.5 -84t-40 -54t-43.5 -37z" />
    <glyph glyph-name="quotedblbase" unicode="&#x201e;" horiz-adv-x="436" 
d="M22 -166l-42 34q33 31 53 60t28 72h-46l28 129h122l-26 -120q-10 -45 -33.5 -84t-40 -54t-43.5 -37zM218 -166l-42 34q33 31 53 60t28 72h-46l28 129h122l-26 -120q-10 -45 -33.5 -84t-40 -54t-43.5 -37z" />
    <glyph glyph-name="dagger" unicode="&#x2020;" horiz-adv-x="521" 
d="M70 483l18 82h170l41 190h91l-41 -190h172l-18 -82h-171l-137 -645h-91l137 645h-171z" />
    <glyph glyph-name="daggerdbl" unicode="&#x2021;" horiz-adv-x="524" 
d="M73 483l18 82h170l41 190h91l-41 -190h172l-18 -82h-171l-35 -163h171l-18 -82h-170l-85 -400h-91l85 400h-172l18 82h171l35 163h-171z" />
    <glyph glyph-name="bullet" unicode="&#x2022;" horiz-adv-x="312" 
d="M156 203q-38 0 -64.5 26.5t-26.5 64.5t26.5 64.5t64.5 26.5t64.5 -26.5t26.5 -64.5t-26.5 -64.5t-64.5 -26.5z" />
    <glyph glyph-name="ellipsis" unicode="&#x2026;" horiz-adv-x="701" 
d="M20 0l27 129h129l-27 -129h-129zM240 0l27 129h129l-27 -129h-129zM460 0l27 129h129l-27 -129h-129z" />
    <glyph glyph-name="perthousand" unicode="&#x2030;" horiz-adv-x="1284" 
d="M118 -15l600 710h99l-599 -710h-100zM221 333q-63 0 -99.5 38.5t-36.5 101.5q0 83 50.5 149.5t132.5 66.5q63 0 99 -38.5t36 -101.5q0 -83 -50 -149.5t-132 -66.5zM229 399q42 0 69 45t27 94q0 38 -16.5 61.5t-49.5 23.5q-42 0 -69 -45.5t-27 -95.5q0 -83 66 -83z
M671 -11q-63 0 -99.5 38.5t-36.5 101.5q0 83 50.5 149.5t132.5 66.5q63 0 99 -38.5t36 -101.5q0 -83 -50 -149.5t-132 -66.5zM679 55q42 0 69 45t27 94q0 38 -16.5 61.5t-49.5 23.5q-42 0 -69 -45.5t-27 -95.5q0 -83 66 -83zM1037 -11q-63 0 -99.5 38.5t-36.5 101.5
q0 83 50.5 149.5t132.5 66.5q63 0 99 -38.5t36 -101.5q0 -83 -50 -149.5t-132 -66.5zM1045 55q42 0 69 45t27 94q0 38 -16.5 61.5t-49.5 23.5q-42 0 -69 -45.5t-27 -95.5q0 -83 66 -83z" />
    <glyph glyph-name="guilsinglleft" unicode="&#x2039;" horiz-adv-x="279" 
d="M115 112l-80 170l145 165h89l-142 -170l72 -165h-84z" />
    <glyph glyph-name="guilsinglright" unicode="&#x203a;" horiz-adv-x="269" 
d="M154 447l80 -170l-145 -165h-89l142 170l-72 165h84z" />
    <glyph glyph-name="fraction" unicode="&#x2044;" horiz-adv-x="763" 
d="M0 0l664 677h99l-664 -677h-99z" />
    <glyph glyph-name="Euro" unicode="&#x20ac;" horiz-adv-x="584" 
d="M30 308l17 79h57q31 131 120 219.5t219 88.5q65 0 113 -26t73 -70l-80 -46q-34 61 -113 61q-84 0 -144.5 -66t-85.5 -161h230l-17 -79h-227q-1 -11 -1 -31q0 -89 40.5 -149t122.5 -60q75 0 117 50l68 -55q-68 -78 -194 -78q-120 0 -187.5 77.5t-67.5 208.5q0 24 1 37h-61
z" />
    <glyph glyph-name="trademark" unicode="&#x2122;" horiz-adv-x="438" 
d="M109 581l32 156h-51l8 41h153l-8 -41h-53l-31 -156h-50zM237 581l42 197h72l10 -136l65 136h72l-34 -197h-47l30 144l-72 -144h-50l-13 145l-28 -145h-47z" />
    <glyph glyph-name="partialdiff" unicode="&#x2202;" horiz-adv-x="591" 
d="M196 593l-14 74q67 15 128 15q68 0 115.5 -21.5t73 -62t36.5 -89.5t11 -113q0 -178 -79.5 -294.5t-214.5 -116.5q-95 0 -156 55.5t-61 146.5q0 122 76 214.5t193 92.5q48 0 88 -23.5t65 -62.5q0 94 -37 146t-125 52q-44 0 -99 -13zM259 59q76 0 125.5 70t49.5 154
q0 60 -35.5 98.5t-93.5 38.5q-76 0 -125.5 -69t-49.5 -158q0 -60 35.5 -97t93.5 -37z" />
    <glyph glyph-name="product" unicode="&#x220f;" horiz-adv-x="643" 
d="M50 0l123 596h-69l17 81h562l-17 -81h-56l-124 -596h-93l124 596h-246l-123 -596h-98z" />
    <glyph glyph-name="summation" unicode="&#x2211;" horiz-adv-x="549" 
d="M-30 0l17 84l278 264l-150 254l15 75h469l-17 -83l-358 2l154 -253l-267 -262l367 3l-17 -84h-491z" />
    <glyph glyph-name="minus" unicode="&#x2212;" horiz-adv-x="542" 
d="M45 296l17 81h450l-17 -81h-450z" />
    <glyph glyph-name="radical" unicode="&#x221a;" horiz-adv-x="564" 
d="M126 0l-76 389h95l51 -282l367 671h101l-435 -778h-103z" />
    <glyph glyph-name="infinity" unicode="&#x221e;" horiz-adv-x="817" 
d="M431 334q50 41 73 57.5t61 32.5t78 16q64 0 103.5 -33.5t39.5 -89.5q0 -79 -57.5 -132.5t-141.5 -53.5q-57 0 -94 26t-82 82q-49 -41 -72.5 -58.5t-62 -33.5t-78.5 -16q-61 0 -101.5 35.5t-40.5 92.5q0 79 57 130t141 51q58 0 95.5 -25.5t81.5 -80.5zM469 287
q40 -48 67 -68t63 -20q44 0 75 30.5t31 76.5q0 31 -20.5 49t-53.5 18q-61 0 -162 -86zM372 286q-68 87 -130 87q-44 0 -74.5 -30t-30.5 -76q0 -31 20 -49.5t53 -18.5q36 0 68 19t94 68z" />
    <glyph glyph-name="integral" unicode="&#x222b;" horiz-adv-x="352" 
d="M-90 -214l19 75q30 -7 58 -7q33 0 48 21t23 57l147 709q16 74 59.5 108.5t103.5 34.5q22 0 40.5 -3t25.5 -5l8 -3l-19 -73q-30 7 -58 7q-19 0 -32.5 -6.5t-21 -20t-10.5 -24t-7 -29.5l-148 -709q-16 -74 -59 -108.5t-103 -34.5q-22 0 -40.5 2.5t-25.5 5.5z" />
    <glyph glyph-name="approxequal" unicode="&#x2248;" horiz-adv-x="619" 
d="M100 305l-44 6q13 62 49.5 105.5t97.5 43.5q50 0 143 -36.5t142 -36.5q29 0 50.5 23.5t31.5 47.5l44 -6q-13 -62 -49.5 -105.5t-97.5 -43.5q-50 0 -144.5 36.5t-140.5 36.5q-29 0 -50.5 -23.5t-31.5 -47.5zM64 120l-44 6q13 62 49.5 105.5t97.5 43.5q50 0 143 -36.5
t142 -36.5q29 0 50.5 23.5t31.5 47.5l44 -6q-13 -62 -49.5 -105.5t-97.5 -43.5q-50 0 -144.5 36.5t-140.5 36.5q-29 0 -50.5 -23.5t-31.5 -47.5z" />
    <glyph glyph-name="notequal" unicode="&#x2260;" horiz-adv-x="567" 
d="M91 393l16 78h259l83 100h84l-82 -100h86l-16 -78h-134l-93 -113h202l-16 -78h-250l-80 -98h-85l80 98h-95l16 78h143l93 113h-211z" />
    <glyph glyph-name="lessequal" unicode="&#x2264;" horiz-adv-x="507" 
d="M57 283l14 67l436 172l-20 -94l-314 -116l262 -133l-19 -88zM-5 -14l15 76h400l-16 -76h-399z" />
    <glyph glyph-name="greaterequal" unicode="&#x2265;" horiz-adv-x="492" 
d="M12 91l20 94l314 116l-262 133l19 88l359 -192l-14 -67zM-10 -14l15 76h400l-16 -76h-399z" />
    <glyph glyph-name="lozenge" unicode="&#x25ca;" horiz-adv-x="575" 
d="M176 0l-86 339l229 338h99l87 -338l-230 -339h-99zM237 68l189 281l-67 266l-190 -285z" />
    <glyph glyph-name="commaaccent" unicode="&#xf6c3;" horiz-adv-x="267" 
d="M110 115l-33 23q38 36 47 80h-28l17 77h83l-16 -72q-14 -65 -70 -108z" />
    <glyph glyph-name="CR" horiz-adv-x="267" 
 />
    <glyph glyph-name="a.alt" horiz-adv-x="602" 
d="M376 0l18 87q-22 -39 -69 -70t-96 -31q-91 0 -140 58.5t-49 161.5q0 82 33.5 160t98.5 131t145 53q109 0 149 -106l19 91h87l-109 -535h-87zM254 62q80 0 131.5 85t51.5 177q0 150 -121 150q-52 0 -95 -42.5t-64.5 -101t-21.5 -115.5q0 -153 119 -153z" />
    <glyph glyph-name="agrave.alt" horiz-adv-x="602" 
d="M376 0l18 87q-22 -39 -69 -70t-96 -31q-91 0 -140 58.5t-49 161.5q0 82 33.5 160t98.5 131t145 53q109 0 149 -106l19 91h87l-109 -535h-87zM254 62q80 0 131.5 85t51.5 177q0 150 -121 150q-52 0 -95 -42.5t-64.5 -101t-21.5 -115.5q0 -153 119 -153zM335 632l-157 176
h133l116 -176h-92z" />
    <glyph glyph-name="aacute.alt" horiz-adv-x="602" 
d="M376 0l18 87q-22 -39 -69 -70t-96 -31q-91 0 -140 58.5t-49 161.5q0 82 33.5 160t98.5 131t145 53q109 0 149 -106l19 91h87l-109 -535h-87zM254 62q80 0 131.5 85t51.5 177q0 150 -121 150q-52 0 -95 -42.5t-64.5 -101t-21.5 -115.5q0 -153 119 -153zM289 632l185 176
h146l-231 -176h-100z" />
    <glyph glyph-name="acircumflex.alt" horiz-adv-x="602" 
d="M376 0l18 87q-22 -39 -69 -70t-96 -31q-91 0 -140 58.5t-49 161.5q0 82 33.5 160t98.5 131t145 53q109 0 149 -106l19 91h87l-109 -535h-87zM254 62q80 0 131.5 85t51.5 177q0 150 -121 150q-52 0 -95 -42.5t-64.5 -101t-21.5 -115.5q0 -153 119 -153zM188 623l22 94
l193 110l141 -117l-19 -85l-136 110z" />
    <glyph glyph-name="atilde.alt" horiz-adv-x="602" 
d="M376 0l18 87q-22 -39 -69 -70t-96 -31q-91 0 -140 58.5t-49 161.5q0 82 33.5 160t98.5 131t145 53q109 0 149 -106l19 91h87l-109 -535h-87zM254 62q80 0 131.5 85t51.5 177q0 150 -121 150q-52 0 -95 -42.5t-64.5 -101t-21.5 -115.5q0 -153 119 -153zM233 639l-50 6
q3 17 9.5 34t19.5 38.5t37 34.5t56 13q36 0 80.5 -26t72.5 -26q46 0 57 55l50 -5q-3 -16 -10 -34t-20.5 -38.5t-38 -34t-56.5 -13.5q-33 0 -78.5 26t-72.5 26q-20 0 -35.5 -16t-20.5 -40z" />
    <glyph glyph-name="adieresis.alt" horiz-adv-x="602" 
d="M376 0l18 87q-22 -39 -69 -70t-96 -31q-91 0 -140 58.5t-49 161.5q0 82 33.5 160t98.5 131t145 53q109 0 149 -106l19 91h87l-109 -535h-87zM254 62q80 0 131.5 85t51.5 177q0 150 -121 150q-52 0 -95 -42.5t-64.5 -101t-21.5 -115.5q0 -153 119 -153zM211 653l22 105h99
l-22 -105h-99zM420 653l22 105h99l-22 -105h-99z" />
    <glyph glyph-name="aring.alt" horiz-adv-x="602" 
d="M376 0l18 87q-22 -39 -69 -70t-96 -31q-91 0 -140 58.5t-49 161.5q0 82 33.5 160t98.5 131t145 53q109 0 149 -106l19 91h87l-109 -535h-87zM254 62q80 0 131.5 85t51.5 177q0 150 -121 150q-52 0 -95 -42.5t-64.5 -101t-21.5 -115.5q0 -153 119 -153zM256 686
q0 49 36.5 85.5t88.5 36.5q46 0 79.5 -27.5t33.5 -76.5t-36.5 -85.5t-88.5 -36.5q-46 0 -79.5 27.5t-33.5 76.5zM370 637q25 0 44 18t19 45q0 21 -13.5 37t-39.5 16q-25 0 -44 -18t-19 -45q0 -21 13.5 -37t39.5 -16z" />
    <glyph glyph-name="ae.alt" horiz-adv-x="945" 
d="M366 0l16 78q-21 -37 -65 -64.5t-88 -27.5q-91 0 -140 58.5t-49 161.5q0 82 33.5 160t98.5 131t145 53q49 0 85.5 -25t55.5 -71l17 81h86l-16 -83q27 43 72.5 70t96.5 27q120 0 167.5 -89t14.5 -206h-374q-3 -22 -3 -43q0 -70 35 -111t103 -41q82 0 140 81l72 -30
q-30 -57 -89 -91t-130 -34q-137 0 -182 91l-15 -76h-87zM254 62q80 0 131.5 85t51.5 177q0 150 -121 150q-52 0 -95 -42.5t-64.5 -101t-21.5 -115.5q0 -153 119 -153zM704 475q-55 0 -98 -42.5t-67 -107.5h279q8 69 -21.5 109.5t-92.5 40.5z" />
    <glyph glyph-name="amacron.alt" horiz-adv-x="602" 
d="M376 0l18 87q-22 -39 -69 -70t-96 -31q-91 0 -140 58.5t-49 161.5q0 82 33.5 160t98.5 131t145 53q109 0 149 -106l19 91h87l-109 -535h-87zM254 62q80 0 131.5 85t51.5 177q0 150 -121 150q-52 0 -95 -42.5t-64.5 -101t-21.5 -115.5q0 -153 119 -153zM194 680l15 75h362
l-15 -75h-362z" />
    <glyph glyph-name="abreve.alt" horiz-adv-x="602" 
d="M376 0l18 87q-22 -39 -69 -70t-96 -31q-91 0 -140 58.5t-49 161.5q0 82 33.5 160t98.5 131t145 53q109 0 149 -106l19 91h87l-109 -535h-87zM254 62q80 0 131.5 85t51.5 177q0 150 -121 150q-52 0 -95 -42.5t-64.5 -101t-21.5 -115.5q0 -153 119 -153zM208 799l63 14
q-1 -42 26 -69t76 -27q48 0 84 26.5t52 71.5l59 -16q-19 -77 -72 -114.5t-128 -37.5q-71 0 -118.5 39t-41.5 113z" />
    <glyph glyph-name="aogonek.alt" horiz-adv-x="602" 
d="M402 -160l21 -51q-33 -21 -77 -21q-47 0 -81.5 24t-34.5 66q0 83 146 142l18 87q-22 -39 -69 -70t-96 -31q-91 0 -140 58.5t-49 161.5q0 82 33.5 160t98.5 131t145 53q109 0 149 -106l19 91h87l-109 -535h1q-81 -34 -117 -63t-36 -65q0 -20 15 -30t37 -10q21 0 39 8z
M254 62q80 0 131.5 85t51.5 177q0 150 -121 150q-52 0 -95 -42.5t-64.5 -101t-21.5 -115.5q0 -153 119 -153z" />
    <glyph glyph-name="aringacute.alt" horiz-adv-x="602" 
d="M376 0l18 87q-22 -39 -69 -70t-96 -31q-91 0 -140 58.5t-49 161.5q0 82 33.5 160t98.5 131t145 53q109 0 149 -106l19 91h87l-109 -535h-87zM254 62q80 0 131.5 85t51.5 177q0 150 -121 150q-52 0 -95 -42.5t-64.5 -101t-21.5 -115.5q0 -153 119 -153zM257 686
q0 49 36.5 85.5t88.5 36.5q46 0 79.5 -27.5t33.5 -76.5t-36.5 -85.5t-88.5 -36.5q-46 0 -79.5 27.5t-33.5 76.5zM366 832l185 176h146l-231 -176h-100zM371 637q25 0 44 18t19 45q0 21 -13.5 37t-39.5 16q-25 0 -44 -18t-19 -45q0 -21 13.5 -37t39.5 -16z" />
    <glyph glyph-name="aeacute.alt" horiz-adv-x="945" 
d="M366 0l16 78q-21 -37 -65 -64.5t-88 -27.5q-91 0 -140 58.5t-49 161.5q0 82 33.5 160t98.5 131t145 53q49 0 85.5 -25t55.5 -71l17 81h86l-16 -83q27 43 72.5 70t96.5 27q120 0 167.5 -89t14.5 -206h-374q-3 -22 -3 -43q0 -70 35 -111t103 -41q82 0 140 81l72 -30
q-30 -57 -89 -91t-130 -34q-137 0 -182 91l-15 -76h-87zM254 62q80 0 131.5 85t51.5 177q0 150 -121 150q-52 0 -95 -42.5t-64.5 -101t-21.5 -115.5q0 -153 119 -153zM704 475q-55 0 -98 -42.5t-67 -107.5h279q8 69 -21.5 109.5t-92.5 40.5zM471 632l185 176h146l-231 -176
h-100z" />
    <glyph glyph-name="tbar.alt" horiz-adv-x="298" 
d="M68 462l16 73h75l24 108l96 37l-32 -145h101l-16 -73h-100l-27 -124h100l-16 -73h-99l-57 -265h-88l57 265h-77l16 73h76l27 124h-76z" />
    <glyph glyph-name="lacute.alt" horiz-adv-x="272" 
d="M52 141l130 637h90l-129 -634q-5 -28 -5 -42q0 -35 38 -35l31 4l-13 -75q-22 -6 -52 -6q-43 0 -70 21.5t-27 67.5q0 31 7 62zM180 826l200 141h161l-241 -141h-120z" />
    <glyph glyph-name="lcaron.alt" horiz-adv-x="272" 
d="M295 591l84 187h112l-124 -187h-72zM52 141l130 637h90l-129 -634q-5 -28 -5 -42q0 -35 38 -35l31 4l-13 -75q-22 -6 -52 -6q-43 0 -70 21.5t-27 67.5q0 31 7 62z" />
    <glyph glyph-name="lcommaaccent.alt" horiz-adv-x="272" 
d="M52 141l130 637h90l-129 -634q-5 -28 -5 -42q0 -35 38 -35l31 4l-13 -75q-22 -6 -52 -6q-43 0 -70 21.5t-27 67.5q0 31 7 62zM43 -225l-33 23q38 36 47 80h-28l17 77h83l-16 -72q-14 -65 -70 -108z" />
    <glyph glyph-name="ldot.alt" horiz-adv-x="370" 
d="M52 141l130 637h90l-129 -634q-5 -28 -5 -42q0 -35 38 -35l31 4l-13 -75q-22 -6 -52 -6q-43 0 -70 21.5t-27 67.5q0 31 7 62zM283 433l21 102h96l-21 -102h-96z" />
    <glyph glyph-name="tcommaaccent.alt" horiz-adv-x="298" 
d="M68 462l16 73h75l24 108l96 37l-31 -145h100l-16 -73h-100l-99 -462h-88l99 462h-76zM34 -225l-33 23q38 36 47 80h-28l17 77h83l-16 -72q-14 -65 -70 -108z" />
    <glyph glyph-name="tcaron.alt" horiz-adv-x="298" 
d="M68 462l16 73h75l24 108l96 37l-31 -145h100l-16 -73h-100l-99 -462h-88l99 462h-76zM321 591l84 187h112l-124 -187h-72z" />
    <glyph glyph-name="l.alt" horiz-adv-x="272" 
d="M52 141l130 637h90l-129 -634q-5 -28 -5 -42q0 -35 38 -35l31 4l-13 -75q-22 -6 -52 -6q-43 0 -70 21.5t-27 67.5q0 31 7 62z" />
    <glyph glyph-name="lslash.alt" horiz-adv-x="297" 
d="M40 348l19 86l68 20l66 324h90l-60 -294l79 24l-19 -86l-77 -24l-52 -254q-5 -28 -5 -42q0 -35 38 -35l31 4l-13 -75q-23 -6 -52 -6q-43 0 -70 21.5t-27 67.5q0 31 7 62l46 228z" />
    <glyph glyph-name="t.alt" horiz-adv-x="298" 
d="M68 462l16 73h75l24 108l96 37l-31 -145h100l-16 -73h-100l-99 -462h-88l99 462h-76z" />
    <glyph glyph-name="germandbls.alt01" horiz-adv-x="600" 
d="M25 0l119 574q22 107 91 158.5t155 51.5q88 0 136.5 -49t48.5 -121q0 -67 -43 -126t-107 -83q55 -22 89 -70t34 -108q0 -114 -74.5 -178t-181.5 -64q-55 0 -106 18l27 74q43 -12 84 -12q71 0 114 42t43 114q0 60 -40.5 103.5t-125.5 45.5l16 74q69 -8 124.5 42.5
t55.5 122.5q0 43 -27.5 70.5t-74.5 27.5q-52 0 -93 -35t-54 -98l-119 -574h-91z" />
    <glyph glyph-name="paragraph.alt01" horiz-adv-x="577" 
d="M282 -130l172 804q-45 5 -94 5q-60 0 -94 -13q-38 -15 -62.5 -45t-24.5 -73q0 -59 39.5 -81t109.5 -24l-17 -79q-43 0 -80.5 7.5t-73 25t-56.5 52.5t-21 84q0 70 39 123t101 79q53 22 152 22q104 0 195 -7l-188 -880h-97z" />
    <glyph glyph-name="uni0227.alt" horiz-adv-x="602" 
d="M376 0l18 87q-22 -39 -69 -70t-96 -31q-91 0 -140 58.5t-49 161.5q0 82 33.5 160t98.5 131t145 53q109 0 149 -106l19 91h87l-109 -535h-87zM254 62q80 0 131.5 85t51.5 177q0 150 -121 150q-52 0 -95 -42.5t-64.5 -101t-21.5 -115.5q0 -153 119 -153zM323 653l21 102h96
l-21 -102h-96z" />
    <glyph glyph-name="uni1EA1.alt" horiz-adv-x="602" 
d="M376 0l18 87q-22 -39 -69 -70t-96 -31q-91 0 -140 58.5t-49 161.5q0 82 33.5 160t98.5 131t145 53q109 0 149 -106l19 91h87l-109 -535h-87zM254 62q80 0 131.5 85t51.5 177q0 150 -121 150q-52 0 -95 -42.5t-64.5 -101t-21.5 -115.5q0 -153 119 -153zM158 -194l21 102
h96l-21 -102h-96z" />
    <glyph glyph-name="Nmacron" horiz-adv-x="763" 
d="M35 0l153 755h113l252 -629l122 629h93l-153 -755h-111l-253 640l-124 -640h-92zM290 826l15 75h382l-15 -75h-382z" />
    <glyph glyph-name="nmacron" horiz-adv-x="594" 
d="M30 0l110 535h87l-19 -95q27 42 73 75.5t104 33.5q79 0 116.5 -43t37.5 -115q0 -34 -9 -81l-64 -310h-91l65 319q6 34 6 56q0 95 -86 95q-66 0 -122 -64q-43 -49 -71 -184l-45 -222h-92zM211 680l15 75h362l-15 -75h-362z" />
    <glyph glyph-name="Ndieresis" horiz-adv-x="763" 
d="M35 0l153 755h113l252 -629l122 629h93l-153 -755h-111l-253 640l-124 -640h-92zM330 826l22 105h104l-22 -105h-104zM549 826l22 105h104l-22 -105h-104z" />
    <glyph glyph-name="ndieresis" horiz-adv-x="594" 
d="M30 0l110 535h87l-19 -95q27 42 73 75.5t104 33.5q79 0 116.5 -43t37.5 -115q0 -34 -9 -81l-64 -310h-91l65 319q6 34 6 56q0 95 -86 95q-66 0 -122 -64q-43 -49 -71 -184l-45 -222h-92zM228 653l22 105h99l-22 -105h-99zM437 653l22 105h99l-22 -105h-99z" />
    <glyph glyph-name="Mcircumflex" horiz-adv-x="940" 
d="M35 0l161 755h118l114 -672l378 672h129l-141 -755h-95l119 611l-344 -611h-120l-104 617l-122 -617h-93zM404 801l22 94l186 84l148 -91l-19 -85l-143 84z" />
    <glyph glyph-name="mcircumflex" horiz-adv-x="918" 
d="M30 0l110 535h87l-19 -95q27 43 70.5 76t101.5 33q124 0 145 -118q32 51 81 84.5t108 33.5q149 0 149 -158q0 -34 -9 -81l-64 -310h-91l65 319q6 34 6 56q0 45 -17.5 70t-63.5 25q-61 0 -117 -64q-43 -49 -71 -184l-45 -222h-91l65 319q6 34 6 56q0 45 -17.5 70t-63.5 25
q-61 0 -117 -64q-43 -49 -71 -184l-45 -222h-92zM373 623l22 94l193 110l141 -117l-19 -85l-136 110z" />
    <glyph glyph-name="Ncircumflex" horiz-adv-x="763" 
d="M35 0l153 755h113l252 -629l122 629h93l-153 -755h-111l-253 640l-124 -640h-92zM315 801l22 94l186 84l148 -91l-19 -85l-143 84z" />
    <glyph glyph-name="ncircumflex" horiz-adv-x="594" 
d="M30 0l110 535h87l-19 -95q27 42 73 75.5t104 33.5q79 0 116.5 -43t37.5 -115q0 -34 -9 -81l-64 -310h-91l65 319q6 34 6 56q0 95 -86 95q-66 0 -122 -64q-43 -49 -71 -184l-45 -222h-92zM209 623l22 94l193 110l141 -117l-19 -85l-136 110z" />
    <glyph glyph-name="Gtilde" horiz-adv-x="785" 
d="M557 0l15 101q-34 -50 -92.5 -83t-122.5 -33q-133 0 -207.5 81.5t-74.5 222.5q0 82 26 164.5t73.5 153t123.5 114.5t166 44q106 0 173.5 -53.5t87.5 -146.5l-88 -32q-36 151 -181 151q-64 0 -118.5 -37.5t-89 -95.5t-53.5 -125t-19 -130q0 -101 45 -164t141 -63
q95 0 165.5 70t83.5 161h-162l16 75h249l-76 -375h-81zM367 848l-50 6q3 17 9.5 34t19.5 38.5t37 34.5t56 13q36 0 80.5 -26t72.5 -26q46 0 57 55l50 -5q-3 -16 -10 -34t-20.5 -38.5t-38 -34t-56.5 -13.5q-33 0 -78.5 26t-72.5 26q-20 0 -35.5 -16t-20.5 -40z" />
    <glyph glyph-name="gtilde" horiz-adv-x="603" 
d="M-19 -94l86 26q27 -90 141 -90q45 0 80.5 22t55.5 59q28 52 53 174q-22 -39 -69 -70t-96 -31q-91 0 -140 58.5t-49 161.5q0 82 33 157.5t97.5 126t144.5 50.5q109 0 149 -106l19 91h87l-101 -504q-12 -60 -31 -104.5t-50 -82t-80 -57t-114 -19.5q-85 0 -141 34.5
t-75 103.5zM257 72q53 0 96 40.5t64 97.5t21 114q0 150 -121 150q-52 0 -94.5 -41t-63.5 -97t-21 -111q0 -153 119 -153zM233 639l-50 6q3 17 9.5 34t19.5 38.5t37 34.5t56 13q36 0 80.5 -26t72.5 -26q46 0 57 55l50 -5q-3 -16 -10 -34t-20.5 -38.5t-38 -34t-56.5 -13.5
q-33 0 -78.5 26t-72.5 26q-20 0 -35.5 -16t-20.5 -40z" />
    <glyph glyph-name="Mmacron" horiz-adv-x="940" 
d="M35 0l161 755h118l114 -672l378 672h129l-141 -755h-95l119 611l-344 -611h-120l-104 617l-122 -617h-93zM384 826l15 75h382l-15 -75h-382z" />
    <glyph glyph-name="mmacron" horiz-adv-x="918" 
d="M30 0l110 535h87l-19 -95q27 43 70.5 76t101.5 33q124 0 145 -118q32 51 81 84.5t108 33.5q149 0 149 -158q0 -34 -9 -81l-64 -310h-91l65 319q6 34 6 56q0 45 -17.5 70t-63.5 25q-61 0 -117 -64q-43 -49 -71 -184l-45 -222h-91l65 319q6 34 6 56q0 45 -17.5 70t-63.5 25
q-61 0 -117 -64q-43 -49 -71 -184l-45 -222h-92zM369 680l15 75h362l-15 -75h-362z" />
    <glyph glyph-name="Pmacron" horiz-adv-x="619" 
d="M35 0l155 754q141 3 220 3q90 0 148 -27q43 -20 69.5 -62.5t26.5 -95.5q0 -127 -98 -202q-90 -68 -243 -68h-120l-62 -302h-96zM270 677l-61 -294h115q111 0 172 49q58 47 58 134q0 35 -16 61t-43 37q-39 16 -95 16zM240 826l15 75h382l-15 -75h-382z" />
    <glyph glyph-name="pmacron" horiz-adv-x="601" 
d="M74 -222h-90l156 757h87l-18 -87q23 43 69 72t101 29q89 0 135.5 -59t46.5 -161q0 -60 -18 -120t-51 -110.5t-86.5 -82t-118.5 -31.5q-109 0 -149 104zM285 61q55 0 97.5 42.5t63 100.5t20.5 116q0 153 -119 153q-80 0 -131.5 -85t-51.5 -177q0 -150 121 -150zM218 680
l15 75h362l-15 -75h-362z" />
    <glyph glyph-name="fraction.lnum_pnum" horiz-adv-x="818" 
d="M0 -30l734 816h94l-734 -816h-94z" />
    <glyph glyph-name="dollar.lnum_pnum" horiz-adv-x="655" 
d="M16 217l94 7q0 -78 53 -118.5t130 -40.5q74 0 129.5 36.5t55.5 93.5q0 28 -14.5 52t-41.5 43.5t-53 33.5t-63 29q-177 74 -177 203q0 95 71 151t179 58l31 153h94l-39 -163q63 -17 106.5 -57t58.5 -98l-88 -28q-13 54 -57.5 83.5t-104.5 29.5q-65 0 -109 -31.5t-44 -85.5
q0 -26 11.5 -47t38 -39.5t45.5 -28.5t57 -27q41 -19 71 -36.5t61.5 -44t48.5 -61.5t17 -76q0 -98 -76.5 -156.5t-186.5 -65.5l-29 -148h-94l35 152q-92 15 -152.5 70t-57.5 157z" />
    <glyph glyph-name="percent.lnum_pnum" horiz-adv-x="898" 
d="M98 -15l627 781h99l-626 -781h-100zM221 405q-63 0 -99.5 38.5t-36.5 101.5q0 83 50.5 149.5t132.5 66.5q63 0 99 -38.5t36 -101.5q0 -83 -50 -149.5t-132 -66.5zM229 471q42 0 69 45t27 94q0 38 -16.5 61.5t-49.5 23.5q-42 0 -69 -45.5t-27 -95.5q0 -83 66 -83zM651 -11
q-63 0 -99.5 38.5t-36.5 101.5q0 83 50.5 149.5t132.5 66.5q63 0 99 -38.5t36 -101.5q0 -83 -50 -149.5t-132 -66.5zM659 55q42 0 69 45t27 94q0 38 -16.5 61.5t-49.5 23.5q-42 0 -69 -45.5t-27 -95.5q0 -83 66 -83z" />
    <glyph glyph-name="parenleft.lnum_pnum" horiz-adv-x="340" 
d="M176 -102h-75q-36 133 -36 262q0 326 247 678h78q-235 -372 -235 -714q0 -111 21 -226z" />
    <glyph glyph-name="parenright.lnum_pnum" horiz-adv-x="340" 
d="M164 838h75q36 -133 36 -262q0 -326 -247 -678h-78q235 372 235 714q0 110 -21 226z" />
    <glyph glyph-name="plus.lnum_pnum" horiz-adv-x="574" 
d="M40 295l16 76h199l46 214h85l-46 -214h199l-16 -76h-199l-47 -222h-85l47 222h-199z" />
    <glyph glyph-name="hyphen.lnum_pnum" horiz-adv-x="450" 
d="M55 312l19 87h326l-19 -87h-326z" />
    <glyph glyph-name="slash.lnum_pnum" 
d="M-40 -102l498 940h92l-498 -940h-92z" />
    <glyph glyph-name="zero.lnum_pnum" horiz-adv-x="582" 
d="M239 -15q-93 0 -143.5 68.5t-50.5 185.5q0 80 19 170.5t66.5 182t113.5 135.5q59 38 129 38q93 0 143.5 -68.5t50.5 -185.5q0 -85 -19.5 -176t-68 -181t-117.5 -133q-58 -35 -123 -36zM251 61q62 0 114 77.5t77.5 177.5t25.5 187q0 186 -107 186q-62 0 -114 -77.5
t-77.5 -177.5t-25.5 -187q0 -186 107 -186z" />
    <glyph glyph-name="one.lnum_pnum" horiz-adv-x="409" 
d="M107 0l135 643q-67 -43 -142 -50l11 87q41 5 86 27.5t69 47.5h93l-155 -755h-97z" />
    <glyph glyph-name="two.lnum_pnum" horiz-adv-x="559" 
d="M-40 0l17 87q21 18 95.5 79t115 95.5t95.5 87.5t88 94q58 70 58 141q0 43 -27 72.5t-80 29.5q-52 0 -83.5 -30.5t-45.5 -77.5l-97 22q26 79 88.5 122t148.5 43q97 0 149 -49.5t52 -128.5q0 -103 -102 -220q-93 -105 -324 -280h331l-19 -87h-460z" />
    <glyph glyph-name="three.lnum_pnum" horiz-adv-x="560" 
d="M-5 188l95 7q0 -62 36 -99t105 -37q70 0 116.5 49.5t46.5 125.5q0 63 -48 102t-150 31l17 77q34 -3 72 3t75 21t60.5 44.5t23.5 69.5q0 45 -26.5 76t-79.5 31t-90.5 -33.5t-50.5 -78.5l-90 21q26 80 89 123.5t150 43.5q95 0 144 -49.5t49 -120.5q0 -67 -42 -120.5
t-121 -71.5q61 -24 90 -68.5t29 -99.5q0 -101 -75 -175.5t-191 -74.5q-104 0 -169 52t-65 151z" />
    <glyph glyph-name="four.lnum_pnum" horiz-adv-x="575" 
d="M5 225l15 76l376 454h125l-94 -451l118 1l-16 -80h-118l-47 -225h-89l47 225h-317zM414 663l-292 -360l216 1z" />
    <glyph glyph-name="five.lnum_pnum" horiz-adv-x="581" 
d="M15 182l96 7q0 -56 34.5 -91.5t92.5 -35.5q85 0 142.5 67t57.5 153q0 64 -34.5 97t-88.5 33q-85 0 -152 -67l-76 47l122 361l372 3l-18 -90h-292l-75 -217q59 41 143 41t140.5 -51.5t56.5 -140.5q0 -131 -83.5 -222t-218.5 -91q-96 0 -157.5 54.5t-61.5 142.5z" />
    <glyph glyph-name="six.lnum_pnum" horiz-adv-x="581" 
d="M591 585l-92 -11q-3 50 -30.5 81.5t-76.5 31.5q-45 0 -84.5 -26.5t-68 -70.5t-48.5 -91t-33 -97q32 43 78 67t93 24q82 0 140.5 -57t58.5 -153q0 -75 -30 -142t-92 -111.5t-142 -44.5q-109 0 -164 68.5t-55 186.5q0 77 21.5 164t62.5 169.5t111.5 137t156.5 54.5
q83 0 136 -48.5t58 -131.5zM267 62q73 0 119 63t46 143q0 60 -33 102.5t-94 42.5q-73 0 -119 -63t-46 -143q0 -60 33 -102.5t94 -42.5z" />
    <glyph glyph-name="seven.lnum_pnum" horiz-adv-x="499" 
d="M111 0h-106q242 434 423 668h-326l17 87h435l-17 -80q-255 -368 -426 -675z" />
    <glyph glyph-name="eight.lnum_pnum" horiz-adv-x="589" 
d="M200 418q-74 45 -74 133q0 92 68 153t169 61q84 0 145 -46t61 -131q0 -67 -36.5 -116.5t-100.5 -75.5q96 -54 96 -166q0 -102 -75 -173.5t-186 -71.5q-101 0 -169 51.5t-68 151.5q0 81 46 142.5t124 87.5zM126 199q0 -62 39.5 -101.5t102.5 -39.5q67 0 115.5 52t48.5 122
q0 59 -40 99.5t-102 40.5q-68 0 -116 -51t-48 -122zM217 556q0 -54 33.5 -83.5t91.5 -29.5q56 0 96.5 41t40.5 99q0 50 -32.5 81t-89.5 31t-98.5 -38.5t-41.5 -100.5z" />
    <glyph glyph-name="nine.lnum_pnum" horiz-adv-x="575" 
d="M20 165l91 11q3 -49 34.5 -81.5t81.5 -32.5q59 0 107 48.5t74 111t42 136.5q-33 -44 -78 -68.5t-92 -24.5q-81 0 -139.5 58t-58.5 154q0 117 70 202.5t190 85.5q108 0 163 -69t55 -186q0 -64 -11.5 -132.5t-38 -139.5t-64.5 -126.5t-96 -91t-128 -35.5q-84 0 -140.5 49
t-61.5 131zM304 346q73 0 118 61.5t45 141.5q0 58 -35.5 99t-92.5 41q-73 0 -118 -61.5t-45 -141.5q0 -58 35.5 -99t92.5 -41z" />
    <glyph glyph-name="less.lnum_pnum" 
d="M40 293l15 67l457 222l-20 -93l-351 -166l281 -165l-19 -87z" />
    <glyph glyph-name="equal.lnum_pnum" horiz-adv-x="530" 
d="M91 433l16 78h430l-16 -78h-430zM50 242l16 78h430l-16 -78h-430z" />
    <glyph glyph-name="greater.lnum_pnum" 
d="M467 360l-15 -67l-457 -222l20 93l351 166l-281 165l19 87z" />
    <glyph glyph-name="bracketleft.lnum_pnum" horiz-adv-x="365" 
d="M20 -102l196 940h199l-12 -57l-110 -2l-171 -820l108 -2l-12 -59h-198z" />
    <glyph glyph-name="backslash.lnum_pnum" horiz-adv-x="383" 
d="M207 -102l-107 941h80l108 -941h-81z" />
    <glyph glyph-name="bracketright.lnum_pnum" horiz-adv-x="360" 
d="M-50 -102l12 58l105 2l172 821l-107 2l12 57h196l-195 -940h-195z" />
    <glyph glyph-name="braceleft.lnum_pnum" horiz-adv-x="368" 
d="M73 43l57 222q6 24 7.5 39.5t-8.5 30t-35 15.5l-49 2l15 70l49 2q26 1 42 15.5t21 30t9 39.5l30 192q11 69 51 103t102 34q22 0 40.5 -3t25.5 -5l8 -3l-14 -67q-34 7 -60 7q-25 0 -41 -13t-21 -28t-9 -39l-31 -197q-11 -66 -71 -103q46 -38 28 -103l-63 -239
q-10 -35 1 -57.5t47 -22.5q6 0 51 3l-14 -66q-27 -7 -57 -7q-65 0 -97 41.5t-14 106.5z" />
    <glyph glyph-name="bar.lnum_pnum" horiz-adv-x="266" 
d="M19 -102l183 940h82l-183 -940h-82z" />
    <glyph glyph-name="braceright.lnum_pnum" horiz-adv-x="346" 
d="M-70 -94l14 67q34 -7 60 -7q25 0 41 13t21 28t9 39l34 213q11 66 71 103q-46 38 -28 103l60 223q10 35 -1 57.5t-47 22.5q-6 0 -51 -3l14 66q27 7 57 7q65 0 97 -41.5t14 -106.5l-54 -206q-6 -24 -7.5 -39.5t8.5 -30t35 -15.5l49 -2l-15 -70l-49 -2q-26 -1 -42 -15.5
t-21 -30t-9 -39.5l-33 -208q-11 -69 -51 -103t-102 -34q-22 0 -40.5 2.5t-25.5 5.5z" />
    <glyph glyph-name="asciitilde.lnum_pnum" horiz-adv-x="593" 
d="M64 273l-44 6q13 62 49.5 105.5t97.5 43.5q50 0 143 -36.5t142 -36.5q29 0 50.5 23.5t31.5 47.5l44 -6q-13 -62 -49.5 -105.5t-97.5 -43.5q-50 0 -144.5 36.5t-140.5 36.5q-29 0 -50.5 -23.5t-31.5 -47.5z" />
    <glyph glyph-name="Euro.lnum_pnum" horiz-adv-x="608" 
d="M30 344l17 79h58q17 68 48.5 128t77.5 108.5t109.5 77t136.5 28.5q65 0 113 -26t73 -70l-80 -46q-34 61 -114 61q-95 0 -163.5 -75.5t-99.5 -185.5h260l-17 -79h-258q-2 -17 -2 -48q0 -101 46.5 -164t142.5 -63q36 0 71 16t55 44l68 -55q-36 -43 -90 -66t-112 -23
q-133 0 -207.5 80.5t-74.5 223.5q0 27 3 55h-61z" />
    <glyph glyph-name="guilsinglleft.lnum_pnum" horiz-adv-x="279" 
d="M155 252l-80 170l145 165h89l-142 -170l72 -165h-84z" />
    <glyph glyph-name="endash.lnum_pnum" 
d="M-8 343l16 74h500l-16 -74h-500z" />
    <glyph glyph-name="emdash.lnum_pnum" horiz-adv-x="1000" 
d="M-8 343l16 74h1000l-16 -74h-1000z" />
    <glyph glyph-name="guilsinglright.lnum_pnum" horiz-adv-x="279" 
d="M194 587l80 -170l-145 -165h-89l142 170l-72 165h84z" />
    <glyph glyph-name="sterling.lnum_pnum" horiz-adv-x="547" 
d="M30 0l15 75q4 5 11 14t25.5 37.5t32.5 57.5t27 70t15 79h-93l16 74h86l12 145q8 90 69 152t153 62q72 0 128 -46t60 -118l-87 -18q0 44 -31.5 73.5t-79.5 29.5q-59 0 -88.5 -41t-35.5 -103l-14 -136h118l-16 -74h-108q-3 -42 -14.5 -84t-26.5 -71.5t-29.5 -53.5
t-24.5 -36l-9 -12l327 5l-17 -81h-421z" />
    <glyph glyph-name="yen.lnum_pnum" horiz-adv-x="567" 
d="M80 290l17 77h124l-132 388h104l106 -342l241 342h107l-286 -388h125l-17 -77h-147l-61 -290h-96l61 290h-146z" />
    <glyph glyph-name="brokenbar.lnum_pnum" horiz-adv-x="306" 
d="M25 -102l79 376h88l-80 -376h-87zM143 462l80 376h88l-80 -376h-88z" />
    <glyph glyph-name="section.lnum_pnum" horiz-adv-x="562" 
d="M41 144l85 15q5 -48 40 -74.5t83 -26.5q47 0 79 23t32 61q0 31 -25.5 50.5t-94.5 48.5q-128 54 -128 150q0 49 30 84.5t81 49.5q-52 43 -52 106q0 70 52.5 114t136.5 44q72 0 126 -40.5t60 -111.5l-78 -13q-19 93 -114 93q-36 0 -65.5 -20t-29.5 -55q0 -32 22 -49t79 -44
q85 -39 118 -74t33 -88q0 -51 -29 -86t-82 -49q49 -40 49 -98q0 -77 -58 -123t-150 -46q-78 0 -136 40.5t-64 118.5zM322 469q-15 5 -32 14q-36 -5 -62 -26t-26 -55q0 -8 1.5 -15t3 -12t6.5 -11t7.5 -9.5t10.5 -9t11.5 -8t13.5 -7.5l14 -7t16.5 -7.5t16.5 -7.5l29 -14
q37 5 64 27t27 57q0 48 -101 91z" />
    <glyph glyph-name="guillemotleft.lnum_pnum" horiz-adv-x="455" 
d="M155 252l-80 170l145 165h89l-142 -170l72 -165h-84zM331 252l-80 170l145 165h89l-142 -170l72 -165h-84z" />
    <glyph glyph-name="logicalnot.lnum_pnum" horiz-adv-x="514" 
d="M46 298l17 79h450l-47 -218h-83l30 139h-367z" />
    <glyph glyph-name="minus.lnum_pnum" horiz-adv-x="542" 
d="M45 296l17 81h450l-17 -81h-450z" />
    <glyph glyph-name="guillemotright.lnum_pnum" horiz-adv-x="455" 
d="M194 587l80 -170l-145 -165h-89l142 170l-72 165h84zM370 587l80 -170l-145 -165h-89l142 170l-72 165h84z" />
    <glyph glyph-name="multiply.lnum_pnum" horiz-adv-x="580" 
d="M82 97l-53 65l208 174l-124 164l68 56l123 -164l199 168l52 -65l-201 -169l128 -170l-67 -54l-128 168z" />
    <glyph glyph-name="divide.lnum_pnum" horiz-adv-x="485" 
d="M30 346l16 75h420l-16 -75h-420zM226 498l20 97h97l-20 -97h-97zM159 182l20 97h97l-20 -97h-97z" />
    <glyph glyph-name="integral.lnum_pnum" horiz-adv-x="359" 
d="M-90 -214l19 75q30 -7 58 -7q33 0 48 21t23 57l159 770q16 74 59.5 108.5t103.5 34.5q22 0 40.5 -2.5t25.5 -5.5l8 -3l-19 -73q-30 7 -58 7q-19 0 -32.5 -6.5t-21 -20t-10.5 -24t-7 -29.5l-160 -770q-16 -74 -59 -108.5t-103 -34.5q-22 0 -40.5 2.5t-25.5 5.5z" />
    <glyph glyph-name="notequal.lnum_pnum" horiz-adv-x="567" 
d="M91 453l16 78h259l83 100h84l-82 -100h86l-16 -78h-134l-93 -113h202l-16 -78h-250l-80 -98h-85l80 98h-95l16 78h143l93 113h-211z" />
    <glyph glyph-name="approxequal.lnum_pnum" horiz-adv-x="626" 
d="M100 365l-44 6q13 62 49.5 105.5t97.5 43.5q50 0 143 -36.5t142 -36.5q29 0 50.5 23.5t31.5 47.5l44 -6q-13 -62 -49.5 -105.5t-97.5 -43.5q-50 0 -144.5 36.5t-140.5 36.5q-29 0 -50.5 -23.5t-31.5 -47.5zM64 180l-44 6q13 62 49.5 105.5t97.5 43.5q50 0 143 -36.5
t142 -36.5q29 0 50.5 23.5t31.5 47.5l44 -6q-13 -62 -49.5 -105.5t-97.5 -43.5q-50 0 -144.5 36.5t-140.5 36.5q-29 0 -50.5 -23.5t-31.5 -47.5z" />
    <glyph glyph-name="lessequal.lnum_pnum" horiz-adv-x="507" 
d="M57 343l14 67l436 172l-20 -94l-314 -116l262 -133l-19 -88zM-5 46l15 76h400l-16 -76h-399z" />
    <glyph glyph-name="greaterequal.lnum_pnum" horiz-adv-x="492" 
d="M12 151l20 94l314 116l-262 133l19 88l359 -192l-14 -67zM-10 46l15 76h400l-16 -76h-399z" />
    <glyph glyph-name="infinity.lnum_pnum" horiz-adv-x="817" 
d="M431 384q50 41 73 57.5t61 32.5t78 16q64 0 103.5 -33.5t39.5 -89.5q0 -79 -57.5 -132.5t-141.5 -53.5q-57 0 -94 26t-82 82q-49 -41 -72.5 -58.5t-62 -33.5t-78.5 -16q-61 0 -101.5 35.5t-40.5 92.5q0 79 57 130t141 51q58 0 95.5 -25.5t81.5 -80.5zM469 337
q40 -48 67 -68t63 -20q44 0 75 30.5t31 76.5q0 31 -20.5 49t-53.5 18q-61 0 -162 -86zM372 336q-68 87 -130 87q-44 0 -74.5 -30t-30.5 -76q0 -31 20 -49.5t53 -18.5q36 0 68 19t94 68z" />
    <glyph glyph-name="partialdiff.lnum_pnum" horiz-adv-x="606" 
d="M199 675l-14 76q74 15 128 15q63 0 108.5 -19t71 -49t40 -79t19 -95.5t4.5 -111.5q0 -61 -10 -119.5t-33 -115t-56.5 -98.5t-85 -68t-114.5 -26q-101 0 -159 60t-58 162q0 82 33.5 159.5t99.5 130t148 52.5q90 0 140 -63q0 36 -5 65.5t-16.5 56t-31.5 44t-48.5 28
t-69 9.5t-91.5 -14zM264 59q55 0 99 42.5t66 101t22 115.5q0 70 -32.5 113.5t-96.5 43.5q-80 0 -133.5 -85t-53.5 -177q0 -70 32.5 -112t96.5 -42z" />
    <glyph glyph-name="Omega.lnum_pnum" horiz-adv-x="802" 
d="M0 0l16 76l167 -3q-102 98 -102 255q0 107 48.5 208.5t131.5 163.5q88 65 206 65q131 0 205.5 -85t74.5 -226q0 -109 -57.5 -217t-151.5 -164l153 3l-16 -76h-266l15 73q87 39 154 151t67 225q0 102 -47 168.5t-141 66.5q-83 0 -147.5 -55.5t-96 -138.5t-31.5 -175
q0 -154 85 -239l-16 -76h-251z" />
    <glyph glyph-name="summation.lnum_pnum" horiz-adv-x="566" 
d="M-30 0l17 84l287 306l-142 290l15 75h469l-17 -83l-360 2l146 -289l-276 -304l369 3l-17 -84h-491z" />
    <glyph glyph-name="product.lnum_pnum" horiz-adv-x="654" 
d="M60 0l139 674h-69l17 81h562l-17 -81h-56l-140 -674h-93l140 674h-246l-139 -674h-98z" />
    <glyph glyph-name="radical.lnum_pnum" horiz-adv-x="577" 
d="M126 0l-76 389h95l51 -282l400 732h101l-468 -839h-103z" />
    <glyph glyph-name="space.lnum_pnum" horiz-adv-x="235" 
 />
    <glyph glyph-name="cent.lnum_pnum" horiz-adv-x="514" 
d="M143 -162l36 156q-68 19 -103.5 73.5t-35.5 137.5q0 76 30.5 149t90.5 127t135 65l30 156h92l-37 -158q104 -19 138 -126l-84 -35q-11 44 -37 67t-74 23q-77 0 -133.5 -86t-56.5 -176q0 -148 125 -148q71 0 125 76l72 -33q-63 -115 -193 -120l-28 -148h-92z" />
    <glyph glyph-name="acute.cap" 
d="M149 826l200 141h161l-241 -141h-120z" />
    <glyph glyph-name="grave.cap" 
d="M108 967h133l146 -141h-112z" />
    <glyph glyph-name="circumflex.cap" 
d="M150 801l22 94l186 84l148 -91l-19 -85l-143 84z" />
    <glyph glyph-name="dieresis.cap" 
d="M206 826l22 105h104l-22 -105h-104zM425 826l22 105h104l-22 -105h-104z" />
    <glyph glyph-name="tilde.cap" 
d="M168 848l-50 6q3 17 9.5 34t19.5 38.5t37 34.5t56 13q36 0 80.5 -26t72.5 -26q46 0 57 55l50 -5q-3 -16 -10 -34t-20.5 -38.5t-38 -34t-56.5 -13.5q-33 0 -78.5 26t-72.5 26q-20 0 -35.5 -16t-20.5 -40z" />
    <glyph glyph-name="ring.cap" 
d="M262 880q0 49 36.5 85.5t88.5 36.5q46 0 79.5 -27.5t33.5 -76.5t-36.5 -85.5t-88.5 -36.5q-46 0 -79.5 27.5t-33.5 76.5zM376 831q25 0 44 18t19 45q0 21 -13.5 37t-39.5 16q-25 0 -44 -18t-19 -45q0 -21 13.5 -37t39.5 -16z" />
    <glyph glyph-name="caron.cap" 
d="M144 914l19 85l141 -105l196 112l-22 -94l-188 -110z" />
    <glyph glyph-name="macron.cap" 
d="M89 826l15 75h382l-15 -75h-382z" />
    <glyph glyph-name="dotaccent.cap" horiz-adv-x="277" 
d="M161 821l21 102h96l-21 -102h-96z" />
    <glyph glyph-name="breve.cap" 
d="M140 960l63 14q-1 -39 28 -62.5t74 -23.5q47 0 84 22.5t52 65.5l59 -16q-36 -142 -200 -142q-70 0 -118 34.5t-42 107.5z" />
    <glyph glyph-name="hungarumlaut.cap" horiz-adv-x="737" 
d="M209 826l145 141h136l-186 -141h-95zM431 826l145 141h136l-186 -141h-95z" />
    <glyph glyph-name="commaaccent.cap" horiz-adv-x="275" 
d="M110 115l-33 23q38 36 47 80h-28l17 77h83l-16 -72q-14 -65 -70 -108z" />
    <glyph glyph-name="cedilla.cap" 
d="M162 -184l63 18q15 -21 44 -21q22 0 39.5 13.5t17.5 35.5q0 35 -40 35q-33 0 -57 -20l-40 20l64 117l51 -7l-45 -81q24 15 57 15q32 0 53.5 -19t21.5 -52q0 -47 -37.5 -74.5t-87.5 -27.5q-69 0 -104 48z" />
    <glyph glyph-name="ogonek.cap" 
d="M320 -160l21 -51q-33 -21 -77 -21q-47 0 -81.5 24t-34.5 66q0 87 163 149l71 -7q-81 -34 -117 -63t-36 -65q0 -20 15 -30t37 -10q21 0 39 8z" />
    <glyph glyph-name="acute.i" 
d="M159 632l145 176h136l-186 -176h-95z" />
    <glyph glyph-name="grave.i" 
d="M270 632l-122 176h123l86 -176h-87z" />
    <glyph glyph-name="circumflex.i" 
d="M90 618l22 99l162 110l112 -117l-19 -90l-107 110z" />
    <glyph glyph-name="dieresis.i" 
d="M141 653l22 105h99l-22 -105h-99zM312 653l22 105h99l-22 -105h-99z" />
    <glyph glyph-name="tilde.i" 
d="M133 639l-47 6q6 44 31.5 81t72.5 37q33 0 77 -26t61 -26q35 0 47 57l47 -5q-6 -43 -33 -80.5t-74 -37.5q-29 0 -74.5 26t-61.5 26q-17 0 -29 -16.5t-17 -41.5z" />
    <glyph glyph-name="macron.i" 
d="M89 680l15 75h322l-15 -75h-322z" />
    <glyph glyph-name="breve.i" 
d="M111 799l68 15q-11 -99 67 -99q86 0 111 99l54 -15q-34 -152 -170 -152q-65 0 -102.5 42.5t-27.5 109.5z" />
    <glyph glyph-name="breve.i.cap" 
d="M160 960l68 15q-5 -42 14.5 -65.5t62.5 -23.5q44 0 77 22t44 67l54 -15q-16 -71 -63 -106.5t-117 -35.5q-68 0 -109 38.5t-31 103.5z" />
    <glyph glyph-name="acute.i.cap" 
d="M159 826l145 141h131l-181 -141h-95z" />
    <glyph glyph-name="grave.i.cap" 
d="M270 826l-117 141h118l86 -141h-87z" />
    <glyph glyph-name="circumflex.i.cap" 
d="M90 805l22 94l162 80l112 -82l-19 -90l-107 80z" />
    <glyph glyph-name="dieresis.i.cap" 
d="M207 826l22 105h99l-22 -105h-99zM378 826l22 105h99l-22 -105h-99z" />
    <glyph glyph-name="tilde.i.cap" 
d="M133 850l-47 6q6 44 31.5 81t72.5 37q33 0 77 -26t61 -26q35 0 47 57l47 -5q-6 -43 -33 -80.5t-74 -37.5q-29 0 -74.5 26t-61.5 26q-17 0 -29 -16.5t-17 -41.5z" />
    <glyph glyph-name="macron.i.cap" 
d="M89 826l15 75h322l-15 -75h-322z" />
    <glyph glyph-name="caron.alt" 
d="M104 591l84 187h112l-124 -187h-72z" />
    <glyph glyph-name="commaaccent.alt" horiz-adv-x="267" 
d="M252 643l16 72q14 61 70 105l30 -20q-40 -38 -49 -80h28l-17 -77h-78z" />
    <glyph glyph-name="dotbelow" horiz-adv-x="269" 
d="M133 -194l21 102h96l-21 -102h-96z" />
    <glyph glyph-name="dotbelow.cap" horiz-adv-x="277" 
d="M133 -194l21 102h96l-21 -102h-96z" />
    <glyph glyph-name="apple" horiz-adv-x="888" 
d="M50 -53l17 82h684l-17 -82h-684zM393 57q-5 8 -43 65t-74.5 112t-56.5 87q-27 44 -41.5 70t-27.5 64t-13 72q0 99 71.5 168t174.5 69q32 0 59 -9t42.5 -22t26.5 -26.5t15 -22.5l4 -9q2 4 6 9.5t19.5 21t33.5 27t49 21t66 9.5q70 0 117 -38t47 -110q0 -34 -11.5 -68
t-24.5 -57.5t-45 -59.5t-48.5 -52t-58.5 -57q-33 -31 -94 -87.5t-121 -111t-72 -65.5zM541 560h-80q10 47 -10.5 87t-78.5 40q-59 0 -99.5 -45.5t-40.5 -107.5q0 -69 49 -149q47 -77 132 -204q104 93 224 207q41 38 63.5 62t48 68.5t25.5 83.5q0 42 -25 63.5t-65 21.5
q-55 0 -94 -40.5t-49 -86.5z" />
    </font>
</defs>
</svg>
